<?xml version="1.0" encoding="UTF-8" standalone="no"?>
<!DOCTYPE svg PUBLIC "-//W3C//DTD SVG 1.1//EN" "http://www.w3.org/Graphics/SVG/1.1/DTD/svg11.dtd">
<svg xmlns="http://www.w3.org/2000/svg" version="1.1" viewBox="0 0 370 370">
<g stroke-width="2.00" fill="none" stroke-linecap="butt">
<path stroke="#464444" stroke-opacity="0.902" vector-effect="non-scaling-stroke" d="
  M 157.79 59.75
  Q 144.94 59.98 132.09 59.51
  Q 131.70 59.50 131.47 59.31
  Q 131.21 59.08 131.04 58.75"
/>
<path stroke="#4c4a49" stroke-opacity="0.941" vector-effect="non-scaling-stroke" d="
  M 197.54 59.25
  Q 192.16 59.86 186.75 59.75
  Q 178.52 59.59 170.29 59.47"
/>
<path stroke="#464444" stroke-opacity="0.902" vector-effect="non-scaling-stroke" d="
  M 237.21 59.50
  Q 223.50 60.13 209.79 59.50"
/>
<path stroke="#8daed4" vector-effect="non-scaling-stroke" d="
  M 183.75 146.71
  L 182.86 146.76"
/>
<path stroke="#82a3c9" vector-effect="non-scaling-stroke" d="
  M 182.86 146.76
  L 126.69 146.75
  A 0.45 0.44 86.1 0 0 126.25 147.26
  L 129.01 168.16
  A 0.97 0.94 85.9 0 0 129.96 169.01
  Q 158.25 168.82 184.75 169.25
  Q 185.14 169.26 185.00 169.71"
/>
<path stroke="#8daed4" vector-effect="non-scaling-stroke" d="
  M 185.00 169.71
  Q 184.42 169.68 184.00 170.04"
/>
<path stroke="#86a7ce" vector-effect="non-scaling-stroke" d="
  M 184.00 170.04
  L 134.96 190.75"
/>
<path stroke="#82a3c9" vector-effect="non-scaling-stroke" d="
  M 134.96 190.75
  Q 132.99 191.08 131.40 192.20
  A 0.92 0.85 71.4 0 0 131.04 193.00
  L 132.91 213.13
  A 0.96 0.95 87.4 0 0 133.86 214.00
  L 183.25 214.21"
/>
<path stroke="#8daed4" vector-effect="non-scaling-stroke" d="
  M 183.25 214.21
  L 184.00 214.29"
/>
<path stroke="#2b7fc2" vector-effect="non-scaling-stroke" d="
  M 184.00 214.29
  Q 182.93 232.14 183.79 250.00"
/>
<path stroke="#8daed4" vector-effect="non-scaling-stroke" d="
  M 183.79 250.00
  L 183.71 250.25"
/>
<path stroke="#82a3c9" vector-effect="non-scaling-stroke" d="
  M 183.71 250.25
  L 159.79 244.31
  A 0.74 0.70 5.0 0 1 159.25 243.70
  L 157.46 227.00
  A 0.86 0.86 87.4 0 0 156.62 226.23
  L 135.29 226.08
  A 0.83 0.82 -2.2 0 0 134.45 226.97
  L 137.56 260.11
  A 1.06 1.04 -84.7 0 0 138.30 261.02
  L 183.00 274.21"
/>
<path stroke="#8daed4" vector-effect="non-scaling-stroke" d="
  M 183.00 274.21
  L 183.50 274.29"
/>
<path stroke="#2b7fc2" vector-effect="non-scaling-stroke" d="
  M 183.50 274.29
  L 183.75 296.89
  A 0.39 0.38 -7.7 0 0 184.24 297.25
  L 242.70 281.67
  A 1.29 1.28 -4.9 0 0 243.66 280.54
  L 257.12 125.33
  A 1.01 1.01 2.9 0 0 256.13 124.24
  Q 220.37 123.63 184.12 124.25
  A 0.44 0.42 -0.7 0 0 183.69 124.67
  L 183.75 146.71"
/>
<path stroke="#98cbe8" vector-effect="non-scaling-stroke" d="
  M 183.50 274.29
  Q 185.28 274.20 186.99 273.70
  Q 206.99 267.85 228.80 261.47
  A 1.74 1.74 -5.4 0 0 230.05 259.96
  Q 230.80 251.74 231.51 242.98
  Q 233.56 217.62 236.14 192.81
  A 0.73 0.72 -87.1 0 0 235.42 192.01
  L 185.25 192.21"
/>
<path stroke="#8dc0dd" vector-effect="non-scaling-stroke" d="
  M 185.25 192.21
  L 185.00 191.79"
/>
<path stroke="#98cbe8" vector-effect="non-scaling-stroke" d="
  M 185.00 191.79
  L 236.87 169.48
  A 2.06 1.98 81.9 0 0 238.05 167.84
  L 240.33 147.19
  A 0.40 0.39 -87.3 0 0 239.94 146.75
  L 183.75 146.71"
/>
<path stroke="#efefef" vector-effect="non-scaling-stroke" d="
  M 185.00 191.79
  Q 184.52 192.07 184.00 191.96"
/>
<path stroke="#f3f3f4" vector-effect="non-scaling-stroke" d="
  M 184.00 191.96
  Q 182.31 192.07 182.72 190.95
  Q 183.92 187.71 183.75 184.25
  Q 183.62 181.65 184.00 170.04"
/>
<path stroke="#efefef" vector-effect="non-scaling-stroke" d="
  M 185.25 192.21
  Q 184.11 192.66 183.54 193.62
  A 1.47 1.05 62.6 0 0 183.41 194.55
  Q 183.78 196.76 183.50 200.00
  Q 183.22 203.24 183.72 210.76
  Q 183.74 211.06 183.48 211.66
  L 182.65 213.58
  A 0.40 0.27 20.4 0 0 182.94 213.98
  Q 183.12 214.05 183.25 214.21"
/>
<path stroke="#efefef" vector-effect="non-scaling-stroke" d="
  M 183.00 274.21
  Q 183.11 273.40 183.60 272.79
  A 1.40 1.07 -32.5 0 0 183.91 271.94
  Q 183.25 261.10 183.71 250.25"
/>
<path stroke="#98cbe8" vector-effect="non-scaling-stroke" d="
  M 183.79 250.00
  Q 196.47 247.08 208.78 242.91
  A 0.75 0.74 -7.6 0 0 209.29 242.25
  L 210.84 214.88
  A 0.60 0.60 -88.6 0 0 210.24 214.25
  L 184.00 214.29"
/>
<path stroke="#efefef" vector-effect="non-scaling-stroke" d="
  M 182.86 146.76
  Q 183.91 156.59 183.56 166.44
  A 2.20 1.06 -88.2 0 0 184.56 168.69
  Q 186.72 168.71 185.00 169.71"
/>
<path stroke="#e8e8e8" vector-effect="non-scaling-stroke" d="
  M 184.00 191.96
  Q 155.77 192.78 136.00 192.00
  Q 135.09 191.96 134.96 190.75"
/>
</g>
<path fill="#727271" fill-opacity="0.804" d="
  M 157.79 59.75
  Q 144.94 59.98 132.09 59.51
  Q 131.70 59.50 131.47 59.31
  Q 131.21 59.08 131.04 58.75
  Q 130.18 57.01 132.31 57.05
  Q 144.03 57.27 155.75 56.95
  Q 158.42 56.88 157.79 59.75
  Z"
/>
<path fill="#7a7a78" fill-opacity="0.882" d="
  M 197.54 59.25
  Q 192.16 59.86 186.75 59.75
  Q 178.52 59.59 170.29 59.47
  Q 169.68 57.21 171.44 57.19
  Q 184.09 57.03 196.75 57.24
  A 0.96 0.74 -9.6 0 1 197.54 57.66
  Q 197.88 58.34 197.54 59.25
  Z"
/>
<path fill="#727271" fill-opacity="0.804" d="
  M 237.21 59.50
  Q 223.50 60.13 209.79 59.50
  Q 209.51 58.63 209.67 57.80
  A 0.67 0.62 4.7 0 1 210.31 57.30
  Q 221.45 56.91 235.56 57.31
  Q 237.49 57.37 237.21 59.50
  Z"
/>
<path fill="#231f20" d="
  M 131.04 58.75
  Q 131.21 59.08 131.47 59.31
  Q 131.70 59.50 132.09 59.51
  Q 144.94 59.98 157.79 59.75
  Q 158.76 65.29 157.66 70.82
  A 0.64 0.61 -84.7 0 1 157.07 71.34
  L 142.91 71.49
  A 0.87 0.78 -1.0 0 0 142.05 72.29
  L 142.27 81.59
  A 0.91 0.86 -0.3 0 0 143.18 82.44
  L 156.88 82.50
  A 1.14 1.12 89.5 0 1 158.00 83.62
  L 158.09 92.29
  A 0.94 0.93 89.4 0 1 157.16 93.25
  L 130.94 93.25
  A 0.94 0.94 0.0 0 1 130.00 92.31
  L 130.00 61.00
  A 1.47 1.08 -31.4 0 1 130.35 60.15
  Q 130.87 59.54 131.04 58.75
  Z"
/>
<path fill="#231f20" d="
  M 170.29 59.47
  Q 178.52 59.59 186.75 59.75
  Q 192.16 59.86 197.54 59.25
  Q 198.52 65.10 197.76 70.89
  A 0.70 0.70 -86.2 0 1 197.07 71.50
  L 188.92 71.50
  Q 187.09 71.50 188.40 72.77
  L 196.80 80.95
  Q 198.00 82.11 198.00 83.73
  L 198.00 92.16
  A 1.09 1.09 0.0 0 1 196.91 93.25
  L 171.12 93.25
  A 0.90 0.88 89.7 0 1 170.24 92.36
  L 170.16 83.11
  A 0.54 0.53 88.9 0 1 170.68 82.56
  L 178.37 82.49
  Q 181.84 82.46 179.20 80.07
  L 170.90 72.56
  A 1.22 1.17 -70.2 0 1 170.52 71.70
  L 170.29 59.47
  Z"
/>
<path fill="#231f20" d="
  M 237.21 59.50
  Q 238.40 65.08 237.80 70.34
  A 1.36 1.32 3.1 0 1 236.47 71.50
  L 228.31 71.56
  Q 226.57 71.58 227.75 72.75
  Q 231.24 76.22 234.99 79.40
  Q 236.88 81.00 237.48 82.89
  Q 238.94 87.56 237.63 92.04
  A 1.69 1.69 -81.7 0 1 236.01 93.25
  L 210.29 93.25
  A 0.72 0.71 0.0 0 1 209.57 92.54
  L 209.50 83.61
  A 1.15 1.11 -0.5 0 1 210.64 82.49
  L 218.86 82.45
  Q 220.49 82.44 219.37 81.29
  L 211.38 73.15
  Q 209.56 71.29 209.59 69.48
  L 209.79 59.50
  Q 223.50 60.13 237.21 59.50
  Z"
/>
<path fill="#2062ae" d="
  M 94.48 109.19
  L 273.00 109.25
  A 1.31 1.30 2.6 0 1 274.30 110.67
  L 257.52 292.26
  A 1.69 1.69 85.3 0 1 256.27 293.74
  Q 222.22 302.83 188.22 312.05
  Q 188.12 312.08 186.81 312.52
  Q 184.25 313.38 180.81 312.44
  Q 146.17 302.97 110.81 293.65
  A 0.81 0.80 5.3 0 1 110.22 292.95
  L 93.42 110.35
  A 1.06 1.06 -2.7 0 1 94.48 109.19
  Z
  M 183.75 146.71
  L 182.86 146.76
  L 126.69 146.75
  A 0.45 0.44 86.1 0 0 126.25 147.26
  L 129.01 168.16
  A 0.97 0.94 85.9 0 0 129.96 169.01
  Q 158.25 168.82 184.75 169.25
  Q 185.14 169.26 185.00 169.71
  Q 184.42 169.68 184.00 170.04
  L 134.96 190.75
  Q 132.99 191.08 131.40 192.20
  A 0.92 0.85 71.4 0 0 131.04 193.00
  L 132.91 213.13
  A 0.96 0.95 87.4 0 0 133.86 214.00
  L 183.25 214.21
  L 184.00 214.29
  Q 182.93 232.14 183.79 250.00
  L 183.71 250.25
  L 159.79 244.31
  A 0.74 0.70 5.0 0 1 159.25 243.70
  L 157.46 227.00
  A 0.86 0.86 87.4 0 0 156.62 226.23
  L 135.29 226.08
  A 0.83 0.82 -2.2 0 0 134.45 226.97
  L 137.56 260.11
  A 1.06 1.04 -84.7 0 0 138.30 261.02
  L 183.00 274.21
  L 183.50 274.29
  L 183.75 296.89
  A 0.39 0.38 -7.7 0 0 184.24 297.25
  L 242.70 281.67
  A 1.29 1.28 -4.9 0 0 243.66 280.54
  L 257.12 125.33
  A 1.01 1.01 2.9 0 0 256.13 124.24
  Q 220.37 123.63 184.12 124.25
  A 0.44 0.42 -0.7 0 0 183.69 124.67
  L 183.75 146.71
  Z"
/>
<path fill="#359cd6" d="
  M 183.50 274.29
  Q 185.28 274.20 186.99 273.70
  Q 206.99 267.85 228.80 261.47
  A 1.74 1.74 -5.4 0 0 230.05 259.96
  Q 230.80 251.74 231.51 242.98
  Q 233.56 217.62 236.14 192.81
  A 0.73 0.72 -87.1 0 0 235.42 192.01
  L 185.25 192.21
  L 185.00 191.79
  L 236.87 169.48
  A 2.06 1.98 81.9 0 0 238.05 167.84
  L 240.33 147.19
  A 0.40 0.39 -87.3 0 0 239.94 146.75
  L 183.75 146.71
  L 183.69 124.67
  A 0.44 0.42 -0.7 0 1 184.12 124.25
  Q 220.37 123.63 256.13 124.24
  A 1.01 1.01 2.9 0 1 257.12 125.33
  L 243.66 280.54
  A 1.29 1.28 -4.9 0 1 242.70 281.67
  L 184.24 297.25
  A 0.39 0.38 -7.7 0 1 183.75 296.89
  L 183.50 274.29
  Z"
/>
<path fill="#e4e4e3" d="
  M 182.86 146.76
  Q 183.91 156.59 183.56 166.44
  A 2.20 1.06 -88.2 0 0 184.56 168.69
  Q 186.72 168.71 185.00 169.71
  Q 185.14 169.26 184.75 169.25
  Q 158.25 168.82 129.96 169.01
  A 0.97 0.94 85.9 0 1 129.01 168.16
  L 126.25 147.26
  A 0.45 0.44 86.1 0 1 126.69 146.75
  L 182.86 146.76
  Z"
/>
<path fill="#fafafa" d="
  M 182.86 146.76
  L 183.75 146.71
  L 239.94 146.75
  A 0.40 0.39 -87.3 0 1 240.33 147.19
  L 238.05 167.84
  A 2.06 1.98 81.9 0 1 236.87 169.48
  L 185.00 191.79
  Q 184.52 192.07 184.00 191.96
  Q 182.31 192.07 182.72 190.95
  Q 183.92 187.71 183.75 184.25
  Q 183.62 181.65 184.00 170.04
  Q 184.42 169.68 185.00 169.71
  Q 186.72 168.71 184.56 168.69
  A 2.20 1.06 -88.2 0 1 183.56 166.44
  Q 183.91 156.59 182.86 146.76
  Z"
/>
<path fill="#ebeced" d="
  M 184.00 170.04
  Q 183.62 181.65 183.75 184.25
  Q 183.92 187.71 182.72 190.95
  Q 182.31 192.07 184.00 191.96
  Q 155.77 192.78 136.00 192.00
  Q 135.09 191.96 134.96 190.75
  L 184.00 170.04
  Z"
/>
<path fill="#e4e4e3" d="
  M 134.96 190.75
  Q 135.09 191.96 136.00 192.00
  Q 155.77 192.78 184.00 191.96
  Q 184.52 192.07 185.00 191.79
  L 185.25 192.21
  Q 184.11 192.66 183.54 193.62
  A 1.47 1.05 62.6 0 0 183.41 194.55
  Q 183.78 196.76 183.50 200.00
  Q 183.22 203.24 183.72 210.76
  Q 183.74 211.06 183.48 211.66
  L 182.65 213.58
  A 0.40 0.27 20.4 0 0 182.94 213.98
  Q 183.12 214.05 183.25 214.21
  L 133.86 214.00
  A 0.96 0.95 87.4 0 1 132.91 213.13
  L 131.04 193.00
  A 0.92 0.85 71.4 0 1 131.40 192.20
  Q 132.99 191.08 134.96 190.75
  Z"
/>
<path fill="#fafafa" d="
  M 183.50 274.29
  L 183.00 274.21
  Q 183.11 273.40 183.60 272.79
  A 1.40 1.07 -32.5 0 0 183.91 271.94
  Q 183.25 261.10 183.71 250.25
  L 183.79 250.00
  Q 196.47 247.08 208.78 242.91
  A 0.75 0.74 -7.6 0 0 209.29 242.25
  L 210.84 214.88
  A 0.60 0.60 -88.6 0 0 210.24 214.25
  L 184.00 214.29
  L 183.25 214.21
  Q 183.12 214.05 182.94 213.98
  A 0.40 0.27 20.4 0 1 182.65 213.58
  L 183.48 211.66
  Q 183.74 211.06 183.72 210.76
  Q 183.22 203.24 183.50 200.00
  Q 183.78 196.76 183.41 194.55
  A 1.47 1.05 62.6 0 1 183.54 193.62
  Q 184.11 192.66 185.25 192.21
  L 235.42 192.01
  A 0.73 0.72 -87.1 0 1 236.14 192.81
  Q 233.56 217.62 231.51 242.98
  Q 230.80 251.74 230.05 259.96
  A 1.74 1.74 -5.4 0 1 228.80 261.47
  Q 206.99 267.85 186.99 273.70
  Q 185.28 274.20 183.50 274.29
  Z"
/>
<path fill="#359cd6" d="
  M 184.00 214.29
  L 210.24 214.25
  A 0.60 0.60 -88.6 0 1 210.84 214.88
  L 209.29 242.25
  A 0.75 0.74 -7.6 0 1 208.78 242.91
  Q 196.47 247.08 183.79 250.00
  Q 182.93 232.14 184.00 214.29
  Z"
/>
<path fill="#e4e4e3" d="
  M 183.71 250.25
  Q 183.25 261.10 183.91 271.94
  A 1.40 1.07 -32.5 0 1 183.60 272.79
  Q 183.11 273.40 183.00 274.21
  L 138.30 261.02
  A 1.06 1.04 -84.7 0 1 137.56 260.11
  L 134.45 226.97
  A 0.83 0.82 -2.2 0 1 135.29 226.08
  L 156.62 226.23
  A 0.86 0.86 87.4 0 1 157.46 227.00
  L 159.25 243.70
  A 0.74 0.70 5.0 0 0 159.79 244.31
  L 183.71 250.25
  Z"
/>
</svg>
