<?xml version="1.0" encoding="UTF-8" standalone="no"?>
<!DOCTYPE svg PUBLIC "-//W3C//DTD SVG 1.1//EN" "http://www.w3.org/Graphics/SVG/1.1/DTD/svg11.dtd">
<svg xmlns="http://www.w3.org/2000/svg" version="1.1" viewBox="0 0 370 370">
<g stroke-width="2.00" fill="none" stroke-linecap="butt">
<path stroke="#e6cc5f" vector-effect="non-scaling-stroke" d="
  M 286.54 72.50
  Q 286.67 70.95 285.73 70.10
  Q 285.07 69.49 283.58 69.53
  Q 266.03 70.00 248.49 69.72
  Q 236.41 69.53 228.50 69.59
  Q 186.38 69.95 144.26 69.59
  Q 136.58 69.53 124.25 69.81
  Q 104.53 70.26 84.04 69.45
  A 1.25 1.24 -83.9 0 0 82.77 70.48
  L 82.04 74.50"
/>
<path stroke="#e7c735" vector-effect="non-scaling-stroke" d="
  M 256.22 217.33
  Q 262.11 152.15 267.64 87.49
  A 1.37 1.37 -87.5 0 0 266.28 86.00
  L 184.25 86.25
  A 0.25 0.25 0.0 0 0 184.00 86.50
  Q 184.05 118.11 183.86 149.73
  Q 183.83 154.81 183.97 165.64
  Q 184.06 173.61 183.94 181.57
  Q 183.72 194.76 183.79 201.55
  Q 184.16 242.62 184.00 283.48
  A 0.55 0.55 82.0 0 0 184.70 284.01
  L 250.77 265.63
  A 1.52 1.52 -5.0 0 0 251.88 264.31
  Q 254.15 240.17 256.22 217.33"
/>
<path stroke="#6a5c18" vector-effect="non-scaling-stroke" d="
  M 151.69 136.46
  L 151.51 222.37
  A 0.76 0.75 -85.4 0 1 150.65 223.11
  L 138.00 221.21
  A 0.94 0.93 -88.4 0 1 137.21 220.37
  L 135.40 201.33
  A 0.72 0.71 87.4 0 0 134.69 200.68
  L 110.32 200.81
  A 0.47 0.44 -2.8 0 0 109.85 201.30
  L 113.51 240.44
  A 0.69 0.66 3.5 0 0 114.06 241.04
  L 176.71 253.49
  A 0.45 0.45 5.8 0 0 177.25 253.05
  L 177.25 110.91
  A 0.91 0.91 0.0 0 0 176.34 110.00
  L 121.15 110.00
  A 0.95 0.94 87.5 0 0 120.21 111.03
  L 122.39 135.07
  A 0.54 0.54 87.7 0 0 122.93 135.57
  L 150.96 135.74
  A 0.73 0.72 0.0 0 1 151.69 136.46"
/>
<path stroke="#a49244" vector-effect="non-scaling-stroke" d="
  M 217.83 161.44
  L 217.99 136.33
  A 0.59 0.57 -89.5 0 1 218.56 135.75
  L 255.65 135.75
  A 0.57 0.56 2.2 0 0 256.22 135.23
  L 258.40 110.56
  A 0.47 0.44 2.8 0 0 257.93 110.07
  L 192.11 110.00
  A 0.86 0.85 0.0 0 0 191.25 110.85
  L 191.31 187.19
  A 0.50 0.50 0.0 0 0 191.81 187.69
  L 225.43 187.81
  A 0.47 0.46 2.8 0 1 225.90 188.32
  L 223.06 219.97
  A 1.76 1.70 -2.8 0 1 221.63 221.49
  L 192.00 226.86
  A 0.93 0.92 84.8 0 0 191.25 227.77
  L 191.25 253.03
  A 0.52 0.51 -6.3 0 0 191.88 253.53
  L 246.03 241.21
  A 1.07 1.07 86.3 0 0 246.86 240.26
  L 253.82 163.22
  A 0.93 0.91 2.8 0 0 252.90 162.23
  L 218.31 161.95
  A 0.50 0.48 -89.4 0 1 217.83 161.44"
/>
</g>
<path fill="#dde1de" fill-opacity="0.980" d="
  M 66.50 64.29
  Q 66.93 67.79 67.00 64.29
  L 304.27 64.19
  A 0.73 0.73 0.6 0 1 305.00 64.92
  Q 305.00 66.25 305.00 68.00
  Q 304.75 185.87 304.75 304.23
  A 0.52 0.52 0.0 0 1 304.23 304.75
  Q 185.13 305.37 65.75 304.75
  A 0.50 0.50 0.0 0 1 65.25 304.25
  Q 64.90 185.00 65.00 65.75
  Q 65.00 63.65 66.50 64.29
  Z
  M 303.25 67.14
  A 0.34 0.34 0.0 0 0 302.91 66.80
  L 66.31 66.80
  A 0.34 0.34 0.0 0 0 65.97 67.14
  L 65.97 303.76
  A 0.34 0.34 0.0 0 0 66.31 304.10
  L 302.91 304.10
  A 0.34 0.34 0.0 0 0 303.25 303.76
  L 303.25 67.14
  Z"
/>
<path fill="#dde1de" fill-opacity="0.980" d="
  M 66.50 64.29
  Q 66.75 64.21 67.00 64.29
  Q 66.93 67.79 66.50 64.29
  Z"
/>
<path fill="#f9e18f" fill-opacity="0.996" d="
  M 286.54 72.50
  Q 286.67 70.95 285.73 70.10
  Q 285.07 69.49 283.58 69.53
  Q 266.03 70.00 248.49 69.72
  Q 236.41 69.53 228.50 69.59
  Q 186.38 69.95 144.26 69.59
  Q 136.58 69.53 124.25 69.81
  Q 104.53 70.26 84.04 69.45
  A 1.25 1.24 -83.9 0 0 82.77 70.48
  L 82.04 74.50
  Q 81.04 71.76 82.05 69.21
  A 0.79 0.74 9.3 0 1 82.76 68.74
  Q 99.90 68.45 126.56 68.44
  Q 223.77 68.41 285.32 68.69
  A 1.10 0.94 -16.4 0 1 286.14 69.06
  Q 287.31 70.54 286.54 72.50
  Z"
/>
<path fill="#d3b72f" d="
  M 286.54 72.50
  L 268.32 277.47
  A 2.22 2.22 84.9 0 1 266.70 279.41
  L 184.34 302.14
  A 2.53 2.53 -0.0 0 1 182.98 302.14
  Q 166.73 297.48 150.89 293.23
  Q 125.93 286.54 101.66 279.21
  Q 99.97 278.69 99.81 276.92
  Q 94.05 211.75 88.25 147.25
  Q 87.74 141.59 87.49 138.09
  Q 86.97 130.86 86.78 128.93
  Q 84.00 101.75 82.04 74.50
  L 82.77 70.48
  A 1.25 1.24 -83.9 0 1 84.04 69.45
  Q 104.53 70.26 124.25 69.81
  Q 136.58 69.53 144.26 69.59
  Q 186.38 69.95 228.50 69.59
  Q 236.41 69.53 248.49 69.72
  Q 266.03 70.00 283.58 69.53
  Q 285.07 69.49 285.73 70.10
  Q 286.67 70.95 286.54 72.50
  Z
  M 256.22 217.33
  Q 262.11 152.15 267.64 87.49
  A 1.37 1.37 -87.5 0 0 266.28 86.00
  L 184.25 86.25
  A 0.25 0.25 0.0 0 0 184.00 86.50
  Q 184.05 118.11 183.86 149.73
  Q 183.83 154.81 183.97 165.64
  Q 184.06 173.61 183.94 181.57
  Q 183.72 194.76 183.79 201.55
  Q 184.16 242.62 184.00 283.48
  A 0.55 0.55 82.0 0 0 184.70 284.01
  L 250.77 265.63
  A 1.52 1.52 -5.0 0 0 251.88 264.31
  Q 254.15 240.17 256.22 217.33
  Z
  M 151.69 136.46
  L 151.51 222.37
  A 0.76 0.75 -85.4 0 1 150.65 223.11
  L 138.00 221.21
  A 0.94 0.93 -88.4 0 1 137.21 220.37
  L 135.40 201.33
  A 0.72 0.71 87.4 0 0 134.69 200.68
  L 110.32 200.81
  A 0.47 0.44 -2.8 0 0 109.85 201.30
  L 113.51 240.44
  A 0.69 0.66 3.5 0 0 114.06 241.04
  L 176.71 253.49
  A 0.45 0.45 5.8 0 0 177.25 253.05
  L 177.25 110.91
  A 0.91 0.91 0.0 0 0 176.34 110.00
  L 121.15 110.00
  A 0.95 0.94 87.5 0 0 120.21 111.03
  L 122.39 135.07
  A 0.54 0.54 87.7 0 0 122.93 135.57
  L 150.96 135.74
  A 0.73 0.72 0.0 0 1 151.69 136.46
  Z"
/>
<path fill="#fbd73b" d="
  M 256.22 217.33
  Q 254.15 240.17 251.88 264.31
  A 1.52 1.52 -5.0 0 1 250.77 265.63
  L 184.70 284.01
  A 0.55 0.55 82.0 0 1 184.00 283.48
  Q 184.16 242.62 183.79 201.55
  Q 183.72 194.76 183.94 181.57
  Q 184.06 173.61 183.97 165.64
  Q 183.83 154.81 183.86 149.73
  Q 184.05 118.11 184.00 86.50
  A 0.25 0.25 0.0 0 1 184.25 86.25
  L 266.28 86.00
  A 1.37 1.37 -87.5 0 1 267.64 87.49
  Q 262.11 152.15 256.22 217.33
  Z
  M 217.83 161.44
  L 217.99 136.33
  A 0.59 0.57 -89.5 0 1 218.56 135.75
  L 255.65 135.75
  A 0.57 0.56 2.2 0 0 256.22 135.23
  L 258.40 110.56
  A 0.47 0.44 2.8 0 0 257.93 110.07
  L 192.11 110.00
  A 0.86 0.85 0.0 0 0 191.25 110.85
  L 191.31 187.19
  A 0.50 0.50 0.0 0 0 191.81 187.69
  L 225.43 187.81
  A 0.47 0.46 2.8 0 1 225.90 188.32
  L 223.06 219.97
  A 1.76 1.70 -2.8 0 1 221.63 221.49
  L 192.00 226.86
  A 0.93 0.92 84.8 0 0 191.25 227.77
  L 191.25 253.03
  A 0.52 0.51 -6.3 0 0 191.88 253.53
  L 246.03 241.21
  A 1.07 1.07 86.3 0 0 246.86 240.26
  L 253.82 163.22
  A 0.93 0.91 2.8 0 0 252.90 162.23
  L 218.31 161.95
  A 0.50 0.48 -89.4 0 1 217.83 161.44
  Z"
/>
<path fill="#000000" d="
  M 151.69 136.46
  A 0.73 0.72 0.0 0 0 150.96 135.74
  L 122.93 135.57
  A 0.54 0.54 87.7 0 1 122.39 135.07
  L 120.21 111.03
  A 0.95 0.94 87.5 0 1 121.15 110.00
  L 176.34 110.00
  A 0.91 0.91 0.0 0 1 177.25 110.91
  L 177.25 253.05
  A 0.45 0.45 5.8 0 1 176.71 253.49
  L 114.06 241.04
  A 0.69 0.66 3.5 0 1 113.51 240.44
  L 109.85 201.30
  A 0.47 0.44 -2.8 0 1 110.32 200.81
  L 134.69 200.68
  A 0.72 0.71 87.4 0 1 135.40 201.33
  L 137.21 220.37
  A 0.94 0.93 -88.4 0 0 138.00 221.21
  L 150.65 223.11
  A 0.76 0.75 -85.4 0 0 151.51 222.37
  L 151.69 136.46
  Z"
/>
<path fill="#4c4c4c" d="
  M 218.31 161.95
  L 252.90 162.23
  A 0.93 0.91 2.8 0 1 253.82 163.22
  L 246.86 240.26
  A 1.07 1.07 86.3 0 1 246.03 241.21
  L 191.88 253.53
  A 0.52 0.51 -6.3 0 1 191.25 253.03
  L 191.25 227.77
  A 0.93 0.92 84.8 0 1 192.00 226.86
  L 221.63 221.49
  A 1.76 1.70 -2.8 0 0 223.06 219.97
  L 225.90 188.32
  A 0.47 0.46 2.8 0 0 225.43 187.81
  L 191.81 187.69
  A 0.50 0.50 0.0 0 1 191.31 187.19
  L 191.25 110.85
  A 0.86 0.85 -0.0 0 1 192.11 110.00
  L 257.93 110.07
  A 0.47 0.44 2.8 0 1 258.40 110.56
  L 256.22 135.23
  A 0.57 0.56 2.2 0 1 255.65 135.75
  L 218.56 135.75
  A 0.59 0.57 -89.5 0 0 217.99 136.33
  L 217.83 161.44
  A 0.50 0.48 -89.4 0 0 218.31 161.95
  Z"
/>
</svg>
