<?xml version="1.0" encoding="UTF-8" standalone="no"?>
<!DOCTYPE svg PUBLIC "-//W3C//DTD SVG 1.1//EN" "http://www.w3.org/Graphics/SVG/1.1/DTD/svg11.dtd">
<svg xmlns="http://www.w3.org/2000/svg" version="1.1" viewBox="0 0 392 120">
<rect fill="#b1b1b1" x="-2.92" y="-6.92" transform="translate(162.19,17.26) rotate(-39.1)" width="5.84" height="13.84" rx="1.34"/>
<path fill="#b1b1b1" d="
  M 329.64 14.97
  Q 332.50 13.71 336.95 14.14
  A 1.23 1.22 4.4 0 1 338.06 15.43
  Q 337.88 18.56 338.22 21.20
  Q 338.82 25.98 338.90 26.87
  Q 339.40 32.80 341.53 38.36
  A 0.72 0.72 70.0 0 0 342.43 38.78
  Q 354.06 34.85 365.20 32.18
  A 0.62 0.59 -18.7 0 1 365.91 32.51
  L 368.80 39.29
  A 0.47 0.44 -18.8 0 1 368.48 39.90
  Q 363.10 41.36 358.74 42.46
  Q 345.03 45.90 333.31 51.81
  Q 329.90 53.53 326.97 56.27
  Q 323.65 59.36 323.04 62.68
  Q 321.96 68.56 328.99 71.04
  Q 333.30 72.56 337.78 72.92
  Q 339.46 73.06 346.71 73.07
  Q 357.66 73.09 369.18 71.63
  A 0.78 0.77 -2.2 0 1 370.05 72.43
  Q 369.88 76.19 370.81 78.93
  A 0.82 0.82 -12.5 0 1 370.12 80.01
  Q 351.25 82.06 332.19 80.56
  Q 328.12 80.24 322.95 78.12
  Q 318.17 76.17 315.74 72.14
  Q 313.54 68.49 313.82 63.51
  Q 314.23 56.18 319.55 51.19
  Q 321.77 49.11 325.68 46.57
  Q 328.81 44.54 332.51 42.94
  A 1.31 1.30 67.5 0 0 333.20 41.26
  Q 330.94 35.52 330.26 29.77
  Q 330.08 28.21 329.34 22.79
  Q 328.86 19.27 329.14 15.69
  A 0.90 0.84 81.7 0 1 329.64 14.97
  Z"
/>
<path fill="#b1b1b1" d="
  M 152.32 23.90
  Q 150.25 21.71 148.32 19.39
  A 0.66 0.61 44.8 0 1 148.29 18.59
  Q 149.40 17.21 152.05 16.31
  A 1.13 1.00 -28.2 0 1 153.21 16.58
  L 160.88 25.62
  A 0.69 0.68 -36.8 0 1 160.72 26.63
  L 157.17 28.99
  A 0.67 0.65 47.7 0 1 156.37 28.94
  Q 155.10 27.86 154.21 26.48
  Q 153.05 24.67 152.32 23.90
  Z"
/>
<path fill="#b1b1b1" d="
  M 128.98 72.03
  Q 136.75 72.19 144.48 71.36
  Q 145.88 71.21 150.55 71.05
  Q 153.58 70.95 156.61 70.22
  Q 158.84 69.69 158.75 71.93
  L 158.54 77.48
  A 1.80 1.68 2.6 0 1 156.66 79.08
  Q 152.21 78.86 149.44 79.18
  Q 142.84 79.95 136.20 80.05
  Q 128.52 80.16 124.30 79.93
  Q 117.83 79.58 112.50 78.00
  Q 108.64 76.85 106.63 73.50
  Q 105.30 71.28 104.85 66.73
  Q 104.10 59.05 104.33 51.34
  Q 104.55 43.75 104.55 43.66
  Q 104.72 31.68 105.03 18.85
  A 1.05 1.04 -1.5 0 1 106.00 17.83
  Q 110.30 17.54 113.44 18.20
  A 0.64 0.60 -84.5 0 1 113.92 18.82
  L 113.74 42.61
  A 0.81 0.79 -7.3 0 0 114.76 43.37
  Q 134.05 38.22 151.86 29.09
  A 0.80 0.76 59.1 0 1 152.86 29.37
  L 156.86 35.21
  A 0.51 0.48 59.0 0 1 156.70 35.93
  Q 142.78 43.30 127.80 48.16
  Q 121.56 50.18 114.38 52.25
  A 1.13 1.11 -7.3 0 0 113.57 53.28
  Q 113.24 60.53 114.00 66.27
  Q 114.41 69.38 117.44 70.19
  Q 120.11 70.90 123.16 71.46
  Q 125.98 71.97 128.98 72.03
  Z"
/>
<rect fill="#b1b1b1" x="21.00" y="20.00" width="51.14" height="8.76" rx="0.51"/>
<path fill="#b1b1b1" d="
  M 271.29 30.56
  L 235.70 30.32
  A 0.56 0.51 -0.5 0 1 235.14 29.82
  L 235.04 22.79
  A 0.83 0.78 -0.3 0 1 235.87 22.00
  Q 256.42 22.00 276.64 22.00
  Q 279.28 22.00 281.14 23.01
  Q 282.99 24.03 284.62 25.42
  A 0.71 0.70 -59.6 0 1 284.82 26.21
  Q 279.16 40.34 270.25 52.31
  A 0.54 0.53 34.8 0 0 270.39 53.07
  Q 285.73 63.27 298.57 75.95
  A 0.78 0.73 46.7 0 1 298.57 77.06
  L 293.30 81.64
  A 1.43 1.37 46.5 0 1 291.41 81.55
  Q 279.38 69.93 265.08 59.99
  A 1.03 1.03 -49.8 0 0 263.77 60.10
  Q 250.12 73.65 232.27 82.27
  A 0.69 0.62 -31.1 0 1 231.45 82.11
  L 226.68 75.81
  A 0.46 0.42 -30.5 0 1 226.88 75.15
  Q 256.32 61.49 272.24 32.17
  A 1.09 1.09 14.6 0 0 271.29 30.56
  Z"
/>
<path fill="#b1b1b1" d="
  M 43.69 48.18
  A 0.87 0.86 -79.3 0 0 42.89 47.00
  L 14.42 47.00
  A 0.67 0.67 84.2 0 1 13.75 46.33
  L 13.75 39.66
  A 0.66 0.66 3.8 0 1 14.41 39.00
  L 80.60 39.00
  A 0.61 0.57 0.5 0 1 81.21 39.58
  L 81.11 46.32
  A 0.57 0.52 -0.1 0 1 80.55 46.83
  L 53.87 46.99
  A 1.01 0.99 3.5 0 0 52.87 47.86
  Q 52.17 53.25 51.08 57.66
  Q 48.35 68.81 38.81 76.31
  Q 33.40 80.57 29.20 82.77
  A 0.80 0.78 -40.3 0 1 28.35 82.71
  Q 25.82 80.83 23.22 77.29
  A 0.76 0.75 -32.9 0 1 23.46 76.19
  Q 29.45 72.85 33.92 68.92
  Q 41.60 62.19 42.76 51.97
  Q 42.98 50.03 43.69 48.18
  Z"
/>
<rect fill="#b1b1b1" x="191.00" y="50.00" width="25.00" height="10.00" rx="0.43"/>
</svg>
