<?xml version="1.0" encoding="UTF-8" standalone="no"?>
<!DOCTYPE svg PUBLIC "-//W3C//DTD SVG 1.1//EN" "http://www.w3.org/Graphics/SVG/1.1/DTD/svg11.dtd">
<svg xmlns="http://www.w3.org/2000/svg" version="1.1" viewBox="0 0 370 370">
<g stroke-width="2.00" fill="none" stroke-linecap="butt">
<path stroke="#74d5cf" vector-effect="non-scaling-stroke" d="
  M 191.43 65.14
  Q 191.49 66.96 190.81 69.31
  Q 189.21 74.89 189.37 81.19
  Q 189.49 86.21 189.49 86.32
  Q 189.50 95.77 190.25 98.75
  Q 190.99 101.71 190.63 103.92
  Q 190.05 107.50 190.04 107.79
  Q 190.00 109.72 189.85 111.65
  Q 189.73 113.34 189.85 115.49
  Q 190.09 119.66 189.50 125.50
  Q 189.02 130.27 189.70 137.11
  Q 189.95 139.57 189.72 142.41
  Q 189.45 145.70 189.75 147.75
  Q 190.01 149.54 189.95 150.93
  Q 189.86 152.99 190.05 154.06
  Q 191.00 159.51 190.80 165.06
  Q 190.75 166.50 189.65 166.23
  A 1.07 0.52 20.0 0 0 188.77 166.32
  Q 188.51 166.58 188.46 167.00"
/>
<path stroke="#386a67" vector-effect="non-scaling-stroke" d="
  M 188.46 167.00
  L 181.97 157.97
  A 1.31 1.13 73.9 0 0 181.19 157.46
  Q 179.69 157.19 178.23 157.60
  A 0.36 0.35 64.3 0 0 178.05 158.15
  L 195.97 183.35
  A 0.72 0.67 -45.8 0 1 195.95 184.16
  L 176.66 210.61
  A 0.36 0.36 -67.1 0 0 176.89 211.18
  Q 180.58 211.87 181.94 209.05"
/>
<path stroke="#74d5cf" vector-effect="non-scaling-stroke" d="
  M 181.94 209.05
  Q 184.56 208.34 183.72 210.30
  A 1.16 0.78 -54.9 0 0 183.70 211.21
  Q 183.98 211.72 184.49 212.07
  A 1.17 0.87 18.8 0 1 184.99 212.80
  Q 185.62 218.46 185.41 224.12
  Q 185.11 232.30 185.21 235.40
  Q 185.66 249.12 185.41 262.85
  Q 185.31 268.39 185.67 276.13
  Q 185.99 282.78 185.85 289.43
  Q 185.80 291.49 186.32 296.02
  Q 186.69 299.34 186.26 302.69
  A 0.81 0.69 -6.3 0 1 185.70 303.29
  Q 184.35 303.70 185.50 304.96"
/>
<path stroke="#69d1cc" vector-effect="non-scaling-stroke" d="
  M 149.69 299.75
  Q 148.70 296.00 148.25 289.75
  Q 147.99 286.13 148.75 283.75
  Q 149.02 282.91 148.41 280.97
  Q 148.26 280.50 148.34 280.01
  Q 148.76 277.65 148.60 275.29
  Q 148.44 272.72 148.60 270.59
  Q 148.77 268.25 148.50 265.91
  Q 148.31 264.25 148.39 262.57
  Q 148.47 260.89 148.33 259.22
  Q 148.05 255.90 148.26 254.26
  Q 148.78 250.14 149.99 244.84
  A 0.37 0.37 -89.5 0 0 149.55 244.39
  Q 147.64 244.79 148.27 242.78
  A 0.86 0.77 33.3 0 0 148.06 241.99
  Q 147.16 241.05 147.75 239.50
  Q 148.65 237.12 147.05 234.90
  A 1.52 1.39 -63.2 0 1 146.80 234.01
  Q 146.87 232.34 145.50 232.61
  A 0.91 0.91 -15.7 0 1 144.48 232.04
  Q 143.89 230.52 144.04 229.00"
/>
<path stroke="#386a67" vector-effect="non-scaling-stroke" d="
  M 144.04 229.00
  L 153.44 241.53
  A 0.22 0.16 47.7 0 0 153.74 241.59
  Q 153.82 241.49 153.69 241.31
  Q 148.90 234.34 144.29 227.25"
/>
<path stroke="#6ad1cc" vector-effect="non-scaling-stroke" d="
  M 144.29 227.25
  Q 145.88 226.32 146.38 228.01
  Q 146.54 228.51 146.86 228.84
  Q 148.07 230.07 149.06 232.31
  Q 150.13 234.73 152.56 233.50
  A 0.98 0.87 43.5 0 1 153.42 233.53
  Q 154.01 233.85 154.04 233.25
  A 1.45 0.63 43.0 0 0 153.66 232.38
  Q 152.63 231.08 152.75 228.50
  Q 152.97 223.84 153.67 220.91
  Q 153.98 219.64 155.38 217.84
  Q 156.49 216.42 157.20 214.73
  Q 157.55 213.89 155.73 213.65
  Q 155.04 213.56 155.66 213.30
  L 160.50 211.29"
/>
<path stroke="#386a67" vector-effect="non-scaling-stroke" d="
  M 160.50 211.29
  L 174.22 211.31
  A 0.75 0.73 6.3 0 0 174.95 210.74
  Q 175.57 207.96 173.38 208.15
  Q 172.18 208.25 172.11 208.25
  Q 157.54 208.25 142.31 208.25
  A 0.56 0.56 0.0 0 1 141.75 207.69
  L 141.75 185.31
  A 0.56 0.56 0.0 0 1 142.31 184.75
  L 171.75 184.75
  A 0.71 0.66 7.6 0 0 172.42 184.28
  Q 172.71 183.25 172.42 182.22
  A 0.72 0.66 -7.5 0 0 171.74 181.75
  L 142.31 181.69
  A 0.51 0.50 90.0 0 1 141.81 181.18
  L 141.75 161.00
  A 0.50 0.50 0.0 0 1 142.25 160.50
  L 173.50 160.50
  A 0.78 0.76 11.5 0 0 174.21 160.04
  Q 175.42 157.11 172.75 157.34
  Q 170.79 157.50 170.73 157.50
  Q 157.49 157.53 144.25 157.46"
/>
<path stroke="#6ad1cc" vector-effect="non-scaling-stroke" d="
  M 144.25 157.46
  L 153.45 157.18
  Q 153.81 157.17 153.44 157.13
  L 146.82 156.37
  Q 146.43 156.33 146.81 156.30
  Q 148.87 156.18 148.61 154.58
  Q 148.25 152.39 148.26 152.35
  Q 148.30 140.31 147.79 128.28
  Q 147.51 121.45 147.91 113.61
  Q 148.28 106.26 148.26 98.90
  Q 148.26 98.79 148.32 94.60
  Q 148.39 90.06 147.68 85.56
  Q 147.55 84.72 146.63 84.47
  A 0.44 0.43 20.5 0 1 146.35 83.87
  Q 147.22 82.03 146.46 80.40
  Q 145.29 77.88 146.96 76.15
  A 0.94 0.56 -39.6 0 0 147.25 75.34
  Q 147.14 75.06 146.84 74.98
  Q 146.54 74.89 146.07 75.14
  Q 141.41 77.69 141.72 73.05"
/>
<path stroke="#3d6b68" vector-effect="non-scaling-stroke" d="
  M 220.29 210.75
  Q 218.89 211.59 217.47 211.30
  Q 216.38 211.07 215.38 209.70
  Q 207.39 198.60 198.97 186.91
  A 0.69 0.69 0.0 0 0 197.85 186.91
  L 181.94 209.05"
/>
<path stroke="#326865" vector-effect="non-scaling-stroke" d="
  M 144.25 157.46
  L 138.81 157.55
  A 0.51 0.50 -0.6 0 0 138.31 158.05
  L 138.25 210.70
  A 0.56 0.55 0.0 0 0 138.81 211.25
  L 160.50 211.29"
/>
<path stroke="#326865" vector-effect="non-scaling-stroke" d="
  M 144.29 227.25
  L 97.48 157.29"
/>
<path stroke="#5ecec8" vector-effect="non-scaling-stroke" d="
  M 97.48 157.29
  Q 93.52 157.71 94.89 156.12
  Q 95.07 155.91 95.72 155.56
  Q 96.45 155.17 96.09 154.47
  A 0.30 0.27 -17.8 0 1 96.32 154.07
  Q 96.78 153.98 96.81 153.50
  Q 96.87 152.62 96.89 152.52
  Q 98.09 148.24 97.00 143.25
  Q 96.76 142.16 97.73 141.63
  A 1.08 0.73 -16.9 0 0 98.28 140.95
  Q 98.49 139.25 97.16 138.27
  A 1.01 0.86 21.9 0 1 96.76 137.51
  Q 96.81 133.16 96.94 128.83
  Q 96.96 128.13 97.42 125.24
  Q 97.70 123.40 97.38 121.56
  Q 96.91 118.83 96.93 117.23
  Q 96.96 114.34 96.25 112.75
  Q 95.61 111.31 96.50 110.67
  A 0.45 0.43 55.8 0 0 96.60 110.07
  L 95.51 108.39
  A 1.25 0.32 60.8 0 0 94.87 107.72
  Q 94.47 107.61 94.30 107.95
  A 1.01 0.35 -67.0 0 1 93.72 108.59
  L 92.50 108.71"
/>
<path stroke="#316865" vector-effect="non-scaling-stroke" d="
  M 144.04 229.00
  Q 130.57 211.04 127.19 206.06
  Q 112.66 184.73 97.69 162.90
  Q 96.75 161.52 96.74 163.20
  L 96.51 210.50
  A 0.86 0.61 84.0 0 1 96.08 211.27
  Q 95.82 211.35 95.50 211.29"
/>
<path stroke="#7fd8d2" vector-effect="non-scaling-stroke" d="
  M 229.98 73.76
  Q 230.59 74.68 230.46 75.47
  Q 230.40 75.84 230.71 75.64
  Q 231.25 75.31 231.82 75.29
  Q 232.20 75.28 231.87 75.51
  Q 231.23 75.94 231.91 76.00
  A 0.73 0.68 -15.1 0 1 232.44 76.28
  Q 233.53 77.74 234.68 77.00
  A 0.84 0.67 -42.7 0 1 235.50 76.94
  Q 237.14 78.02 235.50 79.00
  Q 234.46 79.62 230.81 79.46
  A 1.82 1.24 55.6 0 1 229.93 79.12
  Q 228.08 77.77 226.69 79.94
  Q 224.69 83.04 224.81 84.19
  Q 225.03 86.18 224.70 88.12
  Q 224.38 90.01 224.48 91.93
  Q 224.58 93.75 224.22 95.52
  Q 223.74 97.86 223.76 99.03
  Q 223.80 101.37 224.01 103.69
  Q 224.13 105.07 223.89 108.31
  Q 223.70 110.94 224.44 113.81
  Q 225.51 117.97 225.49 123.25
  Q 225.45 132.51 224.72 142.15
  A 0.61 0.61 -0.5 0 1 224.16 142.71
  Q 221.52 142.95 222.50 144.83
  A 1.22 1.17 40.6 0 1 222.59 145.73
  Q 222.09 147.35 222.29 149.00"
/>
<path stroke="#3d6b68" vector-effect="non-scaling-stroke" d="
  M 222.29 149.00
  L 199.17 180.17
  A 0.83 0.81 -44.5 0 1 197.84 180.17
  L 188.46 167.00"
/>
<path stroke="#8adbd6" vector-effect="non-scaling-stroke" d="
  M 266.54 97.00
  Q 266.15 97.49 265.56 97.50
  A 0.74 0.56 5.5 0 0 264.90 97.91
  Q 264.08 100.56 264.75 105.00
  Q 265.25 108.33 264.66 119.17
  Q 264.30 125.74 264.74 132.32
  Q 265.51 143.81 265.44 153.06
  Q 265.42 155.59 264.19 158.81
  Q 264.10 159.03 264.19 159.76
  A 1.24 1.06 -31.5 0 1 263.91 160.62
  Q 263.26 161.44 264.08 161.60
  A 1.32 1.32 -83.1 0 1 265.16 162.98
  Q 264.09 180.24 264.06 195.94
  Q 264.06 197.18 265.21 202.82
  A 1.42 1.02 -84.7 0 0 265.69 203.64
  Q 266.35 204.12 267.25 204.21"
/>
<path stroke="#426d6a" vector-effect="non-scaling-stroke" d="
  M 267.25 204.21
  Q 264.82 205.65 267.54 207.25"
/>
<path stroke="#8adbd6" vector-effect="non-scaling-stroke" d="
  M 267.54 207.25
  L 266.48 207.93
  A 0.36 0.34 49.0 0 0 266.46 208.49
  Q 267.56 209.46 266.70 210.36
  A 0.42 0.41 -48.9 0 0 266.73 210.98
  Q 268.47 212.33 268.50 214.75
  Q 268.91 247.05 268.75 268.68
  Q 268.75 268.88 268.71 269.31
  Q 268.58 270.66 269.71 269.00
  Q 270.29 268.15 271.04 268.50"
/>
<path stroke="#7fd8d2" vector-effect="non-scaling-stroke" d="
  M 223.79 298.50
  Q 223.11 297.85 222.18 297.72
  Q 221.94 297.68 222.17 297.60
  Q 222.56 297.46 222.36 297.20
  A 1.22 0.38 46.2 0 1 222.03 296.54
  Q 221.37 287.58 221.65 278.60
  Q 221.65 278.53 221.53 276.53
  Q 221.41 274.63 222.70 273.28
  A 0.42 0.41 40.6 0 0 222.64 272.66
  Q 221.86 272.08 221.44 271.21
  A 1.43 1.00 -56.2 0 1 221.42 270.27
  Q 221.90 268.75 221.76 267.20
  Q 221.51 264.35 221.51 264.27
  Q 221.56 254.63 221.51 245.00
  Q 221.49 242.78 220.76 241.42
  A 3.21 3.16 -54.8 0 1 220.43 239.42
  Q 221.59 232.41 221.50 227.25
  Q 221.44 223.76 222.18 221.39
  Q 223.17 218.23 223.12 217.44
  Q 222.97 215.09 221.45 213.15
  Q 221.40 213.09 220.55 212.39
  Q 219.85 211.82 220.29 210.75"
/>
<path stroke="#426d6a" vector-effect="non-scaling-stroke" d="
  M 220.29 210.75
  L 200.94 184.07
  A 0.67 0.66 44.6 0 1 200.93 183.31
  Q 219.89 155.67 238.82 128.55
  Q 238.99 128.32 238.95 128.17
  Q 238.85 127.87 238.57 128.23
  L 222.29 149.00"
/>
<path stroke="#2c6663" vector-effect="non-scaling-stroke" d="
  M 97.48 157.29
  L 94.14 157.49
  A 0.68 0.55 -2.2 0 0 93.50 158.05
  L 93.56 210.69
  A 0.53 0.52 -88.9 0 0 94.06 211.22
  L 95.50 211.29"
/>
<path stroke="#5dcec8" vector-effect="non-scaling-stroke" d="
  M 95.50 211.29
  Q 95.40 212.51 94.65 213.44
  A 1.25 1.08 -32.1 0 0 94.38 214.32
  Q 95.26 221.38 95.02 228.47
  Q 94.98 229.76 93.97 237.47
  Q 93.39 241.98 93.58 246.57
  Q 93.83 252.66 93.99 258.75
  Q 93.99 259.04 93.73 259.67
  Q 93.43 260.36 93.94 261.31
  Q 94.54 262.46 93.25 262.29"
/>
<path stroke="#486f6c" vector-effect="non-scaling-stroke" d="
  M 267.54 207.25
  Q 272.88 208.98 273.03 203.50
  Q 273.12 199.90 273.18 196.31
  A 0.62 0.59 -84.5 0 0 272.70 195.69
  Q 270.98 195.35 271.14 196.92
  Q 271.25 197.96 271.25 198.10
  Q 271.25 199.99 271.25 201.88
  Q 271.25 203.66 270.92 204.58
  Q 269.91 207.38 267.25 204.21"
/>
<path stroke="#426d6a" vector-effect="non-scaling-stroke" d="
  M 241.00 161.17
  L 240.81 210.70
  A 0.57 0.46 88.6 0 0 241.30 211.27
  L 243.71 211.09
  A 0.67 0.52 88.2 0 0 244.19 210.43
  L 244.18 161.01
  A 0.51 0.51 0.0 0 1 244.69 160.50
  L 262.45 160.44
  A 0.53 0.50 0.0 0 0 262.98 159.94
  L 262.98 158.01
  A 0.55 0.51 0.0 0 0 262.43 157.50
  L 222.81 157.32
  A 0.73 0.68 8.9 0 0 222.13 157.78
  Q 221.06 160.82 223.91 160.61
  Q 225.48 160.50 225.60 160.50
  Q 232.82 160.50 240.34 160.50
  A 0.67 0.66 90.0 0 1 241.00 161.17"
/>
<path stroke="#426d6a" vector-effect="non-scaling-stroke" d="
  M 263.99 206.31
  A 1.25 1.25 0.0 0 0 262.74 205.06
  A 1.25 1.25 0.0 0 0 261.49 206.31
  A 1.25 1.25 0.0 0 0 262.74 207.56
  A 1.25 1.25 0.0 0 0 263.99 206.31"
/>
<path stroke="#486f6c" vector-effect="non-scaling-stroke" d="
  M 282.14 203.78
  Q 282.57 205.15 280.65 205.90
  A 2.28 2.28 -35.9 0 1 278.40 205.54
  Q 276.72 204.16 276.01 204.26
  Q 274.97 204.41 275.98 205.86
  Q 277.43 207.96 280.56 207.56
  Q 283.92 207.14 284.24 204.48
  Q 284.46 202.68 283.04 201.62
  Q 281.73 200.65 279.75 200.50
  Q 278.29 200.39 277.72 199.04
  A 0.82 0.79 -34.7 0 1 277.89 198.19
  Q 280.02 195.94 282.00 198.29
  A 1.94 1.21 67.4 0 0 282.79 198.85
  Q 285.00 199.54 283.69 197.31
  Q 282.23 194.85 278.87 195.78
  Q 274.41 197.01 276.44 200.87
  A 1.43 1.19 0.4 0 0 277.16 201.48
  L 281.47 203.12
  A 1.16 0.94 5.4 0 1 282.14 203.78"
/>
</g>
<path fill="#6fd3ce" d="
  M 191.43 65.14
  Q 191.49 66.96 190.81 69.31
  Q 189.21 74.89 189.37 81.19
  Q 189.49 86.21 189.49 86.32
  Q 189.50 95.77 190.25 98.75
  Q 190.99 101.71 190.63 103.92
  Q 190.05 107.50 190.04 107.79
  Q 190.00 109.72 189.85 111.65
  Q 189.73 113.34 189.85 115.49
  Q 190.09 119.66 189.50 125.50
  Q 189.02 130.27 189.70 137.11
  Q 189.95 139.57 189.72 142.41
  Q 189.45 145.70 189.75 147.75
  Q 190.01 149.54 189.95 150.93
  Q 189.86 152.99 190.05 154.06
  Q 191.00 159.51 190.80 165.06
  Q 190.75 166.50 189.65 166.23
  A 1.07 0.52 20.0 0 0 188.77 166.32
  Q 188.51 166.58 188.46 167.00
  L 181.97 157.97
  A 1.31 1.13 73.9 0 0 181.19 157.46
  Q 179.69 157.19 178.23 157.60
  A 0.36 0.35 64.3 0 0 178.05 158.15
  L 195.97 183.35
  A 0.72 0.67 -45.8 0 1 195.95 184.16
  L 176.66 210.61
  A 0.36 0.36 -67.1 0 0 176.89 211.18
  Q 180.58 211.87 181.94 209.05
  Q 184.56 208.34 183.72 210.30
  A 1.16 0.78 -54.9 0 0 183.70 211.21
  Q 183.98 211.72 184.49 212.07
  A 1.17 0.87 18.8 0 1 184.99 212.80
  Q 185.62 218.46 185.41 224.12
  Q 185.11 232.30 185.21 235.40
  Q 185.66 249.12 185.41 262.85
  Q 185.31 268.39 185.67 276.13
  Q 185.99 282.78 185.85 289.43
  Q 185.80 291.49 186.32 296.02
  Q 186.69 299.34 186.26 302.69
  A 0.81 0.69 -6.3 0 1 185.70 303.29
  Q 184.35 303.70 185.50 304.96
  Q 167.25 305.16 149.69 299.75
  Q 148.70 296.00 148.25 289.75
  Q 147.99 286.13 148.75 283.75
  Q 149.02 282.91 148.41 280.97
  Q 148.26 280.50 148.34 280.01
  Q 148.76 277.65 148.60 275.29
  Q 148.44 272.72 148.60 270.59
  Q 148.77 268.25 148.50 265.91
  Q 148.31 264.25 148.39 262.57
  Q 148.47 260.89 148.33 259.22
  Q 148.05 255.90 148.26 254.26
  Q 148.78 250.14 149.99 244.84
  A 0.37 0.37 -89.5 0 0 149.55 244.39
  Q 147.64 244.79 148.27 242.78
  A 0.86 0.77 33.3 0 0 148.06 241.99
  Q 147.16 241.05 147.75 239.50
  Q 148.65 237.12 147.05 234.90
  A 1.52 1.39 -63.2 0 1 146.80 234.01
  Q 146.87 232.34 145.50 232.61
  A 0.91 0.91 -15.7 0 1 144.48 232.04
  Q 143.89 230.52 144.04 229.00
  L 153.44 241.53
  A 0.22 0.16 47.7 0 0 153.74 241.59
  Q 153.82 241.49 153.69 241.31
  Q 148.90 234.34 144.29 227.25
  Q 145.88 226.32 146.38 228.01
  Q 146.54 228.51 146.86 228.84
  Q 148.07 230.07 149.06 232.31
  Q 150.13 234.73 152.56 233.50
  A 0.98 0.87 43.5 0 1 153.42 233.53
  Q 154.01 233.85 154.04 233.25
  A 1.45 0.63 43.0 0 0 153.66 232.38
  Q 152.63 231.08 152.75 228.50
  Q 152.97 223.84 153.67 220.91
  Q 153.98 219.64 155.38 217.84
  Q 156.49 216.42 157.20 214.73
  Q 157.55 213.89 155.73 213.65
  Q 155.04 213.56 155.66 213.30
  L 160.50 211.29
  L 174.22 211.31
  A 0.75 0.73 6.3 0 0 174.95 210.74
  Q 175.57 207.96 173.38 208.15
  Q 172.18 208.25 172.11 208.25
  Q 157.54 208.25 142.31 208.25
  A 0.56 0.56 0.0 0 1 141.75 207.69
  L 141.75 185.31
  A 0.56 0.56 0.0 0 1 142.31 184.75
  L 171.75 184.75
  A 0.71 0.66 7.6 0 0 172.42 184.28
  Q 172.71 183.25 172.42 182.22
  A 0.72 0.66 -7.5 0 0 171.74 181.75
  L 142.31 181.69
  A 0.51 0.50 90.0 0 1 141.81 181.18
  L 141.75 161.00
  A 0.50 0.50 0.0 0 1 142.25 160.50
  L 173.50 160.50
  A 0.78 0.76 11.5 0 0 174.21 160.04
  Q 175.42 157.11 172.75 157.34
  Q 170.79 157.50 170.73 157.50
  Q 157.49 157.53 144.25 157.46
  L 153.45 157.18
  Q 153.81 157.17 153.44 157.13
  L 146.82 156.37
  Q 146.43 156.33 146.81 156.30
  Q 148.87 156.18 148.61 154.58
  Q 148.25 152.39 148.26 152.35
  Q 148.30 140.31 147.79 128.28
  Q 147.51 121.45 147.91 113.61
  Q 148.28 106.26 148.26 98.90
  Q 148.26 98.79 148.32 94.60
  Q 148.39 90.06 147.68 85.56
  Q 147.55 84.72 146.63 84.47
  A 0.44 0.43 20.5 0 1 146.35 83.87
  Q 147.22 82.03 146.46 80.40
  Q 145.29 77.88 146.96 76.15
  A 0.94 0.56 -39.6 0 0 147.25 75.34
  Q 147.14 75.06 146.84 74.98
  Q 146.54 74.89 146.07 75.14
  Q 141.41 77.69 141.72 73.05
  Q 165.82 63.76 191.43 65.14
  Z"
/>
<path fill="#79d6d0" d="
  M 191.43 65.14
  Q 211.59 66.19 229.98 73.76
  Q 230.59 74.68 230.46 75.47
  Q 230.40 75.84 230.71 75.64
  Q 231.25 75.31 231.82 75.29
  Q 232.20 75.28 231.87 75.51
  Q 231.23 75.94 231.91 76.00
  A 0.73 0.68 -15.1 0 1 232.44 76.28
  Q 233.53 77.74 234.68 77.00
  A 0.84 0.67 -42.7 0 1 235.50 76.94
  Q 237.14 78.02 235.50 79.00
  Q 234.46 79.62 230.81 79.46
  A 1.82 1.24 55.6 0 1 229.93 79.12
  Q 228.08 77.77 226.69 79.94
  Q 224.69 83.04 224.81 84.19
  Q 225.03 86.18 224.70 88.12
  Q 224.38 90.01 224.48 91.93
  Q 224.58 93.75 224.22 95.52
  Q 223.74 97.86 223.76 99.03
  Q 223.80 101.37 224.01 103.69
  Q 224.13 105.07 223.89 108.31
  Q 223.70 110.94 224.44 113.81
  Q 225.51 117.97 225.49 123.25
  Q 225.45 132.51 224.72 142.15
  A 0.61 0.61 -0.5 0 1 224.16 142.71
  Q 221.52 142.95 222.50 144.83
  A 1.22 1.17 40.6 0 1 222.59 145.73
  Q 222.09 147.35 222.29 149.00
  L 199.17 180.17
  A 0.83 0.81 -44.5 0 1 197.84 180.17
  L 188.46 167.00
  Q 188.51 166.58 188.77 166.32
  A 1.07 0.52 20.0 0 1 189.65 166.23
  Q 190.75 166.50 190.80 165.06
  Q 191.00 159.51 190.05 154.06
  Q 189.86 152.99 189.95 150.93
  Q 190.01 149.54 189.75 147.75
  Q 189.45 145.70 189.72 142.41
  Q 189.95 139.57 189.70 137.11
  Q 189.02 130.27 189.50 125.50
  Q 190.09 119.66 189.85 115.49
  Q 189.73 113.34 189.85 111.65
  Q 190.00 109.72 190.04 107.79
  Q 190.05 107.50 190.63 103.92
  Q 190.99 101.71 190.25 98.75
  Q 189.50 95.77 189.49 86.32
  Q 189.49 86.21 189.37 81.19
  Q 189.21 74.89 190.81 69.31
  Q 191.49 66.96 191.43 65.14
  Z"
/>
<path fill="#64cfca" d="
  M 141.72 73.05
  Q 141.41 77.69 146.07 75.14
  Q 146.54 74.89 146.84 74.98
  Q 147.14 75.06 147.25 75.34
  A 0.94 0.56 -39.6 0 1 146.96 76.15
  Q 145.29 77.88 146.46 80.40
  Q 147.22 82.03 146.35 83.87
  A 0.44 0.43 20.5 0 0 146.63 84.47
  Q 147.55 84.72 147.68 85.56
  Q 148.39 90.06 148.32 94.60
  Q 148.26 98.79 148.26 98.90
  Q 148.28 106.26 147.91 113.61
  Q 147.51 121.45 147.79 128.28
  Q 148.30 140.31 148.26 152.35
  Q 148.25 152.39 148.61 154.58
  Q 148.87 156.18 146.81 156.30
  Q 146.43 156.33 146.82 156.37
  L 153.44 157.13
  Q 153.81 157.17 153.45 157.18
  L 144.25 157.46
  L 138.81 157.55
  A 0.51 0.50 -0.6 0 0 138.31 158.05
  L 138.25 210.70
  A 0.56 0.55 0.0 0 0 138.81 211.25
  L 160.50 211.29
  L 155.66 213.30
  Q 155.04 213.56 155.73 213.65
  Q 157.55 213.89 157.20 214.73
  Q 156.49 216.42 155.38 217.84
  Q 153.98 219.64 153.67 220.91
  Q 152.97 223.84 152.75 228.50
  Q 152.63 231.08 153.66 232.38
  A 1.45 0.63 43.0 0 1 154.04 233.25
  Q 154.01 233.85 153.42 233.53
  A 0.98 0.87 43.5 0 0 152.56 233.50
  Q 150.13 234.73 149.06 232.31
  Q 148.07 230.07 146.86 228.84
  Q 146.54 228.51 146.38 228.01
  Q 145.88 226.32 144.29 227.25
  L 97.48 157.29
  Q 93.52 157.71 94.89 156.12
  Q 95.07 155.91 95.72 155.56
  Q 96.45 155.17 96.09 154.47
  A 0.30 0.27 -17.8 0 1 96.32 154.07
  Q 96.78 153.98 96.81 153.50
  Q 96.87 152.62 96.89 152.52
  Q 98.09 148.24 97.00 143.25
  Q 96.76 142.16 97.73 141.63
  A 1.08 0.73 -16.9 0 0 98.28 140.95
  Q 98.49 139.25 97.16 138.27
  A 1.01 0.86 21.9 0 1 96.76 137.51
  Q 96.81 133.16 96.94 128.83
  Q 96.96 128.13 97.42 125.24
  Q 97.70 123.40 97.38 121.56
  Q 96.91 118.83 96.93 117.23
  Q 96.96 114.34 96.25 112.75
  Q 95.61 111.31 96.50 110.67
  A 0.45 0.43 55.8 0 0 96.60 110.07
  L 95.51 108.39
  A 1.25 0.32 60.8 0 0 94.87 107.72
  Q 94.47 107.61 94.30 107.95
  A 1.01 0.35 -67.0 0 1 93.72 108.59
  L 92.50 108.71
  Q 112.39 84.36 141.72 73.05
  Z"
/>
<path fill="#84d9d4" d="
  M 229.98 73.76
  Q 250.48 81.96 266.54 97.00
  Q 266.15 97.49 265.56 97.50
  A 0.74 0.56 5.5 0 0 264.90 97.91
  Q 264.08 100.56 264.75 105.00
  Q 265.25 108.33 264.66 119.17
  Q 264.30 125.74 264.74 132.32
  Q 265.51 143.81 265.44 153.06
  Q 265.42 155.59 264.19 158.81
  Q 264.10 159.03 264.19 159.76
  A 1.24 1.06 -31.5 0 1 263.91 160.62
  Q 263.26 161.44 264.08 161.60
  A 1.32 1.32 -83.1 0 1 265.16 162.98
  Q 264.09 180.24 264.06 195.94
  Q 264.06 197.18 265.21 202.82
  A 1.42 1.02 -84.7 0 0 265.69 203.64
  Q 266.35 204.12 267.25 204.21
  Q 264.82 205.65 267.54 207.25
  L 266.48 207.93
  A 0.36 0.34 49.0 0 0 266.46 208.49
  Q 267.56 209.46 266.70 210.36
  A 0.42 0.41 -48.9 0 0 266.73 210.98
  Q 268.47 212.33 268.50 214.75
  Q 268.91 247.05 268.75 268.68
  Q 268.75 268.88 268.71 269.31
  Q 268.58 270.66 269.71 269.00
  Q 270.29 268.15 271.04 268.50
  Q 251.16 289.36 223.79 298.50
  Q 223.11 297.85 222.18 297.72
  Q 221.94 297.68 222.17 297.60
  Q 222.56 297.46 222.36 297.20
  A 1.22 0.38 46.2 0 1 222.03 296.54
  Q 221.37 287.58 221.65 278.60
  Q 221.65 278.53 221.53 276.53
  Q 221.41 274.63 222.70 273.28
  A 0.42 0.41 40.6 0 0 222.64 272.66
  Q 221.86 272.08 221.44 271.21
  A 1.43 1.00 -56.2 0 1 221.42 270.27
  Q 221.90 268.75 221.76 267.20
  Q 221.51 264.35 221.51 264.27
  Q 221.56 254.63 221.51 245.00
  Q 221.49 242.78 220.76 241.42
  A 3.21 3.16 -54.8 0 1 220.43 239.42
  Q 221.59 232.41 221.50 227.25
  Q 221.44 223.76 222.18 221.39
  Q 223.17 218.23 223.12 217.44
  Q 222.97 215.09 221.45 213.15
  Q 221.40 213.09 220.55 212.39
  Q 219.85 211.82 220.29 210.75
  L 200.94 184.07
  A 0.67 0.66 44.6 0 1 200.93 183.31
  Q 219.89 155.67 238.82 128.55
  Q 238.99 128.32 238.95 128.17
  Q 238.85 127.87 238.57 128.23
  L 222.29 149.00
  Q 222.09 147.35 222.59 145.73
  A 1.22 1.17 40.6 0 0 222.50 144.83
  Q 221.52 142.95 224.16 142.71
  A 0.61 0.61 -0.1 0 0 224.72 142.15
  Q 225.45 132.51 225.49 123.25
  Q 225.51 117.97 224.44 113.81
  Q 223.70 110.94 223.89 108.31
  Q 224.13 105.07 224.01 103.69
  Q 223.80 101.37 223.76 99.03
  Q 223.74 97.86 224.22 95.52
  Q 224.58 93.75 224.48 91.93
  Q 224.38 90.01 224.70 88.12
  Q 225.03 86.18 224.81 84.19
  Q 224.69 83.04 226.69 79.94
  Q 228.08 77.77 229.93 79.12
  A 1.82 1.24 55.6 0 0 230.81 79.46
  Q 234.46 79.62 235.50 79.00
  Q 237.14 78.02 235.50 76.94
  A 0.84 0.67 -42.7 0 0 234.68 77.00
  Q 233.53 77.74 232.44 76.28
  A 0.73 0.68 -15.1 0 0 231.91 76.00
  Q 231.23 75.94 231.87 75.51
  Q 232.20 75.28 231.82 75.29
  Q 231.25 75.31 230.71 75.64
  Q 230.40 75.84 230.46 75.47
  Q 230.59 74.68 229.98 73.76
  Z
  M 241.00 161.17
  L 240.81 210.70
  A 0.57 0.46 88.6 0 0 241.30 211.27
  L 243.71 211.09
  A 0.67 0.52 88.2 0 0 244.19 210.43
  L 244.18 161.01
  A 0.51 0.51 0.0 0 1 244.69 160.50
  L 262.45 160.44
  A 0.53 0.50 0.0 0 0 262.98 159.94
  L 262.98 158.01
  A 0.55 0.51 0.0 0 0 262.43 157.50
  L 222.81 157.32
  A 0.73 0.68 8.9 0 0 222.13 157.78
  Q 221.06 160.82 223.91 160.61
  Q 225.48 160.50 225.60 160.50
  Q 232.82 160.50 240.34 160.50
  A 0.67 0.66 90.0 0 1 241.00 161.17
  Z
  M 263.99 206.31
  A 1.25 1.25 0.0 0 0 262.74 205.06
  A 1.25 1.25 0.0 0 0 261.49 206.31
  A 1.25 1.25 0.0 0 0 262.74 207.56
  A 1.25 1.25 0.0 0 0 263.99 206.31
  Z"
/>
<path fill="#8fddd8" d="
  M 266.54 97.00
  Q 299.57 128.14 304.30 172.52
  Q 305.36 182.50 304.73 192.49
  Q 301.96 236.34 271.04 268.50
  Q 270.29 268.15 269.71 269.00
  Q 268.58 270.66 268.71 269.31
  Q 268.75 268.88 268.75 268.68
  Q 268.91 247.05 268.50 214.75
  Q 268.47 212.33 266.73 210.98
  A 0.42 0.41 -48.9 0 1 266.70 210.36
  Q 267.56 209.46 266.46 208.49
  A 0.36 0.34 49.0 0 1 266.48 207.93
  L 267.54 207.25
  Q 272.88 208.98 273.03 203.50
  Q 273.12 199.90 273.18 196.31
  A 0.62 0.59 -84.5 0 0 272.70 195.69
  Q 270.98 195.35 271.14 196.92
  Q 271.25 197.96 271.25 198.10
  Q 271.25 199.99 271.25 201.88
  Q 271.25 203.66 270.92 204.58
  Q 269.91 207.38 267.25 204.21
  Q 266.35 204.12 265.69 203.64
  A 1.42 1.02 -84.7 0 1 265.21 202.82
  Q 264.06 197.18 264.06 195.94
  Q 264.09 180.24 265.16 162.98
  A 1.32 1.32 -83.1 0 0 264.08 161.60
  Q 263.26 161.44 263.91 160.62
  A 1.24 1.06 -31.5 0 0 264.19 159.76
  Q 264.10 159.03 264.19 158.81
  Q 265.42 155.59 265.44 153.06
  Q 265.51 143.81 264.74 132.32
  Q 264.30 125.74 264.66 119.17
  Q 265.25 108.33 264.75 105.00
  Q 264.08 100.56 264.90 97.91
  A 0.74 0.56 5.5 0 1 265.56 97.50
  Q 266.15 97.49 266.54 97.00
  Z
  M 282.14 203.78
  Q 282.57 205.15 280.65 205.90
  A 2.28 2.28 -35.9 0 1 278.40 205.54
  Q 276.72 204.16 276.01 204.26
  Q 274.97 204.41 275.98 205.86
  Q 277.43 207.96 280.56 207.56
  Q 283.92 207.14 284.24 204.48
  Q 284.46 202.68 283.04 201.62
  Q 281.73 200.65 279.75 200.50
  Q 278.29 200.39 277.72 199.04
  A 0.82 0.79 -34.7 0 1 277.89 198.19
  Q 280.02 195.94 282.00 198.29
  A 1.94 1.21 67.4 0 0 282.79 198.85
  Q 285.00 199.54 283.69 197.31
  Q 282.23 194.85 278.87 195.78
  Q 274.41 197.01 276.44 200.87
  A 1.43 1.19 0.4 0 0 277.16 201.48
  L 281.47 203.12
  A 1.16 0.94 5.4 0 1 282.14 203.78
  Z"
/>
<path fill="#57ccc6" d="
  M 97.48 157.29
  L 94.14 157.49
  A 0.68 0.55 -2.2 0 0 93.50 158.05
  L 93.56 210.69
  A 0.53 0.52 -88.9 0 0 94.06 211.22
  L 95.50 211.29
  Q 95.40 212.51 94.65 213.44
  A 1.25 1.08 -32.1 0 0 94.38 214.32
  Q 95.26 221.38 95.02 228.47
  Q 94.98 229.76 93.97 237.47
  Q 93.39 241.98 93.58 246.57
  Q 93.83 252.66 93.99 258.75
  Q 93.99 259.04 93.73 259.67
  Q 93.43 260.36 93.94 261.31
  Q 94.54 262.46 93.25 262.29
  Q 56.22 217.11 67.50 160.00
  Q 73.00 132.13 92.50 108.71
  L 93.72 108.59
  A 1.01 0.35 -67.0 0 0 94.30 107.95
  Q 94.47 107.61 94.87 107.72
  A 1.25 0.32 60.8 0 1 95.51 108.39
  L 96.60 110.07
  A 0.45 0.43 55.8 0 1 96.50 110.67
  Q 95.61 111.31 96.25 112.75
  Q 96.96 114.34 96.93 117.23
  Q 96.91 118.83 97.38 121.56
  Q 97.70 123.40 97.42 125.24
  Q 96.96 128.13 96.94 128.83
  Q 96.81 133.16 96.76 137.51
  A 1.01 0.86 21.9 0 0 97.16 138.27
  Q 98.49 139.25 98.28 140.95
  A 1.08 0.73 -16.9 0 1 97.73 141.63
  Q 96.76 142.16 97.00 143.25
  Q 98.09 148.24 96.89 152.52
  Q 96.87 152.62 96.81 153.50
  Q 96.78 153.98 96.32 154.07
  A 0.30 0.27 -17.8 0 0 96.09 154.47
  Q 96.45 155.17 95.72 155.56
  Q 95.07 155.91 94.89 156.12
  Q 93.52 157.71 97.48 157.29
  Z"
/>
<path fill="#000000" d="
  M 220.29 210.75
  Q 218.89 211.59 217.47 211.30
  Q 216.38 211.07 215.38 209.70
  Q 207.39 198.60 198.97 186.91
  A 0.69 0.69 0.0 0 0 197.85 186.91
  L 181.94 209.05
  Q 180.58 211.87 176.89 211.18
  A 0.36 0.36 -67.1 0 1 176.66 210.61
  L 195.95 184.16
  A 0.72 0.67 -45.8 0 0 195.97 183.35
  L 178.05 158.15
  A 0.36 0.35 64.3 0 1 178.23 157.60
  Q 179.69 157.19 181.19 157.46
  A 1.31 1.13 73.9 0 1 181.97 157.97
  L 188.46 167.00
  L 197.84 180.17
  A 0.83 0.81 -44.5 0 0 199.17 180.17
  L 222.29 149.00
  L 238.57 128.23
  Q 238.85 127.87 238.95 128.17
  Q 238.99 128.32 238.82 128.55
  Q 219.89 155.67 200.93 183.31
  A 0.67 0.66 44.6 0 0 200.94 184.07
  L 220.29 210.75
  Z"
/>
<path fill="#000000" d="
  M 160.50 211.29
  L 138.81 211.25
  A 0.56 0.55 0.0 0 1 138.25 210.70
  L 138.31 158.05
  A 0.51 0.50 -0.6 0 1 138.81 157.55
  L 144.25 157.46
  Q 157.49 157.53 170.73 157.50
  Q 170.79 157.50 172.75 157.34
  Q 175.42 157.11 174.21 160.04
  A 0.78 0.76 11.5 0 1 173.50 160.50
  L 142.25 160.50
  A 0.50 0.50 0.0 0 0 141.75 161.00
  L 141.81 181.18
  A 0.51 0.50 90.0 0 0 142.31 181.69
  L 171.74 181.75
  A 0.72 0.66 -7.5 0 1 172.42 182.22
  Q 172.71 183.25 172.42 184.28
  A 0.71 0.66 7.6 0 1 171.75 184.75
  L 142.31 184.75
  A 0.56 0.56 0.0 0 0 141.75 185.31
  L 141.75 207.69
  A 0.56 0.56 0.0 0 0 142.31 208.25
  Q 157.54 208.25 172.11 208.25
  Q 172.18 208.25 173.38 208.15
  Q 175.57 207.96 174.95 210.74
  A 0.75 0.73 6.3 0 1 174.22 211.31
  L 160.50 211.29
  Z"
/>
<path fill="#000000" d="
  M 241.00 161.17
  A 0.67 0.66 90.0 0 0 240.34 160.50
  Q 232.82 160.50 225.60 160.50
  Q 225.48 160.50 223.91 160.61
  Q 221.06 160.82 222.13 157.78
  A 0.73 0.68 8.9 0 1 222.81 157.32
  L 262.43 157.50
  A 0.55 0.51 -0.0 0 1 262.98 158.01
  L 262.98 159.94
  A 0.53 0.50 0.0 0 1 262.45 160.44
  L 244.69 160.50
  A 0.51 0.51 0.0 0 0 244.18 161.01
  L 244.19 210.43
  A 0.67 0.52 88.2 0 1 243.71 211.09
  L 241.30 211.27
  A 0.57 0.46 88.6 0 1 240.81 210.70
  L 241.00 161.17
  Z"
/>
<path fill="#000000" d="
  M 97.48 157.29
  L 144.29 227.25
  Q 148.90 234.34 153.69 241.31
  Q 153.82 241.49 153.74 241.59
  A 0.22 0.16 47.7 0 1 153.44 241.53
  L 144.04 229.00
  Q 130.57 211.04 127.19 206.06
  Q 112.66 184.73 97.69 162.90
  Q 96.75 161.52 96.74 163.20
  L 96.51 210.50
  A 0.86 0.61 84.0 0 1 96.08 211.27
  Q 95.82 211.35 95.50 211.29
  L 94.06 211.22
  A 0.53 0.52 -88.9 0 1 93.56 210.69
  L 93.50 158.05
  A 0.68 0.55 -2.2 0 1 94.14 157.49
  L 97.48 157.29
  Z"
/>
<path fill="#62cfc9" d="
  M 144.04 229.00
  Q 143.89 230.52 144.48 232.04
  A 0.91 0.91 -15.7 0 0 145.50 232.61
  Q 146.87 232.34 146.80 234.01
  A 1.52 1.39 -63.2 0 0 147.05 234.90
  Q 148.65 237.12 147.75 239.50
  Q 147.16 241.05 148.06 241.99
  A 0.86 0.77 33.3 0 1 148.27 242.78
  Q 147.64 244.79 149.55 244.39
  A 0.37 0.37 -89.5 0 1 149.99 244.84
  Q 148.78 250.14 148.26 254.26
  Q 148.05 255.90 148.33 259.22
  Q 148.47 260.89 148.39 262.57
  Q 148.31 264.25 148.50 265.91
  Q 148.77 268.25 148.60 270.59
  Q 148.44 272.72 148.60 275.29
  Q 148.76 277.65 148.34 280.01
  Q 148.26 280.50 148.41 280.97
  Q 149.02 282.91 148.75 283.75
  Q 147.99 286.13 148.25 289.75
  Q 148.70 296.00 149.69 299.75
  Q 116.01 289.24 93.25 262.29
  Q 94.54 262.46 93.94 261.31
  Q 93.43 260.36 93.73 259.67
  Q 93.99 259.04 93.99 258.75
  Q 93.83 252.66 93.58 246.57
  Q 93.39 241.98 93.97 237.47
  Q 94.98 229.76 95.02 228.47
  Q 95.26 221.38 94.38 214.32
  A 1.25 1.08 -32.1 0 1 94.65 213.44
  Q 95.40 212.51 95.50 211.29
  Q 95.82 211.35 96.08 211.27
  A 0.86 0.61 84.0 0 0 96.51 210.50
  L 96.74 163.20
  Q 96.75 161.52 97.69 162.90
  Q 112.66 184.73 127.19 206.06
  Q 130.57 211.04 144.04 229.00
  Z"
/>
<path fill="#79d6d0" d="
  M 220.29 210.75
  Q 219.85 211.82 220.55 212.39
  Q 221.40 213.09 221.45 213.15
  Q 222.97 215.09 223.12 217.44
  Q 223.17 218.23 222.18 221.39
  Q 221.44 223.76 221.50 227.25
  Q 221.59 232.41 220.43 239.42
  A 3.21 3.16 -54.8 0 0 220.76 241.42
  Q 221.49 242.78 221.51 245.00
  Q 221.56 254.63 221.51 264.27
  Q 221.51 264.35 221.76 267.20
  Q 221.90 268.75 221.42 270.27
  A 1.43 1.00 -56.2 0 0 221.44 271.21
  Q 221.86 272.08 222.64 272.66
  A 0.42 0.41 40.6 0 1 222.70 273.28
  Q 221.41 274.63 221.53 276.53
  Q 221.65 278.53 221.65 278.60
  Q 221.37 287.58 222.03 296.54
  A 1.22 0.38 46.2 0 0 222.36 297.20
  Q 222.56 297.46 222.17 297.60
  Q 221.94 297.68 222.18 297.72
  Q 223.11 297.85 223.79 298.50
  Q 205.23 305.08 185.50 304.96
  Q 184.35 303.70 185.70 303.29
  A 0.81 0.69 -6.3 0 0 186.26 302.69
  Q 186.69 299.34 186.32 296.02
  Q 185.80 291.49 185.85 289.43
  Q 185.99 282.78 185.67 276.13
  Q 185.31 268.39 185.41 262.85
  Q 185.66 249.12 185.21 235.40
  Q 185.11 232.30 185.41 224.12
  Q 185.62 218.46 184.99 212.80
  A 1.17 0.87 18.8 0 0 184.49 212.07
  Q 183.98 211.72 183.70 211.21
  A 1.16 0.78 -54.9 0 1 183.72 210.30
  Q 184.56 208.34 181.94 209.05
  L 197.85 186.91
  A 0.69 0.69 0.0 0 1 198.97 186.91
  Q 207.39 198.60 215.38 209.70
  Q 216.38 211.07 217.47 211.30
  Q 218.89 211.59 220.29 210.75
  Z"
/>
<path fill="#000000" d="
  M 281.47 203.12
  L 277.16 201.48
  A 1.43 1.19 0.4 0 1 276.44 200.87
  Q 274.41 197.01 278.87 195.78
  Q 282.23 194.85 283.69 197.31
  Q 285.00 199.54 282.79 198.85
  A 1.94 1.21 67.4 0 1 282.00 198.29
  Q 280.02 195.94 277.89 198.19
  A 0.82 0.79 -34.7 0 0 277.72 199.04
  Q 278.29 200.39 279.75 200.50
  Q 281.73 200.65 283.04 201.62
  Q 284.46 202.68 284.24 204.48
  Q 283.92 207.14 280.56 207.56
  Q 277.43 207.96 275.98 205.86
  Q 274.97 204.41 276.01 204.26
  Q 276.72 204.16 278.40 205.54
  A 2.28 2.28 -35.9 0 0 280.65 205.90
  Q 282.57 205.15 282.14 203.78
  A 1.16 0.94 5.4 0 0 281.47 203.12
  Z"
/>
<path fill="#000000" d="
  M 267.54 207.25
  Q 264.82 205.65 267.25 204.21
  Q 269.91 207.38 270.92 204.58
  Q 271.25 203.66 271.25 201.88
  Q 271.25 199.99 271.25 198.10
  Q 271.25 197.96 271.14 196.92
  Q 270.98 195.35 272.70 195.69
  A 0.62 0.59 -84.5 0 1 273.18 196.31
  Q 273.12 199.90 273.03 203.50
  Q 272.88 208.98 267.54 207.25
  Z"
/>
<circle fill="#000000" cx="262.74" cy="206.31" r="1.25"/>
</svg>
