<?xml version="1.0" encoding="UTF-8" standalone="no"?>
<!DOCTYPE svg PUBLIC "-//W3C//DTD SVG 1.1//EN" "http://www.w3.org/Graphics/SVG/1.1/DTD/svg11.dtd">
<svg xmlns="http://www.w3.org/2000/svg" version="1.1" viewBox="0 0 370 370">
<g stroke-width="2.00" fill="none" stroke-linecap="butt">
<path stroke="#48474a" vector-effect="non-scaling-stroke" d="
  M 191.54 189.00
  L 192.13 188.57
  A 0.89 0.73 70.1 0 0 192.42 187.75
  Q 191.55 181.94 191.75 178.75
  Q 192.33 169.75 191.71 160.15
  Q 191.59 158.26 193.32 157.47
  Q 199.43 154.67 205.58 150.29
  Q 206.99 149.29 205.21 149.50"
/>
<path stroke="#565455" vector-effect="non-scaling-stroke" d="
  M 95.88 188.89
  Q 96.15 179.77 95.83 170.85
  Q 95.75 168.47 94.51 167.05
  Q 92.00 164.18 88.04 163.50"
/>
<path stroke="#48474a" vector-effect="non-scaling-stroke" d="
  M 59.77 197.65
  Q 60.38 184.32 59.68 171.49
  Q 59.32 164.99 59.73 158.80
  A 1.94 1.91 -14.8 0 1 60.62 157.30
  Q 68.82 152.14 76.54 147.85
  Q 76.64 147.79 79.73 145.88
  Q 81.76 144.64 84.04 143.89
  Q 84.95 143.59 85.04 143.12
  Q 85.15 142.56 84.66 141.67"
/>
<path stroke="#48474a" vector-effect="non-scaling-stroke" d="
  M 280.93 164.66
  Q 271.51 166.94 275.14 175.64"
/>
<path stroke="#56a245" vector-effect="non-scaling-stroke" d="
  M 154.04 142.75
  Q 153.51 144.07 152.98 145.37
  Q 152.44 146.69 152.47 148.10
  Q 152.90 169.81 152.76 191.53
  Q 152.76 191.63 152.85 193.96
  Q 152.97 196.89 151.81 199.58
  Q 151.02 201.38 150.08 199.66
  L 136.25 174.46"
/>
<path stroke="#52a83e" vector-effect="non-scaling-stroke" d="
  M 136.25 174.46
  Q 132.33 166.45 127.46 158.98
  A 0.82 0.65 64.0 0 0 126.69 158.61
  L 125.21 159.00"
/>
<path stroke="#45973b" vector-effect="non-scaling-stroke" d="
  M 125.05 188.26
  Q 126.01 187.81 126.77 187.89
  A 0.54 0.50 8.4 0 0 127.35 187.50
  Q 127.70 185.70 128.00 185.25
  Q 130.95 180.75 133.04 175.81
  Q 133.87 173.86 136.25 174.46"
/>
</g>
<path fill="#333333" d="
  M 191.54 189.00
  L 192.13 188.57
  A 0.89 0.73 70.1 0 0 192.42 187.75
  Q 191.55 181.94 191.75 178.75
  Q 192.33 169.75 191.71 160.15
  Q 191.59 158.26 193.32 157.47
  Q 199.43 154.67 205.58 150.29
  Q 206.99 149.29 205.21 149.50
  Q 208.14 147.26 212.44 145.44
  Q 213.39 145.03 214.30 144.15
  Q 215.34 143.14 216.11 142.90
  Q 217.56 142.45 219.04 142.69
  Q 220.04 142.85 221.58 143.94
  Q 223.54 145.33 225.79 146.18
  A 1.08 1.08 10.3 0 0 227.25 145.17
  L 227.25 108.83
  Q 227.25 105.68 229.98 107.24
  Q 233.99 109.52 238.03 111.73
  Q 243.36 114.65 243.75 115.01
  Q 246.06 117.13 245.88 120.74
  Q 245.76 123.14 245.76 123.28
  Q 245.83 128.69 245.91 134.10
  Q 245.99 139.49 245.90 144.92
  Q 245.40 175.04 246.00 182.75
  Q 246.52 189.48 241.47 191.92
  Q 238.73 193.24 238.63 193.30
  Q 229.20 198.79 219.83 204.10
  Q 218.36 204.94 216.89 204.12
  Q 206.30 198.25 196.19 192.31
  Q 192.61 190.21 191.54 189.00
  Z
  M 226.89 168.74
  L 218.91 163.64
  A 1.24 1.11 44.1 0 0 217.63 163.59
  L 210.21 168.26
  A 1.09 0.90 79.3 0 0 209.77 169.06
  Q 209.62 171.37 209.70 173.69
  Q 209.70 173.75 209.61 175.81
  Q 209.55 177.09 210.09 178.15
  Q 210.60 179.15 212.50 180.21
  Q 214.80 181.50 217.14 183.17
  A 2.11 2.11 44.1 0 0 219.65 183.13
  Q 221.75 181.54 224.30 180.36
  Q 227.97 178.66 227.12 174.53
  Q 226.62 172.07 227.32 170.03
  A 1.11 1.08 -64.3 0 0 226.89 168.74
  Z"
/>
<path fill="#333333" d="
  M 95.88 188.89
  Q 96.15 179.77 95.83 170.85
  Q 95.75 168.47 94.51 167.05
  Q 92.00 164.18 88.04 163.50
  Q 85.34 162.80 83.44 163.94
  Q 81.03 165.38 78.20 167.27
  A 2.64 2.50 74.0 0 0 77.07 169.45
  L 77.26 186.19
  Q 77.28 188.19 75.55 189.36
  Q 68.12 194.38 59.77 197.65
  Q 60.38 184.32 59.68 171.49
  Q 59.32 164.99 59.73 158.80
  A 1.94 1.91 -14.8 0 1 60.62 157.30
  Q 68.82 152.14 76.54 147.85
  Q 76.64 147.79 79.73 145.88
  Q 81.76 144.64 84.04 143.89
  Q 84.95 143.59 85.04 143.12
  Q 85.15 142.56 84.66 141.67
  Q 95.94 146.52 106.31 152.87
  Q 111.12 155.82 111.31 156.01
  Q 113.50 158.11 113.50 162.00
  Q 113.50 177.44 113.50 192.88
  Q 113.50 192.96 113.58 194.61
  Q 113.77 198.77 109.69 197.06
  Q 104.83 195.03 95.88 188.89
  Z"
/>
<path fill="#333333" d="
  M 280.93 164.66
  Q 271.51 166.94 275.14 175.64
  Q 276.10 178.64 279.81 180.69
  Q 290.38 186.52 300.45 192.67
  Q 302.60 193.98 300.45 195.18
  L 285.74 203.41
  Q 283.95 204.41 282.05 203.28
  Q 270.99 196.68 260.69 191.06
  Q 258.96 190.12 258.04 188.73
  Q 257.32 187.64 257.28 185.48
  Q 257.06 171.76 257.49 158.34
  A 1.84 1.83 -15.0 0 1 258.37 156.83
  Q 268.04 150.94 277.54 145.61
  Q 277.64 145.55 280.66 143.49
  Q 284.51 140.87 288.32 143.47
  Q 291.39 145.56 291.50 145.62
  Q 300.84 150.81 310.22 156.48
  Q 311.80 157.44 312.08 159.26
  Q 312.48 161.81 312.21 164.63
  Q 312.00 166.90 310.52 168.18
  Q 309.18 169.34 307.06 170.56
  Q 302.26 173.34 297.40 175.99
  Q 297.31 176.04 296.26 176.67
  Q 292.85 178.72 293.25 174.00
  Q 293.35 172.84 293.21 169.31
  A 1.23 1.21 -69.8 0 0 292.83 168.47
  Q 288.63 164.57 285.25 163.50
  Q 283.20 162.85 280.93 164.66
  Z"
/>
<path fill="#5c5a61" d="
  M 84.66 141.67
  Q 85.15 142.56 85.04 143.12
  Q 84.95 143.59 84.04 143.89
  Q 81.76 144.64 79.73 145.88
  Q 76.64 147.79 76.54 147.85
  Q 68.82 152.14 60.62 157.30
  A 1.94 1.91 -14.8 0 0 59.73 158.80
  Q 59.32 164.99 59.68 171.49
  Q 60.38 184.32 59.77 197.65
  Q 58.20 197.36 58.25 195.25
  Q 58.45 187.24 57.96 163.64
  Q 57.96 163.55 57.76 161.49
  Q 57.58 159.69 58.32 158.11
  Q 58.89 156.86 60.63 155.83
  Q 72.25 148.96 84.66 141.67
  Z"
/>
<path fill="#62b248" d="
  M 154.04 142.75
  Q 153.51 144.07 152.98 145.37
  Q 152.44 146.69 152.47 148.10
  Q 152.90 169.81 152.76 191.53
  Q 152.76 191.63 152.85 193.96
  Q 152.97 196.89 151.81 199.58
  Q 151.02 201.38 150.08 199.66
  L 136.25 174.46
  Q 132.33 166.45 127.46 158.98
  A 0.82 0.65 64.0 0 0 126.69 158.61
  L 125.21 159.00
  Q 124.78 157.68 125.81 157.06
  Q 143.63 146.41 150.94 142.44
  Q 152.32 141.69 154.04 142.75
  Z"
/>
<path fill="#499141" d="
  M 154.04 142.75
  L 178.43 156.89
  A 1.14 1.13 15.3 0 1 179.00 157.87
  L 179.00 187.91
  A 1.66 1.65 74.6 0 1 178.20 189.33
  Q 166.79 196.26 154.86 202.78
  Q 152.80 203.90 151.28 203.71
  Q 149.74 203.51 148.38 202.59
  Q 147.03 201.68 146.93 201.61
  Q 133.83 193.88 131.31 192.69
  Q 127.42 190.84 125.05 188.26
  Q 126.01 187.81 126.77 187.89
  A 0.54 0.50 8.4 0 0 127.35 187.50
  Q 127.70 185.70 128.00 185.25
  Q 130.95 180.75 133.04 175.81
  Q 133.87 173.86 136.25 174.46
  L 150.08 199.66
  Q 151.02 201.38 151.81 199.58
  Q 152.97 196.89 152.85 193.96
  Q 152.76 191.63 152.76 191.53
  Q 152.90 169.81 152.47 148.10
  Q 152.44 146.69 152.98 145.37
  Q 153.51 144.07 154.04 142.75
  Z"
/>
<path fill="#5c5a61" d="
  M 205.21 149.50
  Q 206.99 149.29 205.58 150.29
  Q 199.43 154.67 193.32 157.47
  Q 191.59 158.26 191.71 160.15
  Q 192.33 169.75 191.75 178.75
  Q 191.55 181.94 192.42 187.75
  A 0.89 0.73 70.1 0 1 192.13 188.57
  L 191.54 189.00
  Q 190.75 187.69 190.75 187.25
  Q 190.61 174.12 190.50 160.86
  Q 190.47 158.06 192.72 156.76
  L 205.21 149.50
  Z"
/>
<path fill="#419d34" d="
  M 136.25 174.46
  Q 133.87 173.86 133.04 175.81
  Q 130.95 180.75 128.00 185.25
  Q 127.70 185.70 127.35 187.50
  A 0.54 0.50 8.4 0 1 126.77 187.89
  Q 126.01 187.81 125.05 188.26
  L 125.21 159.00
  L 126.69 158.61
  A 0.82 0.65 64.0 0 1 127.46 158.98
  Q 132.33 166.45 136.25 174.46
  Z"
/>
<path fill="#787576" d="
  M 95.88 188.89
  Q 94.25 187.25 94.25 183.75
  Q 94.25 177.50 94.25 169.79
  Q 94.25 167.93 92.73 166.85
  L 88.04 163.50
  Q 92.00 164.18 94.51 167.05
  Q 95.75 168.47 95.83 170.85
  Q 96.15 179.77 95.88 188.89
  Z"
/>
<path fill="#5c5a61" d="
  M 280.93 164.66
  Q 275.57 166.62 275.75 171.50
  Q 275.84 174.12 275.14 175.64
  Q 271.51 166.94 280.93 164.66
  Z"
/>
<circle fill="#56a046" cx="284.42" cy="173.07" r="5.59"/>
<path fill="#5fa34f" d="
  M 171.00 247.80
  Q 172.56 245.71 172.54 243.00
  Q 172.46 231.41 172.56 219.82
  A 0.75 0.69 81.4 0 1 173.03 219.12
  Q 174.66 218.56 175.85 219.70
  A 1.25 1.00 -72.0 0 1 176.18 220.57
  Q 176.15 232.63 176.73 244.68
  Q 176.91 248.45 174.76 251.29
  A 1.62 1.59 9.9 0 1 173.96 251.84
  Q 167.23 253.91 161.58 250.14
  Q 161.47 250.07 159.15 248.73
  Q 157.69 247.89 156.87 246.44
  Q 156.26 245.37 156.20 243.42
  Q 155.83 230.96 155.94 218.50
  Q 155.96 215.45 157.89 213.71
  Q 158.22 213.41 162.05 211.25
  Q 173.11 205.01 179.44 200.94
  Q 181.50 199.61 183.60 199.55
  Q 185.16 199.51 187.53 200.86
  Q 199.03 207.40 209.76 213.90
  Q 211.50 214.96 211.50 216.99
  Q 211.50 230.63 211.50 243.00
  Q 211.50 246.27 209.10 247.80
  Q 198.45 254.57 187.40 260.65
  Q 187.30 260.70 186.15 261.43
  Q 183.95 262.84 181.74 261.52
  Q 180.28 260.65 180.19 260.60
  Q 176.89 258.94 173.90 256.79
  A 0.44 0.39 42.6 0 1 173.83 256.13
  L 176.56 253.99
  A 0.89 0.63 36.3 0 1 177.42 254.00
  L 183.05 257.03
  A 1.19 1.10 -38.9 0 0 183.97 257.09
  Q 186.24 256.27 188.27 255.02
  Q 191.91 252.80 191.95 252.77
  Q 198.72 249.04 205.89 244.88
  A 2.25 2.25 -14.7 0 0 207.01 242.97
  Q 207.11 233.30 207.01 223.15
  Q 207.01 223.10 207.12 220.85
  Q 207.31 216.98 204.19 215.31
  Q 193.96 209.85 183.94 204.01
  A 0.86 0.86 45.0 0 0 183.08 204.01
  L 162.12 216.06
  A 2.71 2.69 75.4 0 0 160.76 218.39
  L 160.50 242.77
  A 2.57 2.45 -74.7 0 0 161.69 244.97
  Q 162.80 245.65 164.52 246.57
  Q 164.61 246.63 166.25 247.69
  Q 168.09 248.88 170.22 248.33
  A 1.49 1.36 -76.5 0 0 171.00 247.80
  Z"
/>
<path fill="#5fa34f" d="
  M 196.69 234.56
  Q 195.78 232.81 192.25 232.75
  Q 188.63 232.69 185.13 231.92
  Q 182.07 231.26 180.62 229.30
  Q 178.37 226.26 180.09 222.95
  Q 181.37 220.49 184.42 219.20
  Q 191.13 216.37 197.98 220.29
  Q 201.39 222.24 201.22 226.19
  A 0.85 0.82 79.2 0 1 200.74 226.92
  Q 198.14 228.10 195.88 224.65
  A 2.87 2.87 86.3 0 0 194.71 223.62
  Q 190.22 221.51 186.27 223.35
  Q 185.01 223.94 184.50 224.95
  Q 183.58 226.79 186.00 227.50
  Q 188.18 228.14 196.50 229.00
  Q 198.08 229.16 200.18 230.92
  Q 201.88 232.34 202.27 234.27
  Q 203.28 239.32 198.31 242.06
  Q 194.88 243.96 190.93 243.85
  Q 187.66 243.75 185.08 243.21
  Q 181.79 242.52 179.81 240.19
  Q 178.00 238.06 179.45 235.13
  A 1.00 0.92 -78.7 0 1 180.18 234.60
  Q 181.91 234.38 182.81 235.69
  Q 184.47 238.08 186.71 238.64
  Q 190.82 239.67 194.92 238.62
  Q 198.34 237.74 196.69 234.56
  Z"
/>
</svg>
