<?xml version="1.0" encoding="UTF-8" standalone="no"?>
<!DOCTYPE svg PUBLIC "-//W3C//DTD SVG 1.1//EN" "http://www.w3.org/Graphics/SVG/1.1/DTD/svg11.dtd">
<svg xmlns="http://www.w3.org/2000/svg" version="1.1" viewBox="0 0 370 370">
<g stroke-width="2.00" fill="none" stroke-linecap="butt">
<path stroke="#3f4140" vector-effect="non-scaling-stroke" d="
  M 265.76 72.61
  L 265.62 73.26
  A 0.90 0.77 -4.2 0 1 265.01 73.86
  L 257.50 76.04"
/>
<path stroke="#4f4f4f" vector-effect="non-scaling-stroke" d="
  M 257.50 76.04
  Q 249.81 75.94 242.15 75.40
  Q 228.20 74.42 226.84 74.34
  Q 164.16 71.01 101.50 67.54"
/>
<path stroke="#333434" vector-effect="non-scaling-stroke" d="
  M 257.50 76.04
  Q 257.15 77.32 258.25 78.21"
/>
<path stroke="#5d5e5d" vector-effect="non-scaling-stroke" d="
  M 258.25 78.21
  Q 256.50 78.22 256.04 78.86"
/>
<path stroke="#383838" vector-effect="non-scaling-stroke" d="
  M 256.04 78.86
  Q 242.97 78.76 229.97 77.96
  Q 215.56 77.08 210.01 76.84
  Q 189.61 75.97 169.24 74.74
  Q 153.58 73.80 137.92 72.82
  Q 137.89 72.82 127.56 72.43
  Q 123.13 72.26 117.00 71.75
  Q 109.93 71.16 99.50 72.00
  Q 96.79 72.22 95.16 71.27
  A 1.16 1.14 51.6 0 0 94.28 71.16
  Q 93.36 71.41 92.46 71.25"
/>
<path stroke="#2f3030" vector-effect="non-scaling-stroke" d="
  M 298.46 110.00
  Q 296.84 109.85 295.46 110.54
  Q 293.35 111.59 293.30 111.61
  Q 291.97 112.06 290.08 112.57
  A 1.48 1.42 -7.5 0 0 288.98 113.94
  L 288.79 143.50"
/>
<path stroke="#333434" vector-effect="non-scaling-stroke" d="
  M 288.79 143.50
  L 288.71 170.50"
/>
<path stroke="#2d2e2e" vector-effect="non-scaling-stroke" d="
  M 287.54 171.00
  Q 288.19 138.58 286.31 106.22"
/>
<path stroke="#4e4f4f" vector-effect="non-scaling-stroke" d="
  M 286.31 106.22
  Q 281.76 89.42 267.18 81.08
  Q 263.01 78.70 258.25 78.21"
/>
<path stroke="#535453" vector-effect="non-scaling-stroke" d="
  M 256.04 78.86
  Q 277.49 85.31 284.54 106.50"
/>
<path stroke="#323333" vector-effect="non-scaling-stroke" d="
  M 284.54 106.50
  Q 285.45 128.13 285.19 133.56
  Q 284.59 145.77 284.67 157.98
  Q 284.78 175.60 284.78 175.65
  Q 284.62 221.95 284.73 268.25
  Q 284.75 274.49 282.94 280.41
  Q 282.92 280.45 282.47 281.57
  Q 281.94 282.89 282.31 284.51
  Q 282.62 285.88 283.22 284.61
  Q 284.83 281.23 285.86 277.61
  Q 286.74 274.56 286.85 270.28
  Q 287.19 257.14 287.20 244.00
  Q 287.25 207.50 287.54 171.00"
/>
<path stroke="#282a2a" vector-effect="non-scaling-stroke" d="
  M 287.54 171.00
  L 288.71 170.50"
/>
<path stroke="#383838" vector-effect="non-scaling-stroke" d="
  M 288.71 170.50
  L 288.96 223.00"
/>
<path stroke="#3b3b3b" vector-effect="non-scaling-stroke" d="
  M 288.96 223.00
  Q 289.07 233.04 288.75 268.75
  Q 288.65 279.48 284.00 287.96"
/>
<path stroke="#444545" vector-effect="non-scaling-stroke" d="
  M 284.00 287.96
  Q 279.66 294.85 273.61 300.43"
/>
<path stroke="#585858" vector-effect="non-scaling-stroke" d="
  M 286.31 106.22
  Q 284.87 106.70 284.54 106.50"
/>
<path stroke="#3f3f3f" vector-effect="non-scaling-stroke" d="
  M 298.46 149.75
  Q 297.94 141.73 298.25 138.50
  Q 298.47 136.25 297.92 137.17
  Q 297.75 137.46 297.76 137.87
  Q 297.78 139.42 297.70 140.95
  Q 297.69 141.17 297.61 140.96
  Q 297.31 140.12 297.25 140.98
  Q 297.25 141.07 297.18 141.02
  Q 295.77 140.13 295.17 140.79
  Q 294.61 141.42 294.57 141.44
  Q 293.91 141.80 293.19 141.50
  A 1.22 1.16 -43.0 0 0 292.31 141.49
  L 291.24 141.89
  A 1.41 0.68 32.4 0 1 290.31 141.78
  Q 288.62 141.08 288.79 143.50"
/>
<path stroke="#454545" vector-effect="non-scaling-stroke" d="
  M 298.46 215.75
  Q 298.03 214.90 298.00 212.25
  Q 297.94 207.16 297.85 211.25
  Q 297.73 216.63 297.07 212.49
  A 0.30 0.30 -22.2 0 0 296.59 212.29
  Q 293.49 214.59 292.19 218.27
  Q 291.59 219.95 289.40 219.63
  A 0.13 0.13 1.7 0 0 289.25 219.77
  Q 289.46 221.42 288.96 223.00"
/>
<path stroke="#525252" vector-effect="non-scaling-stroke" d="
  M 291.84 287.18
  L 284.00 287.96"
/>
<path stroke="#507c87" vector-effect="non-scaling-stroke" d="
  M 100.54 179.70
  Q 97.88 184.61 100.97 188.03
  Q 104.16 191.57 108.64 193.20
  Q 113.16 194.84 117.79 196.11
  Q 134.59 200.72 152.90 203.88"
/>
<path stroke="#4c7884" vector-effect="non-scaling-stroke" d="
  M 152.90 203.88
  Q 144.20 222.44 137.85 241.78
  Q 135.94 247.62 136.00 252.75
  Q 136.04 256.39 138.51 258.25
  Q 140.68 259.89 143.75 258.97
  Q 147.14 257.95 149.71 255.25"
/>
<path stroke="#2a2b2b" vector-effect="non-scaling-stroke" d="
  M 149.71 255.25
  Q 149.81 257.45 147.78 258.11
  Q 147.06 258.34 146.80 258.56
  Q 145.78 259.35 147.09 259.87
  Q 147.51 260.04 148.30 259.97
  Q 149.62 259.85 150.82 260.49
  A 1.15 1.11 -38.9 0 0 151.73 260.57
  Q 153.84 259.88 155.14 261.42
  Q 155.48 261.82 155.91 261.99
  Q 158.88 263.18 160.44 265.80
  Q 161.12 266.95 161.09 269.38
  Q 161.06 272.06 162.14 274.55
  Q 162.36 275.05 163.30 276.08
  Q 164.10 276.96 164.00 278.00
  Q 163.75 280.58 164.87 282.23
  Q 165.20 282.73 167.47 284.95
  Q 168.83 286.27 170.44 287.31
  Q 171.40 287.93 174.56 287.31
  Q 177.19 286.80 178.36 284.51
  Q 178.60 284.04 178.97 283.78
  Q 180.93 282.42 182.96 281.15
  Q 187.28 278.45 192.31 279.94
  Q 195.80 280.97 198.49 279.70
  Q 200.74 278.63 201.76 278.49
  Q 209.05 277.48 217.08 277.50
  A 0.93 0.92 15.6 0 0 217.87 277.06
  Q 219.89 273.67 219.87 270.33
  Q 219.87 269.88 219.03 267.34
  Q 218.22 264.91 221.50 264.00
  Q 223.85 263.35 224.25 261.75
  Q 224.58 260.40 223.98 260.38
  A 1.02 0.55 -66.5 0 0 223.27 260.94
  Q 221.72 263.70 218.76 262.33"
/>
<path stroke="#4c7884" vector-effect="non-scaling-stroke" d="
  M 218.76 262.33
  Q 225.98 258.67 226.50 250.00
  Q 226.83 244.45 226.29 241.00"
/>
<path stroke="#5a838c" vector-effect="non-scaling-stroke" d="
  M 226.29 241.00
  Q 225.51 233.09 223.00 225.54"
/>
<path stroke="#292a2b" vector-effect="non-scaling-stroke" d="
  M 223.00 225.54
  Q 224.05 225.22 224.62 228.11
  Q 224.70 228.56 225.01 228.91
  Q 225.40 229.37 225.11 228.29
  Q 224.54 226.15 225.70 224.41
  A 1.63 1.41 -33.1 0 0 225.96 223.51
  Q 225.88 221.66 226.62 219.67
  Q 227.29 217.88 229.16 218.28
  Q 232.41 218.98 234.85 221.12
  Q 237.90 223.81 238.70 224.27
  Q 241.48 225.88 244.51 227.00
  Q 246.13 227.61 244.82 226.48
  Q 242.99 224.91 240.59 223.59
  Q 237.87 222.09 240.96 223.35
  Q 242.40 223.94 242.73 222.80
  A 0.60 0.58 8.0 0 1 243.32 222.37
  Q 244.15 222.39 244.51 221.78
  A 1.24 0.80 57.2 0 0 244.51 220.85
  Q 242.67 216.14 241.19 211.31
  Q 240.63 209.50 237.50 207.21"
/>
<path stroke="#4c7884" vector-effect="non-scaling-stroke" d="
  M 237.50 207.21
  Q 245.31 205.64 246.75 205.25
  Q 250.63 204.21 252.69 201.69
  Q 254.35 199.65 253.63 195.60"
/>
<path stroke="#5a838c" vector-effect="non-scaling-stroke" d="
  M 253.63 195.60
  Q 246.45 188.58 235.25 186.00
  Q 233.03 185.49 222.25 182.46"
/>
<path stroke="#27292b" vector-effect="non-scaling-stroke" d="
  M 222.25 182.46
  Q 223.79 181.42 224.73 182.59
  A 0.96 0.94 -19.2 0 0 225.50 182.95
  L 228.95 182.90
  A 1.51 1.16 18.8 0 0 229.81 182.61
  Q 232.17 180.60 235.81 179.56
  Q 237.02 179.22 236.91 178.05
  A 1.05 0.86 69.5 0 1 237.19 177.23
  Q 242.88 172.16 235.01 171.77
  A 0.59 0.55 88.1 0 1 234.48 171.24
  Q 234.36 169.99 233.39 169.24
  Q 232.37 168.45 232.20 168.16
  Q 231.77 167.43 231.70 166.56
  A 1.54 1.26 -72.9 0 0 231.35 165.70
  Q 228.80 162.83 228.97 159.00
  A 0.59 0.57 -83.8 0 0 228.50 158.40
  Q 221.53 156.99 214.96 159.56
  A 1.74 1.59 37.5 0 1 214.01 159.64
  L 210.81 159.02
  A 0.60 0.54 -86.0 0 1 210.37 158.45
  Q 210.35 157.78 209.75 157.46"
/>
<path stroke="#407080" vector-effect="non-scaling-stroke" d="
  M 209.75 157.46
  Q 213.56 146.95 216.57 136.20
  Q 217.01 134.63 217.25 130.75
  Q 217.46 127.40 215.79 125.00"
/>
<path stroke="#5a838c" vector-effect="non-scaling-stroke" d="
  M 215.79 125.00
  Q 215.29 124.23 214.50 123.79"
/>
<path stroke="#65888f" vector-effect="non-scaling-stroke" d="
  M 214.50 123.79
  Q 209.42 121.51 205.04 125.61"
/>
<path stroke="#5a838c" vector-effect="non-scaling-stroke" d="
  M 205.04 125.61
  Q 192.57 137.74 183.17 152.63
  A 0.43 0.42 -48.1 0 1 182.48 152.67
  Q 173.15 141.14 162.37 131.64
  Q 157.19 127.07 151.30 123.45
  Q 147.48 121.10 143.22 120.04
  Q 138.41 118.84 134.66 120.09
  Q 128.99 121.98 127.25 128.25
  Q 125.72 133.80 126.46 140.15
  Q 126.89 143.86 128.91 151.67
  Q 131.74 162.67 136.48 173.31
  A 0.52 0.51 -10.5 0 1 135.98 174.03
  Q 117.17 173.15 100.54 179.70"
/>
<path stroke="#91dded" vector-effect="non-scaling-stroke" d="
  M 205.04 125.61
  Q 204.14 128.91 201.47 130.79
  Q 201.06 131.08 200.83 131.50
  Q 198.96 134.97 196.81 136.81
  Q 193.39 139.74 191.57 143.08
  Q 190.65 144.75 189.20 146.35
  Q 187.54 148.16 186.62 150.47
  Q 186.44 150.92 186.04 151.25
  Q 184.11 152.87 183.72 155.44
  Q 183.21 158.75 186.40 157.34
  Q 188.30 156.50 188.80 154.48
  Q 189.09 153.33 190.23 152.63
  Q 191.63 151.78 191.68 151.74
  Q 194.27 149.67 195.56 146.56
  Q 196.12 145.21 199.19 142.69
  Q 199.63 142.32 199.91 140.99
  A 1.46 1.38 -15.3 0 1 200.39 140.20
  Q 201.89 138.95 202.75 136.50
  Q 203.40 134.64 205.49 133.64
  A 1.75 1.70 2.2 0 0 206.20 133.00
  Q 208.21 129.78 211.33 127.63
  Q 211.46 127.55 212.15 126.85
  Q 212.59 126.40 213.26 126.42
  A 1.07 0.67 13.1 0 0 214.08 126.14
  Q 214.83 125.18 214.50 123.79"
/>
<path stroke="#6dc5de" vector-effect="non-scaling-stroke" d="
  M 215.79 125.00
  Q 215.01 126.55 213.51 127.35
  A 1.89 1.59 -2.8 0 0 212.82 127.99
  Q 211.63 130.03 209.67 131.41
  Q 208.52 132.23 208.04 133.50"
/>
<path stroke="#578089" vector-effect="non-scaling-stroke" d="
  M 208.04 133.50
  L 198.29 145.50"
/>
<path stroke="#77cfe5" vector-effect="non-scaling-stroke" d="
  M 198.29 145.50
  Q 196.82 145.82 196.32 147.21
  Q 196.25 147.42 195.82 148.03
  L 193.70 151.04
  Q 193.25 151.67 193.09 151.80
  Q 191.25 153.21 190.57 155.46
  A 1.96 1.79 79.3 0 1 190.07 156.27
  L 187.42 158.72
  A 1.18 0.99 70.4 0 0 187.10 159.57
  Q 187.15 161.05 186.44 161.94
  Q 183.59 165.47 182.75 169.04"
/>
<path stroke="#527c86" vector-effect="non-scaling-stroke" d="
  M 182.75 169.04
  L 181.57 171.22"
/>
<path stroke="#83d6e9" vector-effect="non-scaling-stroke" d="
  M 181.57 171.22
  Q 180.65 171.23 179.87 172.39
  Q 173.92 181.25 169.52 190.98
  Q 168.39 193.49 166.30 195.33
  Q 165.14 196.34 166.69 196.52
  L 175.00 197.46"
/>
<path stroke="#91dded" vector-effect="non-scaling-stroke" d="
  M 175.00 197.46
  Q 172.84 197.32 173.12 198.47
  A 0.93 0.74 1.6 0 0 173.80 199.04
  Q 181.38 200.65 190.75 201.00
  Q 192.42 201.06 194.46 201.65
  Q 196.53 202.26 198.13 202.30
  Q 208.44 202.57 218.75 203.08
  Q 228.35 203.55 234.00 202.25
  Q 236.11 201.76 235.57 199.17"
/>
<path stroke="#527c86" vector-effect="non-scaling-stroke" d="
  M 235.57 199.17
  L 243.75 197.71"
/>
<path stroke="#77cfe5" vector-effect="non-scaling-stroke" d="
  M 243.75 197.71
  Q 245.07 197.94 246.67 197.14"
/>
<path stroke="#7ed3e7" vector-effect="non-scaling-stroke" d="
  M 246.67 197.14
  Q 249.32 196.59 248.25 194.65
  Q 247.77 193.78 246.52 193.11
  Q 241.10 190.22 235.09 188.91
  Q 233.39 188.53 231.22 187.34
  Q 228.95 186.09 227.00 186.25
  Q 224.79 186.43 223.76 185.44
  A 1.50 0.66 53.5 0 0 222.95 184.98
  L 215.81 184.43
  Q 215.26 184.39 214.90 184.18
  Q 211.24 182.03 206.03 182.61
  Q 204.31 182.80 203.09 181.59
  Q 201.90 180.42 203.00 179.29"
/>
<path stroke="#547e89" vector-effect="non-scaling-stroke" d="
  M 203.00 179.29
  L 222.25 182.46"
/>
<path stroke="#79cde2" vector-effect="non-scaling-stroke" d="
  M 253.63 195.60
  Q 251.82 200.99 246.69 202.21
  Q 245.60 202.47 244.37 203.12
  Q 243.23 203.74 241.94 203.92
  Q 239.22 204.32 239.09 204.35
  Q 227.97 207.00 216.56 206.34
  Q 216.19 206.32 215.62 206.55
  Q 214.90 206.84 213.75 206.75
  Q 207.03 206.21 194.25 206.00
  Q 185.57 205.86 170.74 203.56
  Q 167.53 203.06 164.54 201.74
  Q 162.70 200.92 160.96 201.75"
/>
<path stroke="#91dded" vector-effect="non-scaling-stroke" d="
  M 160.96 201.75
  Q 157.66 198.26 156.42 193.76"
/>
<path stroke="#578089" vector-effect="non-scaling-stroke" d="
  M 156.42 193.76
  Q 156.19 188.61 157.73 183.81
  A 0.42 0.42 9.9 0 0 157.34 183.26
  L 150.31 183.01"
/>
<path stroke="#91dded" vector-effect="non-scaling-stroke" d="
  M 150.31 183.01
  Q 146.56 179.22 145.81 174.00"
/>
<path stroke="#58818b" vector-effect="non-scaling-stroke" d="
  M 145.81 174.00
  L 164.25 174.73
  Q 164.64 174.75 165.18 174.49
  L 170.47 171.87
  A 1.97 1.18 -8.9 0 0 171.20 171.26
  L 177.75 160.96"
/>
<path stroke="#7dd1e5" vector-effect="non-scaling-stroke" d="
  M 177.75 160.96
  Q 179.05 160.33 179.45 159.06
  Q 179.59 158.61 179.96 158.26
  Q 180.89 157.38 180.19 156.06
  Q 177.50 150.98 173.64 147.16
  Q 171.37 144.90 169.27 142.46
  Q 167.16 140.02 164.61 137.99
  Q 163.58 137.17 162.77 136.13
  Q 161.97 135.10 161.09 134.12
  Q 160.81 133.81 160.27 133.64
  Q 159.35 133.33 158.93 132.46
  Q 158.66 131.92 158.38 131.66
  Q 154.45 128.07 148.69 124.81
  Q 147.02 123.87 145.53 123.49
  Q 142.81 122.81 142.55 122.73
  Q 137.42 121.29 135.35 126.64"
/>
<path stroke="#69c2db" vector-effect="non-scaling-stroke" d="
  M 135.35 126.64
  Q 135.33 127.90 135.68 128.26"
/>
<path stroke="#58818b" vector-effect="non-scaling-stroke" d="
  M 135.68 128.26
  Q 133.33 134.27 134.54 140.25"
/>
<path stroke="#91dded" vector-effect="non-scaling-stroke" d="
  M 134.54 140.25
  Q 134.43 142.14 133.30 140.66
  A 1.63 1.36 -68.8 0 1 132.99 139.74
  L 132.56 124.94
  Q 132.48 122.11 130.81 124.81
  Q 130.03 126.08 128.90 126.96
  A 1.04 0.95 -20.5 0 0 128.50 127.74
  Q 128.46 133.69 129.34 139.57
  Q 129.46 140.37 130.64 144.30
  Q 131.36 146.70 131.28 149.24
  A 1.72 1.57 32.6 0 0 131.53 150.17
  Q 132.46 151.70 133.44 155.06
  Q 134.30 158.04 141.55 172.43
  Q 142.02 173.36 142.69 175.58
  Q 143.19 177.24 144.14 178.68
  Q 146.41 182.10 146.44 182.15
  Q 150.48 189.50 157.56 201.19
  Q 162.90 209.99 168.32 216.51
  Q 168.90 217.21 169.88 219.14
  Q 171.18 221.70 173.35 219.99"
/>
<path stroke="#6dc5de" vector-effect="non-scaling-stroke" d="
  M 173.35 219.99
  L 175.46 222.00"
/>
<path stroke="#527c86" vector-effect="non-scaling-stroke" d="
  M 175.46 222.00
  Q 182.31 231.04 190.22 239.00"
/>
<path stroke="#557f88" vector-effect="non-scaling-stroke" d="
  M 190.22 239.00
  Q 198.43 248.02 209.06 253.70
  Q 211.58 255.05 214.36 255.04
  Q 216.19 255.04 217.21 254.00
  Q 218.33 252.85 218.54 251.00"
/>
<path stroke="#79cde2" vector-effect="non-scaling-stroke" d="
  M 218.54 251.00
  L 219.74 250.14
  A 1.10 0.68 -23.9 0 0 220.22 249.44
  Q 220.78 238.91 216.70 229.21
  Q 216.54 228.83 216.53 228.25
  Q 216.51 227.22 215.94 225.81
  Q 212.86 218.30 209.81 210.77
  Q 209.42 209.80 209.40 209.18
  Q 209.33 207.46 211.04 208.06
  Q 211.25 208.13 211.99 208.20
  L 216.76 208.66"
/>
<path stroke="#567f89" vector-effect="non-scaling-stroke" d="
  M 216.76 208.66
  L 223.00 225.54"
/>
<path stroke="#79cde2" vector-effect="non-scaling-stroke" d="
  M 226.29 241.00
  Q 226.31 245.14 226.05 249.26
  Q 226.04 249.36 226.04 250.73
  Q 226.04 252.98 224.38 254.44
  A 1.68 1.67 78.0 0 0 223.87 255.23
  Q 223.14 257.58 221.06 258.31
  Q 215.86 260.15 210.87 258.45
  Q 208.70 257.71 202.26 253.80
  Q 197.27 250.78 192.62 247.25
  Q 189.19 244.64 184.29 239.80
  Q 180.31 235.86 176.25 232.00
  Q 174.46 230.29 173.36 229.57
  A 1.80 1.43 10.9 0 1 172.75 228.86
  Q 171.34 225.54 170.75 225.00
  Q 166.82 221.44 164.12 216.95
  Q 162.72 214.62 161.39 212.92
  Q 159.88 210.99 158.52 208.95
  Q 157.99 208.15 156.78 206.72
  Q 155.85 205.63 155.17 204.36
  Q 153.67 201.58 153.08 200.73
  Q 150.98 197.69 149.30 194.39
  Q 148.76 193.32 147.17 191.49
  Q 145.95 190.08 145.38 188.23
  A 2.00 1.70 17.0 0 0 144.87 187.43
  Q 143.55 186.24 143.31 184.44
  Q 143.18 183.45 141.03 180.97
  Q 140.70 180.58 140.30 179.78
  Q 139.57 178.28 138.51 179.83
  A 1.00 0.91 -71.6 0 1 137.75 180.26
  Q 131.14 180.36 129.75 180.25
  Q 124.82 179.85 120.05 181.07
  Q 117.16 181.81 114.25 181.18
  Q 111.09 180.51 106.91 182.38
  A 0.48 0.47 -35.1 0 0 106.77 183.15
  Q 108.32 184.67 109.71 184.52"
/>
<path stroke="#5a838c" vector-effect="non-scaling-stroke" d="
  M 109.71 184.52
  Q 114.41 186.82 119.25 187.99
  Q 129.34 190.43 139.50 192.54"
/>
<path stroke="#7dd1e5" vector-effect="non-scaling-stroke" d="
  M 139.50 192.54
  Q 138.23 196.63 134.71 195.74
  Q 131.19 194.87 131.06 194.85
  Q 119.17 193.31 107.39 187.02
  Q 106.33 186.46 105.66 185.45
  Q 105.52 185.23 104.58 184.93
  Q 104.13 184.78 103.40 184.78
  Q 99.60 184.76 100.54 179.70"
/>
<path stroke="#4b7986" vector-effect="non-scaling-stroke" d="
  M 203.00 179.29
  L 201.36 178.81"
/>
<path stroke="#477784" vector-effect="non-scaling-stroke" d="
  M 204.04 148.00
  Q 199.83 158.53 194.50 168.54"
/>
<path stroke="#578089" vector-effect="non-scaling-stroke" d="
  M 194.50 168.54
  L 188.55 160.79"
/>
<path stroke="#477784" vector-effect="non-scaling-stroke" d="
  M 188.55 160.79
  Q 192.80 152.77 198.29 145.50"
/>
<path stroke="#4e7a85" vector-effect="non-scaling-stroke" d="
  M 177.75 160.96
  Q 177.78 160.19 177.46 159.50"
/>
<path stroke="#60bbd6" vector-effect="non-scaling-stroke" d="
  M 177.46 159.50
  Q 177.72 157.82 176.49 156.95
  Q 176.02 156.61 175.80 156.26
  Q 173.26 152.16 169.99 148.65
  Q 166.61 145.02 166.48 144.88
  Q 162.53 140.47 159.50 137.75
  Q 157.34 135.81 155.82 133.79
  Q 154.33 131.82 152.70 130.70
  Q 149.92 128.81 147.31 126.69
  Q 145.42 125.14 141.37 124.65
  Q 139.69 124.45 138.24 125.09
  Q 136.79 125.72 135.35 126.64"
/>
<path stroke="#63868e" vector-effect="non-scaling-stroke" d="
  M 134.54 140.25
  Q 138.22 157.76 145.81 174.00"
/>
<path stroke="#62858c" vector-effect="non-scaling-stroke" d="
  M 150.31 183.01
  L 156.42 193.76"
/>
<path stroke="#84d1e5" vector-effect="non-scaling-stroke" d="
  M 160.96 201.75
  Q 161.62 203.51 163.03 204.39"
/>
<path stroke="#73bed7" vector-effect="non-scaling-stroke" d="
  M 163.03 204.39
  Q 163.95 206.92 165.71 208.50"
/>
<path stroke="#5d8089" vector-effect="non-scaling-stroke" d="
  M 165.71 208.50
  L 169.75 214.04"
/>
<path stroke="#78c9e1" vector-effect="non-scaling-stroke" d="
  M 169.75 214.04
  L 173.35 219.99"
/>
<path stroke="#487481" vector-effect="non-scaling-stroke" d="
  M 237.50 207.21
  L 216.76 208.66"
/>
<path stroke="#477380" vector-effect="non-scaling-stroke" d="
  M 218.54 251.00
  Q 219.31 241.93 216.76 233.20
  Q 214.66 226.00 211.96 219.00"
/>
<path stroke="#45707e" vector-effect="non-scaling-stroke" d="
  M 211.96 219.00
  L 207.73 208.80
  A 1.21 1.18 79.3 0 0 206.66 208.05
  L 188.25 207.54"
/>
<path stroke="#5aaecc" vector-effect="non-scaling-stroke" d="
  M 188.25 207.54
  L 186.50 206.75
  Q 185.55 206.32 184.44 206.31
  Q 173.64 206.23 163.03 204.39"
/>
<path stroke="#507c87" vector-effect="non-scaling-stroke" d="
  M 139.50 192.54
  L 146.39 192.99"
/>
<path stroke="#212223" vector-effect="non-scaling-stroke" d="
  M 211.96 219.00
  Q 211.62 220.43 212.29 221.65
  A 1.40 1.00 43.2 0 1 212.47 222.56
  Q 211.79 225.54 208.56 225.14
  A 1.48 1.28 28.6 0 0 207.64 225.34
  Q 203.26 228.16 198.98 231.12
  Q 196.66 232.73 194.47 234.88
  Q 192.35 236.96 190.22 239.00"
/>
<path stroke="#39687a" vector-effect="non-scaling-stroke" d="
  M 175.46 222.00
  L 181.04 212.50"
/>
<path stroke="#497581" vector-effect="non-scaling-stroke" d="
  M 218.76 262.33
  Q 213.92 263.83 209.17 262.10
  Q 203.27 259.96 198.20 256.26
  Q 182.84 245.07 170.94 229.74
  A 0.63 0.62 42.0 0 0 169.92 229.79
  Q 161.26 243.51 149.71 255.25"
/>
<path stroke="#6fc5dd" vector-effect="non-scaling-stroke" d="
  M 152.90 203.88
  Q 152.34 202.54 151.74 201.55
  Q 150.64 199.76 150.42 199.34
  Q 148.68 195.94 146.39 192.99"
/>
<path stroke="#4c7884" vector-effect="non-scaling-stroke" d="
  M 146.39 192.99
  Q 143.11 188.34 141.00 183.15
  A 0.81 0.80 80.9 0 0 140.32 182.65
  Q 124.90 181.62 109.71 184.52"
/>
<path stroke="#77cfe5" vector-effect="non-scaling-stroke" d="
  M 188.55 160.79
  Q 187.48 161.59 187.18 162.96
  Q 186.94 164.04 187.68 165.26
  Q 189.66 168.56 191.75 170.00
  Q 194.67 172.01 194.50 168.54"
/>
<path stroke="#447583" vector-effect="non-scaling-stroke" d="
  M 206.54 164.25
  Q 202.13 174.31 201.06 176.31
  Q 200.07 178.17 201.36 178.81"
/>
<path stroke="#6ec9e2" vector-effect="non-scaling-stroke" d="
  M 201.36 178.81
  Q 198.82 181.12 197.58 184.28
  A 0.54 0.54 17.3 0 0 197.96 185.00
  Q 203.61 186.34 208.44 186.54
  A 1.66 1.27 59.7 0 1 209.32 186.90
  Q 211.14 188.39 214.25 188.50
  Q 215.91 188.56 223.60 189.96
  Q 224.20 190.07 225.97 190.63
  Q 227.17 191.01 228.42 191.07
  Q 230.74 191.19 232.01 191.49
  Q 235.25 192.26 241.25 193.00
  Q 244.58 193.41 246.67 197.14"
/>
<path stroke="#437280" vector-effect="non-scaling-stroke" d="
  M 243.75 197.71
  Q 235.58 194.26 226.89 192.55
  Q 220.71 191.35 220.62 191.33
  Q 214.34 189.98 208.06 188.74"
/>
<path stroke="#5ab9d6" vector-effect="non-scaling-stroke" d="
  M 208.06 188.74
  Q 202.81 187.23 197.29 187.25"
/>
<path stroke="#437280" vector-effect="non-scaling-stroke" d="
  M 197.29 187.25
  Q 196.31 184.45 196.52 188.00
  Q 196.85 193.59 195.86 199.21"
/>
<path stroke="#82d3e8" vector-effect="non-scaling-stroke" d="
  M 195.86 199.21
  L 189.40 198.75"
/>
<path stroke="#73cde4" vector-effect="non-scaling-stroke" d="
  M 189.40 198.75
  Q 192.83 194.19 193.56 188.77
  Q 193.84 186.63 193.18 183.28
  Q 192.62 180.50 192.22 177.81
  A 0.99 0.98 -85.2 0 0 191.56 177.02
  Q 188.49 176.00 187.39 173.97"
/>
<path stroke="#437280" vector-effect="non-scaling-stroke" d="
  M 187.39 173.97
  Q 186.71 172.32 184.56 169.44
  Q 183.61 168.15 182.75 169.04"
/>
<path stroke="#4f7a85" vector-effect="non-scaling-stroke" d="
  M 187.39 173.97
  L 181.57 171.22"
/>
<path stroke="#3b6b7c" vector-effect="non-scaling-stroke" d="
  M 177.46 159.50
  Q 176.76 158.71 175.99 158.00
  Q 175.11 157.20 174.57 156.46
  Q 163.44 141.45 147.19 130.06
  Q 141.66 126.19 135.68 128.26"
/>
<path stroke="#5d8089" vector-effect="non-scaling-stroke" d="
  M 235.57 199.17
  Q 224.09 200.04 212.75 199.71"
/>
<path stroke="#497480" vector-effect="non-scaling-stroke" d="
  M 212.75 199.71
  L 207.46 189.75"
/>
<path stroke="#8edbec" vector-effect="non-scaling-stroke" d="
  M 189.40 198.75
  L 175.00 197.46"
/>
<path stroke="#3a6b7d" vector-effect="non-scaling-stroke" d="
  M 209.75 157.46
  L 206.54 164.25"
/>
<path stroke="#5dbbd9" vector-effect="non-scaling-stroke" d="
  M 206.54 164.25
  Q 207.23 161.73 207.98 159.23
  Q 208.92 156.14 208.46 154.17
  Q 207.59 150.36 204.04 148.00"
/>
<path stroke="#3d6d7d" vector-effect="non-scaling-stroke" d="
  M 204.04 148.00
  Q 204.88 145.97 208.75 134.75
  Q 209.18 133.49 208.04 133.50"
/>
<path stroke="#345d70" vector-effect="non-scaling-stroke" d="
  M 188.25 207.54
  Q 186.35 209.03 184.07 209.78
  Q 182.85 210.17 182.28 210.77
  Q 181.55 211.53 181.04 212.50"
/>
<path stroke="#4ea6c8" vector-effect="non-scaling-stroke" d="
  M 181.04 212.50
  L 180.57 211.63
  A 1.09 0.64 -4.9 0 0 179.75 211.24
  L 171.75 210.79"
/>
<path stroke="#345d70" vector-effect="non-scaling-stroke" d="
  M 171.75 210.79
  L 165.71 208.50"
/>
<path stroke="#39687a" vector-effect="non-scaling-stroke" d="
  M 171.75 210.79
  Q 171.15 212.67 169.75 214.04"
/>
<path stroke="#356677" vector-effect="non-scaling-stroke" d="
  M 197.29 187.25
  Q 196.97 188.84 197.94 190.56
  Q 200.99 196.03 201.96 197.50"
/>
<path stroke="#497480" vector-effect="non-scaling-stroke" d="
  M 201.96 197.50
  Q 202.79 198.33 202.25 199.29"
/>
<path stroke="#5d8089" vector-effect="non-scaling-stroke" d="
  M 202.25 199.29
  L 195.86 199.21"
/>
<path stroke="#356677" vector-effect="non-scaling-stroke" d="
  M 208.06 188.74
  Q 207.27 189.17 207.46 189.75"
/>
<path stroke="#60bbd6" vector-effect="non-scaling-stroke" d="
  M 207.46 189.75
  Q 204.22 189.29 201.69 191.44
  Q 199.65 193.16 201.75 195.00
  Q 203.06 196.15 201.96 197.50"
/>
<path stroke="#88d5e8" vector-effect="non-scaling-stroke" d="
  M 212.75 199.71
  Q 207.47 200.49 202.25 199.29"
/>
<path stroke="#70c7df" vector-effect="non-scaling-stroke" d="
  M 144.13 249.17
  Q 143.37 251.72 144.14 253.97
  A 0.82 0.81 84.7 0 0 144.80 254.52
  Q 149.09 255.13 151.49 251.89
  Q 153.29 249.47 153.35 249.39
  Q 158.75 243.24 163.16 236.34
  Q 164.09 234.87 164.17 233.43
  Q 164.37 229.43 161.38 231.07
  Q 160.20 231.72 159.17 233.45
  Q 154.56 241.17 147.37 246.60"
/>
<path stroke="#487481" vector-effect="non-scaling-stroke" d="
  M 147.37 246.60
  Q 156.48 234.97 164.48 222.67
  A 0.79 0.70 -48.4 0 0 164.48 221.82
  L 158.88 214.19
  A 0.34 0.31 -50.2 0 0 158.33 214.26
  Q 149.58 231.05 144.13 249.17"
/>
<path stroke="#4d7a86" vector-effect="non-scaling-stroke" d="
  M 147.37 246.60
  L 144.13 249.17"
/>
</g>
<path fill="#5b5c5b" d="
  M 265.76 72.61
  L 265.62 73.26
  A 0.90 0.77 -4.2 0 1 265.01 73.86
  L 257.50 76.04
  Q 249.81 75.94 242.15 75.40
  Q 228.20 74.42 226.84 74.34
  Q 164.16 71.01 101.50 67.54
  Q 109.99 64.07 118.75 64.50
  Q 183.49 67.69 265.76 72.61
  Z"
/>
<path fill="#424242" d="
  M 101.50 67.54
  Q 164.16 71.01 226.84 74.34
  Q 228.20 74.42 242.15 75.40
  Q 249.81 75.94 257.50 76.04
  Q 257.15 77.32 258.25 78.21
  Q 256.50 78.22 256.04 78.86
  Q 242.97 78.76 229.97 77.96
  Q 215.56 77.08 210.01 76.84
  Q 189.61 75.97 169.24 74.74
  Q 153.58 73.80 137.92 72.82
  Q 137.89 72.82 127.56 72.43
  Q 123.13 72.26 117.00 71.75
  Q 109.93 71.16 99.50 72.00
  Q 96.79 72.22 95.16 71.27
  A 1.16 1.14 51.6 0 0 94.28 71.16
  Q 93.36 71.41 92.46 71.25
  L 101.50 67.54
  Z"
/>
<path fill="#2d2e2e" d="
  M 256.04 78.86
  Q 277.49 85.31 284.54 106.50
  Q 285.45 128.13 285.19 133.56
  Q 284.59 145.77 284.67 157.98
  Q 284.78 175.60 284.78 175.65
  Q 284.62 221.95 284.73 268.25
  Q 284.75 274.49 282.94 280.41
  Q 282.92 280.45 282.47 281.57
  Q 281.94 282.89 282.31 284.51
  Q 282.62 285.88 283.22 284.61
  Q 284.83 281.23 285.86 277.61
  Q 286.74 274.56 286.85 270.28
  Q 287.19 257.14 287.20 244.00
  Q 287.25 207.50 287.54 171.00
  L 288.71 170.50
  L 288.96 223.00
  Q 289.07 233.04 288.75 268.75
  Q 288.65 279.48 284.00 287.96
  Q 279.66 294.85 273.61 300.43
  Q 264.49 305.05 254.48 305.62
  Q 253.12 305.70 235.01 304.73
  Q 174.17 301.47 113.35 297.94
  Q 103.19 297.35 98.38 295.64
  Q 90.00 292.66 83.69 286.06
  Q 72.00 273.84 71.94 256.50
  Q 71.73 184.35 71.97 112.19
  Q 72.01 99.40 73.36 94.43
  Q 75.75 85.57 82.23 78.47
  Q 86.55 73.74 92.46 71.25
  Q 93.36 71.41 94.28 71.16
  A 1.16 1.14 51.6 0 1 95.16 71.27
  Q 96.79 72.22 99.50 72.00
  Q 109.93 71.16 117.00 71.75
  Q 123.13 72.26 127.56 72.43
  Q 137.89 72.82 137.92 72.82
  Q 153.58 73.80 169.24 74.74
  Q 189.61 75.97 210.01 76.84
  Q 215.56 77.08 229.97 77.96
  Q 242.97 78.76 256.04 78.86
  Z
  M 100.54 179.70
  Q 97.88 184.61 100.97 188.03
  Q 104.16 191.57 108.64 193.20
  Q 113.16 194.84 117.79 196.11
  Q 134.59 200.72 152.90 203.88
  Q 144.20 222.44 137.85 241.78
  Q 135.94 247.62 136.00 252.75
  Q 136.04 256.39 138.51 258.25
  Q 140.68 259.89 143.75 258.97
  Q 147.14 257.95 149.71 255.25
  Q 149.81 257.45 147.78 258.11
  Q 147.06 258.34 146.80 258.56
  Q 145.78 259.35 147.09 259.87
  Q 147.51 260.04 148.30 259.97
  Q 149.62 259.85 150.82 260.49
  A 1.15 1.11 -38.9 0 0 151.73 260.57
  Q 153.84 259.88 155.14 261.42
  Q 155.48 261.82 155.91 261.99
  Q 158.88 263.18 160.44 265.80
  Q 161.12 266.95 161.09 269.38
  Q 161.06 272.06 162.14 274.55
  Q 162.36 275.05 163.30 276.08
  Q 164.10 276.96 164.00 278.00
  Q 163.75 280.58 164.87 282.23
  Q 165.20 282.73 167.47 284.95
  Q 168.83 286.27 170.44 287.31
  Q 171.40 287.93 174.56 287.31
  Q 177.19 286.80 178.36 284.51
  Q 178.60 284.04 178.97 283.78
  Q 180.93 282.42 182.96 281.15
  Q 187.28 278.45 192.31 279.94
  Q 195.80 280.97 198.49 279.70
  Q 200.74 278.63 201.76 278.49
  Q 209.05 277.48 217.08 277.50
  A 0.93 0.92 15.6 0 0 217.87 277.06
  Q 219.89 273.67 219.87 270.33
  Q 219.87 269.88 219.03 267.34
  Q 218.22 264.91 221.50 264.00
  Q 223.85 263.35 224.25 261.75
  Q 224.58 260.40 223.98 260.38
  A 1.02 0.55 -66.5 0 0 223.27 260.94
  Q 221.72 263.70 218.76 262.33
  Q 225.98 258.67 226.50 250.00
  Q 226.83 244.45 226.29 241.00
  Q 225.51 233.09 223.00 225.54
  Q 224.05 225.22 224.62 228.11
  Q 224.70 228.56 225.01 228.91
  Q 225.40 229.37 225.11 228.29
  Q 224.54 226.15 225.70 224.41
  A 1.63 1.41 -33.1 0 0 225.96 223.51
  Q 225.88 221.66 226.62 219.67
  Q 227.29 217.88 229.16 218.28
  Q 232.41 218.98 234.85 221.12
  Q 237.90 223.81 238.70 224.27
  Q 241.48 225.88 244.51 227.00
  Q 246.13 227.61 244.82 226.48
  Q 242.99 224.91 240.59 223.59
  Q 237.87 222.09 240.96 223.35
  Q 242.40 223.94 242.73 222.80
  A 0.60 0.58 8.0 0 1 243.32 222.37
  Q 244.15 222.39 244.51 221.78
  A 1.24 0.80 57.2 0 0 244.51 220.85
  Q 242.67 216.14 241.19 211.31
  Q 240.63 209.50 237.50 207.21
  Q 245.31 205.64 246.75 205.25
  Q 250.63 204.21 252.69 201.69
  Q 254.35 199.65 253.63 195.60
  Q 246.45 188.58 235.25 186.00
  Q 233.03 185.49 222.25 182.46
  Q 223.79 181.42 224.73 182.59
  A 0.96 0.94 -19.2 0 0 225.50 182.95
  L 228.95 182.90
  A 1.51 1.16 18.8 0 0 229.81 182.61
  Q 232.17 180.60 235.81 179.56
  Q 237.02 179.22 236.91 178.05
  A 1.05 0.86 69.5 0 1 237.19 177.23
  Q 242.88 172.16 235.01 171.77
  A 0.59 0.55 88.1 0 1 234.48 171.24
  Q 234.36 169.99 233.39 169.24
  Q 232.37 168.45 232.20 168.16
  Q 231.77 167.43 231.70 166.56
  A 1.54 1.26 -72.9 0 0 231.35 165.70
  Q 228.80 162.83 228.97 159.00
  A 0.59 0.57 -83.8 0 0 228.50 158.40
  Q 221.53 156.99 214.96 159.56
  A 1.74 1.59 37.5 0 1 214.01 159.64
  L 210.81 159.02
  A 0.60 0.54 -86.0 0 1 210.37 158.45
  Q 210.35 157.78 209.75 157.46
  Q 213.56 146.95 216.57 136.20
  Q 217.01 134.63 217.25 130.75
  Q 217.46 127.40 215.79 125.00
  Q 215.29 124.23 214.50 123.79
  Q 209.42 121.51 205.04 125.61
  Q 192.57 137.74 183.17 152.63
  A 0.43 0.42 -48.1 0 1 182.48 152.67
  Q 173.15 141.14 162.37 131.64
  Q 157.19 127.07 151.30 123.45
  Q 147.48 121.10 143.22 120.04
  Q 138.41 118.84 134.66 120.09
  Q 128.99 121.98 127.25 128.25
  Q 125.72 133.80 126.46 140.15
  Q 126.89 143.86 128.91 151.67
  Q 131.74 162.67 136.48 173.31
  A 0.52 0.51 -10.5 0 1 135.98 174.03
  Q 117.17 173.15 100.54 179.70
  Z"
/>
<path fill="#232525" d="
  M 265.76 72.61
  Q 272.69 73.91 277.69 76.81
  Q 296.45 87.73 298.46 110.00
  Q 296.84 109.85 295.46 110.54
  Q 293.35 111.59 293.30 111.61
  Q 291.97 112.06 290.08 112.57
  A 1.48 1.42 -7.5 0 0 288.98 113.94
  L 288.79 143.50
  L 288.71 170.50
  L 287.54 171.00
  Q 288.19 138.58 286.31 106.22
  Q 281.76 89.42 267.18 81.08
  Q 263.01 78.70 258.25 78.21
  Q 257.15 77.32 257.50 76.04
  L 265.01 73.86
  A 0.90 0.77 -4.2 0 0 265.62 73.26
  L 265.76 72.61
  Z"
/>
<path fill="#787978" d="
  M 258.25 78.21
  Q 263.01 78.70 267.18 81.08
  Q 281.76 89.42 286.31 106.22
  Q 284.87 106.70 284.54 106.50
  Q 277.49 85.31 256.04 78.86
  Q 256.50 78.22 258.25 78.21
  Z"
/>
<path fill="#373737" d="
  M 286.31 106.22
  Q 288.19 138.58 287.54 171.00
  Q 287.25 207.50 287.20 244.00
  Q 287.19 257.14 286.85 270.28
  Q 286.74 274.56 285.86 277.61
  Q 284.83 281.23 283.22 284.61
  Q 282.62 285.88 282.31 284.51
  Q 281.94 282.89 282.47 281.57
  Q 282.92 280.45 282.94 280.41
  Q 284.75 274.49 284.73 268.25
  Q 284.62 221.95 284.78 175.65
  Q 284.78 175.60 284.67 157.98
  Q 284.59 145.77 285.19 133.56
  Q 285.45 128.13 284.54 106.50
  Q 284.87 106.70 286.31 106.22
  Z"
/>
<path fill="#3b3b3b" d="
  M 298.46 110.00
  L 298.46 149.75
  Q 297.94 141.73 298.25 138.50
  Q 298.47 136.25 297.92 137.17
  Q 297.75 137.46 297.76 137.87
  Q 297.78 139.42 297.70 140.95
  Q 297.69 141.17 297.61 140.96
  Q 297.31 140.12 297.25 140.98
  Q 297.25 141.07 297.18 141.02
  Q 295.77 140.13 295.17 140.79
  Q 294.61 141.42 294.57 141.44
  Q 293.91 141.80 293.19 141.50
  A 1.22 1.16 -43.0 0 0 292.31 141.49
  L 291.24 141.89
  A 1.41 0.68 32.4 0 1 290.31 141.78
  Q 288.62 141.08 288.79 143.50
  L 288.98 113.94
  A 1.48 1.42 -7.5 0 1 290.08 112.57
  Q 291.97 112.06 293.30 111.61
  Q 293.35 111.59 295.46 110.54
  Q 296.84 109.85 298.46 110.00
  Z"
/>
<path fill="#86d8ea" d="
  M 205.04 125.61
  Q 204.14 128.91 201.47 130.79
  Q 201.06 131.08 200.83 131.50
  Q 198.96 134.97 196.81 136.81
  Q 193.39 139.74 191.57 143.08
  Q 190.65 144.75 189.20 146.35
  Q 187.54 148.16 186.62 150.47
  Q 186.44 150.92 186.04 151.25
  Q 184.11 152.87 183.72 155.44
  Q 183.21 158.75 186.40 157.34
  Q 188.30 156.50 188.80 154.48
  Q 189.09 153.33 190.23 152.63
  Q 191.63 151.78 191.68 151.74
  Q 194.27 149.67 195.56 146.56
  Q 196.12 145.21 199.19 142.69
  Q 199.63 142.32 199.91 140.99
  A 1.46 1.38 -15.3 0 1 200.39 140.20
  Q 201.89 138.95 202.75 136.50
  Q 203.40 134.64 205.49 133.64
  A 1.75 1.70 2.2 0 0 206.20 133.00
  Q 208.21 129.78 211.33 127.63
  Q 211.46 127.55 212.15 126.85
  Q 212.59 126.40 213.26 126.42
  A 1.07 0.67 13.1 0 0 214.08 126.14
  Q 214.83 125.18 214.50 123.79
  Q 215.29 124.23 215.79 125.00
  Q 215.01 126.55 213.51 127.35
  A 1.89 1.59 -2.8 0 0 212.82 127.99
  Q 211.63 130.03 209.67 131.41
  Q 208.52 132.23 208.04 133.50
  L 198.29 145.50
  Q 196.82 145.82 196.32 147.21
  Q 196.25 147.42 195.82 148.03
  L 193.70 151.04
  Q 193.25 151.67 193.09 151.80
  Q 191.25 153.21 190.57 155.46
  A 1.96 1.79 79.3 0 1 190.07 156.27
  L 187.42 158.72
  A 1.18 0.99 70.4 0 0 187.10 159.57
  Q 187.15 161.05 186.44 161.94
  Q 183.59 165.47 182.75 169.04
  L 181.57 171.22
  Q 180.65 171.23 179.87 172.39
  Q 173.92 181.25 169.52 190.98
  Q 168.39 193.49 166.30 195.33
  Q 165.14 196.34 166.69 196.52
  L 175.00 197.46
  Q 172.84 197.32 173.12 198.47
  A 0.93 0.74 1.6 0 0 173.80 199.04
  Q 181.38 200.65 190.75 201.00
  Q 192.42 201.06 194.46 201.65
  Q 196.53 202.26 198.13 202.30
  Q 208.44 202.57 218.75 203.08
  Q 228.35 203.55 234.00 202.25
  Q 236.11 201.76 235.57 199.17
  L 243.75 197.71
  Q 245.07 197.94 246.67 197.14
  Q 249.32 196.59 248.25 194.65
  Q 247.77 193.78 246.52 193.11
  Q 241.10 190.22 235.09 188.91
  Q 233.39 188.53 231.22 187.34
  Q 228.95 186.09 227.00 186.25
  Q 224.79 186.43 223.76 185.44
  A 1.50 0.66 53.5 0 0 222.95 184.98
  L 215.81 184.43
  Q 215.26 184.39 214.90 184.18
  Q 211.24 182.03 206.03 182.61
  Q 204.31 182.80 203.09 181.59
  Q 201.90 180.42 203.00 179.29
  L 222.25 182.46
  Q 233.03 185.49 235.25 186.00
  Q 246.45 188.58 253.63 195.60
  Q 251.82 200.99 246.69 202.21
  Q 245.60 202.47 244.37 203.12
  Q 243.23 203.74 241.94 203.92
  Q 239.22 204.32 239.09 204.35
  Q 227.97 207.00 216.56 206.34
  Q 216.19 206.32 215.62 206.55
  Q 214.90 206.84 213.75 206.75
  Q 207.03 206.21 194.25 206.00
  Q 185.57 205.86 170.74 203.56
  Q 167.53 203.06 164.54 201.74
  Q 162.70 200.92 160.96 201.75
  Q 157.66 198.26 156.42 193.76
  Q 156.19 188.61 157.73 183.81
  A 0.42 0.42 9.9 0 0 157.34 183.26
  L 150.31 183.01
  Q 146.56 179.22 145.81 174.00
  L 164.25 174.73
  Q 164.64 174.75 165.18 174.49
  L 170.47 171.87
  A 1.97 1.18 -8.9 0 0 171.20 171.26
  L 177.75 160.96
  Q 179.05 160.33 179.45 159.06
  Q 179.59 158.61 179.96 158.26
  Q 180.89 157.38 180.19 156.06
  Q 177.50 150.98 173.64 147.16
  Q 171.37 144.90 169.27 142.46
  Q 167.16 140.02 164.61 137.99
  Q 163.58 137.17 162.77 136.13
  Q 161.97 135.10 161.09 134.12
  Q 160.81 133.81 160.27 133.64
  Q 159.35 133.33 158.93 132.46
  Q 158.66 131.92 158.38 131.66
  Q 154.45 128.07 148.69 124.81
  Q 147.02 123.87 145.53 123.49
  Q 142.81 122.81 142.55 122.73
  Q 137.42 121.29 135.35 126.64
  Q 135.33 127.90 135.68 128.26
  Q 133.33 134.27 134.54 140.25
  Q 134.43 142.14 133.30 140.66
  A 1.63 1.36 -68.8 0 1 132.99 139.74
  L 132.56 124.94
  Q 132.48 122.11 130.81 124.81
  Q 130.03 126.08 128.90 126.96
  A 1.04 0.95 -20.5 0 0 128.50 127.74
  Q 128.46 133.69 129.34 139.57
  Q 129.46 140.37 130.64 144.30
  Q 131.36 146.70 131.28 149.24
  A 1.72 1.57 32.6 0 0 131.53 150.17
  Q 132.46 151.70 133.44 155.06
  Q 134.30 158.04 141.55 172.43
  Q 142.02 173.36 142.69 175.58
  Q 143.19 177.24 144.14 178.68
  Q 146.41 182.10 146.44 182.15
  Q 150.48 189.50 157.56 201.19
  Q 162.90 209.99 168.32 216.51
  Q 168.90 217.21 169.88 219.14
  Q 171.18 221.70 173.35 219.99
  L 175.46 222.00
  Q 182.31 231.04 190.22 239.00
  Q 198.43 248.02 209.06 253.70
  Q 211.58 255.05 214.36 255.04
  Q 216.19 255.04 217.21 254.00
  Q 218.33 252.85 218.54 251.00
  L 219.74 250.14
  A 1.10 0.68 -23.9 0 0 220.22 249.44
  Q 220.78 238.91 216.70 229.21
  Q 216.54 228.83 216.53 228.25
  Q 216.51 227.22 215.94 225.81
  Q 212.86 218.30 209.81 210.77
  Q 209.42 209.80 209.40 209.18
  Q 209.33 207.46 211.04 208.06
  Q 211.25 208.13 211.99 208.20
  L 216.76 208.66
  L 223.00 225.54
  Q 225.51 233.09 226.29 241.00
  Q 226.31 245.14 226.05 249.26
  Q 226.04 249.36 226.04 250.73
  Q 226.04 252.98 224.38 254.44
  A 1.68 1.67 78.0 0 0 223.87 255.23
  Q 223.14 257.58 221.06 258.31
  Q 215.86 260.15 210.87 258.45
  Q 208.70 257.71 202.26 253.80
  Q 197.27 250.78 192.62 247.25
  Q 189.19 244.64 184.29 239.80
  Q 180.31 235.86 176.25 232.00
  Q 174.46 230.29 173.36 229.57
  A 1.80 1.43 10.9 0 1 172.75 228.86
  Q 171.34 225.54 170.75 225.00
  Q 166.82 221.44 164.12 216.95
  Q 162.72 214.62 161.39 212.92
  Q 159.88 210.99 158.52 208.95
  Q 157.99 208.15 156.78 206.72
  Q 155.85 205.63 155.17 204.36
  Q 153.67 201.58 153.08 200.73
  Q 150.98 197.69 149.30 194.39
  Q 148.76 193.32 147.17 191.49
  Q 145.95 190.08 145.38 188.23
  A 2.00 1.70 17.0 0 0 144.87 187.43
  Q 143.55 186.24 143.31 184.44
  Q 143.18 183.45 141.03 180.97
  Q 140.70 180.58 140.30 179.78
  Q 139.57 178.28 138.51 179.83
  A 1.00 0.91 -71.6 0 1 137.75 180.26
  Q 131.14 180.36 129.75 180.25
  Q 124.82 179.85 120.05 181.07
  Q 117.16 181.81 114.25 181.18
  Q 111.09 180.51 106.91 182.38
  A 0.48 0.47 -35.1 0 0 106.77 183.15
  Q 108.32 184.67 109.71 184.52
  Q 114.41 186.82 119.25 187.99
  Q 129.34 190.43 139.50 192.54
  Q 138.23 196.63 134.71 195.74
  Q 131.19 194.87 131.06 194.85
  Q 119.17 193.31 107.39 187.02
  Q 106.33 186.46 105.66 185.45
  Q 105.52 185.23 104.58 184.93
  Q 104.13 184.78 103.40 184.78
  Q 99.60 184.76 100.54 179.70
  Q 117.17 173.15 135.98 174.03
  A 0.52 0.51 -10.5 0 0 136.48 173.31
  Q 131.74 162.67 128.91 151.67
  Q 126.89 143.86 126.46 140.15
  Q 125.72 133.80 127.25 128.25
  Q 128.99 121.98 134.66 120.09
  Q 138.41 118.84 143.22 120.04
  Q 147.48 121.10 151.30 123.45
  Q 157.19 127.07 162.37 131.64
  Q 173.15 141.14 182.48 152.67
  A 0.43 0.42 -48.1 0 0 183.17 152.63
  Q 192.57 137.74 205.04 125.61
  Z"
/>
<path fill="#73c9df" d="
  M 177.75 160.96
  Q 177.78 160.19 177.46 159.50
  Q 177.72 157.82 176.49 156.95
  Q 176.02 156.61 175.80 156.26
  Q 173.26 152.16 169.99 148.65
  Q 166.61 145.02 166.48 144.88
  Q 162.53 140.47 159.50 137.75
  Q 157.34 135.81 155.82 133.79
  Q 154.33 131.82 152.70 130.70
  Q 149.92 128.81 147.31 126.69
  Q 145.42 125.14 141.37 124.65
  Q 139.69 124.45 138.24 125.09
  Q 136.79 125.72 135.35 126.64
  Q 137.42 121.29 142.55 122.73
  Q 142.81 122.81 145.53 123.49
  Q 147.02 123.87 148.69 124.81
  Q 154.45 128.07 158.38 131.66
  Q 158.66 131.92 158.93 132.46
  Q 159.35 133.33 160.27 133.64
  Q 160.81 133.81 161.09 134.12
  Q 161.97 135.10 162.77 136.13
  Q 163.58 137.17 164.61 137.99
  Q 167.16 140.02 169.27 142.46
  Q 171.37 144.90 173.64 147.16
  Q 177.50 150.98 180.19 156.06
  Q 180.89 157.38 179.96 158.26
  Q 179.59 158.61 179.45 159.06
  Q 179.05 160.33 177.75 160.96
  Z"
/>
<path fill="#9ce1f0" d="
  M 214.50 123.79
  Q 214.83 125.18 214.08 126.14
  A 1.07 0.67 13.1 0 1 213.26 126.42
  Q 212.59 126.40 212.15 126.85
  Q 211.46 127.55 211.33 127.63
  Q 208.21 129.78 206.20 133.00
  A 1.75 1.70 2.2 0 1 205.49 133.64
  Q 203.40 134.64 202.75 136.50
  Q 201.89 138.95 200.39 140.20
  A 1.46 1.38 -15.3 0 0 199.91 140.99
  Q 199.63 142.32 199.19 142.69
  Q 196.12 145.21 195.56 146.56
  Q 194.27 149.67 191.68 151.74
  Q 191.63 151.78 190.23 152.63
  Q 189.09 153.33 188.80 154.48
  Q 188.30 156.50 186.40 157.34
  Q 183.21 158.75 183.72 155.44
  Q 184.11 152.87 186.04 151.25
  Q 186.44 150.92 186.62 150.47
  Q 187.54 148.16 189.20 146.35
  Q 190.65 144.75 191.57 143.08
  Q 193.39 139.74 196.81 136.81
  Q 198.96 134.97 200.83 131.50
  Q 201.06 131.08 201.47 130.79
  Q 204.14 128.91 205.04 125.61
  Q 209.42 121.51 214.50 123.79
  Z"
/>
<path fill="#9ce1f0" d="
  M 134.54 140.25
  Q 138.22 157.76 145.81 174.00
  Q 146.56 179.22 150.31 183.01
  L 156.42 193.76
  Q 157.66 198.26 160.96 201.75
  Q 161.62 203.51 163.03 204.39
  Q 163.95 206.92 165.71 208.50
  L 169.75 214.04
  L 173.35 219.99
  Q 171.18 221.70 169.88 219.14
  Q 168.90 217.21 168.32 216.51
  Q 162.90 209.99 157.56 201.19
  Q 150.48 189.50 146.44 182.15
  Q 146.41 182.10 144.14 178.68
  Q 143.19 177.24 142.69 175.58
  Q 142.02 173.36 141.55 172.43
  Q 134.30 158.04 133.44 155.06
  Q 132.46 151.70 131.53 150.17
  A 1.72 1.57 32.6 0 1 131.28 149.24
  Q 131.36 146.70 130.64 144.30
  Q 129.46 140.37 129.34 139.57
  Q 128.46 133.69 128.50 127.74
  A 1.04 0.95 -20.5 0 1 128.90 126.96
  Q 130.03 126.08 130.81 124.81
  Q 132.48 122.11 132.56 124.94
  L 132.99 139.74
  A 1.63 1.36 -68.8 0 0 133.30 140.66
  Q 134.43 142.14 134.54 140.25
  Z"
/>
<path fill="#4caccc" d="
  M 177.46 159.50
  Q 176.76 158.71 175.99 158.00
  Q 175.11 157.20 174.57 156.46
  Q 163.44 141.45 147.19 130.06
  Q 141.66 126.19 135.68 128.26
  Q 135.33 127.90 135.35 126.64
  Q 136.79 125.72 138.24 125.09
  Q 139.69 124.45 141.37 124.65
  Q 145.42 125.14 147.31 126.69
  Q 149.92 128.81 152.70 130.70
  Q 154.33 131.82 155.82 133.79
  Q 157.34 135.81 159.50 137.75
  Q 162.53 140.47 166.48 144.88
  Q 166.61 145.02 169.99 148.65
  Q 173.26 152.16 175.80 156.26
  Q 176.02 156.61 176.49 156.95
  Q 177.72 157.82 177.46 159.50
  Z"
/>
<path fill="#53b1d2" d="
  M 215.79 125.00
  Q 217.46 127.40 217.25 130.75
  Q 217.01 134.63 216.57 136.20
  Q 213.56 146.95 209.75 157.46
  L 206.54 164.25
  Q 207.23 161.73 207.98 159.23
  Q 208.92 156.14 208.46 154.17
  Q 207.59 150.36 204.04 148.00
  Q 204.88 145.97 208.75 134.75
  Q 209.18 133.49 208.04 133.50
  Q 208.52 132.23 209.67 131.41
  Q 211.63 130.03 212.82 127.99
  A 1.89 1.59 -2.8 0 1 213.51 127.35
  Q 215.01 126.55 215.79 125.00
  Z"
/>
<path fill="#292a2b" d="
  M 177.46 159.50
  Q 177.78 160.19 177.75 160.96
  L 171.20 171.26
  A 1.97 1.18 -8.9 0 1 170.47 171.87
  L 165.18 174.49
  Q 164.64 174.75 164.25 174.73
  L 145.81 174.00
  Q 138.22 157.76 134.54 140.25
  Q 133.33 134.27 135.68 128.26
  Q 141.66 126.19 147.19 130.06
  Q 163.44 141.45 174.57 156.46
  Q 175.11 157.20 175.99 158.00
  Q 176.76 158.71 177.46 159.50
  Z"
/>
<path fill="#272828" d="
  M 208.04 133.50
  Q 209.18 133.49 208.75 134.75
  Q 204.88 145.97 204.04 148.00
  Q 199.83 158.53 194.50 168.54
  L 188.55 160.79
  Q 192.80 152.77 198.29 145.50
  L 208.04 133.50
  Z"
/>
<path fill="#424242" d="
  M 298.46 149.75
  L 298.46 215.75
  Q 298.03 214.90 298.00 212.25
  Q 297.94 207.16 297.85 211.25
  Q 297.73 216.63 297.07 212.49
  A 0.30 0.30 -22.2 0 0 296.59 212.29
  Q 293.49 214.59 292.19 218.27
  Q 291.59 219.95 289.40 219.63
  A 0.13 0.13 1.7 0 0 289.25 219.77
  Q 289.46 221.42 288.96 223.00
  L 288.71 170.50
  L 288.79 143.50
  Q 288.62 141.08 290.31 141.78
  A 1.41 0.68 32.4 0 0 291.24 141.89
  L 292.31 141.49
  A 1.22 1.16 -43.0 0 1 293.19 141.50
  Q 293.91 141.80 294.57 141.44
  Q 294.61 141.42 295.17 140.79
  Q 295.77 140.13 297.18 141.02
  Q 297.25 141.07 297.25 140.98
  Q 297.31 140.12 297.61 140.96
  Q 297.69 141.17 297.70 140.95
  Q 297.78 139.42 297.76 137.87
  Q 297.75 137.46 297.92 137.17
  Q 298.47 136.25 298.25 138.50
  Q 297.94 141.73 298.46 149.75
  Z"
/>
<path fill="#67c5df" d="
  M 198.29 145.50
  Q 192.80 152.77 188.55 160.79
  Q 187.48 161.59 187.18 162.96
  Q 186.94 164.04 187.68 165.26
  Q 189.66 168.56 191.75 170.00
  Q 194.67 172.01 194.50 168.54
  Q 199.83 158.53 204.04 148.00
  Q 207.59 150.36 208.46 154.17
  Q 208.92 156.14 207.98 159.23
  Q 207.23 161.73 206.54 164.25
  Q 202.13 174.31 201.06 176.31
  Q 200.07 178.17 201.36 178.81
  Q 198.82 181.12 197.58 184.28
  A 0.54 0.54 17.3 0 0 197.96 185.00
  Q 203.61 186.34 208.44 186.54
  A 1.66 1.27 59.7 0 1 209.32 186.90
  Q 211.14 188.39 214.25 188.50
  Q 215.91 188.56 223.60 189.96
  Q 224.20 190.07 225.97 190.63
  Q 227.17 191.01 228.42 191.07
  Q 230.74 191.19 232.01 191.49
  Q 235.25 192.26 241.25 193.00
  Q 244.58 193.41 246.67 197.14
  Q 245.07 197.94 243.75 197.71
  Q 235.58 194.26 226.89 192.55
  Q 220.71 191.35 220.62 191.33
  Q 214.34 189.98 208.06 188.74
  Q 202.81 187.23 197.29 187.25
  Q 196.31 184.45 196.52 188.00
  Q 196.85 193.59 195.86 199.21
  L 189.40 198.75
  Q 192.83 194.19 193.56 188.77
  Q 193.84 186.63 193.18 183.28
  Q 192.62 180.50 192.22 177.81
  A 0.99 0.98 -85.2 0 0 191.56 177.02
  Q 188.49 176.00 187.39 173.97
  Q 186.71 172.32 184.56 169.44
  Q 183.61 168.15 182.75 169.04
  Q 183.59 165.47 186.44 161.94
  Q 187.15 161.05 187.10 159.57
  A 1.18 0.99 70.4 0 1 187.42 158.72
  L 190.07 156.27
  A 1.96 1.79 79.3 0 0 190.57 155.46
  Q 191.25 153.21 193.09 151.80
  Q 193.25 151.67 193.70 151.04
  L 195.82 148.03
  Q 196.25 147.42 196.32 147.21
  Q 196.82 145.82 198.29 145.50
  Z"
/>
<path fill="#212427" d="
  M 209.75 157.46
  Q 210.35 157.78 210.37 158.45
  A 0.60 0.54 -86.0 0 0 210.81 159.02
  L 214.01 159.64
  A 1.74 1.59 37.5 0 0 214.96 159.56
  Q 221.53 156.99 228.50 158.40
  A 0.59 0.57 -83.8 0 1 228.97 159.00
  Q 228.80 162.83 231.35 165.70
  A 1.54 1.26 -72.9 0 1 231.70 166.56
  Q 231.77 167.43 232.20 168.16
  Q 232.37 168.45 233.39 169.24
  Q 234.36 169.99 234.48 171.24
  A 0.59 0.55 88.1 0 0 235.01 171.77
  Q 242.88 172.16 237.19 177.23
  A 1.05 0.86 69.5 0 0 236.91 178.05
  Q 237.02 179.22 235.81 179.56
  Q 232.17 180.60 229.81 182.61
  A 1.51 1.16 18.8 0 1 228.95 182.90
  L 225.50 182.95
  A 0.96 0.94 -19.2 0 1 224.73 182.59
  Q 223.79 181.42 222.25 182.46
  L 203.00 179.29
  L 201.36 178.81
  Q 200.07 178.17 201.06 176.31
  Q 202.13 174.31 206.54 164.25
  L 209.75 157.46
  Z"
/>
<path fill="#86d8ea" d="
  M 188.55 160.79
  L 194.50 168.54
  Q 194.67 172.01 191.75 170.00
  Q 189.66 168.56 187.68 165.26
  Q 186.94 164.04 187.18 162.96
  Q 187.48 161.59 188.55 160.79
  Z"
/>
<path fill="#1e1f21" d="
  M 187.39 173.97
  L 181.57 171.22
  L 182.75 169.04
  Q 183.61 168.15 184.56 169.44
  Q 186.71 172.32 187.39 173.97
  Z"
/>
<path fill="#7fd4e8" d="
  M 181.57 171.22
  L 187.39 173.97
  Q 188.49 176.00 191.56 177.02
  A 0.99 0.98 -85.2 0 1 192.22 177.81
  Q 192.62 180.50 193.18 183.28
  Q 193.84 186.63 193.56 188.77
  Q 192.83 194.19 189.40 198.75
  L 175.00 197.46
  L 166.69 196.52
  Q 165.14 196.34 166.30 195.33
  Q 168.39 193.49 169.52 190.98
  Q 173.92 181.25 179.87 172.39
  Q 180.65 171.23 181.57 171.22
  Z"
/>
<path fill="#6bc1da" d="
  M 226.29 241.00
  Q 226.83 244.45 226.50 250.00
  Q 225.98 258.67 218.76 262.33
  Q 213.92 263.83 209.17 262.10
  Q 203.27 259.96 198.20 256.26
  Q 182.84 245.07 170.94 229.74
  A 0.63 0.62 42.0 0 0 169.92 229.79
  Q 161.26 243.51 149.71 255.25
  Q 147.14 257.95 143.75 258.97
  Q 140.68 259.89 138.51 258.25
  Q 136.04 256.39 136.00 252.75
  Q 135.94 247.62 137.85 241.78
  Q 144.20 222.44 152.90 203.88
  Q 152.34 202.54 151.74 201.55
  Q 150.64 199.76 150.42 199.34
  Q 148.68 195.94 146.39 192.99
  Q 143.11 188.34 141.00 183.15
  A 0.81 0.80 80.9 0 0 140.32 182.65
  Q 124.90 181.62 109.71 184.52
  Q 108.32 184.67 106.77 183.15
  A 0.48 0.47 -35.1 0 1 106.91 182.38
  Q 111.09 180.51 114.25 181.18
  Q 117.16 181.81 120.05 181.07
  Q 124.82 179.85 129.75 180.25
  Q 131.14 180.36 137.75 180.26
  A 1.00 0.91 -71.6 0 0 138.51 179.83
  Q 139.57 178.28 140.30 179.78
  Q 140.70 180.58 141.03 180.97
  Q 143.18 183.45 143.31 184.44
  Q 143.55 186.24 144.87 187.43
  A 2.00 1.70 17.0 0 1 145.38 188.23
  Q 145.95 190.08 147.17 191.49
  Q 148.76 193.32 149.30 194.39
  Q 150.98 197.69 153.08 200.73
  Q 153.67 201.58 155.17 204.36
  Q 155.85 205.63 156.78 206.72
  Q 157.99 208.15 158.52 208.95
  Q 159.88 210.99 161.39 212.92
  Q 162.72 214.62 164.12 216.95
  Q 166.82 221.44 170.75 225.00
  Q 171.34 225.54 172.75 228.86
  A 1.80 1.43 10.9 0 0 173.36 229.57
  Q 174.46 230.29 176.25 232.00
  Q 180.31 235.86 184.29 239.80
  Q 189.19 244.64 192.62 247.25
  Q 197.27 250.78 202.26 253.80
  Q 208.70 257.71 210.87 258.45
  Q 215.86 260.15 221.06 258.31
  Q 223.14 257.58 223.87 255.23
  A 1.68 1.67 78.0 0 1 224.38 254.44
  Q 226.04 252.98 226.04 250.73
  Q 226.04 249.36 226.05 249.26
  Q 226.31 245.14 226.29 241.00
  Z
  M 144.13 249.17
  Q 143.37 251.72 144.14 253.97
  A 0.82 0.81 84.7 0 0 144.80 254.52
  Q 149.09 255.13 151.49 251.89
  Q 153.29 249.47 153.35 249.39
  Q 158.75 243.24 163.16 236.34
  Q 164.09 234.87 164.17 233.43
  Q 164.37 229.43 161.38 231.07
  Q 160.20 231.72 159.17 233.45
  Q 154.56 241.17 147.37 246.60
  Q 156.48 234.97 164.48 222.67
  A 0.79 0.70 -48.4 0 0 164.48 221.82
  L 158.88 214.19
  A 0.34 0.31 -50.2 0 0 158.33 214.26
  Q 149.58 231.05 144.13 249.17
  Z"
/>
<path fill="#75cde4" d="
  M 201.36 178.81
  L 203.00 179.29
  Q 201.90 180.42 203.09 181.59
  Q 204.31 182.80 206.03 182.61
  Q 211.24 182.03 214.90 184.18
  Q 215.26 184.39 215.81 184.43
  L 222.95 184.98
  A 1.50 0.66 53.5 0 1 223.76 185.44
  Q 224.79 186.43 227.00 186.25
  Q 228.95 186.09 231.22 187.34
  Q 233.39 188.53 235.09 188.91
  Q 241.10 190.22 246.52 193.11
  Q 247.77 193.78 248.25 194.65
  Q 249.32 196.59 246.67 197.14
  Q 244.58 193.41 241.25 193.00
  Q 235.25 192.26 232.01 191.49
  Q 230.74 191.19 228.42 191.07
  Q 227.17 191.01 225.97 190.63
  Q 224.20 190.07 223.60 189.96
  Q 215.91 188.56 214.25 188.50
  Q 211.14 188.39 209.32 186.90
  A 1.66 1.27 59.7 0 0 208.44 186.54
  Q 203.61 186.34 197.96 185.00
  A 0.54 0.54 17.3 0 1 197.58 184.28
  Q 198.82 181.12 201.36 178.81
  Z"
/>
<path fill="#73c9df" d="
  M 100.54 179.70
  Q 99.60 184.76 103.40 184.78
  Q 104.13 184.78 104.58 184.93
  Q 105.52 185.23 105.66 185.45
  Q 106.33 186.46 107.39 187.02
  Q 119.17 193.31 131.06 194.85
  Q 131.19 194.87 134.71 195.74
  Q 138.23 196.63 139.50 192.54
  L 146.39 192.99
  Q 148.68 195.94 150.42 199.34
  Q 150.64 199.76 151.74 201.55
  Q 152.34 202.54 152.90 203.88
  Q 134.59 200.72 117.79 196.11
  Q 113.16 194.84 108.64 193.20
  Q 104.16 191.57 100.97 188.03
  Q 97.88 184.61 100.54 179.70
  Z"
/>
<path fill="#2d2e2e" d="
  M 146.39 192.99
  L 139.50 192.54
  Q 129.34 190.43 119.25 187.99
  Q 114.41 186.82 109.71 184.52
  Q 124.90 181.62 140.32 182.65
  A 0.81 0.80 80.9 0 1 141.00 183.15
  Q 143.11 188.34 146.39 192.99
  Z"
/>
<path fill="#272828" d="
  M 156.42 193.76
  L 150.31 183.01
  L 157.34 183.26
  A 0.42 0.42 9.9 0 1 157.73 183.81
  Q 156.19 188.61 156.42 193.76
  Z"
/>
<path fill="#1e1f21" d="
  M 197.29 187.25
  Q 196.97 188.84 197.94 190.56
  Q 200.99 196.03 201.96 197.50
  Q 202.79 198.33 202.25 199.29
  L 195.86 199.21
  Q 196.85 193.59 196.52 188.00
  Q 196.31 184.45 197.29 187.25
  Z"
/>
<path fill="#4caccc" d="
  M 197.29 187.25
  Q 202.81 187.23 208.06 188.74
  Q 207.27 189.17 207.46 189.75
  Q 204.22 189.29 201.69 191.44
  Q 199.65 193.16 201.75 195.00
  Q 203.06 196.15 201.96 197.50
  Q 200.99 196.03 197.94 190.56
  Q 196.97 188.84 197.29 187.25
  Z"
/>
<path fill="#1e1f21" d="
  M 208.06 188.74
  Q 214.34 189.98 220.62 191.33
  Q 220.71 191.35 226.89 192.55
  Q 235.58 194.26 243.75 197.71
  L 235.57 199.17
  Q 224.09 200.04 212.75 199.71
  L 207.46 189.75
  Q 207.27 189.17 208.06 188.74
  Z"
/>
<path fill="#73c9df" d="
  M 207.46 189.75
  L 212.75 199.71
  Q 207.47 200.49 202.25 199.29
  Q 202.79 198.33 201.96 197.50
  Q 203.06 196.15 201.75 195.00
  Q 199.65 193.16 201.69 191.44
  Q 204.22 189.29 207.46 189.75
  Z"
/>
<path fill="#6bc1da" d="
  M 253.63 195.60
  Q 254.35 199.65 252.69 201.69
  Q 250.63 204.21 246.75 205.25
  Q 245.31 205.64 237.50 207.21
  L 216.76 208.66
  L 211.99 208.20
  Q 211.25 208.13 211.04 208.06
  Q 209.33 207.46 209.40 209.18
  Q 209.42 209.80 209.81 210.77
  Q 212.86 218.30 215.94 225.81
  Q 216.51 227.22 216.53 228.25
  Q 216.54 228.83 216.70 229.21
  Q 220.78 238.91 220.22 249.44
  A 1.10 0.68 -23.9 0 1 219.74 250.14
  L 218.54 251.00
  Q 219.31 241.93 216.76 233.20
  Q 214.66 226.00 211.96 219.00
  L 207.73 208.80
  A 1.21 1.18 79.3 0 0 206.66 208.05
  L 188.25 207.54
  L 186.50 206.75
  Q 185.55 206.32 184.44 206.31
  Q 173.64 206.23 163.03 204.39
  Q 161.62 203.51 160.96 201.75
  Q 162.70 200.92 164.54 201.74
  Q 167.53 203.06 170.74 203.56
  Q 185.57 205.86 194.25 206.00
  Q 207.03 206.21 213.75 206.75
  Q 214.90 206.84 215.62 206.55
  Q 216.19 206.32 216.56 206.34
  Q 227.97 207.00 239.09 204.35
  Q 239.22 204.32 241.94 203.92
  Q 243.23 203.74 244.37 203.12
  Q 245.60 202.47 246.69 202.21
  Q 251.82 200.99 253.63 195.60
  Z"
/>
<path fill="#9ce1f0" d="
  M 175.00 197.46
  L 189.40 198.75
  L 195.86 199.21
  L 202.25 199.29
  Q 207.47 200.49 212.75 199.71
  Q 224.09 200.04 235.57 199.17
  Q 236.11 201.76 234.00 202.25
  Q 228.35 203.55 218.75 203.08
  Q 208.44 202.57 198.13 202.30
  Q 196.53 202.26 194.46 201.65
  Q 192.42 201.06 190.75 201.00
  Q 181.38 200.65 173.80 199.04
  A 0.93 0.74 1.6 0 1 173.12 198.47
  Q 172.84 197.32 175.00 197.46
  Z"
/>
<path fill="#499bbe" d="
  M 188.25 207.54
  Q 186.35 209.03 184.07 209.78
  Q 182.85 210.17 182.28 210.77
  Q 181.55 211.53 181.04 212.50
  L 180.57 211.63
  A 1.09 0.64 -4.9 0 0 179.75 211.24
  L 171.75 210.79
  L 165.71 208.50
  Q 163.95 206.92 163.03 204.39
  Q 173.64 206.23 184.44 206.31
  Q 185.55 206.32 186.50 206.75
  L 188.25 207.54
  Z"
/>
<path fill="#252627" d="
  M 237.50 207.21
  Q 240.63 209.50 241.19 211.31
  Q 242.67 216.14 244.51 220.85
  A 1.24 0.80 57.2 0 1 244.51 221.78
  Q 244.15 222.39 243.32 222.37
  A 0.60 0.58 8.0 0 0 242.73 222.80
  Q 242.40 223.94 240.96 223.35
  Q 237.87 222.09 240.59 223.59
  Q 242.99 224.91 244.82 226.48
  Q 246.13 227.61 244.51 227.00
  Q 241.48 225.88 238.70 224.27
  Q 237.90 223.81 234.85 221.12
  Q 232.41 218.98 229.16 218.28
  Q 227.29 217.88 226.62 219.67
  Q 225.88 221.66 225.96 223.51
  A 1.63 1.41 -33.1 0 1 225.70 224.41
  Q 224.54 226.15 225.11 228.29
  Q 225.40 229.37 225.01 228.91
  Q 224.70 228.56 224.62 228.11
  Q 224.05 225.22 223.00 225.54
  L 216.76 208.66
  L 237.50 207.21
  Z"
/>
<path fill="#1e1f21" d="
  M 188.25 207.54
  L 206.66 208.05
  A 1.21 1.18 79.3 0 1 207.73 208.80
  L 211.96 219.00
  Q 211.62 220.43 212.29 221.65
  A 1.40 1.00 43.2 0 1 212.47 222.56
  Q 211.79 225.54 208.56 225.14
  A 1.48 1.28 28.6 0 0 207.64 225.34
  Q 203.26 228.16 198.98 231.12
  Q 196.66 232.73 194.47 234.88
  Q 192.35 236.96 190.22 239.00
  Q 182.31 231.04 175.46 222.00
  L 181.04 212.50
  Q 181.55 211.53 182.28 210.77
  Q 182.85 210.17 184.07 209.78
  Q 186.35 209.03 188.25 207.54
  Z"
/>
<path fill="#1e1f21" d="
  M 171.75 210.79
  Q 171.15 212.67 169.75 214.04
  L 165.71 208.50
  L 171.75 210.79
  Z"
/>
<path fill="#484848" d="
  M 298.46 215.75
  Q 298.53 240.87 298.47 266.00
  Q 298.45 277.82 291.84 287.18
  L 284.00 287.96
  Q 288.65 279.48 288.75 268.75
  Q 289.07 233.04 288.96 223.00
  Q 289.46 221.42 289.25 219.77
  A 0.13 0.13 1.7 0 1 289.40 219.63
  Q 291.59 219.95 292.19 218.27
  Q 293.49 214.59 296.59 212.29
  A 0.30 0.30 -22.2 0 1 297.07 212.49
  Q 297.73 216.63 297.85 211.25
  Q 297.94 207.16 298.00 212.25
  Q 298.03 214.90 298.46 215.75
  Z"
/>
<path fill="#53b1d2" d="
  M 181.04 212.50
  L 175.46 222.00
  L 173.35 219.99
  L 169.75 214.04
  Q 171.15 212.67 171.75 210.79
  L 179.75 211.24
  A 1.09 0.64 -4.9 0 1 180.57 211.63
  L 181.04 212.50
  Z"
/>
<path fill="#252627" d="
  M 147.37 246.60
  L 144.13 249.17
  Q 149.58 231.05 158.33 214.26
  A 0.34 0.31 -50.2 0 1 158.88 214.19
  L 164.48 221.82
  A 0.79 0.70 -48.4 0 1 164.48 222.67
  Q 156.48 234.97 147.37 246.60
  Z"
/>
<path fill="#232525" d="
  M 211.96 219.00
  Q 214.66 226.00 216.76 233.20
  Q 219.31 241.93 218.54 251.00
  Q 218.33 252.85 217.21 254.00
  Q 216.19 255.04 214.36 255.04
  Q 211.58 255.05 209.06 253.70
  Q 198.43 248.02 190.22 239.00
  Q 192.35 236.96 194.47 234.88
  Q 196.66 232.73 198.98 231.12
  Q 203.26 228.16 207.64 225.34
  A 1.48 1.28 28.6 0 1 208.56 225.14
  Q 211.79 225.54 212.47 222.56
  A 1.40 1.00 43.2 0 0 212.29 221.65
  Q 211.62 220.43 211.96 219.00
  Z"
/>
<path fill="#272828" d="
  M 218.76 262.33
  Q 221.72 263.70 223.27 260.94
  A 1.02 0.55 -66.5 0 1 223.98 260.38
  Q 224.58 260.40 224.25 261.75
  Q 223.85 263.35 221.50 264.00
  Q 218.22 264.91 219.03 267.34
  Q 219.87 269.88 219.87 270.33
  Q 219.89 273.67 217.87 277.06
  A 0.93 0.92 15.6 0 1 217.08 277.50
  Q 209.05 277.48 201.76 278.49
  Q 200.74 278.63 198.49 279.70
  Q 195.80 280.97 192.31 279.94
  Q 187.28 278.45 182.96 281.15
  Q 180.93 282.42 178.97 283.78
  Q 178.60 284.04 178.36 284.51
  Q 177.19 286.80 174.56 287.31
  Q 171.40 287.93 170.44 287.31
  Q 168.83 286.27 167.47 284.95
  Q 165.20 282.73 164.87 282.23
  Q 163.75 280.58 164.00 278.00
  Q 164.10 276.96 163.30 276.08
  Q 162.36 275.05 162.14 274.55
  Q 161.06 272.06 161.09 269.38
  Q 161.12 266.95 160.44 265.80
  Q 158.88 263.18 155.91 261.99
  Q 155.48 261.82 155.14 261.42
  Q 153.84 259.88 151.73 260.57
  A 1.15 1.11 -38.9 0 1 150.82 260.49
  Q 149.62 259.85 148.30 259.97
  Q 147.51 260.04 147.09 259.87
  Q 145.78 259.35 146.80 258.56
  Q 147.06 258.34 147.78 258.11
  Q 149.81 257.45 149.71 255.25
  Q 161.26 243.51 169.92 229.79
  A 0.63 0.62 42.0 0 1 170.94 229.74
  Q 182.84 245.07 198.20 256.26
  Q 203.27 259.96 209.17 262.10
  Q 213.92 263.83 218.76 262.33
  Z"
/>
<path fill="#75cde4" d="
  M 144.13 249.17
  L 147.37 246.60
  Q 154.56 241.17 159.17 233.45
  Q 160.20 231.72 161.38 231.07
  Q 164.37 229.43 164.17 233.43
  Q 164.09 234.87 163.16 236.34
  Q 158.75 243.24 153.35 249.39
  Q 153.29 249.47 151.49 251.89
  Q 149.09 255.13 144.80 254.52
  A 0.82 0.81 84.7 0 1 144.14 253.97
  Q 143.37 251.72 144.13 249.17
  Z"
/>
<path fill="#5b5c5b" d="
  M 291.84 287.18
  Q 285.24 297.28 273.61 300.43
  Q 279.66 294.85 284.00 287.96
  L 291.84 287.18
  Z"
/>
</svg>
