<?xml version="1.0" encoding="UTF-8" standalone="no"?>
<!DOCTYPE svg PUBLIC "-//W3C//DTD SVG 1.1//EN" "http://www.w3.org/Graphics/SVG/1.1/DTD/svg11.dtd">
<svg xmlns="http://www.w3.org/2000/svg" version="1.1" viewBox="0 0 370 370">
<path fill="#61dafb" d="
  M 243.42 199.05
  Q 245.80 209.65 246.47 220.50
  Q 246.86 226.93 245.75 233.25
  Q 244.74 239.03 242.89 243.35
  Q 240.68 248.56 236.79 251.65
  Q 229.74 257.27 219.50 254.75
  Q 214.55 253.53 213.04 252.90
  Q 197.19 246.31 184.20 233.59
  A 1.01 1.01 -44.9 0 0 182.78 233.59
  Q 168.89 247.33 150.19 254.19
  Q 145.18 256.02 138.52 255.31
  Q 130.74 254.48 126.31 248.44
  Q 122.70 243.51 121.34 236.93
  Q 119.50 228.07 120.13 219.01
  Q 120.81 209.17 122.78 199.33
  A 0.88 0.88 15.8 0 0 122.22 198.33
  Q 115.39 195.86 108.88 193.19
  Q 97.87 188.67 88.84 180.92
  Q 82.48 175.46 80.25 167.75
  Q 79.05 163.61 80.54 159.14
  Q 83.49 150.32 90.95 144.70
  Q 105.01 134.08 122.16 129.20
  A 0.86 0.86 -14.1 0 0 122.77 128.18
  Q 120.49 117.98 119.75 107.84
  Q 119.40 103.11 119.74 99.17
  Q 120.12 94.83 121.02 90.55
  Q 122.38 84.11 125.81 79.31
  Q 129.18 74.61 135.00 72.41
  Q 139.69 70.64 144.28 71.52
  Q 145.95 71.85 152.88 74.28
  Q 159.28 76.53 165.08 80.17
  Q 174.18 85.88 182.49 93.84
  A 0.75 0.75 44.4 0 0 183.54 93.83
  Q 198.33 79.08 217.20 72.66
  Q 222.40 70.89 226.50 71.36
  Q 237.12 72.57 242.19 82.81
  Q 245.02 88.55 245.60 95.09
  Q 246.18 101.60 246.23 102.38
  Q 246.40 104.85 246.13 107.32
  Q 245.72 110.99 245.65 112.21
  Q 245.21 120.25 243.18 128.30
  A 0.63 0.62 16.2 0 0 243.60 129.05
  Q 254.19 132.31 263.47 136.99
  Q 273.46 142.02 280.90 150.34
  Q 291.38 162.04 282.81 174.56
  Q 276.96 183.11 265.92 188.89
  Q 255.22 194.50 243.79 198.40
  A 0.56 0.56 -15.6 0 0 243.42 199.05
  Z
  M 176.13 100.73
  Q 167.49 92.78 157.81 86.94
  Q 149.15 81.71 140.43 81.49
  Q 138.24 81.43 136.71 82.17
  Q 134.77 83.10 133.69 84.69
  Q 130.99 88.66 130.12 93.76
  Q 129.52 97.32 129.18 100.70
  Q 128.85 104.02 129.25 107.75
  Q 130.39 118.32 131.96 125.95
  A 0.49 0.48 -12.7 0 0 132.55 126.32
  Q 144.89 123.44 156.92 122.07
  Q 158.90 121.84 160.09 120.24
  Q 168.02 109.49 176.14 101.11
  A 0.27 0.26 44.2 0 0 176.13 100.73
  Z
  M 231.41 83.79
  Q 229.51 81.90 227.27 81.52
  Q 226.11 81.32 222.74 81.52
  Q 218.05 81.81 213.56 84.06
  Q 200.31 90.71 190.11 100.64
  A 0.52 0.51 -44.6 0 0 190.10 101.36
  Q 199.09 110.61 206.61 120.95
  A 2.41 2.39 -14.3 0 0 208.30 121.94
  Q 220.93 123.38 233.32 126.20
  A 0.51 0.51 -76.8 0 0 233.93 125.82
  Q 236.54 114.56 236.68 103.00
  Q 236.77 94.59 234.10 87.85
  Q 233.18 85.54 231.41 83.79
  Z
  M 193.77 120.00
  L 183.52 108.09
  A 0.70 0.68 -45.0 0 0 182.47 108.10
  L 172.43 119.73
  Q 171.58 120.72 172.91 120.71
  L 193.53 120.50
  Q 194.20 120.50 193.77 120.00
  Z
  M 201.87 131.16
  Q 200.35 130.57 199.22 130.84
  Q 198.63 130.98 198.25 130.93
  Q 184.90 129.14 171.51 130.55
  Q 168.51 130.87 165.92 130.77
  Q 164.15 130.70 163.20 132.18
  Q 153.59 146.97 145.65 162.95
  A 1.73 1.71 45.4 0 0 145.65 164.48
  Q 153.67 180.97 163.32 195.15
  Q 164.25 196.52 165.90 196.63
  Q 184.63 197.85 201.56 196.60
  A 1.05 1.04 14.6 0 0 202.34 196.15
  Q 212.41 181.07 220.07 164.95
  A 3.34 3.32 -45.3 0 0 220.06 162.08
  Q 212.12 145.62 202.32 131.51
  A 0.93 0.91 82.1 0 0 201.87 131.16
  Z
  M 140.30 151.50
  L 150.57 133.89
  Q 151.64 132.05 149.59 132.48
  L 135.07 135.56
  A 0.45 0.44 75.0 0 0 134.74 136.14
  L 139.90 151.47
  Q 140.05 151.93 140.30 151.50
  Z
  M 231.30 135.76
  Q 224.16 133.61 216.60 132.70
  Q 214.42 132.44 215.55 134.36
  L 225.27 150.84
  Q 225.97 152.02 226.41 150.75
  L 231.47 136.09
  A 0.26 0.25 18.4 0 0 231.30 135.76
  Z
  M 95.18 173.56
  Q 108.42 184.36 124.95 188.81
  A 0.52 0.51 15.5 0 0 125.58 188.46
  Q 129.10 176.61 134.45 164.43
  A 1.93 1.92 44.8 0 0 134.44 162.87
  Q 129.06 150.95 125.42 138.75
  A 0.50 0.49 73.1 0 0 124.79 138.41
  Q 113.04 142.12 102.69 148.19
  Q 95.33 152.50 91.06 158.55
  Q 89.81 160.33 89.44 161.78
  Q 88.95 163.73 89.50 165.50
  Q 90.93 170.09 95.18 173.56
  Z
  M 255.60 143.87
  Q 248.61 140.72 241.28 138.46
  A 0.50 0.49 -72.5 0 0 240.66 138.79
  Q 236.64 151.21 231.69 163.29
  A 1.19 1.17 44.7 0 0 231.70 164.21
  Q 236.85 176.09 240.67 188.46
  A 0.50 0.50 73.4 0 0 241.29 188.80
  Q 250.01 186.21 258.07 182.07
  Q 264.88 178.56 267.88 176.27
  Q 272.50 172.75 275.60 167.63
  Q 277.63 164.28 276.44 161.06
  Q 275.15 157.62 271.48 154.28
  Q 264.37 147.81 255.60 143.87
  Z
  M 225.26 176.30
  L 214.99 194.01
  Q 214.30 195.20 215.61 194.93
  L 230.77 191.80
  A 0.94 0.91 74.5 0 0 231.44 190.58
  L 226.63 176.42
  Q 226.10 174.85 225.26 176.30
  Z
  M 135.56 191.73
  L 150.79 194.95
  Q 151.87 195.18 151.26 194.26
  Q 145.71 185.86 141.05 176.92
  Q 140.27 175.41 139.74 176.98
  L 135.07 190.93
  A 0.64 0.61 15.1 0 0 135.56 191.73
  Z
  M 158.83 205.95
  Q 156.96 204.90 154.88 204.76
  Q 152.67 204.61 152.64 204.61
  Q 143.07 203.34 132.80 201.04
  A 0.67 0.67 -78.1 0 0 131.99 201.57
  Q 130.19 210.87 129.51 220.36
  Q 129.15 225.48 129.69 229.64
  Q 130.36 234.71 131.75 238.75
  Q 135.05 248.34 145.58 245.65
  Q 151.43 244.16 156.65 241.12
  Q 166.68 235.30 175.89 227.04
  A 0.71 0.70 48.1 0 0 175.94 226.04
  Q 167.95 217.36 160.02 206.98
  Q 159.54 206.34 158.83 205.95
  Z
  M 190.71 226.93
  Q 200.51 235.94 210.76 241.42
  Q 216.13 244.29 222.05 245.76
  Q 228.37 247.33 231.94 243.19
  Q 235.31 239.27 236.14 232.24
  Q 237.97 216.62 233.88 201.48
  A 0.52 0.52 -13.9 0 0 233.26 201.11
  Q 221.52 203.76 209.58 205.20
  Q 207.13 205.49 205.19 208.19
  Q 198.38 217.65 190.67 225.57
  A 0.95 0.95 43.3 0 0 190.71 226.93
  Z
  M 173.82 206.93
  Q 172.26 206.92 173.19 208.18
  Q 177.24 213.64 182.88 219.14
  A 0.52 0.50 44.6 0 0 183.60 219.15
  Q 189.00 213.63 193.64 207.46
  Q 193.94 207.06 193.44 207.06
  L 173.82 206.93
  Z"
/>
<circle fill="#61dafb" cx="183.08" cy="163.64" r="19.31"/>
<ellipse fill="#5ddaf4" cx="0.00" cy="0.00" transform="translate(247.10,274.24) rotate(72.7)" rx="2.30" ry="2.01"/>
<path fill="#5ddaf4" d="
  M 87.95 288.55
  L 83.73 288.52
  A 0.92 0.90 -0.3 0 0 82.80 289.44
  L 83.01 299.07
  A 0.59 0.43 89.4 0 1 82.58 299.67
  L 79.68 299.67
  A 0.60 0.50 90.0 0 1 79.18 299.07
  L 79.25 273.00
  A 0.51 0.50 -0.6 0 1 79.75 272.50
  Q 83.04 272.43 86.33 272.63
  Q 86.41 272.63 89.67 272.66
  Q 94.47 272.70 96.63 276.45
  Q 98.32 279.37 97.61 282.25
  Q 96.91 285.10 93.98 287.50
  A 1.72 1.66 -34.8 0 0 93.55 289.66
  L 98.88 298.77
  A 0.43 0.43 67.8 0 1 98.62 299.40
  Q 95.14 300.29 94.24 298.50
  Q 92.22 294.45 89.42 289.47
  A 1.79 1.61 74.1 0 0 87.95 288.55
  Z
  M 85.93 285.24
  Q 94.00 286.38 93.77 280.37
  Q 93.67 277.81 91.70 276.52
  Q 89.64 275.18 86.97 275.38
  Q 86.17 275.44 85.01 275.43
  Q 84.01 275.42 83.04 275.67
  A 0.63 0.60 80.5 0 0 82.60 276.32
  Q 83.02 281.86 82.75 283.50
  Q 82.27 286.42 84.62 285.41
  A 2.43 2.42 37.5 0 1 85.93 285.24
  Z"
/>
<path fill="#5ddaf4" d="
  M 202.54 292.66
  Q 202.81 293.06 202.81 292.58
  L 202.81 273.31
  A 0.72 0.65 82.4 0 1 203.27 272.64
  Q 204.50 272.24 205.72 272.63
  A 0.75 0.68 -82.4 0 1 206.19 273.31
  L 206.43 299.19
  A 0.63 0.58 85.0 0 1 205.96 299.80
  Q 204.33 300.14 202.99 299.50
  Q 202.03 299.03 201.05 297.48
  Q 192.19 283.43 190.19 280.81
  Q 188.56 278.68 188.54 280.86
  Q 188.54 281.31 188.71 282.00
  Q 189.38 284.67 189.17 287.36
  Q 188.84 291.46 188.91 292.66
  Q 189.09 295.70 189.23 298.74
  A 0.75 0.69 78.9 0 1 188.79 299.45
  Q 187.08 300.13 185.29 299.60
  A 0.65 0.64 -80.9 0 1 184.83 298.95
  Q 185.12 287.76 185.01 276.57
  Q 184.99 273.97 185.00 273.93
  Q 185.40 272.36 188.17 272.88
  A 3.39 2.96 75.6 0 1 190.23 274.29
  L 202.54 292.66
  Z"
/>
<path fill="#61dafb" d="
  M 167.80 283.07
  L 167.80 294.94
  A 1.51 1.21 -69.7 0 0 168.10 295.84
  Q 168.97 296.89 170.44 297.04
  A 1.44 1.10 -13.3 0 1 171.29 297.42
  Q 173.26 299.53 170.54 299.78
  Q 169.54 299.87 168.58 299.91
  Q 164.34 300.06 164.07 295.26
  Q 163.74 289.50 164.22 284.10
  A 1.57 1.56 -84.3 0 0 162.84 282.41
  Q 160.05 282.08 160.10 280.68
  A 1.08 0.83 -19.9 0 1 160.59 279.91
  Q 161.90 279.08 162.90 279.14
  A 1.08 1.08 0.2 0 0 164.04 278.01
  Q 163.80 273.37 166.86 274.51
  A 1.65 1.64 -73.5 0 1 167.89 276.42
  Q 167.11 279.76 169.48 279.62
  Q 170.64 279.55 171.01 279.70
  Q 172.29 280.19 171.47 281.53
  A 1.28 0.93 4.0 0 1 170.70 282.01
  L 168.30 282.45
  A 0.63 0.61 85.1 0 0 167.80 283.07
  Z"
/>
<path fill="#61dafb" d="
  M 232.78 279.38
  A 1.71 1.54 77.6 0 0 233.96 277.30
  Q 233.29 274.74 236.21 274.33
  A 1.37 1.37 -87.5 0 1 237.73 275.99
  Q 236.81 280.02 239.75 279.60
  A 1.33 0.95 -23.6 0 1 240.66 279.79
  Q 242.78 281.45 238.34 282.51
  A 0.72 0.72 -4.0 0 0 237.79 283.14
  Q 237.23 289.41 237.87 295.69
  A 0.95 0.94 2.9 0 0 238.62 296.52
  Q 241.53 297.12 241.66 298.57
  A 0.93 0.92 -8.5 0 1 240.93 299.55
  Q 233.79 301.09 233.53 294.76
  Q 233.21 287.04 233.56 285.56
  Q 234.37 282.19 231.38 281.85
  Q 230.44 281.74 230.09 281.48
  Q 229.30 280.88 230.12 280.08
  A 1.69 0.78 1.1 0 1 230.99 279.70
  L 232.78 279.38
  Z"
/>
<path fill="#5ddaf4" d="
  M 104.85 292.70
  Q 104.71 293.76 106.80 295.45
  Q 110.42 298.38 114.15 296.09
  Q 115.58 295.21 115.93 295.08
  Q 118.28 294.19 117.51 296.78
  Q 117.24 297.70 116.40 298.27
  Q 113.70 300.10 110.52 300.08
  Q 107.38 300.06 104.96 298.23
  Q 101.06 295.28 101.25 289.25
  Q 101.41 284.03 104.59 281.24
  Q 107.61 278.58 111.57 279.18
  Q 115.89 279.84 117.77 284.71
  Q 118.78 287.33 118.08 289.97
  A 0.78 0.74 3.2 0 1 117.44 290.51
  Q 113.29 291.12 108.02 290.31
  Q 105.21 289.88 104.85 292.70
  Z
  M 109.42 287.93
  Q 110.95 288.14 113.52 287.91
  A 1.43 1.43 -15.2 0 0 114.68 285.89
  Q 112.52 281.22 108.61 282.50
  Q 107.22 282.95 106.33 284.07
  Q 105.41 285.22 105.09 286.67
  A 0.89 0.89 -84.6 0 0 105.98 287.75
  Q 107.72 287.70 109.42 287.93
  Z"
/>
<path fill="#5ddaf4" d="
  M 134.36 285.41
  Q 134.17 282.35 129.93 282.25
  Q 128.05 282.21 126.75 283.58
  Q 124.49 285.96 122.75 285.19
  A 0.80 0.75 -77.1 0 1 122.31 284.43
  Q 122.42 282.34 124.44 280.94
  Q 129.31 277.55 134.19 279.81
  Q 136.58 280.92 137.56 284.19
  Q 138.33 286.74 138.02 290.45
  Q 137.80 293.17 137.94 295.05
  Q 138.08 297.11 138.17 299.18
  A 0.53 0.51 86.6 0 1 137.70 299.73
  Q 131.99 300.24 128.00 300.00
  Q 123.35 299.72 122.02 296.13
  Q 120.80 292.80 123.09 290.27
  Q 125.89 287.19 132.11 287.63
  Q 134.51 287.80 134.36 285.41
  Z
  M 128.36 296.53
  Q 134.05 297.70 134.25 291.16
  A 1.48 1.48 -0.9 0 0 132.69 289.65
  Q 129.52 289.82 127.37 290.92
  Q 124.27 292.50 125.58 294.73
  Q 126.40 296.13 128.36 296.53
  Z"
/>
<path fill="#5ddaf4" d="
  M 146.21 298.71
  Q 144.30 297.67 143.43 295.66
  Q 141.05 290.19 142.69 285.15
  Q 143.64 282.22 145.86 280.63
  Q 148.34 278.85 151.50 279.00
  Q 156.72 279.24 158.65 284.00
  Q 159.12 285.16 158.81 286.03
  Q 158.29 287.49 156.49 286.45
  A 1.77 1.25 83.7 0 1 155.86 285.74
  Q 154.46 282.88 152.00 282.25
  Q 148.39 281.32 146.61 285.02
  Q 144.90 288.53 145.68 291.98
  Q 146.45 295.39 149.48 296.64
  Q 153.50 298.29 156.20 293.38
  A 0.94 0.82 -74.3 0 1 156.94 292.90
  Q 159.26 292.82 158.80 295.04
  Q 158.58 296.11 157.66 297.11
  Q 152.84 302.34 146.21 298.71
  Z"
/>
<path fill="#5ddaf4" d="
  M 220.88 282.50
  Q 218.04 281.75 215.11 284.45
  A 4.32 4.28 -70.8 0 1 212.92 285.52
  Q 211.62 285.74 211.70 284.31
  Q 211.74 283.62 212.20 282.93
  Q 214.54 279.42 219.44 279.19
  Q 223.23 279.01 225.38 281.11
  Q 227.01 282.70 227.37 286.37
  Q 227.71 289.86 227.50 293.00
  Q 227.27 296.37 228.05 299.21
  A 0.41 0.41 80.0 0 1 227.69 299.73
  Q 218.89 300.54 216.56 299.94
  Q 210.83 298.44 211.36 293.24
  Q 211.57 291.13 212.99 289.63
  Q 214.67 287.84 216.75 287.75
  Q 219.73 287.62 222.69 287.25
  A 0.85 0.80 6.0 0 0 223.38 286.72
  Q 224.56 283.48 220.88 282.50
  Z
  M 223.7970 291.9256
  A 2.96 2.96 0.0 0 0 220.1865 289.8073
  L 217.2253 290.5787
  A 2.96 2.96 0.0 0 0 215.1070 294.1892
  L 215.2230 294.6344
  A 2.96 2.96 0.0 0 0 218.8335 296.7527
  L 221.7947 295.9813
  A 2.96 2.96 0.0 0 0 223.9130 292.3708
  L 223.7970 291.9256
  Z"
/>
<path fill="#5ddaf4" d="
  M 275.38 292.19
  Q 276.53 298.39 283.43 296.28
  Q 284.75 295.88 286.01 295.27
  Q 287.58 294.51 287.87 295.69
  Q 288.04 296.35 287.57 297.09
  Q 285.96 299.67 282.68 299.86
  Q 270.58 300.53 271.75 288.25
  Q 272.48 280.57 278.72 279.39
  Q 283.35 278.52 286.09 281.47
  Q 288.75 284.33 288.75 289.79
  A 0.90 0.87 -89.7 0 1 287.87 290.69
  L 276.80 290.55
  A 1.42 1.39 -4.8 0 0 275.38 292.19
  Z
  M 275.92 287.84
  Q 279.35 288.28 284.62 287.52
  A 0.79 0.79 76.3 0 0 285.25 286.48
  Q 284.27 283.64 282.16 282.59
  Q 280.05 281.54 277.96 282.93
  Q 275.99 284.24 275.24 286.80
  A 0.82 0.82 -78.2 0 0 275.92 287.84
  Z"
/>
<rect fill="#5ddaf4" x="-1.86" y="-10.24" transform="translate(247.08,289.70) rotate(-0.4)" width="3.72" height="20.48" rx="0.56"/>
<path fill="#5ddaf4" d="
  M 259.82 299.61
  A 1.14 1.11 89.7 0 1 259.16 298.94
  L 252.42 280.22
  A 0.57 0.53 68.3 0 1 252.69 279.52
  Q 254.13 278.87 255.61 279.47
  A 1.19 0.99 88.6 0 1 256.21 280.16
  L 260.19 292.32
  Q 260.95 294.65 261.73 292.31
  Q 263.13 288.09 264.49 283.39
  Q 264.52 283.31 264.89 281.58
  Q 265.56 278.41 268.75 279.57
  A 0.67 0.66 -70.6 0 1 269.14 280.41
  L 262.84 298.95
  A 1.14 0.90 -85.9 0 1 262.23 299.62
  Q 261.01 300.04 259.82 299.61
  Z"
/>
</svg>
