<?xml version="1.0" encoding="UTF-8" standalone="no"?>
<!DOCTYPE svg PUBLIC "-//W3C//DTD SVG 1.1//EN" "http://www.w3.org/Graphics/SVG/1.1/DTD/svg11.dtd">
<svg xmlns="http://www.w3.org/2000/svg" version="1.1" viewBox="0 0 370 370">
<g stroke-width="2.00" fill="none" stroke-linecap="butt">
<path stroke="#b65887" vector-effect="non-scaling-stroke" d="
  M 178.14 244.16
  Q 177.74 240.63 178.45 236.28
  Q 179.34 230.82 179.36 230.69
  Q 180.69 220.56 181.75 215.75
  Q 183.22 209.05 182.75 207.00
  Q 181.90 203.34 177.20 203.87
  A 0.55 0.54 0.8 0 1 176.60 203.26
  Q 177.32 197.98 176.28 192.45
  Q 175.72 189.49 173.69 187.67
  Q 171.53 185.74 169.07 187.30
  Q 160.20 192.99 156.00 202.54
  Q 155.42 203.87 154.36 204.81
  L 138.03 219.30
  A 0.63 0.62 52.6 0 1 137.09 219.17
  Q 134.12 214.56 130.61 210.13
  Q 123.51 201.18 117.01 191.81
  Q 105.50 175.24 110.86 155.53
  Q 114.07 143.70 121.32 133.82
  Q 129.94 122.07 141.03 112.77
  Q 148.22 106.74 153.59 103.41
  Q 160.29 99.26 167.89 96.80
  Q 178.43 93.40 187.50 96.50
  Q 198.31 100.19 199.14 112.51
  Q 199.57 118.90 197.56 126.06
  Q 191.95 146.10 176.33 158.29
  Q 171.79 161.83 167.17 163.94
  Q 161.83 166.38 156.75 167.00
  Q 145.27 168.41 138.97 158.29
  Q 137.73 156.31 137.17 157.85
  Q 136.98 158.40 137.10 159.15
  Q 138.53 168.00 144.96 172.79
  Q 149.99 176.54 157.43 176.72
  Q 164.11 176.88 170.75 174.50
  Q 178.60 171.69 184.85 166.82
  Q 190.50 162.41 195.48 155.11
  Q 206.41 139.10 208.42 119.24
  Q 209.46 108.90 207.75 101.50
  Q 204.14 85.91 190.88 80.32
  Q 182.17 76.65 171.27 78.28
  Q 159.68 80.00 148.94 86.94
  Q 125.87 101.83 111.32 122.55
  Q 104.87 131.75 100.88 142.10
  Q 97.25 151.52 96.18 158.47
  Q 94.80 167.38 97.00 175.75
  Q 99.44 185.04 104.91 193.90
  Q 108.06 199.00 116.99 209.37
  Q 123.62 217.05 130.16 224.78
  A 0.94 0.94 49.0 0 1 130.07 226.09
  Q 125.02 230.64 120.46 234.96
  Q 113.04 241.99 107.84 250.78
  Q 97.62 268.05 104.27 287.12
  Q 105.42 290.42 107.44 291.56
  Q 111.53 293.89 116.25 293.27
  Q 120.02 292.77 124.25 290.10
  Q 132.18 285.10 136.26 276.22
  Q 146.76 253.43 141.07 227.96
  A 1.82 1.71 64.1 0 1 141.61 226.24
  L 149.95 218.93
  Q 150.68 218.28 150.50 219.26
  Q 147.28 236.19 149.75 253.25
  Q 150.44 258.01 152.99 263.05
  Q 154.12 265.27 155.37 266.21
  Q 157.44 267.76 159.62 266.73
  Q 161.41 265.87 162.96 262.94
  Q 165.24 258.62 166.49 253.86
  Q 167.92 248.41 169.50 243.00
  Q 169.59 242.68 169.79 242.58
  Q 170.21 242.36 170.13 242.97
  Q 169.20 250.26 170.44 257.51
  Q 171.01 260.81 172.88 262.37
  Q 175.38 264.45 177.30 261.83
  Q 181.00 256.78 183.01 250.88
  Q 191.00 227.38 197.07 203.30
  Q 197.85 200.18 198.15 203.38
  Q 199.04 212.82 203.05 224.37
  A 2.34 2.32 -42.3 0 1 202.96 226.12
  Q 197.61 237.37 192.06 247.81
  Q 189.45 252.72 190.67 257.21
  A 1.42 1.36 -81.7 0 0 191.22 257.98
  Q 194.33 260.05 198.07 258.57
  Q 210.54 253.65 212.86 240.32
  Q 214.36 231.71 211.76 224.01
  Q 210.94 221.59 212.00 219.26
  Q 217.42 207.34 221.01 194.70
  Q 221.83 191.82 222.25 194.78
  Q 223.35 202.43 225.50 209.86
  Q 225.51 209.91 226.31 211.94
  Q 227.34 214.57 225.56 217.06
  Q 220.16 224.65 217.70 233.91
  Q 217.01 236.52 216.78 239.28
  Q 216.51 242.62 216.75 244.75
  Q 217.23 249.04 220.42 249.40
  Q 222.45 249.63 225.13 247.90
  Q 232.85 242.90 236.14 234.00
  Q 238.22 228.36 237.50 223.00
  Q 236.76 217.48 236.54 215.00
  A 0.78 0.77 73.4 0 1 236.93 214.26
  Q 242.89 210.98 249.75 211.27
  Q 264.01 211.86 269.65 224.68
  Q 275.55 238.08 266.12 248.87
  Q 265.28 249.83 265.74 250.82
  A 0.60 0.56 -21.4 0 0 266.47 251.11
  Q 268.63 250.37 270.31 248.06
  Q 273.41 243.82 274.27 239.90
  Q 277.61 224.69 269.12 211.90
  Q 263.51 203.47 254.18 201.87
  Q 249.29 201.03 243.94 202.67
  Q 238.92 204.22 234.47 207.17
  A 0.43 0.43 -26.1 0 1 233.82 206.95
  Q 227.87 190.15 231.70 172.80
  Q 232.10 171.00 231.99 170.17
  Q 231.76 168.39 230.25 167.88
  Q 229.22 167.54 226.87 167.48
  Q 224.41 167.42 222.65 168.90
  Q 221.35 170.00 220.90 172.60
  Q 218.67 185.21 214.23 197.24
  Q 211.75 203.96 209.49 210.77
  Q 208.80 212.86 208.09 210.77
  Q 203.92 198.59 206.83 185.32
  Q 207.54 182.10 207.67 179.21
  Q 207.77 176.96 205.58 176.44
  Q 200.75 175.29 197.41 178.46
  A 1.71 1.41 77.9 0 0 196.97 179.31
  Q 195.38 187.92 193.02 196.34
  Q 190.15 206.61 190.12 206.71
  Q 185.07 225.59 179.25 244.26
  Q 178.44 246.84 178.14 244.16"
/>
<path stroke="#b65887" vector-effect="non-scaling-stroke" d="
  M 166.96 201.45
  Q 162.44 209.23 160.22 217.82
  Q 158.23 225.52 157.73 232.77
  Q 157.20 240.39 158.75 248.00
  Q 159.57 252.03 160.94 248.44
  Q 163.98 240.47 166.02 232.22
  Q 168.23 223.29 169.68 216.34
  Q 171.34 208.43 171.97 200.16
  Q 172.13 198.04 170.06 198.54
  Q 168.43 198.93 166.96 201.45"
/>
<path stroke="#b65887" vector-effect="non-scaling-stroke" d="
  M 228.21 222.40
  Q 224.10 229.75 222.45 238.25
  Q 221.82 241.50 224.46 239.51
  Q 227.72 237.05 229.01 232.62
  Q 230.52 227.39 229.85 222.70
  Q 229.48 220.12 228.21 222.40"
/>
<path stroke="#b65887" vector-effect="non-scaling-stroke" d="
  M 114.71 276.32
  Q 116.81 277.81 119.25 276.76
  Q 122.94 275.17 125.56 272.33
  Q 127.70 269.99 129.91 266.17
  Q 131.72 263.04 133.06 259.06
  Q 137.61 245.52 135.10 232.24
  Q 135.00 231.75 134.62 232.08
  Q 129.89 236.30 125.78 241.09
  Q 120.27 247.49 117.88 251.49
  Q 112.16 261.02 112.75 272.77
  Q 112.86 275.02 114.71 276.32"
/>
<path stroke="#b65887" vector-effect="non-scaling-stroke" d="
  M 204.79 235.21
  Q 201.14 242.01 197.51 249.16
  Q 196.99 250.18 197.87 250.02
  Q 198.16 249.97 198.44 249.71
  Q 204.61 244.01 205.57 235.46
  Q 205.81 233.30 204.79 235.21"
/>
<path stroke="#824060" stroke-opacity="0.784" vector-effect="non-scaling-stroke" d="
  M 164.71 217.06
  Q 164.87 219.34 165.39 216.48
  Q 165.65 215.10 164.88 216.37
  A 1.14 1.08 60.4 0 0 164.71 217.06"
/>
<path stroke="#824060" stroke-opacity="0.784" vector-effect="non-scaling-stroke" d="
  M 163.71 220.25
  L 162.79 225.50"
/>
<path stroke="#824060" stroke-opacity="0.784" vector-effect="non-scaling-stroke" d="
  M 163.21 225.50
  L 164.46 221.25"
/>
</g>
<path fill="#9c4b73" d="
  M 145.72 259.03
  Q 144.63 270.92 138.58 281.45
  Q 134.21 289.06 129.82 293.13
  Q 124.01 298.52 116.25 299.75
  Q 111.62 300.48 107.37 298.19
  Q 103.77 296.25 101.53 291.99
  Q 98.46 286.16 97.81 278.94
  Q 96.67 266.18 100.72 254.93
  Q 103.52 247.13 109.85 239.02
  Q 115.42 231.88 122.59 225.62
  A 1.45 1.44 -42.3 0 0 122.69 223.54
  Q 117.73 218.26 112.47 212.27
  Q 104.72 203.42 99.13 193.09
  Q 93.22 182.20 91.73 170.11
  Q 90.95 163.69 92.34 156.46
  Q 96.53 134.70 109.19 116.94
  Q 128.23 90.23 155.81 76.31
  Q 161.86 73.26 171.26 71.36
  Q 171.40 71.34 174.28 70.52
  Q 176.56 69.88 178.89 70.43
  Q 181.06 70.93 181.14 70.95
  Q 206.36 75.54 211.69 100.56
  Q 213.91 111.00 212.34 122.71
  Q 209.90 140.87 199.31 158.06
  Q 189.88 173.39 173.56 180.03
  Q 172.50 180.47 173.55 180.93
  Q 175.67 181.88 177.01 183.73
  Q 180.74 188.85 180.75 195.86
  A 2.28 2.26 17.4 0 0 181.74 197.73
  Q 184.02 199.30 185.90 202.82
  Q 186.45 203.85 186.79 202.73
  Q 190.89 189.38 193.23 177.20
  Q 194.15 172.41 197.95 170.79
  Q 201.38 169.33 205.14 169.94
  Q 209.63 170.67 211.44 175.81
  Q 212.52 178.90 211.08 184.77
  Q 209.78 190.06 209.45 195.50
  Q 209.42 196.08 209.76 195.98
  A 0.85 0.49 -78.6 0 0 210.19 195.49
  Q 215.18 182.76 217.35 169.27
  Q 218.42 162.60 224.75 161.50
  Q 226.94 161.12 229.59 161.55
  Q 232.15 161.96 233.66 163.73
  Q 237.10 167.75 235.69 173.48
  Q 232.51 186.39 235.73 199.17
  A 0.46 0.46 -22.7 0 0 236.42 199.45
  Q 241.23 196.45 246.63 195.47
  Q 251.86 194.53 257.24 196.29
  Q 270.27 200.54 275.77 214.10
  Q 280.49 225.72 278.95 238.24
  Q 277.88 246.92 273.85 251.93
  Q 272.13 254.07 269.92 255.68
  Q 266.73 258.02 264.51 256.82
  Q 262.83 255.92 261.96 252.97
  Q 260.39 247.65 263.81 243.31
  Q 265.52 241.15 266.51 239.40
  Q 267.61 237.44 267.59 234.89
  Q 267.48 223.55 256.94 219.06
  Q 249.79 216.02 241.91 218.53
  A 0.73 0.69 -9.0 0 0 241.41 219.18
  Q 241.37 220.44 241.50 224.00
  Q 242.24 244.50 225.13 254.38
  Q 221.96 256.20 219.94 255.77
  Q 217.46 255.23 215.00 252.48
  A 1.11 1.11 -51.8 0 0 213.20 252.70
  Q 208.97 260.59 199.42 264.30
  Q 188.95 268.38 186.26 256.71
  Q 185.77 254.58 185.12 256.67
  Q 184.08 260.07 182.10 263.32
  Q 179.76 267.18 177.27 268.62
  Q 172.38 271.46 168.65 264.64
  A 0.77 0.77 -41.8 0 0 167.35 264.57
  Q 166.53 265.74 165.93 267.22
  Q 164.08 271.88 159.78 272.94
  Q 156.75 273.69 153.98 272.00
  Q 151.22 270.30 149.82 267.28
  Q 149.78 267.18 148.25 263.12
  Q 147.46 261.05 146.81 258.92
  Q 145.98 256.22 145.72 259.03
  Z
  M 178.14 244.16
  Q 177.74 240.63 178.45 236.28
  Q 179.34 230.82 179.36 230.69
  Q 180.69 220.56 181.75 215.75
  Q 183.22 209.05 182.75 207.00
  Q 181.90 203.34 177.20 203.87
  A 0.55 0.54 0.8 0 1 176.60 203.26
  Q 177.32 197.98 176.28 192.45
  Q 175.72 189.49 173.69 187.67
  Q 171.53 185.74 169.07 187.30
  Q 160.20 192.99 156.00 202.54
  Q 155.42 203.87 154.36 204.81
  L 138.03 219.30
  A 0.63 0.62 52.6 0 1 137.09 219.17
  Q 134.12 214.56 130.61 210.13
  Q 123.51 201.18 117.01 191.81
  Q 105.50 175.24 110.86 155.53
  Q 114.07 143.70 121.32 133.82
  Q 129.94 122.07 141.03 112.77
  Q 148.22 106.74 153.59 103.41
  Q 160.29 99.26 167.89 96.80
  Q 178.43 93.40 187.50 96.50
  Q 198.31 100.19 199.14 112.51
  Q 199.57 118.90 197.56 126.06
  Q 191.95 146.10 176.33 158.29
  Q 171.79 161.83 167.17 163.94
  Q 161.83 166.38 156.75 167.00
  Q 145.27 168.41 138.97 158.29
  Q 137.73 156.31 137.17 157.85
  Q 136.98 158.40 137.10 159.15
  Q 138.53 168.00 144.96 172.79
  Q 149.99 176.54 157.43 176.72
  Q 164.11 176.88 170.75 174.50
  Q 178.60 171.69 184.85 166.82
  Q 190.50 162.41 195.48 155.11
  Q 206.41 139.10 208.42 119.24
  Q 209.46 108.90 207.75 101.50
  Q 204.14 85.91 190.88 80.32
  Q 182.17 76.65 171.27 78.28
  Q 159.68 80.00 148.94 86.94
  Q 125.87 101.83 111.32 122.55
  Q 104.87 131.75 100.88 142.10
  Q 97.25 151.52 96.18 158.47
  Q 94.80 167.38 97.00 175.75
  Q 99.44 185.04 104.91 193.90
  Q 108.06 199.00 116.99 209.37
  Q 123.62 217.05 130.16 224.78
  A 0.94 0.94 49.0 0 1 130.07 226.09
  Q 125.02 230.64 120.46 234.96
  Q 113.04 241.99 107.84 250.78
  Q 97.62 268.05 104.27 287.12
  Q 105.42 290.42 107.44 291.56
  Q 111.53 293.89 116.25 293.27
  Q 120.02 292.77 124.25 290.10
  Q 132.18 285.10 136.26 276.22
  Q 146.76 253.43 141.07 227.96
  A 1.82 1.71 64.1 0 1 141.61 226.24
  L 149.95 218.93
  Q 150.68 218.28 150.50 219.26
  Q 147.28 236.19 149.75 253.25
  Q 150.44 258.01 152.99 263.05
  Q 154.12 265.27 155.37 266.21
  Q 157.44 267.76 159.62 266.73
  Q 161.41 265.87 162.96 262.94
  Q 165.24 258.62 166.49 253.86
  Q 167.92 248.41 169.50 243.00
  Q 169.59 242.68 169.79 242.58
  Q 170.21 242.36 170.13 242.97
  Q 169.20 250.26 170.44 257.51
  Q 171.01 260.81 172.88 262.37
  Q 175.38 264.45 177.30 261.83
  Q 181.00 256.78 183.01 250.88
  Q 191.00 227.38 197.07 203.30
  Q 197.85 200.18 198.15 203.38
  Q 199.04 212.82 203.05 224.37
  A 2.34 2.32 -42.3 0 1 202.96 226.12
  Q 197.61 237.37 192.06 247.81
  Q 189.45 252.72 190.67 257.21
  A 1.42 1.36 -81.7 0 0 191.22 257.98
  Q 194.33 260.05 198.07 258.57
  Q 210.54 253.65 212.86 240.32
  Q 214.36 231.71 211.76 224.01
  Q 210.94 221.59 212.00 219.26
  Q 217.42 207.34 221.01 194.70
  Q 221.83 191.82 222.25 194.78
  Q 223.35 202.43 225.50 209.86
  Q 225.51 209.91 226.31 211.94
  Q 227.34 214.57 225.56 217.06
  Q 220.16 224.65 217.70 233.91
  Q 217.01 236.52 216.78 239.28
  Q 216.51 242.62 216.75 244.75
  Q 217.23 249.04 220.42 249.40
  Q 222.45 249.63 225.13 247.90
  Q 232.85 242.90 236.14 234.00
  Q 238.22 228.36 237.50 223.00
  Q 236.76 217.48 236.54 215.00
  A 0.78 0.77 73.4 0 1 236.93 214.26
  Q 242.89 210.98 249.75 211.27
  Q 264.01 211.86 269.65 224.68
  Q 275.55 238.08 266.12 248.87
  Q 265.28 249.83 265.74 250.82
  A 0.60 0.56 -21.4 0 0 266.47 251.11
  Q 268.63 250.37 270.31 248.06
  Q 273.41 243.82 274.27 239.90
  Q 277.61 224.69 269.12 211.90
  Q 263.51 203.47 254.18 201.87
  Q 249.29 201.03 243.94 202.67
  Q 238.92 204.22 234.47 207.17
  A 0.43 0.43 -26.1 0 1 233.82 206.95
  Q 227.87 190.15 231.70 172.80
  Q 232.10 171.00 231.99 170.17
  Q 231.76 168.39 230.25 167.88
  Q 229.22 167.54 226.87 167.48
  Q 224.41 167.42 222.65 168.90
  Q 221.35 170.00 220.90 172.60
  Q 218.67 185.21 214.23 197.24
  Q 211.75 203.96 209.49 210.77
  Q 208.80 212.86 208.09 210.77
  Q 203.92 198.59 206.83 185.32
  Q 207.54 182.10 207.67 179.21
  Q 207.77 176.96 205.58 176.44
  Q 200.75 175.29 197.41 178.46
  A 1.71 1.41 77.9 0 0 196.97 179.31
  Q 195.38 187.92 193.02 196.34
  Q 190.15 206.61 190.12 206.71
  Q 185.07 225.59 179.25 244.26
  Q 178.44 246.84 178.14 244.16
  Z
  M 153.83 182.77
  Q 146.32 182.05 141.07 176.69
  Q 135.02 170.50 133.09 162.04
  Q 131.95 157.06 134.25 153.25
  Q 136.82 148.99 139.79 151.32
  Q 140.14 151.59 142.74 155.07
  Q 145.95 159.39 151.03 160.44
  Q 154.87 161.24 160.35 159.67
  Q 172.38 156.24 181.08 146.83
  Q 189.90 137.29 193.54 124.81
  Q 195.94 116.59 194.75 111.00
  Q 193.86 106.80 191.19 105.06
  Q 181.46 98.73 169.36 102.70
  Q 160.61 105.58 152.96 110.72
  Q 135.19 122.67 122.95 140.02
  Q 119.78 144.52 117.76 148.97
  Q 115.49 153.99 114.25 158.75
  Q 111.74 168.38 114.55 177.30
  Q 116.28 182.79 123.59 192.72
  Q 130.43 202.00 137.78 211.24
  A 0.66 0.65 50.0 0 0 138.72 211.33
  Q 144.77 206.16 150.35 201.10
  Q 152.28 199.35 153.77 196.69
  Q 156.90 191.16 161.09 186.34
  Q 162.52 184.70 164.50 183.65
  Q 166.82 182.42 164.21 182.68
  Q 158.67 183.22 153.83 182.77
  Z
  M 220.31 210.81
  Q 217.69 216.90 215.97 222.32
  Q 215.44 223.98 216.30 223.71
  A 1.31 0.87 -78.4 0 0 216.96 223.05
  Q 218.64 219.43 220.50 215.90
  Q 220.54 215.82 221.17 214.78
  Q 222.39 212.76 221.48 210.80
  Q 220.88 209.50 220.31 210.81
  Z
  M 196.84 221.29
  Q 194.36 227.72 192.95 234.09
  Q 192.76 234.93 192.28 235.80
  Q 191.83 236.61 191.47 237.45
  Q 191.18 238.16 191.78 238.06
  A 0.98 0.73 -76.9 0 0 192.38 237.55
  Q 194.87 232.47 197.48 227.46
  Q 199.05 224.47 197.48 221.26
  Q 197.13 220.55 196.84 221.29
  Z"
/>
<path fill="#cf649a" d="
  M 178.14 244.16
  Q 178.44 246.84 179.25 244.26
  Q 185.07 225.59 190.12 206.71
  Q 190.15 206.61 193.02 196.34
  Q 195.38 187.92 196.97 179.31
  A 1.71 1.41 77.9 0 1 197.41 178.46
  Q 200.75 175.29 205.58 176.44
  Q 207.77 176.96 207.67 179.21
  Q 207.54 182.10 206.83 185.32
  Q 203.92 198.59 208.09 210.77
  Q 208.80 212.86 209.49 210.77
  Q 211.75 203.96 214.23 197.24
  Q 218.67 185.21 220.90 172.60
  Q 221.35 170.00 222.65 168.90
  Q 224.41 167.42 226.87 167.48
  Q 229.22 167.54 230.25 167.88
  Q 231.76 168.39 231.99 170.17
  Q 232.10 171.00 231.70 172.80
  Q 227.87 190.15 233.82 206.95
  A 0.43 0.43 -26.1 0 0 234.47 207.17
  Q 238.92 204.22 243.94 202.67
  Q 249.29 201.03 254.18 201.87
  Q 263.51 203.47 269.12 211.90
  Q 277.61 224.69 274.27 239.90
  Q 273.41 243.82 270.31 248.06
  Q 268.63 250.37 266.47 251.11
  A 0.60 0.56 -21.4 0 1 265.74 250.82
  Q 265.28 249.83 266.12 248.87
  Q 275.55 238.08 269.65 224.68
  Q 264.01 211.86 249.75 211.27
  Q 242.89 210.98 236.93 214.26
  A 0.78 0.77 73.4 0 0 236.54 215.00
  Q 236.76 217.48 237.50 223.00
  Q 238.22 228.36 236.14 234.00
  Q 232.85 242.90 225.13 247.90
  Q 222.45 249.63 220.42 249.40
  Q 217.23 249.04 216.75 244.75
  Q 216.51 242.62 216.78 239.28
  Q 217.01 236.52 217.70 233.91
  Q 220.16 224.65 225.56 217.06
  Q 227.34 214.57 226.31 211.94
  Q 225.51 209.91 225.50 209.86
  Q 223.35 202.43 222.25 194.78
  Q 221.83 191.82 221.01 194.70
  Q 217.42 207.34 212.00 219.26
  Q 210.94 221.59 211.76 224.01
  Q 214.36 231.71 212.86 240.32
  Q 210.54 253.65 198.07 258.57
  Q 194.33 260.05 191.22 257.98
  A 1.42 1.36 -81.7 0 1 190.67 257.21
  Q 189.45 252.72 192.06 247.81
  Q 197.61 237.37 202.96 226.12
  A 2.34 2.32 -42.3 0 0 203.05 224.37
  Q 199.04 212.82 198.15 203.38
  Q 197.85 200.18 197.07 203.30
  Q 191.00 227.38 183.01 250.88
  Q 181.00 256.78 177.30 261.83
  Q 175.38 264.45 172.88 262.37
  Q 171.01 260.81 170.44 257.51
  Q 169.20 250.26 170.13 242.97
  Q 170.21 242.36 169.79 242.58
  Q 169.59 242.68 169.50 243.00
  Q 167.92 248.41 166.49 253.86
  Q 165.24 258.62 162.96 262.94
  Q 161.41 265.87 159.62 266.73
  Q 157.44 267.76 155.37 266.21
  Q 154.12 265.27 152.99 263.05
  Q 150.44 258.01 149.75 253.25
  Q 147.28 236.19 150.50 219.26
  Q 150.68 218.28 149.95 218.93
  L 141.61 226.24
  A 1.82 1.71 64.1 0 0 141.07 227.96
  Q 146.76 253.43 136.26 276.22
  Q 132.18 285.10 124.25 290.10
  Q 120.02 292.77 116.25 293.27
  Q 111.53 293.89 107.44 291.56
  Q 105.42 290.42 104.27 287.12
  Q 97.62 268.05 107.84 250.78
  Q 113.04 241.99 120.46 234.96
  Q 125.02 230.64 130.07 226.09
  A 0.94 0.94 49.0 0 0 130.16 224.78
  Q 123.62 217.05 116.99 209.37
  Q 108.06 199.00 104.91 193.90
  Q 99.44 185.04 97.00 175.75
  Q 94.80 167.38 96.18 158.47
  Q 97.25 151.52 100.88 142.10
  Q 104.87 131.75 111.32 122.55
  Q 125.87 101.83 148.94 86.94
  Q 159.68 80.00 171.27 78.28
  Q 182.17 76.65 190.88 80.32
  Q 204.14 85.91 207.75 101.50
  Q 209.46 108.90 208.42 119.24
  Q 206.41 139.10 195.48 155.11
  Q 190.50 162.41 184.85 166.82
  Q 178.60 171.69 170.75 174.50
  Q 164.11 176.88 157.43 176.72
  Q 149.99 176.54 144.96 172.79
  Q 138.53 168.00 137.10 159.15
  Q 136.98 158.40 137.17 157.85
  Q 137.73 156.31 138.97 158.29
  Q 145.27 168.41 156.75 167.00
  Q 161.83 166.38 167.17 163.94
  Q 171.79 161.83 176.33 158.29
  Q 191.95 146.10 197.56 126.06
  Q 199.57 118.90 199.14 112.51
  Q 198.31 100.19 187.50 96.50
  Q 178.43 93.40 167.89 96.80
  Q 160.29 99.26 153.59 103.41
  Q 148.22 106.74 141.03 112.77
  Q 129.94 122.07 121.32 133.82
  Q 114.07 143.70 110.86 155.53
  Q 105.50 175.24 117.01 191.81
  Q 123.51 201.18 130.61 210.13
  Q 134.12 214.56 137.09 219.17
  A 0.63 0.62 52.6 0 0 138.03 219.30
  L 154.36 204.81
  Q 155.42 203.87 156.00 202.54
  Q 160.20 192.99 169.07 187.30
  Q 171.53 185.74 173.69 187.67
  Q 175.72 189.49 176.28 192.45
  Q 177.32 197.98 176.60 203.26
  A 0.55 0.54 0.8 0 0 177.20 203.87
  Q 181.90 203.34 182.75 207.00
  Q 183.22 209.05 181.75 215.75
  Q 180.69 220.56 179.36 230.69
  Q 179.34 230.82 178.45 236.28
  Q 177.74 240.63 178.14 244.16
  Z
  M 166.96 201.45
  Q 162.44 209.23 160.22 217.82
  Q 158.23 225.52 157.73 232.77
  Q 157.20 240.39 158.75 248.00
  Q 159.57 252.03 160.94 248.44
  Q 163.98 240.47 166.02 232.22
  Q 168.23 223.29 169.68 216.34
  Q 171.34 208.43 171.97 200.16
  Q 172.13 198.04 170.06 198.54
  Q 168.43 198.93 166.96 201.45
  Z
  M 228.21 222.40
  Q 224.10 229.75 222.45 238.25
  Q 221.82 241.50 224.46 239.51
  Q 227.72 237.05 229.01 232.62
  Q 230.52 227.39 229.85 222.70
  Q 229.48 220.12 228.21 222.40
  Z
  M 114.71 276.32
  Q 116.81 277.81 119.25 276.76
  Q 122.94 275.17 125.56 272.33
  Q 127.70 269.99 129.91 266.17
  Q 131.72 263.04 133.06 259.06
  Q 137.61 245.52 135.10 232.24
  Q 135.00 231.75 134.62 232.08
  Q 129.89 236.30 125.78 241.09
  Q 120.27 247.49 117.88 251.49
  Q 112.16 261.02 112.75 272.77
  Q 112.86 275.02 114.71 276.32
  Z
  M 204.79 235.21
  Q 201.14 242.01 197.51 249.16
  Q 196.99 250.18 197.87 250.02
  Q 198.16 249.97 198.44 249.71
  Q 204.61 244.01 205.57 235.46
  Q 205.81 233.30 204.79 235.21
  Z"
/>
<path fill="#9c4b73" d="
  M 166.96 201.45
  Q 168.43 198.93 170.06 198.54
  Q 172.13 198.04 171.97 200.16
  Q 171.34 208.43 169.68 216.34
  Q 168.23 223.29 166.02 232.22
  Q 163.98 240.47 160.94 248.44
  Q 159.57 252.03 158.75 248.00
  Q 157.20 240.39 157.73 232.77
  Q 158.23 225.52 160.22 217.82
  Q 162.44 209.23 166.96 201.45
  Z
  M 164.71 217.06
  Q 164.87 219.34 165.39 216.48
  Q 165.65 215.10 164.88 216.37
  A 1.14 1.08 60.4 0 0 164.71 217.06
  Z
  M 163.71 220.25
  L 162.79 225.50
  Q 162.25 226.16 162.25 227.16
  Q 162.25 227.80 162.73 227.37
  Q 163.75 226.46 163.21 225.50
  L 164.46 221.25
  Q 165.30 217.34 163.71 220.25
  Z"
/>
<path fill="#542d3f" fill-opacity="0.569" d="
  M 164.88 216.37
  Q 165.65 215.10 165.39 216.48
  Q 164.87 219.34 164.71 217.06
  A 1.14 1.08 60.4 0 1 164.88 216.37
  Z"
/>
<path fill="#542d3f" fill-opacity="0.569" d="
  M 163.71 220.25
  Q 163.45 221.32 164.46 221.25
  L 163.21 225.50
  L 162.79 225.50
  L 163.71 220.25
  Z"
/>
<path fill="#9c4b73" d="
  M 228.21 222.40
  Q 229.48 220.12 229.85 222.70
  Q 230.52 227.39 229.01 232.62
  Q 227.72 237.05 224.46 239.51
  Q 221.82 241.50 222.45 238.25
  Q 224.10 229.75 228.21 222.40
  Z"
/>
<path fill="#9c4b73" d="
  M 114.71 276.32
  Q 112.86 275.02 112.75 272.77
  Q 112.16 261.02 117.88 251.49
  Q 120.27 247.49 125.78 241.09
  Q 129.89 236.30 134.62 232.08
  Q 135.00 231.75 135.10 232.24
  Q 137.61 245.52 133.06 259.06
  Q 131.72 263.04 129.91 266.17
  Q 127.70 269.99 125.56 272.33
  Q 122.94 275.17 119.25 276.76
  Q 116.81 277.81 114.71 276.32
  Z
  M 120.39 256.41
  Q 116.25 263.10 116.73 270.75
  A 0.66 0.66 -18.0 0 0 117.74 271.26
  Q 119.27 270.29 120.76 269.28
  Q 122.34 268.21 123.45 266.90
  Q 132.02 256.81 131.75 243.29
  Q 131.73 242.27 131.01 242.99
  Q 124.92 249.09 120.39 256.41
  Z"
/>
<path fill="#9c4b73" d="
  M 204.79 235.21
  Q 205.81 233.30 205.57 235.46
  Q 204.61 244.01 198.44 249.71
  Q 198.16 249.97 197.87 250.02
  Q 196.99 250.18 197.51 249.16
  Q 201.14 242.01 204.79 235.21
  Z"
/>
</svg>
