<?xml version="1.0" encoding="UTF-8" standalone="no"?>
<!DOCTYPE svg PUBLIC "-//W3C//DTD SVG 1.1//EN" "http://www.w3.org/Graphics/SVG/1.1/DTD/svg11.dtd">
<svg xmlns="http://www.w3.org/2000/svg" version="1.1" viewBox="0 0 370 370">
<g stroke-width="2.00" fill="none" stroke-linecap="butt">
<path stroke="#80bde6" vector-effect="non-scaling-stroke" d="
  M 251.56 240.44
  Q 237.57 238.77 230.43 226.25
  A 0.50 0.49 60.4 0 0 229.75 226.05
  L 210.74 236.96
  A 0.52 0.51 60.7 0 0 210.55 237.67
  Q 220.74 255.54 239.53 260.10
  Q 248.68 262.32 258.08 261.85
  Q 267.81 261.36 276.44 257.19
  Q 294.21 248.58 294.50 228.00
  Q 294.70 213.90 285.70 204.44
  Q 281.37 199.88 271.30 194.40
  Q 263.55 190.18 255.38 186.77
  Q 251.28 185.06 247.47 182.76
  Q 241.05 178.88 241.85 171.26
  Q 242.27 167.37 244.82 165.06
  Q 246.94 163.16 250.75 162.65
  Q 261.19 161.25 267.81 171.25
  A 1.52 1.47 56.5 0 0 269.88 171.71
  L 286.58 160.59
  A 0.67 0.64 57.6 0 0 286.76 159.71
  Q 278.02 144.74 261.76 141.94
  Q 253.90 140.59 246.23 141.75
  Q 238.25 142.96 231.89 146.97
  Q 215.81 157.10 218.15 178.73
  Q 219.27 189.18 226.50 196.75
  Q 231.75 202.25 238.51 205.74
  Q 246.44 209.85 254.68 213.33
  Q 260.14 215.64 265.05 218.96
  Q 269.32 221.86 270.01 226.46
  Q 270.59 230.39 268.66 233.79
  Q 266.69 237.26 262.54 238.86
  Q 256.80 241.06 251.56 240.44"
/>
<path stroke="#80bde6" vector-effect="non-scaling-stroke" d="
  M 193.56 142.73
  Q 153.28 142.18 112.99 142.74
  A 0.57 0.55 -87.6 0 0 112.45 143.25
  Q 111.56 153.27 112.16 163.32
  A 0.53 0.52 -1.7 0 0 112.69 163.81
  L 144.97 163.75
  A 0.78 0.78 0.0 0 1 145.75 164.53
  L 145.75 259.84
  A 0.66 0.66 -89.9 0 0 146.41 260.50
  L 169.09 260.50
  A 0.66 0.66 89.9 0 0 169.75 259.84
  L 169.75 164.50
  A 0.69 0.68 -90.0 0 1 170.43 163.81
  L 203.01 163.75
  A 0.68 0.67 90.0 0 0 203.68 163.07
  L 203.51 143.42
  A 0.67 0.66 89.6 0 0 202.84 142.75
  Q 198.03 142.80 193.56 142.73"
/>
</g>
<path fill="#007acc" d="
  M 315.00 282.73
  A 0.27 0.27 0.0 0 1 314.73 283.00
  L 55.27 283.00
  A 0.27 0.27 0.0 0 1 55.00 282.73
  L 55.00 86.27
  A 0.27 0.27 0.0 0 1 55.27 86.00
  L 314.73 86.00
  A 0.27 0.27 0.0 0 1 315.00 86.27
  L 315.00 282.73
  Z
  M 251.56 240.44
  Q 237.57 238.77 230.43 226.25
  A 0.50 0.49 60.4 0 0 229.75 226.05
  L 210.74 236.96
  A 0.52 0.51 60.7 0 0 210.55 237.67
  Q 220.74 255.54 239.53 260.10
  Q 248.68 262.32 258.08 261.85
  Q 267.81 261.36 276.44 257.19
  Q 294.21 248.58 294.50 228.00
  Q 294.70 213.90 285.70 204.44
  Q 281.37 199.88 271.30 194.40
  Q 263.55 190.18 255.38 186.77
  Q 251.28 185.06 247.47 182.76
  Q 241.05 178.88 241.85 171.26
  Q 242.27 167.37 244.82 165.06
  Q 246.94 163.16 250.75 162.65
  Q 261.19 161.25 267.81 171.25
  A 1.52 1.47 56.5 0 0 269.88 171.71
  L 286.58 160.59
  A 0.67 0.64 57.6 0 0 286.76 159.71
  Q 278.02 144.74 261.76 141.94
  Q 253.90 140.59 246.23 141.75
  Q 238.25 142.96 231.89 146.97
  Q 215.81 157.10 218.15 178.73
  Q 219.27 189.18 226.50 196.75
  Q 231.75 202.25 238.51 205.74
  Q 246.44 209.85 254.68 213.33
  Q 260.14 215.64 265.05 218.96
  Q 269.32 221.86 270.01 226.46
  Q 270.59 230.39 268.66 233.79
  Q 266.69 237.26 262.54 238.86
  Q 256.80 241.06 251.56 240.44
  Z
  M 193.56 142.73
  Q 153.28 142.18 112.99 142.74
  A 0.57 0.55 -87.6 0 0 112.45 143.25
  Q 111.56 153.27 112.16 163.32
  A 0.53 0.52 -1.7 0 0 112.69 163.81
  L 144.97 163.75
  A 0.78 0.78 0.0 0 1 145.75 164.53
  L 145.75 259.84
  A 0.66 0.66 -89.9 0 0 146.41 260.50
  L 169.09 260.50
  A 0.66 0.66 89.9 0 0 169.75 259.84
  L 169.75 164.50
  A 0.69 0.68 -90.0 0 1 170.43 163.81
  L 203.01 163.75
  A 0.68 0.67 90.0 0 0 203.68 163.07
  L 203.51 143.42
  A 0.67 0.66 89.6 0 0 202.84 142.75
  Q 198.03 142.80 193.56 142.73
  Z"
/>
<path fill="#ffffff" d="
  M 251.56 240.44
  Q 256.80 241.06 262.54 238.86
  Q 266.69 237.26 268.66 233.79
  Q 270.59 230.39 270.01 226.46
  Q 269.32 221.86 265.05 218.96
  Q 260.14 215.64 254.68 213.33
  Q 246.44 209.85 238.51 205.74
  Q 231.75 202.25 226.50 196.75
  Q 219.27 189.18 218.15 178.73
  Q 215.81 157.10 231.89 146.97
  Q 238.25 142.96 246.23 141.75
  Q 253.90 140.59 261.76 141.94
  Q 278.02 144.74 286.76 159.71
  A 0.67 0.64 57.6 0 1 286.58 160.59
  L 269.88 171.71
  A 1.52 1.47 56.5 0 1 267.81 171.25
  Q 261.19 161.25 250.75 162.65
  Q 246.94 163.16 244.82 165.06
  Q 242.27 167.37 241.85 171.26
  Q 241.05 178.88 247.47 182.76
  Q 251.28 185.06 255.38 186.77
  Q 263.55 190.18 271.30 194.40
  Q 281.37 199.88 285.70 204.44
  Q 294.70 213.90 294.50 228.00
  Q 294.21 248.58 276.44 257.19
  Q 267.81 261.36 258.08 261.85
  Q 248.68 262.32 239.53 260.10
  Q 220.74 255.54 210.55 237.67
  A 0.52 0.51 60.7 0 1 210.74 236.96
  L 229.75 226.05
  A 0.50 0.49 60.4 0 1 230.43 226.25
  Q 237.57 238.77 251.56 240.44
  Z"
/>
<path fill="#ffffff" d="
  M 193.56 142.73
  Q 198.03 142.80 202.84 142.75
  A 0.67 0.66 89.6 0 1 203.51 143.42
  L 203.68 163.07
  A 0.68 0.67 -90.0 0 1 203.01 163.75
  L 170.43 163.81
  A 0.69 0.68 -90.0 0 0 169.75 164.50
  L 169.75 259.84
  A 0.66 0.66 -89.8 0 1 169.09 260.50
  L 146.41 260.50
  A 0.66 0.66 89.8 0 1 145.75 259.84
  L 145.75 164.53
  A 0.78 0.78 0.0 0 0 144.97 163.75
  L 112.69 163.81
  A 0.53 0.52 -1.7 0 1 112.16 163.32
  Q 111.56 153.27 112.45 143.25
  A 0.57 0.55 -87.6 0 1 112.99 142.74
  Q 153.28 142.18 193.56 142.73
  Z"
/>
</svg>
