<?xml version="1.0" encoding="UTF-8" standalone="no"?>
<!DOCTYPE svg PUBLIC "-//W3C//DTD SVG 1.1//EN" "http://www.w3.org/Graphics/SVG/1.1/DTD/svg11.dtd">
<svg xmlns="http://www.w3.org/2000/svg" version="1.1" viewBox="0 0 370 370">
<g stroke-width="2.00" fill="none" stroke-linecap="butt">
<path stroke="#f96040" vector-effect="non-scaling-stroke" d="
  M 185.25 77.29
  Q 185.24 110.77 185.25 144.25
  Q 185.25 147.73 184.96 149.25"
/>
<path stroke="#cb538e" vector-effect="non-scaling-stroke" d="
  M 184.96 149.25
  L 143.58 149.28"
/>
<path stroke="#5e8aff" vector-effect="non-scaling-stroke" d="
  M 185.46 179.25
  Q 184.94 185.66 185.56 191.96"
/>
<path stroke="#5694c1" vector-effect="non-scaling-stroke" d="
  M 185.21 221.00
  L 143.31 221.25"
/>
<path stroke="#8c97b1" vector-effect="non-scaling-stroke" d="
  M 227.40 149.34
  Q 219.59 148.96 211.88 150.18"
/>
<path stroke="#d165b1" vector-effect="non-scaling-stroke" d="
  M 185.50 149.54
  Q 185.08 149.57 184.96 149.25"
/>
</g>
<path fill="#738c61" fill-opacity="0.388" d="
  M 314.00 55.46
  Q 263.16 55.85 212.32 55.62
  Q 201.96 55.57 192.32 55.60
  Q 137.97 55.79 83.61 55.58
  Q 83.51 55.58 73.01 55.78
  Q 66.13 55.90 59.25 55.25
  L 314.03 55.19
  A 0.08 0.06 -74.1 0 1 314.07 55.30
  L 314.00 55.46
  Z"
/>
<path fill="#92a785" fill-opacity="0.976" d="
  M 59.25 55.25
  Q 66.13 55.90 73.01 55.78
  Q 83.51 55.58 83.61 55.58
  Q 137.97 55.79 192.32 55.60
  Q 201.96 55.57 212.32 55.62
  Q 263.16 55.85 314.00 55.46
  Q 315.12 55.70 314.42 56.08
  Q 314.22 56.19 313.94 56.19
  Q 185.38 56.25 56.82 56.31
  A 0.51 0.51 0.0 0 0 56.31 56.82
  Q 56.20 185.27 56.25 313.73
  Q 56.25 314.02 56.15 314.26
  Q 55.63 315.47 55.63 313.50
  Q 55.50 184.63 55.50 55.75
  A 0.42 0.39 6.0 0 1 56.00 55.37
  Q 57.62 55.68 59.25 55.25
  Z"
/>
<path fill="#f34d1d" d="
  M 185.25 77.29
  Q 185.24 110.77 185.25 144.25
  Q 185.25 147.73 184.96 149.25
  L 143.58 149.28
  Q 124.74 145.06 117.00 129.40
  Q 113.13 121.57 113.07 113.10
  Q 113.01 104.02 117.31 96.31
  Q 126.45 79.94 144.03 77.54
  Q 146.21 77.24 164.01 77.24
  Q 174.63 77.24 185.25 77.29
  Z"
/>
<path fill="#ff7262" d="
  M 185.25 77.29
  Q 201.87 77.22 218.50 77.10
  Q 240.59 76.95 251.19 93.15
  Q 256.87 101.84 257.40 111.89
  Q 258.06 124.51 250.19 134.94
  Q 242.04 145.72 227.40 149.34
  Q 219.59 148.96 211.88 150.18
  Q 198.55 148.98 185.50 149.54
  Q 185.08 149.57 184.96 149.25
  Q 185.25 147.73 185.25 144.25
  Q 185.24 110.77 185.25 77.29
  Z"
/>
<path fill="#a258ff" d="
  M 184.96 149.25
  Q 185.08 149.57 185.50 149.54
  L 185.46 179.25
  Q 184.94 185.66 185.56 191.96
  L 185.21 221.00
  L 143.31 221.25
  Q 134.41 218.56 131.06 216.44
  Q 115.23 206.41 113.43 189.24
  Q 112.36 179.06 116.80 169.83
  Q 124.46 153.90 143.58 149.28
  L 184.96 149.25
  Z"
/>
<path fill="#19bcff" d="
  M 227.40 149.34
  Q 245.60 153.70 253.46 168.83
  Q 256.81 175.28 257.23 182.66
  Q 257.51 187.56 256.72 192.43
  Q 255.94 197.23 253.67 201.61
  Q 244.68 219.02 224.75 221.50
  Q 213.38 222.92 202.44 216.06
  Q 189.00 207.63 185.56 191.96
  Q 184.94 185.66 185.46 179.25
  Q 190.44 157.17 211.88 150.18
  Q 219.59 148.96 227.40 149.34
  Z"
/>
<path fill="#09cf83" d="
  M 143.31 221.25
  L 185.21 221.00
  Q 185.33 253.30 185.25 259.00
  Q 185.20 262.28 184.50 265.68
  Q 183.83 268.92 182.40 272.04
  Q 175.29 287.43 158.42 292.38
  Q 148.21 295.38 138.20 291.89
  Q 125.42 287.42 118.85 276.89
  Q 113.46 268.25 113.10 257.96
  Q 112.72 246.69 119.31 237.06
  Q 127.72 224.79 143.31 221.25
  Z"
/>
</svg>
