<?xml version="1.0" encoding="UTF-8" standalone="no"?>
<!DOCTYPE svg PUBLIC "-//W3C//DTD SVG 1.1//EN" "http://www.w3.org/Graphics/SVG/1.1/DTD/svg11.dtd">
<svg xmlns="http://www.w3.org/2000/svg" version="1.1" viewBox="0 0 1185 1054" width="1185" height="1054">
<g stroke-width="2.00" fill="none" stroke-linecap="butt">
<path stroke="#313234" vector-effect="non-scaling-stroke" d="
  M 498.21 55.00
  Q 499.20 56.53 500.54 55.50"
/>
<path stroke="#45434a" vector-effect="non-scaling-stroke" d="
  M 508.10 59.09
  Q 509.63 61.51 512.50 62.29"
/>
<path stroke="#313234" vector-effect="non-scaling-stroke" d="
  M 512.50 62.29
  Q 513.85 63.94 515.79 63.25"
/>
<path stroke="#313234" vector-effect="non-scaling-stroke" d="
  M 522.73 66.89
  L 527.81 70.51
  A 1.71 1.24 15.1 0 1 528.40 71.24
  Q 528.82 72.35 529.75 73.00
  Q 531.49 74.20 531.56 74.26
  Q 536.04 78.43 540.92 82.14
  Q 541.27 82.41 541.50 82.91
  Q 541.96 83.95 542.83 84.64
  Q 544.74 86.17 544.83 86.26
  Q 548.38 90.03 551.89 93.85
  Q 579.02 123.31 588.17 161.76
  Q 590.60 171.97 591.24 181.50
  Q 592.69 203.29 586.64 224.51
  A 0.46 0.43 -77.8 0 0 586.98 225.08
  L 629.75 231.79"
/>
<path stroke="#0a182e" vector-effect="non-scaling-stroke" d="
  M 629.75 231.79
  Q 629.97 233.19 628.25 233.00
  Q 618.68 231.94 616.49 231.58
  Q 608.66 230.29 600.75 229.74
  Q 594.59 229.32 587.41 227.67
  A 1.79 1.78 -74.9 0 0 585.31 228.89
  Q 581.86 240.10 577.79 252.01
  Q 575.99 257.27 574.87 263.47
  A 0.68 0.68 11.3 0 0 575.40 264.26
  Q 578.41 264.93 581.54 265.80
  Q 583.98 266.48 587.68 267.20
  Q 591.27 267.89 596.25 269.25
  Q 607.81 272.41 623.50 274.75
  Q 626.96 275.27 632.23 277.38
  A 1.30 0.90 6.9 0 1 632.93 278.00
  Q 633.15 278.55 633.00 279.21"
/>
<path stroke="#5d5e60" vector-effect="non-scaling-stroke" d="
  M 633.00 279.21
  L 572.85 266.00
  A 1.93 1.72 -5.7 0 1 571.62 265.11
  L 567.47 257.46
  A 1.14 1.12 -49.8 0 1 567.40 256.52
  L 569.06 251.97
  A 0.66 0.57 -65.7 0 0 568.84 251.22
  Q 567.71 250.53 566.22 250.44"
/>
<path stroke="#1c1e1f" vector-effect="non-scaling-stroke" d="
  M 566.22 250.44
  L 568.98 249.06
  Q 571.04 248.03 571.96 244.97
  Q 573.30 240.48 568.69 240.81"
/>
<path stroke="#121415" vector-effect="non-scaling-stroke" d="
  M 568.69 240.81
  Q 569.48 239.12 570.84 239.47
  Q 572.82 239.99 572.90 239.98
  Q 574.50 239.81 573.83 237.85
  Q 573.71 237.49 573.05 236.67
  Q 572.27 235.70 573.25 235.05
  A 0.66 0.57 49.9 0 1 574.02 235.17
  Q 575.64 236.80 575.94 234.19
  Q 576.01 233.54 577.00 232.96"
/>
<path stroke="#335367" vector-effect="non-scaling-stroke" d="
  M 577.00 232.96
  Q 578.08 232.83 578.19 231.94
  Q 578.48 229.55 579.47 227.71
  Q 581.14 224.58 581.37 223.88
  Q 585.67 210.57 586.50 198.50
  Q 588.38 171.17 577.98 144.47
  Q 566.99 116.27 546.31 94.19
  Q 540.06 87.51 534.37 83.25
  Q 532.03 81.50 527.49 77.78
  Q 521.69 73.03 514.43 70.60
  Q 506.87 68.06 499.98 64.03
  Q 493.62 60.29 486.67 57.91
  Q 482.84 56.59 479.22 56.08
  Q 474.99 55.49 471.50 55.75
  Q 456.39 56.87 443.24 53.88"
/>
<path stroke="#615e63" vector-effect="non-scaling-stroke" d="
  M 513.29 61.75
  Q 513.21 62.45 512.50 62.29"
/>
<path stroke="#315062" vector-effect="non-scaling-stroke" d="
  M 577.00 232.96
  L 574.90 230.80
  A 0.70 0.67 -46.4 0 0 573.90 230.85
  Q 568.49 237.03 562.02 234.45
  Q 555.39 231.82 548.25 231.25
  Q 541.59 230.72 534.37 228.03
  Q 527.64 225.52 524.39 224.61
  Q 517.98 222.81 514.31 221.44
  Q 508.53 219.27 503.99 218.59
  Q 503.80 218.56 503.63 218.63
  Q 503.07 218.86 503.49 219.03
  Q 504.30 219.35 504.17 220.04
  A 0.64 0.54 7.3 0 1 503.50 220.47
  Q 500.99 220.27 498.85 218.85
  A 1.51 1.46 -29.3 0 0 497.94 218.61
  Q 495.61 218.74 494.25 217.50
  Q 493.42 216.74 492.69 217.00
  A 1.41 0.34 -23.9 0 1 491.77 217.17
  Q 490.21 216.85 489.00 215.74
  Q 488.07 214.88 487.50 215.57
  A 0.59 0.50 -55.7 0 1 486.82 215.76
  Q 482.45 213.41 477.48 214.80"
/>
<path stroke="#3a5a6c" vector-effect="non-scaling-stroke" d="
  M 477.48 214.80
  Q 466.19 217.55 454.75 219.31
  Q 453.37 219.52 452.27 219.14
  Q 450.99 218.69 449.99 218.02"
/>
<path stroke="#4f6e81" vector-effect="non-scaling-stroke" d="
  M 323.25 184.29
  Q 322.93 183.95 322.50 184.04"
/>
<path stroke="#2f4e61" vector-effect="non-scaling-stroke" d="
  M 322.50 184.04
  Q 321.84 182.04 323.69 181.73
  Q 324.16 181.66 323.73 181.51
  Q 321.65 180.77 319.05 181.11"
/>
<path stroke="#4f6e81" vector-effect="non-scaling-stroke" d="
  M 319.05 181.11
  Q 308.75 180.72 306.75 180.50
  Q 303.32 180.12 300.53 180.37
  Q 295.49 180.81 295.46 180.82
  Q 284.46 181.09 273.46 181.25"
/>
<path stroke="#375669" vector-effect="non-scaling-stroke" d="
  M 273.46 181.25
  L 270.68 183.83"
/>
<path stroke="#2f4e61" vector-effect="non-scaling-stroke" d="
  M 455.03 414.97
  L 470.83 424.25
  A 1.34 0.99 -30.6 0 0 471.71 424.34
  Q 472.84 424.08 474.06 424.94
  Q 475.16 425.71 480.25 428.54"
/>
<path stroke="#4a697d" vector-effect="non-scaling-stroke" d="
  M 480.25 428.54
  Q 481.93 430.62 484.27 429.80"
/>
<path stroke="#2f4e61" vector-effect="non-scaling-stroke" d="
  M 484.27 429.80
  Q 487.05 431.82 490.39 432.55
  Q 491.80 432.86 493.26 433.68
  Q 494.76 434.53 496.25 434.75
  Q 498.71 435.11 500.42 436.38
  A 1.23 1.07 -28.7 0 0 501.29 436.57
  Q 503.13 436.28 505.37 438.06
  A 2.77 2.76 54.7 0 0 507.97 438.51
  Q 508.95 438.18 510.08 439.21
  Q 510.48 439.58 510.92 439.71
  Q 558.27 453.61 607.21 460.00"
/>
<path stroke="#3c5b6e" vector-effect="non-scaling-stroke" d="
  M 607.21 460.00
  L 608.00 460.46"
/>
<path stroke="#1a1b1a" vector-effect="non-scaling-stroke" d="
  M 477.48 214.80
  Q 480.46 216.62 483.75 216.50
  Q 484.97 216.46 489.03 218.26
  Q 491.14 219.20 494.31 219.84
  Q 498.13 220.60 502.47 222.58
  Q 504.11 223.33 505.70 222.47
  Q 506.26 222.16 507.11 222.66
  Q 507.92 223.13 508.34 223.26
  Q 538.43 232.46 568.69 240.81"
/>
<path stroke="#646564" vector-effect="non-scaling-stroke" d="
  M 566.22 250.44
  L 513.29 235.11
  Q 512.27 234.82 511.41 234.17
  Q 508.47 231.94 505.44 231.31
  Q 504.32 231.08 501.50 230.11
  Q 500.22 229.68 497.71 228.53
  Q 488.73 224.43 479.25 225.75
  Q 476.43 226.14 473.66 227.63
  Q 469.26 230.00 468.49 230.29
  Q 462.69 232.46 456.50 233.14
  Q 455.07 233.30 452.85 234.24
  Q 449.46 235.67 445.81 234.19
  Q 442.03 232.66 438.09 231.60
  Q 438.07 231.59 435.37 231.06
  Q 433.39 230.66 430.94 229.56
  Q 420.71 224.96 410.56 220.19
  Q 408.22 219.09 399.55 218.83
  A 0.60 0.56 -82.1 0 0 398.97 219.30
  Q 398.36 221.98 395.81 223.56
  Q 394.00 224.69 392.23 225.30
  Q 389.53 226.23 388.66 226.91
  Q 386.54 228.55 384.58 231.36
  A 0.69 0.68 36.3 0 0 384.73 232.29
  Q 388.76 235.29 391.44 238.56"
/>
<path stroke="#474847" vector-effect="non-scaling-stroke" d="
  M 379.75 212.96
  Q 381.46 212.62 382.66 211.37
  A 0.48 0.47 45.0 0 1 383.33 211.38
  Q 384.25 212.30 384.94 211.19
  Q 387.97 206.32 388.76 205.27"
/>
<path stroke="#313234" vector-effect="non-scaling-stroke" d="
  M 530.58 70.93
  Q 531.58 73.20 533.78 74.43
  Q 536.38 75.88 536.47 75.94
  Q 540.87 78.88 545.62 81.22
  Q 546.02 81.42 546.56 81.40
  Q 548.11 81.34 549.19 82.06
  Q 554.97 85.96 560.92 88.55
  Q 566.55 91.00 569.22 92.68
  Q 584.53 102.32 597.55 114.95
  Q 631.13 147.53 632.37 194.75
  Q 632.47 198.63 632.48 202.45"
/>
<path stroke="#273348" vector-effect="non-scaling-stroke" d="
  M 632.48 202.45
  L 632.43 231.19
  A 0.95 0.78 77.9 0 1 632.03 231.97
  Q 630.95 232.60 629.75 231.79"
/>
<path stroke="#808181" vector-effect="non-scaling-stroke" d="
  M 639.54 272.25
  Q 652.10 275.28 664.19 279.81
  Q 670.14 282.05 675.56 285.27
  Q 681.44 288.77 684.89 290.52
  Q 693.59 294.93 701.57 300.51
  Q 711.36 307.34 711.45 307.40
  Q 716.47 310.73 721.51 314.03
  Q 721.91 314.29 722.43 314.34
  Q 724.63 314.55 722.68 315.99"
/>
<path stroke="#5d5e60" vector-effect="non-scaling-stroke" d="
  M 722.68 315.99
  Q 714.30 310.63 711.19 309.31
  Q 685.02 298.28 657.50 291.26
  Q 611.22 279.45 564.00 272.21"
/>
<path stroke="#666666" vector-effect="non-scaling-stroke" d="
  M 564.00 272.21
  Q 556.51 270.07 548.75 269.45
  Q 534.76 268.33 520.75 269.00
  Q 509.96 269.51 499.75 275.21"
/>
<path stroke="#5b5b5b" vector-effect="non-scaling-stroke" d="
  M 499.75 275.21
  Q 486.85 282.83 478.31 292.81
  Q 464.71 308.72 454.19 328.51
  Q 449.17 337.94 445.32 346.44
  Q 439.85 358.54 436.13 371.33
  Q 433.96 378.76 433.96 386.50"
/>
<path stroke="#666666" vector-effect="non-scaling-stroke" d="
  M 433.96 386.50
  L 433.50 388.79"
/>
<path stroke="#747475" vector-effect="non-scaling-stroke" d="
  M 433.50 388.79
  L 384.79 325.50"
/>
<path stroke="#888888" vector-effect="non-scaling-stroke" d="
  M 418.04 258.25
  Q 419.43 257.13 417.94 256.05
  Q 411.16 251.14 404.13 246.61"
/>
<path stroke="#273348" vector-effect="non-scaling-stroke" d="
  M 633.75 219.71
  Q 632.55 220.75 633.50 222.04"
/>
<path stroke="#2d3a4f" vector-effect="non-scaling-stroke" d="
  M 639.75 271.04
  Q 639.50 271.63 639.54 272.25"
/>
<path stroke="#535f74" vector-effect="non-scaling-stroke" d="
  M 639.54 272.25
  Q 639.16 275.71 640.25 279.26
  A 0.97 0.92 86.6 0 1 639.21 280.50
  L 633.00 279.21"
/>
<path stroke="#444444" vector-effect="non-scaling-stroke" d="
  M 416.50 257.71
  Q 417.42 257.63 418.04 258.25"
/>
<path stroke="#616161" vector-effect="non-scaling-stroke" d="
  M 418.04 258.25
  L 392.53 299.86
  A 1.26 1.26 30.8 0 1 390.83 300.29
  L 354.86 279.57
  A 0.62 0.62 27.1 0 0 353.98 279.85
  Q 352.92 282.22 353.21 284.50
  Q 353.43 286.22 355.26 288.45
  Q 370.30 306.75 384.79 325.50"
/>
<path stroke="#2f2f31" vector-effect="non-scaling-stroke" d="
  M 384.79 325.50
  Q 383.71 325.74 383.71 326.75"
/>
<path stroke="#49464b" vector-effect="non-scaling-stroke" d="
  M 380.54 324.50
  Q 379.29 323.16 378.00 324.21"
/>
<path stroke="#444444" vector-effect="non-scaling-stroke" d="
  M 375.29 322.75
  Q 374.10 321.25 372.71 322.50"
/>
<path stroke="#3b3c3d" vector-effect="non-scaling-stroke" d="
  M 370.04 321.25
  Q 368.83 319.05 367.25 320.71"
/>
<path stroke="#444444" vector-effect="non-scaling-stroke" d="
  M 358.00 317.21
  Q 356.66 314.85 354.21 315.75"
/>
<path stroke="#616161" vector-effect="non-scaling-stroke" d="
  M 346.82 312.10
  Q 344.89 309.41 341.49 308.82"
/>
<path stroke="#49464b" vector-effect="non-scaling-stroke" d="
  M 336.50 304.79
  Q 336.97 303.03 335.04 302.75"
/>
<path stroke="#49464b" vector-effect="non-scaling-stroke" d="
  M 338.00 269.54
  Q 339.03 269.54 339.03 268.80
  A 0.99 0.75 17.5 0 0 338.50 268.05
  L 332.21 264.75"
/>
<path stroke="#444444" vector-effect="non-scaling-stroke" d="
  M 323.79 258.71
  Q 321.67 255.30 317.75 254.29"
/>
<path stroke="#353535" vector-effect="non-scaling-stroke" d="
  M 312.73 250.25
  Q 312.02 247.55 309.00 247.54"
/>
<path stroke="#272729" vector-effect="non-scaling-stroke" d="
  M 484.27 429.80
  Q 482.37 428.03 480.25 428.54"
/>
<path stroke="#1d1f21" vector-effect="non-scaling-stroke" d="
  M 564.00 272.21
  Q 561.94 272.05 562.88 273.42
  A 1.18 1.01 -11.2 0 0 563.68 273.87
  Q 570.92 274.77 582.75 277.00
  Q 602.27 280.68 621.75 284.55
  Q 629.97 286.19 638.66 288.34
  Q 647.08 290.43 655.50 292.50
  Q 670.39 296.16 693.12 304.26
  Q 708.86 309.87 715.75 313.50
  Q 719.44 315.44 722.14 316.65
  Q 726.89 318.78 728.25 319.70
  Q 730.79 321.42 733.61 323.99
  Q 734.64 324.92 735.86 325.58
  Q 738.47 326.99 740.14 329.17
  A 1.17 0.68 61.9 0 0 740.92 329.65
  Q 741.78 329.62 741.91 328.13"
/>
<path stroke="#3c5b6e" vector-effect="non-scaling-stroke" d="
  M 749.51 335.98
  Q 749.47 339.13 752.00 341.79"
/>
<path stroke="#1a1a1a" vector-effect="non-scaling-stroke" d="
  M 753.89 367.52
  Q 752.30 367.40 752.00 369.00
  Q 746.97 396.23 733.36 419.59
  Q 727.66 429.39 722.74 436.52
  Q 713.81 449.49 701.31 460.31
  Q 700.67 460.87 701.23 461.09
  Q 701.48 461.18 701.22 461.25
  Q 700.49 461.44 700.50 462.21"
/>
<path stroke="#1a1a1a" vector-effect="non-scaling-stroke" d="
  M 607.21 460.00
  Q 605.72 458.47 602.69 458.06
  Q 573.62 454.14 539.81 445.94
  Q 523.57 442.00 511.42 437.97
  Q 510.92 437.81 509.82 437.17
  Q 509.01 436.69 508.08 436.55
  Q 505.87 436.19 505.49 436.06
  Q 500.68 434.36 495.96 432.44
  A 1.63 0.68 -21.3 0 0 495.03 432.42
  Q 494.57 432.50 494.14 432.27
  Q 493.39 431.88 493.30 431.85
  Q 487.96 430.05 482.95 427.48
  Q 482.56 427.28 482.01 427.29
  Q 480.49 427.32 478.94 426.06
  Q 477.52 424.91 471.56 422.19
  Q 471.07 421.96 470.54 422.05
  A 1.50 0.91 -23.7 0 1 469.63 421.93
  Q 462.11 417.37 454.43 413.11
  Q 453.52 412.61 452.60 411.80
  Q 451.75 411.04 450.84 410.36
  A 0.49 0.40 -54.0 0 0 450.22 410.52
  L 449.71 411.25"
/>
<path stroke="#343436" vector-effect="non-scaling-stroke" d="
  M 432.45 389.60
  Q 432.92 388.98 433.50 388.79"
/>
<path stroke="#1b1c1c" vector-effect="non-scaling-stroke" d="
  M 433.96 386.50
  Q 434.63 389.53 435.01 386.50
  Q 436.83 372.06 441.98 358.61
  Q 444.62 351.73 449.99 340.29
  Q 459.20 320.65 472.08 303.08
  Q 476.51 297.04 485.00 288.75
  Q 487.43 286.37 489.05 285.48
  A 1.78 1.11 22.9 0 1 490.00 285.33
  Q 492.40 285.59 492.04 283.26
  A 1.34 1.28 68.2 0 1 492.55 282.00
  L 500.02 276.48
  A 0.78 0.54 -32.4 0 0 500.34 275.71
  Q 500.18 275.32 499.75 275.21"
/>
<path stroke="#2d2d2d" vector-effect="non-scaling-stroke" d="
  M 319.05 181.11
  Q 319.80 183.01 321.62 184.08
  Q 321.77 184.16 321.97 184.36
  Q 322.41 184.79 322.50 184.04"
/>
<path stroke="#615e63" vector-effect="non-scaling-stroke" d="
  M 371.13 221.86
  Q 373.21 223.23 373.75 219.75"
/>
<path stroke="#383938" vector-effect="non-scaling-stroke" d="
  M 373.75 219.75
  Q 374.80 221.57 375.72 223.42
  Q 377.12 226.20 380.08 227.19
  A 0.74 0.74 28.8 0 1 380.42 228.35
  Q 379.27 229.78 380.74 231.02
  Q 385.77 235.25 391.44 238.56"
/>
<path stroke="#797979" vector-effect="non-scaling-stroke" d="
  M 391.44 238.56
  Q 394.95 240.88 398.06 242.19
  Q 401.82 243.77 404.13 246.61"
/>
<path stroke="#5c5c5c" vector-effect="non-scaling-stroke" d="
  M 404.13 246.61
  Q 408.38 254.38 416.50 257.71"
/>
<path stroke="#353535" vector-effect="non-scaling-stroke" d="
  M 416.50 257.71
  L 392.16 297.38
  A 0.73 0.73 24.8 0 1 391.31 297.69
  Q 389.56 297.12 387.75 296.44
  Q 386.12 295.82 384.34 294.85
  Q 374.58 289.55 365.00 283.95
  Q 364.87 283.87 354.89 278.27
  Q 347.15 273.92 340.04 268.63
  Q 335.75 265.45 330.47 261.99
  Q 325.59 258.80 321.05 255.11
  Q 319.66 253.98 317.18 252.22
  Q 315.21 250.82 313.40 249.20
  Q 309.15 245.40 307.98 244.46
  Q 302.83 240.35 295.94 234.31
  Q 290.12 229.22 285.50 223.85
  Q 281.49 219.18 276.26 212.38
  Q 271.73 206.50 267.93 199.95
  A 2.22 2.19 -55.2 0 1 267.66 198.40
  Q 268.48 194.08 269.75 191.46
  Q 272.13 186.55 273.46 181.25"
/>
<path stroke="#45434a" vector-effect="non-scaling-stroke" d="
  M 538.38 75.05
  Q 541.31 78.45 545.72 78.80"
/>
<path stroke="#404143" vector-effect="non-scaling-stroke" d="
  M 554.46 83.53
  Q 556.24 85.29 558.37 86.50
  Q 558.43 86.54 559.44 87.25
  Q 560.58 88.05 561.04 86.50"
/>
<path stroke="#313234" vector-effect="non-scaling-stroke" d="
  M 581.73 99.50
  Q 583.10 102.71 586.52 102.92"
/>
<path stroke="#404143" vector-effect="non-scaling-stroke" d="
  M 633.71 189.75
  Q 631.45 190.09 633.50 191.54"
/>
<path stroke="#313234" vector-effect="non-scaling-stroke" d="
  M 633.96 194.75
  Q 631.97 195.18 633.75 196.04"
/>
<path stroke="#0a182e" vector-effect="non-scaling-stroke" d="
  M 633.46 202.25
  L 632.48 202.45"
/>
<path stroke="#45434a" vector-effect="non-scaling-stroke" d="
  M 736.75 323.46
  Q 735.91 323.90 736.69 324.56
  Q 737.99 325.67 739.00 325.96"
/>
<path stroke="#69666c" stroke-opacity="0.996" vector-effect="non-scaling-stroke" d="
  M 677.23 284.09
  Q 678.72 286.09 680.56 286.94
  Q 681.55 287.40 683.00 286.96"
/>
<path stroke="#37393b" vector-effect="non-scaling-stroke" d="
  M 730.79 318.75
  Q 730.84 319.38 730.36 319.11
  Q 726.73 317.05 722.68 315.99"
/>
<path stroke="#413e43" vector-effect="non-scaling-stroke" d="
  M 742.71 404.75
  Q 740.04 406.18 740.63 409.11"
/>
<path stroke="#413e43" vector-effect="non-scaling-stroke" d="
  M 736.71 417.00
  Q 734.25 419.54 732.71 422.75"
/>
<path stroke="#413e43" vector-effect="non-scaling-stroke" d="
  M 732.71 422.75
  Q 727.43 430.60 723.12 439.00"
/>
<path stroke="#3c3c3c" vector-effect="non-scaling-stroke" d="
  M 718.44 445.15
  Q 715.67 445.75 715.50 448.71"
/>
<path stroke="#3c3c3c" vector-effect="non-scaling-stroke" d="
  M 713.21 451.25
  Q 710.65 451.65 710.00 454.21"
/>
<path stroke="#2d2d2d" vector-effect="non-scaling-stroke" d="
  M 708.75 455.79
  Q 706.58 455.82 706.04 458.00"
/>
<path stroke="#77a2b9" vector-effect="non-scaling-stroke" d="
  M 1083.12 234.50
  Q 1083.05 576.41 1083.06 918.31
  Q 1083.06 948.09 1083.45 962.52"
/>
<path stroke="#3c5b6e" vector-effect="non-scaling-stroke" d="
  M 674.20 466.80
  Q 681.46 466.00 688.78 466.15
  Q 692.25 466.22 694.60 465.37
  Q 697.41 464.35 700.00 462.79"
/>
<path stroke="#7b9aad" vector-effect="non-scaling-stroke" d="
  M 762.96 316.50
  Q 762.04 317.00 761.25 316.21"
/>
<path stroke="#766f7a" stroke-opacity="0.996" vector-effect="non-scaling-stroke" d="
  M 733.75 423.04
  Q 732.85 423.40 732.71 422.75"
/>
<path stroke="#1c1e1f" vector-effect="non-scaling-stroke" d="
  M 538.4665 82.6522
  A 2.96 0.59 31.4 0 0 536.2474 80.6064
  A 2.96 0.59 31.4 0 0 533.4135 79.5678
  A 2.96 0.59 31.4 0 0 535.6326 81.6136
  A 2.96 0.59 31.4 0 0 538.4665 82.6522"
/>
<path stroke="#1d1f21" vector-effect="non-scaling-stroke" d="
  M 547.26 91.43
  Q 548.35 91.82 547.51 91.02
  Q 546.11 89.68 543.89 88.61
  Q 542.28 87.83 543.49 89.15
  Q 544.77 90.52 547.26 91.43"
/>
<path stroke="#1d1f21" vector-effect="non-scaling-stroke" d="
  M 588.79 187.76
  Q 588.49 187.93 588.50 188.50
  Q 588.71 204.79 583.50 221.50
  Q 582.75 223.92 584.76 224.01
  A 0.70 0.62 -79.3 0 0 585.40 223.52
  Q 590.59 206.14 590.01 188.00
  Q 590.00 187.72 589.91 187.52
  Q 589.65 186.97 589.38 187.32
  Q 589.25 187.49 588.79 187.76"
/>
<path stroke="#33706b" vector-effect="non-scaling-stroke" d="
  M 526.50 284.96
  Q 525.57 284.87 525.11 285.20"
/>
<path stroke="#33706b" vector-effect="non-scaling-stroke" d="
  M 525.11 285.20
  L 512.33 287.11"
/>
<path stroke="#517d77" vector-effect="non-scaling-stroke" d="
  M 512.33 287.11
  L 503.43 290.06"
/>
<path stroke="#494949" vector-effect="non-scaling-stroke" d="
  M 503.43 290.06
  L 497.46 292.00"
/>
<path stroke="#172020" vector-effect="non-scaling-stroke" d="
  M 497.46 292.00
  Q 497.15 291.64 496.76 291.54
  A 1.01 0.74 -56.0 0 0 495.90 291.85
  Q 486.27 301.68 480.44 311.69
  Q 472.75 324.87 469.94 329.19
  Q 457.84 347.78 452.31 363.81
  Q 448.97 373.50 447.94 381.19
  Q 446.77 389.88 452.69 395.56
  Q 460.63 403.19 462.81 404.44
  Q 496.68 423.79 534.28 433.63
  Q 538.64 434.77 553.69 438.49
  Q 579.00 444.74 604.81 448.55
  Q 606.77 448.83 614.71 449.72
  Q 619.66 450.27 624.57 451.15
  Q 627.94 451.76 631.35 451.93
  Q 635.04 452.12 638.10 452.61
  Q 649.77 454.48 661.51 452.70"
/>
<path stroke="#186f6a" vector-effect="non-scaling-stroke" d="
  M 661.51 452.70
  Q 676.34 453.83 690.99 451.89"
/>
<path stroke="#1a1a1a" vector-effect="non-scaling-stroke" d="
  M 690.99 451.89
  Q 693.69 451.68 696.69 449.19
  Q 705.24 442.07 710.46 434.95
  Q 726.51 413.04 734.70 387.11
  Q 739.91 370.60 739.00 357.00
  Q 738.44 348.62 734.44 342.06
  Q 733.57 340.64 731.97 341.09
  A 1.01 0.71 -26.1 0 1 731.11 340.95
  L 729.54 339.50"
/>
<path stroke="#33706b" vector-effect="non-scaling-stroke" d="
  M 729.54 339.50
  Q 730.23 339.48 729.57 338.96
  Q 714.50 326.98 696.87 319.21
  Q 661.02 303.42 622.35 296.96
  Q 614.12 295.59 584.25 290.25
  Q 579.26 289.36 575.10 289.00
  Q 569.13 288.47 565.98 287.83
  Q 559.62 286.53 553.25 285.21"
/>
<path stroke="#494949" vector-effect="non-scaling-stroke" d="
  M 553.25 285.21
  Q 548.80 282.50 543.98 283.86
  Q 543.72 283.93 543.99 283.86
  Q 547.71 282.88 550.25 285.54"
/>
<path stroke="#33706b" vector-effect="non-scaling-stroke" d="
  M 550.25 285.54
  Q 544.42 285.65 538.77 284.39"
/>
<path stroke="#494949" vector-effect="non-scaling-stroke" d="
  M 538.77 284.39
  Q 533.95 283.50 529.05 283.50
  Q 528.94 283.50 527.97 283.38
  Q 526.61 283.21 526.50 284.96"
/>
<path stroke="#56928d" vector-effect="non-scaling-stroke" d="
  M 538.77 284.39
  L 526.50 284.96"
/>
<path stroke="#27635e" vector-effect="non-scaling-stroke" d="
  M 729.54 339.50
  Q 719.19 332.11 709.69 327.31
  Q 672.42 308.49 630.52 300.98
  Q 619.14 298.94 618.99 298.91
  Q 608.40 296.91 597.79 294.98
  Q 597.76 294.97 584.24 292.29
  Q 574.11 290.27 561.50 288.75
  Q 543.42 286.56 527.50 288.04"
/>
<path stroke="#40b8ae" vector-effect="non-scaling-stroke" d="
  M 527.50 288.04
  Q 525.32 287.57 525.11 285.20"
/>
<path stroke="#27635e" vector-effect="non-scaling-stroke" d="
  M 527.50 288.04
  Q 518.30 287.92 510.04 291.75"
/>
<path stroke="#4d8a86" vector-effect="non-scaling-stroke" d="
  M 510.04 291.75
  L 510.00 291.04"
/>
<path stroke="#5ec6bb" vector-effect="non-scaling-stroke" d="
  M 510.00 291.04
  Q 512.70 289.96 512.33 287.11"
/>
<path stroke="#56928d" vector-effect="non-scaling-stroke" d="
  M 553.25 285.21
  L 550.25 285.54"
/>
<path stroke="#0c625d" vector-effect="non-scaling-stroke" d="
  M 690.99 451.89
  Q 691.88 449.99 690.54 450.32
  Q 689.79 450.50 689.44 450.50
  Q 675.33 450.46 655.75 448.50
  Q 606.20 443.53 562.69 434.30
  Q 531.07 427.59 500.61 416.81
  Q 489.03 412.71 477.97 407.39
  Q 469.39 403.26 460.19 395.31
  Q 455.92 391.63 454.37 387.05
  Q 453.14 383.41 454.29 377.41
  Q 456.14 367.70 460.10 358.58
  Q 472.89 329.12 492.00 303.29"
/>
<path stroke="#343435" vector-effect="non-scaling-stroke" d="
  M 504.25 293.71
  Q 508.38 295.67 510.04 291.75"
/>
<path stroke="#6c9892" vector-effect="non-scaling-stroke" d="
  M 510.00 291.04
  L 504.25 293.71"
/>
<path stroke="#45706a" vector-effect="non-scaling-stroke" d="
  M 504.25 293.71
  Q 497.43 297.60 492.00 303.29"
/>
<path stroke="#43c5ba" vector-effect="non-scaling-stroke" d="
  M 492.00 303.29
  Q 490.50 303.23 490.21 301.75"
/>
<path stroke="#427670" vector-effect="non-scaling-stroke" d="
  M 490.21 301.75
  L 496.25 294.21"
/>
<path stroke="#749f99" vector-effect="non-scaling-stroke" d="
  M 496.25 294.21
  Q 500.21 292.96 503.43 290.06"
/>
<path stroke="#3a4242" vector-effect="non-scaling-stroke" d="
  M 496.25 294.21
  Q 496.47 292.92 497.46 292.00"
/>
<path stroke="#096763" vector-effect="non-scaling-stroke" d="
  M 490.21 301.75
  Q 477.95 317.32 468.36 334.60
  Q 462.64 344.91 459.17 352.36
  Q 454.93 361.47 451.91 371.09
  Q 449.85 377.65 449.37 384.51
  Q 449.11 388.21 450.94 391.06
  Q 453.94 395.75 458.86 399.38
  Q 468.09 406.20 478.31 411.44
  Q 492.07 418.49 512.59 425.37
  Q 559.54 441.11 608.69 447.31
  Q 642.44 451.57 661.51 452.70"
/>
<path stroke="#27635e" vector-effect="non-scaling-stroke" d="
  M 564.62 315.49
  Q 555.11 322.08 565.75 322.71"
/>
<path stroke="#075d5c" vector-effect="non-scaling-stroke" d="
  M 565.75 322.71
  Q 573.11 326.02 581.16 326.24
  Q 582.18 326.26 583.32 326.51
  Q 584.79 326.84 585.50 326.75
  Q 587.63 326.48 589.41 327.40
  Q 591.50 328.49 591.57 328.52
  Q 601.68 332.53 608.50 332.75
  Q 613.76 332.92 617.32 333.72
  Q 621.02 334.55 622.76 334.85
  Q 624.94 335.23 628.25 336.00
  Q 632.24 336.92 639.83 337.17
  Q 645.45 337.34 650.07 338.24
  Q 661.88 340.54 673.71 342.72
  Q 677.95 343.50 678.18 339.48
  Q 678.30 337.39 676.27 337.00
  L 645.91 331.27
  A 3.25 3.02 -15.8 0 1 644.31 330.45
  Q 643.31 329.46 641.86 329.03
  Q 640.97 328.76 639.11 328.80
  Q 634.17 328.89 630.06 327.94
  Q 621.79 326.02 615.20 324.97
  Q 615.14 324.96 608.79 324.21
  Q 600.85 323.27 593.53 320.15
  Q 589.80 318.56 587.20 318.26
  Q 583.87 317.89 580.50 317.96
  Q 575.02 318.09 570.36 315.32
  A 1.72 1.30 -25.5 0 0 569.44 315.13
  L 564.62 315.49"
/>
<path stroke="#20b2ac" vector-effect="non-scaling-stroke" d="
  M 565.75 322.71
  Q 564.56 319.34 564.62 315.49"
/>
<path stroke="#5c5c5c" vector-effect="non-scaling-stroke" d="
  M 581.06 359.19
  Q 578.60 355.01 574.81 358.06
  Q 572.91 359.60 565.04 366.61
  Q 559.06 371.93 555.66 375.58
  Q 549.48 382.24 544.21 389.65
  Q 542.83 391.60 542.96 389.21
  Q 543.53 379.08 542.26 369.75
  Q 540.97 360.22 540.98 350.61
  Q 540.98 347.54 539.98 346.13
  Q 538.05 343.41 534.41 345.60
  A 2.94 2.91 75.4 0 0 533.01 348.01
  Q 532.65 359.56 534.13 370.83
  Q 535.00 377.41 535.00 382.23
  Q 535.00 388.43 535.00 394.62
  Q 535.00 397.64 535.82 399.23
  Q 536.95 401.41 539.17 402.83
  Q 542.12 404.72 544.19 402.44
  Q 548.99 397.16 555.20 388.60
  Q 555.64 388.00 557.70 385.79
  Q 558.84 384.57 560.00 382.75
  Q 561.84 379.87 565.78 377.21
  Q 566.16 376.95 566.40 376.50
  Q 567.10 375.18 568.28 374.28
  Q 575.26 368.93 581.29 362.83
  A 1.03 1.02 66.7 0 0 581.60 362.05
  Q 581.47 358.40 581.06 359.19"
/>
<path stroke="#151515" vector-effect="non-scaling-stroke" d="
  M 635.76 346.39
  Q 639.45 346.91 643.77 347.00
  Q 645.98 347.05 643.95 346.17
  Q 640.32 344.61 635.74 345.50
  Q 633.08 346.02 635.76 346.39"
/>
<path stroke="#5c5c5c" vector-effect="non-scaling-stroke" d="
  M 600.49 372.27
  Q 599.25 375.16 598.25 379.25
  Q 596.04 388.32 592.11 397.97
  Q 592.08 398.04 590.12 402.33
  Q 588.58 405.72 587.75 409.39
  Q 586.87 413.30 589.81 414.69
  Q 592.09 415.76 593.94 414.37
  Q 595.10 413.49 595.70 411.16
  Q 597.29 405.02 598.81 403.06
  Q 600.21 401.27 600.46 399.34
  A 0.75 0.75 3.8 0 1 601.22 398.68
  Q 609.77 398.79 617.59 398.76
  Q 618.88 398.75 619.72 399.38
  Q 620.67 400.10 621.37 401.04
  Q 622.26 402.23 622.34 404.20
  Q 622.54 408.86 622.05 413.50
  Q 621.48 418.91 626.06 421.19
  Q 628.36 422.33 631.22 422.65
  Q 631.39 422.67 633.73 423.07
  Q 636.08 423.48 637.44 421.94
  Q 639.84 419.22 637.88 416.86
  Q 636.89 415.67 634.57 415.03
  Q 632.69 414.51 630.79 414.05
  A 0.60 0.59 -82.5 0 1 630.33 413.44
  Q 630.51 408.87 630.51 404.31
  Q 630.51 401.17 629.77 399.30
  Q 628.77 396.79 626.88 394.99
  Q 626.08 394.22 627.17 394.05
  Q 630.74 393.51 633.41 391.90
  Q 636.80 389.86 638.27 388.32
  Q 639.88 386.64 640.08 384.18
  Q 640.11 383.82 639.92 379.81
  Q 639.68 374.44 638.94 373.06
  Q 636.52 368.58 632.46 365.74
  Q 630.32 364.24 627.14 363.92
  Q 619.80 363.17 612.41 363.44
  Q 611.32 363.48 609.70 362.96
  Q 608.31 362.52 606.85 362.61
  Q 606.74 362.62 604.75 363.22
  Q 603.84 363.50 602.50 363.50
  Q 598.62 363.50 594.73 363.50
  Q 591.62 363.50 590.14 364.80
  Q 587.49 367.11 590.13 370.66
  A 1.20 0.95 69.8 0 0 590.93 371.15
  L 600.19 371.83
  A 0.34 0.32 12.5 0 1 600.49 372.27"
/>
<path stroke="#5c5c5c" vector-effect="non-scaling-stroke" d="
  M 604.25 389.94
  Q 614.16 391.18 622.17 387.23
  Q 623.63 386.51 626.06 386.00
  Q 629.32 385.32 631.61 382.81
  A 1.19 1.15 65.2 0 0 631.91 381.95
  Q 631.58 376.84 631.06 375.94
  Q 629.02 372.41 625.50 371.77
  Q 625.32 371.74 619.00 371.74
  Q 614.91 371.73 610.82 371.80
  A 1.03 0.95 15.6 0 0 610.02 372.21
  Q 608.29 374.70 606.69 379.94
  Q 605.28 384.55 603.88 389.38
  A 0.44 0.44 -78.8 0 0 604.25 389.94"
/>
</g>
<path fill="#14171a" d="
  M 498.21 55.00
  Q 499.20 56.53 500.54 55.50
  Q 502.54 56.30 503.19 56.81
  Q 505.73 58.85 508.10 59.09
  Q 509.63 61.51 512.50 62.29
  Q 513.85 63.94 515.79 63.25
  L 522.73 66.89
  L 527.81 70.51
  A 1.71 1.24 15.1 0 1 528.40 71.24
  Q 528.82 72.35 529.75 73.00
  Q 531.49 74.20 531.56 74.26
  Q 536.04 78.43 540.92 82.14
  Q 541.27 82.41 541.50 82.91
  Q 541.96 83.95 542.83 84.64
  Q 544.74 86.17 544.83 86.26
  Q 548.38 90.03 551.89 93.85
  Q 579.02 123.31 588.17 161.76
  Q 590.60 171.97 591.24 181.50
  Q 592.69 203.29 586.64 224.51
  A 0.46 0.43 -77.8 0 0 586.98 225.08
  L 629.75 231.79
  Q 629.97 233.19 628.25 233.00
  Q 618.68 231.94 616.49 231.58
  Q 608.66 230.29 600.75 229.74
  Q 594.59 229.32 587.41 227.67
  A 1.79 1.78 -74.9 0 0 585.31 228.89
  Q 581.86 240.10 577.79 252.01
  Q 575.99 257.27 574.87 263.47
  A 0.68 0.68 11.3 0 0 575.40 264.26
  Q 578.41 264.93 581.54 265.80
  Q 583.98 266.48 587.68 267.20
  Q 591.27 267.89 596.25 269.25
  Q 607.81 272.41 623.50 274.75
  Q 626.96 275.27 632.23 277.38
  A 1.30 0.90 6.9 0 1 632.93 278.00
  Q 633.15 278.55 633.00 279.21
  L 572.85 266.00
  A 1.93 1.72 -5.7 0 1 571.62 265.11
  L 567.47 257.46
  A 1.14 1.12 -49.8 0 1 567.40 256.52
  L 569.06 251.97
  A 0.66 0.57 -65.7 0 0 568.84 251.22
  Q 567.71 250.53 566.22 250.44
  L 568.98 249.06
  Q 571.04 248.03 571.96 244.97
  Q 573.30 240.48 568.69 240.81
  Q 569.48 239.12 570.84 239.47
  Q 572.82 239.99 572.90 239.98
  Q 574.50 239.81 573.83 237.85
  Q 573.71 237.49 573.05 236.67
  Q 572.27 235.70 573.25 235.05
  A 0.66 0.57 49.9 0 1 574.02 235.17
  Q 575.64 236.80 575.94 234.19
  Q 576.01 233.54 577.00 232.96
  Q 578.08 232.83 578.19 231.94
  Q 578.48 229.55 579.47 227.71
  Q 581.14 224.58 581.37 223.88
  Q 585.67 210.57 586.50 198.50
  Q 588.38 171.17 577.98 144.47
  Q 566.99 116.27 546.31 94.19
  Q 540.06 87.51 534.37 83.25
  Q 532.03 81.50 527.49 77.78
  Q 521.69 73.03 514.43 70.60
  Q 506.87 68.06 499.98 64.03
  Q 493.62 60.29 486.67 57.91
  Q 482.84 56.59 479.22 56.08
  Q 474.99 55.49 471.50 55.75
  Q 456.39 56.87 443.24 53.88
  Q 450.24 52.41 457.14 50.73
  Q 458.33 50.43 460.51 50.63
  Q 462.24 50.78 463.99 50.26
  Q 464.00 50.25 465.05 49.72
  Q 465.79 49.34 466.38 50.00
  A 1.18 1.18 -36.0 0 0 467.85 50.23
  Q 469.89 49.07 471.82 50.01
  A 0.99 0.88 -43.0 0 0 472.66 49.99
  Q 473.57 49.52 474.44 50.12
  A 1.16 0.97 53.0 0 0 475.30 50.32
  Q 478.08 49.73 480.19 50.56
  Q 481.36 51.02 482.23 50.76
  A 0.93 0.81 -30.8 0 1 483.05 50.91
  Q 484.16 51.87 485.01 51.16
  A 1.13 1.12 -39.0 0 1 486.61 51.32
  Q 487.85 52.89 489.11 52.06
  A 0.86 0.78 -46.8 0 1 489.94 51.99
  L 492.05 53.04
  A 1.21 0.90 -36.7 0 0 492.95 53.04
  Q 494.49 52.43 495.69 53.81
  Q 496.75 55.04 498.21 55.00
  Z
  M 538.4665 82.6522
  A 2.96 0.59 31.4 0 0 536.2474 80.6064
  A 2.96 0.59 31.4 0 0 533.4135 79.5678
  A 2.96 0.59 31.4 0 0 535.6326 81.6136
  A 2.96 0.59 31.4 0 0 538.4665 82.6522
  Z
  M 547.26 91.43
  Q 548.35 91.82 547.51 91.02
  Q 546.11 89.68 543.89 88.61
  Q 542.28 87.83 543.49 89.15
  Q 544.77 90.52 547.26 91.43
  Z
  M 588.79 187.76
  Q 588.49 187.93 588.50 188.50
  Q 588.71 204.79 583.50 221.50
  Q 582.75 223.92 584.76 224.01
  A 0.70 0.62 -79.3 0 0 585.40 223.52
  Q 590.59 206.14 590.01 188.00
  Q 590.00 187.72 589.91 187.52
  Q 589.65 186.97 589.38 187.32
  Q 589.25 187.49 588.79 187.76
  Z"
/>
<path fill="#518fb4" d="
  M 443.24 53.88
  Q 456.39 56.87 471.50 55.75
  Q 474.99 55.49 479.22 56.08
  Q 482.84 56.59 486.67 57.91
  Q 493.62 60.29 499.98 64.03
  Q 506.87 68.06 514.43 70.60
  Q 521.69 73.03 527.49 77.78
  Q 532.03 81.50 534.37 83.25
  Q 540.06 87.51 546.31 94.19
  Q 566.99 116.27 577.98 144.47
  Q 588.38 171.17 586.50 198.50
  Q 585.67 210.57 581.37 223.88
  Q 581.14 224.58 579.47 227.71
  Q 578.48 229.55 578.19 231.94
  Q 578.08 232.83 577.00 232.96
  L 574.90 230.80
  A 0.70 0.67 -46.4 0 0 573.90 230.85
  Q 568.49 237.03 562.02 234.45
  Q 555.39 231.82 548.25 231.25
  Q 541.59 230.72 534.37 228.03
  Q 527.64 225.52 524.39 224.61
  Q 517.98 222.81 514.31 221.44
  Q 508.53 219.27 503.99 218.59
  Q 503.80 218.56 503.63 218.63
  Q 503.07 218.86 503.49 219.03
  Q 504.30 219.35 504.17 220.04
  A 0.64 0.54 7.3 0 1 503.50 220.47
  Q 500.99 220.27 498.85 218.85
  A 1.51 1.46 -29.3 0 0 497.94 218.61
  Q 495.61 218.74 494.25 217.50
  Q 493.42 216.74 492.69 217.00
  A 1.41 0.34 -23.9 0 1 491.77 217.17
  Q 490.21 216.85 489.00 215.74
  Q 488.07 214.88 487.50 215.57
  A 0.59 0.50 -55.7 0 1 486.82 215.76
  Q 482.45 213.41 477.48 214.80
  Q 466.19 217.55 454.75 219.31
  Q 453.37 219.52 452.27 219.14
  Q 450.99 218.69 449.99 218.02
  Q 448.45 214.56 447.04 211.63
  Q 443.01 203.29 435.94 197.31
  Q 432.54 194.44 427.24 193.88
  Q 422.33 193.37 422.28 193.36
  Q 412.95 191.92 403.56 190.94
  Q 402.48 190.83 397.84 189.70
  Q 395.81 189.21 392.07 189.03
  Q 387.16 188.79 381.79 186.69
  Q 381.17 186.45 380.51 186.37
  Q 373.48 185.54 367.50 186.53
  Q 364.97 186.95 362.44 185.31
  Q 360.12 183.82 356.73 183.92
  Q 354.32 183.98 354.26 183.98
  Q 338.75 183.80 323.25 184.29
  Q 322.93 183.95 322.50 184.04
  Q 321.84 182.04 323.69 181.73
  Q 324.16 181.66 323.73 181.51
  Q 321.65 180.77 319.05 181.11
  Q 308.75 180.72 306.75 180.50
  Q 303.32 180.12 300.53 180.37
  Q 295.49 180.81 295.46 180.82
  Q 284.46 181.09 273.46 181.25
  L 270.68 183.83
  Q 264.34 183.86 258.21 183.92
  Q 250.06 184.02 247.07 185.64
  Q 242.79 187.98 242.06 193.20
  Q 242.00 193.61 242.00 201.79
  Q 242.00 436.52 242.00 671.25
  Q 242.00 679.18 242.08 679.73
  Q 242.85 684.87 247.12 687.17
  Q 250.03 688.74 257.64 688.79
  Q 319.69 689.18 381.75 689.11
  Q 397.53 689.09 412.97 685.85
  Q 416.96 685.01 422.31 683.06
  Q 435.88 678.12 443.60 667.17
  Q 448.44 660.31 451.52 648.93
  Q 455.01 636.05 455.01 622.50
  Q 454.98 518.77 455.03 414.97
  L 470.83 424.25
  A 1.34 0.99 -30.6 0 0 471.71 424.34
  Q 472.84 424.08 474.06 424.94
  Q 475.16 425.71 480.25 428.54
  Q 481.93 430.62 484.27 429.80
  Q 487.05 431.82 490.39 432.55
  Q 491.80 432.86 493.26 433.68
  Q 494.76 434.53 496.25 434.75
  Q 498.71 435.11 500.42 436.38
  A 1.23 1.07 -28.7 0 0 501.29 436.57
  Q 503.13 436.28 505.37 438.06
  A 2.77 2.76 54.7 0 0 507.97 438.51
  Q 508.95 438.18 510.08 439.21
  Q 510.48 439.58 510.92 439.71
  Q 558.27 453.61 607.21 460.00
  L 608.00 460.46
  Q 607.02 461.64 607.00 464.50
  Q 606.83 494.50 607.29 524.50
  Q 607.37 529.52 604.77 533.62
  Q 603.33 535.90 603.32 535.93
  Q 473.89 760.06 344.30 984.11
  Q 343.88 984.84 343.77 984.18
  Q 343.74 984.01 343.83 983.82
  Q 378.41 902.98 413.28 822.17
  A 0.88 0.88 11.8 0 0 412.47 820.94
  Q 268.47 821.05 124.75 821.00
  Q 116.10 821.00 110.50 820.54
  Q 95.83 819.33 91.24 806.62
  Q 90.36 804.16 89.97 799.74
  Q 89.76 797.40 89.51 795.07
  Q 89.25 792.65 89.25 790.41
  Q 89.25 439.33 89.25 88.25
  Q 89.25 83.89 89.87 73.51
  Q 90.89 56.32 107.56 52.56
  Q 109.60 52.10 115.00 52.10
  Q 246.18 52.00 377.36 52.00
  Q 377.46 52.00 394.15 51.86
  Q 418.75 51.64 443.24 53.88
  Z"
/>
<path fill="#4d4d4d" d="
  M 500.54 55.50
  Q 499.20 56.53 498.21 55.00
  Q 499.53 53.97 500.54 55.50
  Z"
/>
<path fill="#766f7a" fill-opacity="0.996" d="
  M 508.10 59.09
  Q 511.39 59.92 513.29 61.75
  Q 513.21 62.45 512.50 62.29
  Q 509.63 61.51 508.10 59.09
  Z"
/>
<path fill="#4d4d4d" d="
  M 513.29 61.75
  L 515.79 63.25
  Q 513.85 63.94 512.50 62.29
  Q 513.21 62.45 513.29 61.75
  Z"
/>
<path fill="#4d4d4d" d="
  M 530.58 70.93
  Q 531.58 73.20 533.78 74.43
  Q 536.38 75.88 536.47 75.94
  Q 540.87 78.88 545.62 81.22
  Q 546.02 81.42 546.56 81.40
  Q 548.11 81.34 549.19 82.06
  Q 554.97 85.96 560.92 88.55
  Q 566.55 91.00 569.22 92.68
  Q 584.53 102.32 597.55 114.95
  Q 631.13 147.53 632.37 194.75
  Q 632.47 198.63 632.48 202.45
  L 632.43 231.19
  A 0.95 0.78 77.9 0 1 632.03 231.97
  Q 630.95 232.60 629.75 231.79
  L 586.98 225.08
  A 0.46 0.43 -77.8 0 1 586.64 224.51
  Q 592.69 203.29 591.24 181.50
  Q 590.60 171.97 588.17 161.76
  Q 579.02 123.31 551.89 93.85
  Q 548.38 90.03 544.83 86.26
  Q 544.74 86.17 542.83 84.64
  Q 541.96 83.95 541.50 82.91
  Q 541.27 82.41 540.92 82.14
  Q 536.04 78.43 531.56 74.26
  Q 531.49 74.20 529.75 73.00
  Q 528.82 72.35 528.40 71.24
  A 1.71 1.24 15.1 0 0 527.81 70.51
  L 522.73 66.89
  Q 527.26 67.81 530.58 70.93
  Z"
/>
<path fill="#14171a" d="
  M 530.58 70.93
  L 538.38 75.05
  Q 541.31 78.45 545.72 78.80
  L 554.46 83.53
  Q 556.24 85.29 558.37 86.50
  Q 558.43 86.54 559.44 87.25
  Q 560.58 88.05 561.04 86.50
  L 569.56 91.49
  A 1.23 0.99 -33.7 0 0 570.46 91.57
  Q 571.57 91.24 572.11 92.22
  Q 572.42 92.78 572.71 92.99
  L 581.73 99.50
  Q 583.10 102.71 586.52 102.92
  Q 588.93 105.42 590.00 106.00
  Q 591.89 107.02 593.35 108.54
  Q 595.61 110.89 595.67 110.94
  Q 601.28 116.08 602.44 117.56
  Q 605.02 120.86 608.13 123.66
  A 1.32 0.98 -75.3 0 1 608.47 124.50
  Q 608.49 125.41 609.25 125.75
  Q 610.65 126.38 611.19 127.46
  Q 612.13 129.35 612.14 129.36
  Q 622.72 143.71 627.99 160.71
  Q 628.02 160.78 629.69 165.73
  Q 631.21 170.22 631.50 175.00
  Q 631.60 176.71 632.75 181.48
  Q 633.10 182.92 633.09 185.58
  Q 633.08 187.69 633.71 189.75
  Q 631.45 190.09 633.50 191.54
  Q 633.27 193.18 633.96 194.75
  Q 631.97 195.18 633.75 196.04
  Q 633.56 196.51 633.51 197.01
  Q 633.48 197.39 633.72 197.94
  Q 634.67 200.08 633.46 202.25
  L 632.48 202.45
  Q 632.47 198.63 632.37 194.75
  Q 631.13 147.53 597.55 114.95
  Q 584.53 102.32 569.22 92.68
  Q 566.55 91.00 560.92 88.55
  Q 554.97 85.96 549.19 82.06
  Q 548.11 81.34 546.56 81.40
  Q 546.02 81.42 545.62 81.22
  Q 540.87 78.88 536.47 75.94
  Q 536.38 75.88 533.78 74.43
  Q 531.58 73.20 530.58 70.93
  Z"
/>
<path fill="#766f7a" fill-opacity="0.996" d="
  M 545.72 78.80
  Q 541.31 78.45 538.38 75.05
  Q 542.51 75.51 545.72 78.80
  Z"
/>
<ellipse fill="#232423" cx="0.00" cy="0.00" transform="translate(535.94,81.11) rotate(31.4)" rx="2.96" ry="0.59"/>
<path fill="#6b6b6b" d="
  M 561.04 86.50
  Q 560.58 88.05 559.44 87.25
  Q 558.43 86.54 558.37 86.50
  Q 556.24 85.29 554.46 83.53
  Q 558.27 83.89 561.04 86.50
  Z"
/>
<path fill="#262727" d="
  M 547.26 91.43
  Q 544.77 90.52 543.49 89.15
  Q 542.28 87.83 543.89 88.61
  Q 546.11 89.68 547.51 91.02
  Q 548.35 91.82 547.26 91.43
  Z"
/>
<path fill="#4d4d4d" d="
  M 581.73 99.50
  Q 584.51 100.63 586.52 102.92
  Q 583.10 102.71 581.73 99.50
  Z"
/>
<path fill="#4d4d4d" d="
  M 319.05 181.11
  Q 319.80 183.01 321.62 184.08
  Q 321.77 184.16 321.97 184.36
  Q 322.41 184.79 322.50 184.04
  Q 322.93 183.95 323.25 184.29
  L 327.01 186.82
  A 0.80 0.77 -70.6 0 1 327.35 187.56
  Q 327.22 188.75 328.12 189.15
  Q 329.08 189.58 329.17 189.65
  Q 332.19 191.74 335.00 194.09
  Q 339.31 197.70 340.65 198.73
  Q 353.89 208.92 367.06 219.19
  Q 367.65 219.65 371.13 221.86
  Q 373.21 223.23 373.75 219.75
  Q 374.80 221.57 375.72 223.42
  Q 377.12 226.20 380.08 227.19
  A 0.74 0.74 28.8 0 1 380.42 228.35
  Q 379.27 229.78 380.74 231.02
  Q 385.77 235.25 391.44 238.56
  Q 394.95 240.88 398.06 242.19
  Q 401.82 243.77 404.13 246.61
  Q 408.38 254.38 416.50 257.71
  L 392.16 297.38
  A 0.73 0.73 24.8 0 1 391.31 297.69
  Q 389.56 297.12 387.75 296.44
  Q 386.12 295.82 384.34 294.85
  Q 374.58 289.55 365.00 283.95
  Q 364.87 283.87 354.89 278.27
  Q 347.15 273.92 340.04 268.63
  Q 335.75 265.45 330.47 261.99
  Q 325.59 258.80 321.05 255.11
  Q 319.66 253.98 317.18 252.22
  Q 315.21 250.82 313.40 249.20
  Q 309.15 245.40 307.98 244.46
  Q 302.83 240.35 295.94 234.31
  Q 290.12 229.22 285.50 223.85
  Q 281.49 219.18 276.26 212.38
  Q 271.73 206.50 267.93 199.95
  A 2.22 2.19 -55.2 0 1 267.66 198.40
  Q 268.48 194.08 269.75 191.46
  Q 272.13 186.55 273.46 181.25
  Q 284.46 181.09 295.46 180.82
  Q 295.49 180.81 300.53 180.37
  Q 303.32 180.12 306.75 180.50
  Q 308.75 180.72 319.05 181.11
  Z"
/>
<path fill="#0d0d0d" d="
  M 319.05 181.11
  Q 321.65 180.77 323.73 181.51
  Q 324.16 181.66 323.69 181.73
  Q 321.84 182.04 322.50 184.04
  Q 322.41 184.79 321.97 184.36
  Q 321.77 184.16 321.62 184.08
  Q 319.80 183.01 319.05 181.11
  Z"
/>
<path fill="#1c1d1d" d="
  M 273.46 181.25
  Q 272.13 186.55 269.75 191.46
  Q 268.48 194.08 267.66 198.40
  A 2.22 2.19 -55.2 0 0 267.93 199.95
  Q 271.73 206.50 276.26 212.38
  Q 281.49 219.18 285.50 223.85
  Q 290.12 229.22 295.94 234.31
  Q 302.83 240.35 307.98 244.46
  Q 309.15 245.40 313.40 249.20
  Q 315.21 250.82 317.18 252.22
  Q 319.66 253.98 321.05 255.11
  Q 325.59 258.80 330.47 261.99
  Q 335.75 265.45 340.04 268.63
  Q 347.15 273.92 354.89 278.27
  Q 364.87 283.87 365.00 283.95
  Q 374.58 289.55 384.34 294.85
  Q 386.12 295.82 387.75 296.44
  Q 389.56 297.12 391.31 297.69
  A 0.73 0.73 24.8 0 0 392.16 297.38
  L 416.50 257.71
  Q 417.42 257.63 418.04 258.25
  L 392.53 299.86
  A 1.26 1.26 30.8 0 1 390.83 300.29
  L 354.86 279.57
  A 0.62 0.62 27.1 0 0 353.98 279.85
  Q 352.92 282.22 353.21 284.50
  Q 353.43 286.22 355.26 288.45
  Q 370.30 306.75 384.79 325.50
  Q 383.71 325.74 383.71 326.75
  Q 382.73 324.81 380.54 324.50
  Q 379.29 323.16 378.00 324.21
  L 375.29 322.75
  Q 374.10 321.25 372.71 322.50
  Q 371.56 321.43 370.04 321.25
  Q 368.83 319.05 367.25 320.71
  L 365.49 319.68
  A 1.91 1.41 -23.1 0 0 364.57 319.46
  Q 361.68 319.52 359.41 317.59
  Q 358.82 317.08 358.00 317.21
  Q 356.66 314.85 354.21 315.75
  Q 350.45 313.33 346.82 312.10
  Q 344.89 309.41 341.49 308.82
  Q 339.55 306.40 336.50 304.79
  Q 336.97 303.03 335.04 302.75
  Q 333.68 301.77 333.33 300.25
  A 1.13 1.08 10.0 0 0 332.80 299.53
  Q 331.87 298.98 331.70 297.94
  Q 331.43 296.29 331.40 296.22
  Q 330.98 295.24 330.20 294.51
  A 0.67 0.67 33.6 0 1 330.04 293.74
  Q 330.82 292.01 330.25 290.50
  Q 329.53 288.59 330.60 287.29
  A 1.11 1.04 -31.1 0 0 330.84 286.45
  Q 330.56 284.63 331.70 283.19
  Q 332.96 281.59 332.66 279.55
  A 1.25 1.10 61.3 0 1 332.86 278.66
  Q 335.98 274.41 338.00 269.54
  Q 339.03 269.54 339.03 268.80
  A 0.99 0.75 17.5 0 0 338.50 268.05
  L 332.21 264.75
  L 323.79 258.71
  Q 321.67 255.30 317.75 254.29
  L 312.73 250.25
  Q 312.02 247.55 309.00 247.54
  Q 288.16 231.05 272.18 209.85
  Q 269.62 206.46 267.30 202.90
  Q 265.41 199.98 266.00 197.25
  Q 266.51 194.91 270.68 183.83
  L 273.46 181.25
  Z"
/>
<path fill="#262727" d="
  M 589.38 187.32
  Q 589.65 186.97 589.91 187.52
  Q 590.00 187.72 590.01 188.00
  Q 590.59 206.14 585.40 223.52
  A 0.70 0.62 -79.3 0 1 584.76 224.01
  Q 582.75 223.92 583.50 221.50
  Q 588.71 204.79 588.50 188.50
  Q 588.49 187.93 588.79 187.76
  Q 589.25 187.49 589.38 187.32
  Z"
/>
<path fill="#6b6b6b" d="
  M 633.71 189.75
  Q 634.40 190.74 633.50 191.54
  Q 631.45 190.09 633.71 189.75
  Z"
/>
<path fill="#4d4d4d" d="
  M 633.96 194.75
  Q 634.51 195.47 633.75 196.04
  Q 631.97 195.18 633.96 194.75
  Z"
/>
<path fill="#232423" d="
  M 449.99 218.02
  Q 450.99 218.69 452.27 219.14
  Q 453.37 219.52 454.75 219.31
  Q 466.19 217.55 477.48 214.80
  Q 480.46 216.62 483.75 216.50
  Q 484.97 216.46 489.03 218.26
  Q 491.14 219.20 494.31 219.84
  Q 498.13 220.60 502.47 222.58
  Q 504.11 223.33 505.70 222.47
  Q 506.26 222.16 507.11 222.66
  Q 507.92 223.13 508.34 223.26
  Q 538.43 232.46 568.69 240.81
  Q 573.30 240.48 571.96 244.97
  Q 571.04 248.03 568.98 249.06
  L 566.22 250.44
  L 513.29 235.11
  Q 512.27 234.82 511.41 234.17
  Q 508.47 231.94 505.44 231.31
  Q 504.32 231.08 501.50 230.11
  Q 500.22 229.68 497.71 228.53
  Q 488.73 224.43 479.25 225.75
  Q 476.43 226.14 473.66 227.63
  Q 469.26 230.00 468.49 230.29
  Q 462.69 232.46 456.50 233.14
  Q 455.07 233.30 452.85 234.24
  Q 449.46 235.67 445.81 234.19
  Q 442.03 232.66 438.09 231.60
  Q 438.07 231.59 435.37 231.06
  Q 433.39 230.66 430.94 229.56
  Q 420.71 224.96 410.56 220.19
  Q 408.22 219.09 399.55 218.83
  A 0.60 0.56 -82.1 0 0 398.97 219.30
  Q 398.36 221.98 395.81 223.56
  Q 394.00 224.69 392.23 225.30
  Q 389.53 226.23 388.66 226.91
  Q 386.54 228.55 384.58 231.36
  A 0.69 0.68 36.3 0 0 384.73 232.29
  Q 388.76 235.29 391.44 238.56
  Q 385.77 235.25 380.74 231.02
  Q 379.27 229.78 380.42 228.35
  A 0.74 0.74 28.8 0 0 380.08 227.19
  Q 377.12 226.20 375.72 223.42
  Q 374.80 221.57 373.75 219.75
  Q 376.21 215.87 379.75 212.96
  Q 381.46 212.62 382.66 211.37
  A 0.48 0.47 45.0 0 1 383.33 211.38
  Q 384.25 212.30 384.94 211.19
  Q 387.97 206.32 388.76 205.27
  Q 394.76 200.63 402.32 201.85
  Q 402.45 201.87 403.18 202.28
  L 404.27 202.87
  A 1.15 0.49 -30.9 0 0 405.18 202.74
  Q 405.96 202.36 406.70 202.80
  Q 407.67 203.38 407.93 203.47
  Q 410.12 204.16 412.30 204.83
  Q 414.55 205.52 416.61 206.39
  Q 426.78 210.71 436.92 215.09
  Q 443.22 217.81 449.99 218.02
  Z"
/>
<path fill="#001942" d="
  M 633.46 202.25
  Q 634.47 203.66 634.44 205.44
  Q 634.41 207.65 634.25 208.00
  L 633.85 208.91
  A 1.51 0.65 -56.5 0 0 633.69 209.80
  Q 634.35 212.52 633.93 215.31
  Q 633.59 217.50 633.75 219.71
  Q 632.55 220.75 633.50 222.04
  L 633.75 223.07
  A 1.30 0.25 73.3 0 1 633.84 223.97
  Q 633.21 226.15 634.05 228.28
  A 0.98 0.84 -40.6 0 1 633.92 229.12
  Q 633.34 229.97 633.81 231.19
  Q 634.84 233.84 634.33 237.26
  Q 634.26 237.75 634.42 238.22
  Q 635.85 242.28 635.56 246.56
  Q 635.47 247.92 636.51 251.56
  Q 637.12 253.69 637.21 256.54
  Q 637.33 260.37 638.58 264.02
  A 1.85 1.82 -49.0 0 1 638.64 264.98
  Q 638.17 267.28 638.84 269.52
  Q 638.92 269.78 638.80 270.45
  Q 638.69 271.03 639.75 271.04
  Q 639.50 271.63 639.54 272.25
  Q 639.16 275.71 640.25 279.26
  A 0.97 0.92 86.6 0 1 639.21 280.50
  L 633.00 279.21
  Q 633.15 278.55 632.93 278.00
  A 1.30 0.90 6.9 0 0 632.23 277.38
  Q 626.96 275.27 623.50 274.75
  Q 607.81 272.41 596.25 269.25
  Q 591.27 267.89 587.68 267.20
  Q 583.98 266.48 581.54 265.80
  Q 578.41 264.93 575.40 264.26
  A 0.68 0.68 11.3 0 1 574.87 263.47
  Q 575.99 257.27 577.79 252.01
  Q 581.86 240.10 585.31 228.89
  A 1.79 1.78 -74.9 0 1 587.41 227.67
  Q 594.59 229.32 600.75 229.74
  Q 608.66 230.29 616.49 231.58
  Q 618.68 231.94 628.25 233.00
  Q 629.97 233.19 629.75 231.79
  Q 630.95 232.60 632.03 231.97
  A 0.95 0.78 77.9 0 0 632.43 231.19
  L 632.48 202.45
  L 633.46 202.25
  Z"
/>
<path fill="#6b6b6b" d="
  M 388.76 205.27
  Q 387.97 206.32 384.94 211.19
  Q 384.25 212.30 383.33 211.38
  A 0.48 0.47 45.0 0 0 382.66 211.37
  Q 381.46 212.62 379.75 212.96
  L 388.76 205.27
  Z"
/>
<path fill="#518fb4" d="
  M 1083.12 234.50
  Q 1083.05 576.41 1083.06 918.31
  Q 1083.06 948.09 1083.45 962.52
  Q 1081.58 976.37 1070.39 980.40
  Q 1065.95 982.00 1052.93 982.00
  Q 1005.22 982.00 957.50 982.00
  Q 941.43 982.00 936.50 966.50
  Q 935.73 964.09 935.27 958.69
  Q 935.00 955.48 935.00 950.81
  Q 935.00 671.77 935.00 391.99
  A 1.01 1.01 7.0 0 0 934.23 391.01
  Q 930.80 390.19 930.13 393.29
  Q 929.75 395.07 929.71 395.19
  Q 844.05 675.98 758.92 956.93
  Q 757.13 962.83 754.40 968.36
  Q 748.79 979.71 738.44 984.44
  Q 728.34 989.05 718.56 984.69
  Q 713.36 982.37 708.81 977.45
  Q 703.44 971.63 700.37 964.54
  Q 699.49 962.50 695.74 950.01
  Q 674.11 877.94 652.69 805.81
  Q 628.72 725.13 592.40 609.23
  A 1.14 1.13 51.7 0 1 592.50 608.32
  L 674.20 466.80
  Q 681.46 466.00 688.78 466.15
  Q 692.25 466.22 694.60 465.37
  Q 697.41 464.35 700.00 462.79
  Q 700.04 463.44 699.31 465.06
  Q 695.86 472.71 682.58 503.93
  Q 682.57 503.96 681.96 505.16
  Q 680.87 507.32 681.75 510.25
  Q 702.85 580.32 724.05 651.23
  A 1.08 1.07 81.6 0 0 725.08 652.00
  L 730.42 652.00
  A 0.96 0.95 -81.3 0 0 731.33 651.32
  Q 795.21 441.21 858.44 231.73
  Q 859.38 228.61 860.77 225.66
  Q 866.30 213.95 879.50 213.96
  Q 965.86 214.00 1052.21 214.00
  Q 1066.24 214.00 1070.62 215.54
  Q 1082.26 219.64 1083.12 234.50
  Z"
/>
<path fill="#101110" d="
  M 577.00 232.96
  Q 576.01 233.54 575.94 234.19
  Q 575.64 236.80 574.02 235.17
  A 0.66 0.57 49.9 0 0 573.25 235.05
  Q 572.27 235.70 573.05 236.67
  Q 573.71 237.49 573.83 237.85
  Q 574.50 239.81 572.90 239.98
  Q 572.82 239.99 570.84 239.47
  Q 569.48 239.12 568.69 240.81
  Q 538.43 232.46 508.34 223.26
  Q 507.92 223.13 507.11 222.66
  Q 506.26 222.16 505.70 222.47
  Q 504.11 223.33 502.47 222.58
  Q 498.13 220.60 494.31 219.84
  Q 491.14 219.20 489.03 218.26
  Q 484.97 216.46 483.75 216.50
  Q 480.46 216.62 477.48 214.80
  Q 482.45 213.41 486.82 215.76
  A 0.59 0.50 -55.7 0 0 487.50 215.57
  Q 488.07 214.88 489.00 215.74
  Q 490.21 216.85 491.77 217.17
  A 1.41 0.34 -23.9 0 0 492.69 217.00
  Q 493.42 216.74 494.25 217.50
  Q 495.61 218.74 497.94 218.61
  A 1.51 1.46 -29.3 0 1 498.85 218.85
  Q 500.99 220.27 503.50 220.47
  A 0.64 0.54 7.3 0 0 504.17 220.04
  Q 504.30 219.35 503.49 219.03
  Q 503.07 218.86 503.63 218.63
  Q 503.80 218.56 503.99 218.59
  Q 508.53 219.27 514.31 221.44
  Q 517.98 222.81 524.39 224.61
  Q 527.64 225.52 534.37 228.03
  Q 541.59 230.72 548.25 231.25
  Q 555.39 231.82 562.02 234.45
  Q 568.49 237.03 573.90 230.85
  A 0.70 0.67 -46.4 0 1 574.90 230.80
  L 577.00 232.96
  Z"
/>
<path fill="#a5a5a5" d="
  M 566.22 250.44
  Q 567.71 250.53 568.84 251.22
  A 0.66 0.57 -65.7 0 1 569.06 251.97
  L 567.40 256.52
  A 1.14 1.12 -49.8 0 0 567.47 257.46
  L 571.62 265.11
  A 1.93 1.72 -5.7 0 0 572.85 266.00
  L 633.00 279.21
  L 639.21 280.50
  A 0.97 0.92 86.6 0 0 640.25 279.26
  Q 639.16 275.71 639.54 272.25
  Q 652.10 275.28 664.19 279.81
  Q 670.14 282.05 675.56 285.27
  Q 681.44 288.77 684.89 290.52
  Q 693.59 294.93 701.57 300.51
  Q 711.36 307.34 711.45 307.40
  Q 716.47 310.73 721.51 314.03
  Q 721.91 314.29 722.43 314.34
  Q 724.63 314.55 722.68 315.99
  Q 714.30 310.63 711.19 309.31
  Q 685.02 298.28 657.50 291.26
  Q 611.22 279.45 564.00 272.21
  Q 556.51 270.07 548.75 269.45
  Q 534.76 268.33 520.75 269.00
  Q 509.96 269.51 499.75 275.21
  Q 486.85 282.83 478.31 292.81
  Q 464.71 308.72 454.19 328.51
  Q 449.17 337.94 445.32 346.44
  Q 439.85 358.54 436.13 371.33
  Q 433.96 378.76 433.96 386.50
  L 433.50 388.79
  L 384.79 325.50
  Q 370.30 306.75 355.26 288.45
  Q 353.43 286.22 353.21 284.50
  Q 352.92 282.22 353.98 279.85
  A 0.62 0.62 27.1 0 1 354.86 279.57
  L 390.83 300.29
  A 1.26 1.26 30.8 0 0 392.53 299.86
  L 418.04 258.25
  Q 419.43 257.13 417.94 256.05
  Q 411.16 251.14 404.13 246.61
  Q 401.82 243.77 398.06 242.19
  Q 394.95 240.88 391.44 238.56
  Q 388.76 235.29 384.73 232.29
  A 0.69 0.68 36.3 0 1 384.58 231.36
  Q 386.54 228.55 388.66 226.91
  Q 389.53 226.23 392.23 225.30
  Q 394.00 224.69 395.81 223.56
  Q 398.36 221.98 398.97 219.30
  A 0.60 0.56 -82.1 0 1 399.55 218.83
  Q 408.22 219.09 410.56 220.19
  Q 420.71 224.96 430.94 229.56
  Q 433.39 230.66 435.37 231.06
  Q 438.07 231.59 438.09 231.60
  Q 442.03 232.66 445.81 234.19
  Q 449.46 235.67 452.85 234.24
  Q 455.07 233.30 456.50 233.14
  Q 462.69 232.46 468.49 230.29
  Q 469.26 230.00 473.66 227.63
  Q 476.43 226.14 479.25 225.75
  Q 488.73 224.43 497.71 228.53
  Q 500.22 229.68 501.50 230.11
  Q 504.32 231.08 505.44 231.31
  Q 508.47 231.94 511.41 234.17
  Q 512.27 234.82 513.29 235.11
  L 566.22 250.44
  Z"
/>
<path fill="#766f7a" fill-opacity="0.996" d="
  M 373.75 219.75
  Q 373.21 223.23 371.13 221.86
  Q 372.45 220.18 373.75 219.75
  Z"
/>
<path fill="#4d4d4d" d="
  M 633.75 219.71
  Q 634.88 221.02 633.50 222.04
  Q 632.55 220.75 633.75 219.71
  Z"
/>
<path fill="#9db6bf" fill-opacity="0.996" d="
  M 1083.12 234.50
  Q 1084.33 238.63 1084.16 242.78
  Q 1084.00 246.64 1084.00 246.73
  Q 1084.00 598.74 1084.00 950.75
  Q 1084.00 958.76 1083.45 962.52
  Q 1083.06 948.09 1083.06 918.31
  Q 1083.05 576.41 1083.12 234.50
  Z"
/>
<path fill="#6b6b6b" d="
  M 404.13 246.61
  Q 411.16 251.14 417.94 256.05
  Q 419.43 257.13 418.04 258.25
  Q 417.42 257.63 416.50 257.71
  Q 408.38 254.38 404.13 246.61
  Z"
/>
<path fill="#4d4d4d" d="
  M 309.00 247.54
  Q 312.02 247.55 312.73 250.25
  Q 310.27 249.34 309.00 247.54
  Z"
/>
<path fill="#6b6b6b" d="
  M 317.75 254.29
  Q 321.67 255.30 323.79 258.71
  Q 320.05 257.31 317.75 254.29
  Z"
/>
<path fill="#766f7a" fill-opacity="0.996" d="
  M 338.00 269.54
  Q 334.59 267.74 332.21 264.75
  L 338.50 268.05
  A 0.99 0.75 17.5 0 1 339.03 268.80
  Q 339.03 269.54 338.00 269.54
  Z"
/>
<path fill="#262727" d="
  M 564.00 272.21
  Q 561.94 272.05 562.88 273.42
  A 1.18 1.01 -11.2 0 0 563.68 273.87
  Q 570.92 274.77 582.75 277.00
  Q 602.27 280.68 621.75 284.55
  Q 629.97 286.19 638.66 288.34
  Q 647.08 290.43 655.50 292.50
  Q 670.39 296.16 693.12 304.26
  Q 708.86 309.87 715.75 313.50
  Q 719.44 315.44 722.14 316.65
  Q 726.89 318.78 728.25 319.70
  Q 730.79 321.42 733.61 323.99
  Q 734.64 324.92 735.86 325.58
  Q 738.47 326.99 740.14 329.17
  A 1.17 0.68 61.9 0 0 740.92 329.65
  Q 741.78 329.62 741.91 328.13
  Q 743.05 328.58 743.70 329.34
  Q 743.91 329.59 744.04 330.25
  Q 744.24 331.27 745.44 331.84
  A 3.67 3.67 -87.1 0 1 747.31 333.91
  Q 747.70 335.02 749.51 335.98
  Q 749.47 339.13 752.00 341.79
  Q 752.67 344.03 753.26 346.28
  Q 753.59 347.53 753.85 350.66
  Q 754.04 352.89 754.82 355.03
  A 1.14 0.95 -43.8 0 1 754.72 355.92
  Q 754.06 357.07 754.54 358.30
  A 0.97 0.93 -40.0 0 1 754.45 359.15
  Q 753.90 360.02 754.15 360.95
  Q 754.57 362.55 754.58 362.61
  Q 754.72 365.12 753.89 367.52
  Q 752.30 367.40 752.00 369.00
  Q 746.97 396.23 733.36 419.59
  Q 727.66 429.39 722.74 436.52
  Q 713.81 449.49 701.31 460.31
  Q 700.67 460.87 701.23 461.09
  Q 701.48 461.18 701.22 461.25
  Q 700.49 461.44 700.50 462.21
  L 700.00 462.79
  Q 697.41 464.35 694.60 465.37
  Q 692.25 466.22 688.78 466.15
  Q 681.46 466.00 674.20 466.80
  Q 673.58 465.49 672.65 466.06
  A 4.82 3.48 23.9 0 1 670.04 466.61
  L 657.99 465.74
  Q 657.68 465.72 657.06 465.98
  Q 656.05 466.41 655.18 465.77
  A 1.33 1.07 55.9 0 0 654.31 465.50
  Q 651.50 465.76 648.78 464.96
  A 1.39 1.00 -42.9 0 0 647.89 465.07
  Q 646.94 465.53 646.10 464.84
  A 1.16 0.52 45.6 0 0 645.26 464.51
  Q 645.08 464.56 644.93 464.67
  A 0.94 0.59 -51.6 0 1 644.34 464.88
  L 639.44 464.23
  Q 639.13 464.19 638.48 464.36
  Q 637.65 464.57 636.89 464.06
  A 0.85 0.83 -40.4 0 0 636.07 464.00
  Q 635.03 464.48 634.13 463.83
  A 1.14 0.66 45.3 0 0 633.27 463.60
  L 632.70 463.79
  A 1.02 0.91 -35.8 0 1 631.85 463.70
  Q 630.81 463.05 629.69 463.52
  A 0.92 0.90 -40.4 0 1 628.85 463.46
  Q 627.69 462.75 626.45 463.27
  A 0.82 0.82 -38.0 0 1 625.63 463.17
  Q 624.71 462.50 623.69 462.99
  A 1.04 0.85 -40.1 0 1 622.83 463.00
  Q 622.17 462.63 621.46 462.42
  Q 621.08 462.31 620.01 462.33
  Q 618.79 462.35 617.81 461.63
  A 0.64 0.58 -43.7 0 0 617.07 461.65
  Q 616.19 462.30 615.14 461.57
  A 1.39 1.10 54.8 0 0 614.26 461.31
  Q 611.03 461.65 608.00 460.46
  L 607.21 460.00
  Q 605.72 458.47 602.69 458.06
  Q 573.62 454.14 539.81 445.94
  Q 523.57 442.00 511.42 437.97
  Q 510.92 437.81 509.82 437.17
  Q 509.01 436.69 508.08 436.55
  Q 505.87 436.19 505.49 436.06
  Q 500.68 434.36 495.96 432.44
  A 1.63 0.68 -21.3 0 0 495.03 432.42
  Q 494.57 432.50 494.14 432.27
  Q 493.39 431.88 493.30 431.85
  Q 487.96 430.05 482.95 427.48
  Q 482.56 427.28 482.01 427.29
  Q 480.49 427.32 478.94 426.06
  Q 477.52 424.91 471.56 422.19
  Q 471.07 421.96 470.54 422.05
  A 1.50 0.91 -23.7 0 1 469.63 421.93
  Q 462.11 417.37 454.43 413.11
  Q 453.52 412.61 452.60 411.80
  Q 451.75 411.04 450.84 410.36
  A 0.49 0.40 -54.0 0 0 450.22 410.52
  L 449.71 411.25
  Q 444.27 407.06 440.30 401.47
  Q 436.18 395.66 432.45 389.60
  Q 432.92 388.98 433.50 388.79
  L 433.96 386.50
  Q 434.63 389.53 435.01 386.50
  Q 436.83 372.06 441.98 358.61
  Q 444.62 351.73 449.99 340.29
  Q 459.20 320.65 472.08 303.08
  Q 476.51 297.04 485.00 288.75
  Q 487.43 286.37 489.05 285.48
  A 1.78 1.11 22.9 0 1 490.00 285.33
  Q 492.40 285.59 492.04 283.26
  A 1.34 1.28 68.2 0 1 492.55 282.00
  L 500.02 276.48
  A 0.78 0.54 -32.4 0 0 500.34 275.71
  Q 500.18 275.32 499.75 275.21
  Q 509.96 269.51 520.75 269.00
  Q 534.76 268.33 548.75 269.45
  Q 556.51 270.07 564.00 272.21
  Z
  M 526.50 284.96
  Q 525.57 284.87 525.11 285.20
  L 512.33 287.11
  L 503.43 290.06
  L 497.46 292.00
  Q 497.15 291.64 496.76 291.54
  A 1.01 0.74 -56.0 0 0 495.90 291.85
  Q 486.27 301.68 480.44 311.69
  Q 472.75 324.87 469.94 329.19
  Q 457.84 347.78 452.31 363.81
  Q 448.97 373.50 447.94 381.19
  Q 446.77 389.88 452.69 395.56
  Q 460.63 403.19 462.81 404.44
  Q 496.68 423.79 534.28 433.63
  Q 538.64 434.77 553.69 438.49
  Q 579.00 444.74 604.81 448.55
  Q 606.77 448.83 614.71 449.72
  Q 619.66 450.27 624.57 451.15
  Q 627.94 451.76 631.35 451.93
  Q 635.04 452.12 638.10 452.61
  Q 649.77 454.48 661.51 452.70
  Q 676.34 453.83 690.99 451.89
  Q 693.69 451.68 696.69 449.19
  Q 705.24 442.07 710.46 434.95
  Q 726.51 413.04 734.70 387.11
  Q 739.91 370.60 739.00 357.00
  Q 738.44 348.62 734.44 342.06
  Q 733.57 340.64 731.97 341.09
  A 1.01 0.71 -26.1 0 1 731.11 340.95
  L 729.54 339.50
  Q 730.23 339.48 729.57 338.96
  Q 714.50 326.98 696.87 319.21
  Q 661.02 303.42 622.35 296.96
  Q 614.12 295.59 584.25 290.25
  Q 579.26 289.36 575.10 289.00
  Q 569.13 288.47 565.98 287.83
  Q 559.62 286.53 553.25 285.21
  Q 548.80 282.50 543.98 283.86
  Q 543.72 283.93 543.99 283.86
  Q 547.71 282.88 550.25 285.54
  Q 544.42 285.65 538.77 284.39
  Q 533.95 283.50 529.05 283.50
  Q 528.94 283.50 527.97 283.38
  Q 526.61 283.21 526.50 284.96
  Z"
/>
<path fill="#5b5c5d" fill-opacity="0.996" d="
  M 677.23 284.09
  Q 678.72 286.09 680.56 286.94
  Q 681.55 287.40 683.00 286.96
  Q 705.83 300.76 717.19 308.06
  Q 718.02 308.60 718.75 309.71
  Q 719.45 310.79 720.24 311.31
  Q 725.05 314.55 730.02 317.56
  A 1.52 1.06 14.0 0 1 730.64 318.27
  L 730.79 318.75
  Q 730.84 319.38 730.36 319.11
  Q 726.73 317.05 722.68 315.99
  Q 724.63 314.55 722.43 314.34
  Q 721.91 314.29 721.51 314.03
  Q 716.47 310.73 711.45 307.40
  Q 711.36 307.34 701.57 300.51
  Q 693.59 294.93 684.89 290.52
  Q 681.44 288.77 675.56 285.27
  Q 670.14 282.05 664.19 279.81
  Q 652.10 275.28 639.54 272.25
  Q 639.50 271.63 639.75 271.04
  Q 640.67 269.75 641.56 270.69
  Q 642.93 272.13 644.40 271.69
  A 2.44 2.44 -28.0 0 1 646.99 272.48
  Q 648.13 273.88 649.80 273.21
  A 0.97 0.87 -36.5 0 1 650.65 273.29
  Q 652.81 274.77 655.44 274.82
  A 1.40 1.21 62.4 0 1 656.30 275.16
  Q 657.68 276.36 659.46 275.95
  A 1.07 0.98 -30.7 0 1 660.32 276.13
  Q 662.95 278.20 666.25 278.47
  Q 666.76 278.51 667.17 278.78
  Q 672.10 282.03 677.23 284.09
  Z"
/>
<path fill="#14171a" d="
  M 564.00 272.21
  Q 611.22 279.45 657.50 291.26
  Q 685.02 298.28 711.19 309.31
  Q 714.30 310.63 722.68 315.99
  Q 726.73 317.05 730.36 319.11
  Q 730.84 319.38 730.79 318.75
  Q 731.07 319.76 731.97 320.26
  Q 734.49 321.66 736.75 323.46
  Q 735.91 323.90 736.69 324.56
  Q 737.99 325.67 739.00 325.96
  L 741.91 328.13
  Q 741.78 329.62 740.92 329.65
  A 1.17 0.68 61.9 0 1 740.14 329.17
  Q 738.47 326.99 735.86 325.58
  Q 734.64 324.92 733.61 323.99
  Q 730.79 321.42 728.25 319.70
  Q 726.89 318.78 722.14 316.65
  Q 719.44 315.44 715.75 313.50
  Q 708.86 309.87 693.12 304.26
  Q 670.39 296.16 655.50 292.50
  Q 647.08 290.43 638.66 288.34
  Q 629.97 286.19 621.75 284.55
  Q 602.27 280.68 582.75 277.00
  Q 570.92 274.77 563.68 273.87
  A 1.18 1.01 -11.2 0 1 562.88 273.42
  Q 561.94 272.05 564.00 272.21
  Z"
/>
<path fill="#101110" d="
  M 499.75 275.21
  Q 500.18 275.32 500.34 275.71
  A 0.78 0.54 -32.4 0 1 500.02 276.48
  L 492.55 282.00
  A 1.34 1.28 68.2 0 0 492.04 283.26
  Q 492.40 285.59 490.00 285.33
  A 1.78 1.11 22.9 0 0 489.05 285.48
  Q 487.43 286.37 485.00 288.75
  Q 476.51 297.04 472.08 303.08
  Q 459.20 320.65 449.99 340.29
  Q 444.62 351.73 441.98 358.61
  Q 436.83 372.06 435.01 386.50
  Q 434.63 389.53 433.96 386.50
  Q 433.96 378.76 436.13 371.33
  Q 439.85 358.54 445.32 346.44
  Q 449.17 337.94 454.19 328.51
  Q 464.71 308.72 478.31 292.81
  Q 486.85 282.83 499.75 275.21
  Z"
/>
<path fill="#6b6b6b" d="
  M 538.77 284.39
  L 526.50 284.96
  Q 526.61 283.21 527.97 283.38
  Q 528.94 283.50 529.05 283.50
  Q 533.95 283.50 538.77 284.39
  Z"
/>
<path fill="#6b6b6b" d="
  M 553.25 285.21
  L 550.25 285.54
  Q 547.71 282.88 543.99 283.86
  Q 543.72 283.93 543.98 283.86
  Q 548.80 282.50 553.25 285.21
  Z"
/>
<path fill="#766f7a" fill-opacity="0.996" d="
  M 677.23 284.09
  Q 680.60 284.87 683.00 286.96
  Q 681.55 287.40 680.56 286.94
  Q 678.72 286.09 677.23 284.09
  Z"
/>
<path fill="#40b8ae" d="
  M 538.77 284.39
  Q 544.42 285.65 550.25 285.54
  L 553.25 285.21
  Q 559.62 286.53 565.98 287.83
  Q 569.13 288.47 575.10 289.00
  Q 579.26 289.36 584.25 290.25
  Q 614.12 295.59 622.35 296.96
  Q 661.02 303.42 696.87 319.21
  Q 714.50 326.98 729.57 338.96
  Q 730.23 339.48 729.54 339.50
  Q 719.19 332.11 709.69 327.31
  Q 672.42 308.49 630.52 300.98
  Q 619.14 298.94 618.99 298.91
  Q 608.40 296.91 597.79 294.98
  Q 597.76 294.97 584.24 292.29
  Q 574.11 290.27 561.50 288.75
  Q 543.42 286.56 527.50 288.04
  Q 525.32 287.57 525.11 285.20
  Q 525.57 284.87 526.50 284.96
  L 538.77 284.39
  Z"
/>
<path fill="#40b8ae" d="
  M 525.11 285.20
  Q 525.32 287.57 527.50 288.04
  Q 518.30 287.92 510.04 291.75
  L 510.00 291.04
  Q 512.70 289.96 512.33 287.11
  L 525.11 285.20
  Z"
/>
<path fill="#7cd3c7" d="
  M 512.33 287.11
  Q 512.70 289.96 510.00 291.04
  L 504.25 293.71
  Q 497.43 297.60 492.00 303.29
  Q 490.50 303.23 490.21 301.75
  L 496.25 294.21
  Q 500.21 292.96 503.43 290.06
  L 512.33 287.11
  Z"
/>
<path fill="#0d0d0d" d="
  M 729.54 339.50
  L 731.11 340.95
  A 1.01 0.71 -26.1 0 0 731.97 341.09
  Q 733.57 340.64 734.44 342.06
  Q 738.44 348.62 739.00 357.00
  Q 739.91 370.60 734.70 387.11
  Q 726.51 413.04 710.46 434.95
  Q 705.24 442.07 696.69 449.19
  Q 693.69 451.68 690.99 451.89
  Q 691.88 449.99 690.54 450.32
  Q 689.79 450.50 689.44 450.50
  Q 675.33 450.46 655.75 448.50
  Q 606.20 443.53 562.69 434.30
  Q 531.07 427.59 500.61 416.81
  Q 489.03 412.71 477.97 407.39
  Q 469.39 403.26 460.19 395.31
  Q 455.92 391.63 454.37 387.05
  Q 453.14 383.41 454.29 377.41
  Q 456.14 367.70 460.10 358.58
  Q 472.89 329.12 492.00 303.29
  Q 497.43 297.60 504.25 293.71
  Q 508.38 295.67 510.04 291.75
  Q 518.30 287.92 527.50 288.04
  Q 543.42 286.56 561.50 288.75
  Q 574.11 290.27 584.24 292.29
  Q 597.76 294.97 597.79 294.98
  Q 608.40 296.91 618.99 298.91
  Q 619.14 298.94 630.52 300.98
  Q 672.42 308.49 709.69 327.31
  Q 719.19 332.11 729.54 339.50
  Z
  M 564.62 315.49
  Q 555.11 322.08 565.75 322.71
  Q 573.11 326.02 581.16 326.24
  Q 582.18 326.26 583.32 326.51
  Q 584.79 326.84 585.50 326.75
  Q 587.63 326.48 589.41 327.40
  Q 591.50 328.49 591.57 328.52
  Q 601.68 332.53 608.50 332.75
  Q 613.76 332.92 617.32 333.72
  Q 621.02 334.55 622.76 334.85
  Q 624.94 335.23 628.25 336.00
  Q 632.24 336.92 639.83 337.17
  Q 645.45 337.34 650.07 338.24
  Q 661.88 340.54 673.71 342.72
  Q 677.95 343.50 678.18 339.48
  Q 678.30 337.39 676.27 337.00
  L 645.91 331.27
  A 3.25 3.02 -15.8 0 1 644.31 330.45
  Q 643.31 329.46 641.86 329.03
  Q 640.97 328.76 639.11 328.80
  Q 634.17 328.89 630.06 327.94
  Q 621.79 326.02 615.20 324.97
  Q 615.14 324.96 608.79 324.21
  Q 600.85 323.27 593.53 320.15
  Q 589.80 318.56 587.20 318.26
  Q 583.87 317.89 580.50 317.96
  Q 575.02 318.09 570.36 315.32
  A 1.72 1.30 -25.5 0 0 569.44 315.13
  L 564.62 315.49
  Z
  M 581.06 359.19
  Q 578.60 355.01 574.81 358.06
  Q 572.91 359.60 565.04 366.61
  Q 559.06 371.93 555.66 375.58
  Q 549.48 382.24 544.21 389.65
  Q 542.83 391.60 542.96 389.21
  Q 543.53 379.08 542.26 369.75
  Q 540.97 360.22 540.98 350.61
  Q 540.98 347.54 539.98 346.13
  Q 538.05 343.41 534.41 345.60
  A 2.94 2.91 75.4 0 0 533.01 348.01
  Q 532.65 359.56 534.13 370.83
  Q 535.00 377.41 535.00 382.23
  Q 535.00 388.43 535.00 394.62
  Q 535.00 397.64 535.82 399.23
  Q 536.95 401.41 539.17 402.83
  Q 542.12 404.72 544.19 402.44
  Q 548.99 397.16 555.20 388.60
  Q 555.64 388.00 557.70 385.79
  Q 558.84 384.57 560.00 382.75
  Q 561.84 379.87 565.78 377.21
  Q 566.16 376.95 566.40 376.50
  Q 567.10 375.18 568.28 374.28
  Q 575.26 368.93 581.29 362.83
  A 1.03 1.02 66.7 0 0 581.60 362.05
  Q 581.47 358.40 581.06 359.19
  Z
  M 635.76 346.39
  Q 639.45 346.91 643.77 347.00
  Q 645.98 347.05 643.95 346.17
  Q 640.32 344.61 635.74 345.50
  Q 633.08 346.02 635.76 346.39
  Z
  M 600.49 372.27
  Q 599.25 375.16 598.25 379.25
  Q 596.04 388.32 592.11 397.97
  Q 592.08 398.04 590.12 402.33
  Q 588.58 405.72 587.75 409.39
  Q 586.87 413.30 589.81 414.69
  Q 592.09 415.76 593.94 414.37
  Q 595.10 413.49 595.70 411.16
  Q 597.29 405.02 598.81 403.06
  Q 600.21 401.27 600.46 399.34
  A 0.75 0.75 3.8 0 1 601.22 398.68
  Q 609.77 398.79 617.59 398.76
  Q 618.88 398.75 619.72 399.38
  Q 620.67 400.10 621.37 401.04
  Q 622.26 402.23 622.34 404.20
  Q 622.54 408.86 622.05 413.50
  Q 621.48 418.91 626.06 421.19
  Q 628.36 422.33 631.22 422.65
  Q 631.39 422.67 633.73 423.07
  Q 636.08 423.48 637.44 421.94
  Q 639.84 419.22 637.88 416.86
  Q 636.89 415.67 634.57 415.03
  Q 632.69 414.51 630.79 414.05
  A 0.60 0.59 -82.5 0 1 630.33 413.44
  Q 630.51 408.87 630.51 404.31
  Q 630.51 401.17 629.77 399.30
  Q 628.77 396.79 626.88 394.99
  Q 626.08 394.22 627.17 394.05
  Q 630.74 393.51 633.41 391.90
  Q 636.80 389.86 638.27 388.32
  Q 639.88 386.64 640.08 384.18
  Q 640.11 383.82 639.92 379.81
  Q 639.68 374.44 638.94 373.06
  Q 636.52 368.58 632.46 365.74
  Q 630.32 364.24 627.14 363.92
  Q 619.80 363.17 612.41 363.44
  Q 611.32 363.48 609.70 362.96
  Q 608.31 362.52 606.85 362.61
  Q 606.74 362.62 604.75 363.22
  Q 603.84 363.50 602.50 363.50
  Q 598.62 363.50 594.73 363.50
  Q 591.62 363.50 590.14 364.80
  Q 587.49 367.11 590.13 370.66
  A 1.20 0.95 69.8 0 0 590.93 371.15
  L 600.19 371.83
  A 0.34 0.32 12.5 0 1 600.49 372.27
  Z"
/>
<path fill="#6b6b6b" d="
  M 503.43 290.06
  Q 500.21 292.96 496.25 294.21
  Q 496.47 292.92 497.46 292.00
  L 503.43 290.06
  Z"
/>
<path fill="#5b5c5d" fill-opacity="0.996" d="
  M 510.00 291.04
  L 510.04 291.75
  Q 508.38 295.67 504.25 293.71
  L 510.00 291.04
  Z"
/>
<path fill="#081818" d="
  M 497.46 292.00
  Q 496.47 292.92 496.25 294.21
  L 490.21 301.75
  Q 477.95 317.32 468.36 334.60
  Q 462.64 344.91 459.17 352.36
  Q 454.93 361.47 451.91 371.09
  Q 449.85 377.65 449.37 384.51
  Q 449.11 388.21 450.94 391.06
  Q 453.94 395.75 458.86 399.38
  Q 468.09 406.20 478.31 411.44
  Q 492.07 418.49 512.59 425.37
  Q 559.54 441.11 608.69 447.31
  Q 642.44 451.57 661.51 452.70
  Q 649.77 454.48 638.10 452.61
  Q 635.04 452.12 631.35 451.93
  Q 627.94 451.76 624.57 451.15
  Q 619.66 450.27 614.71 449.72
  Q 606.77 448.83 604.81 448.55
  Q 579.00 444.74 553.69 438.49
  Q 538.64 434.77 534.28 433.63
  Q 496.68 423.79 462.81 404.44
  Q 460.63 403.19 452.69 395.56
  Q 446.77 389.88 447.94 381.19
  Q 448.97 373.50 452.31 363.81
  Q 457.84 347.78 469.94 329.19
  Q 472.75 324.87 480.44 311.69
  Q 486.27 301.68 495.90 291.85
  A 1.01 0.74 -56.0 0 1 496.76 291.54
  Q 497.15 291.64 497.46 292.00
  Z"
/>
<path fill="#0ab6ad" d="
  M 490.21 301.75
  Q 490.50 303.23 492.00 303.29
  Q 472.89 329.12 460.10 358.58
  Q 456.14 367.70 454.29 377.41
  Q 453.14 383.41 454.37 387.05
  Q 455.92 391.63 460.19 395.31
  Q 469.39 403.26 477.97 407.39
  Q 489.03 412.71 500.61 416.81
  Q 531.07 427.59 562.69 434.30
  Q 606.20 443.53 655.75 448.50
  Q 675.33 450.46 689.44 450.50
  Q 689.79 450.50 690.54 450.32
  Q 691.88 449.99 690.99 451.89
  Q 676.34 453.83 661.51 452.70
  Q 642.44 451.57 608.69 447.31
  Q 559.54 441.11 512.59 425.37
  Q 492.07 418.49 478.31 411.44
  Q 468.09 406.20 458.86 399.38
  Q 453.94 395.75 450.94 391.06
  Q 449.11 388.21 449.37 384.51
  Q 449.85 377.65 451.91 371.09
  Q 454.93 361.47 459.17 352.36
  Q 462.64 344.91 468.36 334.60
  Q 477.95 317.32 490.21 301.75
  Z"
/>
<path fill="#766f7a" fill-opacity="0.996" d="
  M 335.04 302.75
  Q 336.97 303.03 336.50 304.79
  Q 334.86 304.41 335.04 302.75
  Z"
/>
<path fill="#a5a5a5" d="
  M 762.96 316.50
  Q 762.04 317.00 761.25 316.21
  Q 763.37 312.35 765.54 308.53
  Q 766.15 307.45 766.24 308.51
  Q 766.26 308.73 766.16 308.98
  Q 764.72 312.81 762.96 316.50
  Z"
/>
<path fill="#a5a5a5" d="
  M 346.82 312.10
  Q 343.35 311.51 341.49 308.82
  Q 344.89 309.41 346.82 312.10
  Z"
/>
<path fill="#00acaa" d="
  M 565.75 322.71
  Q 564.56 319.34 564.62 315.49
  L 569.44 315.13
  A 1.72 1.30 -25.5 0 1 570.36 315.32
  Q 575.02 318.09 580.50 317.96
  Q 583.87 317.89 587.20 318.26
  Q 589.80 318.56 593.53 320.15
  Q 600.85 323.27 608.79 324.21
  Q 615.14 324.96 615.20 324.97
  Q 621.79 326.02 630.06 327.94
  Q 634.17 328.89 639.11 328.80
  Q 640.97 328.76 641.86 329.03
  Q 643.31 329.46 644.31 330.45
  A 3.25 3.02 -15.8 0 0 645.91 331.27
  L 676.27 337.00
  Q 678.30 337.39 678.18 339.48
  Q 677.95 343.50 673.71 342.72
  Q 661.88 340.54 650.07 338.24
  Q 645.45 337.34 639.83 337.17
  Q 632.24 336.92 628.25 336.00
  Q 624.94 335.23 622.76 334.85
  Q 621.02 334.55 617.32 333.72
  Q 613.76 332.92 608.50 332.75
  Q 601.68 332.53 591.57 328.52
  Q 591.50 328.49 589.41 327.40
  Q 587.63 326.48 585.50 326.75
  Q 584.79 326.84 583.32 326.51
  Q 582.18 326.26 581.16 326.24
  Q 573.11 326.02 565.75 322.71
  Z"
/>
<path fill="#6b6b6b" d="
  M 358.00 317.21
  Q 355.80 317.44 354.21 315.75
  Q 356.66 314.85 358.00 317.21
  Z"
/>
<path fill="#40b8ae" d="
  M 564.62 315.49
  Q 564.56 319.34 565.75 322.71
  Q 555.11 322.08 564.62 315.49
  Z"
/>
<path fill="#518fb4" d="
  M 761.25 316.21
  Q 762.04 317.00 762.96 316.50
  L 752.00 341.79
  Q 749.47 339.13 749.51 335.98
  L 761.25 316.21
  Z"
/>
<path fill="#5b5c5d" fill-opacity="0.996" d="
  M 370.04 321.25
  Q 368.47 321.99 367.25 320.71
  Q 368.83 319.05 370.04 321.25
  Z"
/>
<path fill="#6b6b6b" d="
  M 375.29 322.75
  Q 373.97 324.21 372.71 322.50
  Q 374.10 321.25 375.29 322.75
  Z"
/>
<path fill="#766f7a" fill-opacity="0.996" d="
  M 736.75 323.46
  Q 738.94 323.80 739.00 325.96
  Q 737.99 325.67 736.69 324.56
  Q 735.91 323.90 736.75 323.46
  Z"
/>
<path fill="#766f7a" fill-opacity="0.996" d="
  M 380.54 324.50
  Q 379.32 325.92 378.00 324.21
  Q 379.29 323.16 380.54 324.50
  Z"
/>
<path fill="#424245" fill-opacity="0.996" d="
  M 384.79 325.50
  L 433.50 388.79
  Q 432.92 388.98 432.45 389.60
  Q 412.21 364.13 392.45 338.34
  Q 392.38 338.25 391.38 337.33
  Q 390.84 336.83 390.72 336.06
  A 1.70 0.77 -87.1 0 0 390.37 335.17
  Q 389.72 334.45 388.79 334.09
  A 1.11 0.84 7.3 0 1 388.15 333.46
  L 387.92 332.67
  Q 387.83 332.35 387.46 331.84
  L 383.71 326.75
  Q 383.71 325.74 384.79 325.50
  Z"
/>
<path fill="#aaaaaa" d="
  M 581.06 359.19
  Q 581.47 358.40 581.60 362.05
  A 1.03 1.02 66.7 0 1 581.29 362.83
  Q 575.26 368.93 568.28 374.28
  Q 567.10 375.18 566.40 376.50
  Q 566.16 376.95 565.78 377.21
  Q 561.84 379.87 560.00 382.75
  Q 558.84 384.57 557.70 385.79
  Q 555.64 388.00 555.20 388.60
  Q 548.99 397.16 544.19 402.44
  Q 542.12 404.72 539.17 402.83
  Q 536.95 401.41 535.82 399.23
  Q 535.00 397.64 535.00 394.62
  Q 535.00 388.43 535.00 382.23
  Q 535.00 377.41 534.13 370.83
  Q 532.65 359.56 533.01 348.01
  A 2.94 2.91 75.4 0 1 534.41 345.60
  Q 538.05 343.41 539.98 346.13
  Q 540.98 347.54 540.98 350.61
  Q 540.97 360.22 542.26 369.75
  Q 543.53 379.08 542.96 389.21
  Q 542.83 391.60 544.21 389.65
  Q 549.48 382.24 555.66 375.58
  Q 559.06 371.93 565.04 366.61
  Q 572.91 359.60 574.81 358.06
  Q 578.60 355.01 581.06 359.19
  Z"
/>
<path fill="#1c1d1d" d="
  M 635.76 346.39
  Q 633.08 346.02 635.74 345.50
  Q 640.32 344.61 643.95 346.17
  Q 645.98 347.05 643.77 347.00
  Q 639.45 346.91 635.76 346.39
  Z"
/>
<path fill="#aaaaaa" d="
  M 600.19 371.83
  L 590.93 371.15
  A 1.20 0.95 69.8 0 1 590.13 370.66
  Q 587.49 367.11 590.14 364.80
  Q 591.62 363.50 594.73 363.50
  Q 598.62 363.50 602.50 363.50
  Q 603.84 363.50 604.75 363.22
  Q 606.74 362.62 606.85 362.61
  Q 608.31 362.52 609.70 362.96
  Q 611.32 363.48 612.41 363.44
  Q 619.80 363.17 627.14 363.92
  Q 630.32 364.24 632.46 365.74
  Q 636.52 368.58 638.94 373.06
  Q 639.68 374.44 639.92 379.81
  Q 640.11 383.82 640.08 384.18
  Q 639.88 386.64 638.27 388.32
  Q 636.80 389.86 633.41 391.90
  Q 630.74 393.51 627.17 394.05
  Q 626.08 394.22 626.88 394.99
  Q 628.77 396.79 629.77 399.30
  Q 630.51 401.17 630.51 404.31
  Q 630.51 408.87 630.33 413.44
  A 0.60 0.59 -82.5 0 0 630.79 414.05
  Q 632.69 414.51 634.57 415.03
  Q 636.89 415.67 637.88 416.86
  Q 639.84 419.22 637.44 421.94
  Q 636.08 423.48 633.73 423.07
  Q 631.39 422.67 631.22 422.65
  Q 628.36 422.33 626.06 421.19
  Q 621.48 418.91 622.05 413.50
  Q 622.54 408.86 622.34 404.20
  Q 622.26 402.23 621.37 401.04
  Q 620.67 400.10 619.72 399.38
  Q 618.88 398.75 617.59 398.76
  Q 609.77 398.79 601.22 398.68
  A 0.75 0.75 3.8 0 0 600.46 399.34
  Q 600.21 401.27 598.81 403.06
  Q 597.29 405.02 595.70 411.16
  Q 595.10 413.49 593.94 414.37
  Q 592.09 415.76 589.81 414.69
  Q 586.87 413.30 587.75 409.39
  Q 588.58 405.72 590.12 402.33
  Q 592.08 398.04 592.11 397.97
  Q 596.04 388.32 598.25 379.25
  Q 599.25 375.16 600.49 372.27
  A 0.34 0.32 12.5 0 0 600.19 371.83
  Z
  M 604.25 389.94
  Q 614.16 391.18 622.17 387.23
  Q 623.63 386.51 626.06 386.00
  Q 629.32 385.32 631.61 382.81
  A 1.19 1.15 65.2 0 0 631.91 381.95
  Q 631.58 376.84 631.06 375.94
  Q 629.02 372.41 625.50 371.77
  Q 625.32 371.74 619.00 371.74
  Q 614.91 371.73 610.82 371.80
  A 1.03 0.95 15.6 0 0 610.02 372.21
  Q 608.29 374.70 606.69 379.94
  Q 605.28 384.55 603.88 389.38
  A 0.44 0.44 -78.8 0 0 604.25 389.94
  Z"
/>
<path fill="#0d0d0d" d="
  M 753.89 367.52
  Q 753.61 372.04 752.00 376.22
  A 1.82 1.29 56.9 0 0 751.96 377.17
  Q 752.31 378.72 751.17 379.97
  A 0.82 0.79 58.2 0 0 751.00 380.77
  Q 751.50 382.25 750.25 383.75
  Q 749.53 384.61 749.86 386.02
  A 1.19 1.13 55.4 0 1 749.72 386.92
  Q 748.19 389.28 748.07 392.07
  A 1.51 1.37 -25.9 0 1 747.72 392.94
  Q 745.88 395.13 745.92 397.93
  A 1.64 1.43 66.0 0 1 745.64 398.84
  Q 743.68 401.56 742.71 404.75
  Q 740.04 406.18 740.63 409.11
  L 736.71 417.00
  Q 734.25 419.54 732.71 422.75
  Q 727.43 430.60 723.12 439.00
  L 718.44 445.15
  Q 715.67 445.75 715.50 448.71
  Q 713.94 449.58 713.21 451.25
  Q 710.65 451.65 710.00 454.21
  Q 709.22 454.85 708.75 455.79
  Q 706.58 455.82 706.04 458.00
  Q 704.24 461.33 700.50 462.21
  Q 700.49 461.44 701.22 461.25
  Q 701.48 461.18 701.23 461.09
  Q 700.67 460.87 701.31 460.31
  Q 713.81 449.49 722.74 436.52
  Q 727.66 429.39 733.36 419.59
  Q 746.97 396.23 752.00 369.00
  Q 752.30 367.40 753.89 367.52
  Z"
/>
<path fill="#0d0d0d" d="
  M 604.25 389.94
  A 0.44 0.44 -78.8 0 1 603.88 389.38
  Q 605.28 384.55 606.69 379.94
  Q 608.29 374.70 610.02 372.21
  A 1.03 0.95 15.6 0 1 610.82 371.80
  Q 614.91 371.73 619.00 371.74
  Q 625.32 371.74 625.50 371.77
  Q 629.02 372.41 631.06 375.94
  Q 631.58 376.84 631.91 381.95
  A 1.19 1.15 65.2 0 1 631.61 382.81
  Q 629.32 385.32 626.06 386.00
  Q 623.63 386.51 622.17 387.23
  Q 614.16 391.18 604.25 389.94
  Z"
/>
<path fill="#766f7a" fill-opacity="0.996" d="
  M 742.71 404.75
  Q 742.63 407.17 740.63 409.11
  Q 740.04 406.18 742.71 404.75
  Z"
/>
<path fill="#0d0d0d" d="
  M 607.21 460.00
  Q 558.27 453.61 510.92 439.71
  Q 510.48 439.58 510.08 439.21
  Q 508.95 438.18 507.97 438.51
  A 2.77 2.76 54.7 0 1 505.37 438.06
  Q 503.13 436.28 501.29 436.57
  A 1.23 1.07 -28.7 0 1 500.42 436.38
  Q 498.71 435.11 496.25 434.75
  Q 494.76 434.53 493.26 433.68
  Q 491.80 432.86 490.39 432.55
  Q 487.05 431.82 484.27 429.80
  Q 482.37 428.03 480.25 428.54
  Q 475.16 425.71 474.06 424.94
  Q 472.84 424.08 471.71 424.34
  A 1.34 0.99 -30.6 0 1 470.83 424.25
  L 455.03 414.97
  L 449.71 411.25
  L 450.22 410.52
  A 0.49 0.40 -54.0 0 1 450.84 410.36
  Q 451.75 411.04 452.60 411.80
  Q 453.52 412.61 454.43 413.11
  Q 462.11 417.37 469.63 421.93
  A 1.50 0.91 -23.7 0 0 470.54 422.05
  Q 471.07 421.96 471.56 422.19
  Q 477.52 424.91 478.94 426.06
  Q 480.49 427.32 482.01 427.29
  Q 482.56 427.28 482.95 427.48
  Q 487.96 430.05 493.30 431.85
  Q 493.39 431.88 494.14 432.27
  Q 494.57 432.50 495.03 432.42
  A 1.63 0.68 -21.3 0 1 495.96 432.44
  Q 500.68 434.36 505.49 436.06
  Q 505.87 436.19 508.08 436.55
  Q 509.01 436.69 509.82 437.17
  Q 510.92 437.81 511.42 437.97
  Q 523.57 442.00 539.81 445.94
  Q 573.62 454.14 602.69 458.06
  Q 605.72 458.47 607.21 460.00
  Z"
/>
<path fill="#766f7a" fill-opacity="0.996" d="
  M 736.71 417.00
  Q 735.91 420.34 733.75 423.04
  Q 732.85 423.40 732.71 422.75
  Q 734.25 419.54 736.71 417.00
  Z"
/>
<path fill="#766f7a" fill-opacity="0.996" d="
  M 732.71 422.75
  Q 732.85 423.40 733.75 423.04
  Q 729.23 431.50 723.12 439.00
  Q 727.43 430.60 732.71 422.75
  Z"
/>
<path fill="#424245" fill-opacity="0.996" d="
  M 484.27 429.80
  Q 481.93 430.62 480.25 428.54
  Q 482.37 428.03 484.27 429.80
  Z"
/>
<path fill="#6b6b6b" d="
  M 718.44 445.15
  Q 717.66 447.77 715.50 448.71
  Q 715.67 445.75 718.44 445.15
  Z"
/>
<path fill="#6b6b6b" d="
  M 713.21 451.25
  Q 712.57 453.87 710.00 454.21
  Q 710.65 451.65 713.21 451.25
  Z"
/>
<path fill="#4d4d4d" d="
  M 708.75 455.79
  Q 708.31 458.05 706.04 458.00
  Q 706.58 455.82 708.75 455.79
  Z"
/>
<path fill="#518fb4" d="
  M 380.92 978.30
  A 1.84 1.84 31.4 0 1 380.32 975.83
  L 518.71 736.07
  Q 520.00 733.83 520.00 736.42
  Q 520.00 847.87 520.00 959.25
  Q 520.00 966.16 518.05 971.57
  Q 516.55 975.72 513.68 978.00
  Q 510.56 980.48 506.25 981.25
  Q 502.26 981.96 499.25 981.96
  Q 446.50 982.00 393.75 982.03
  Q 386.75 982.03 380.92 978.30
  Z"
/>
</svg>
