<?xml version="1.0" encoding="UTF-8" standalone="no"?>
<!DOCTYPE svg PUBLIC "-//W3C//DTD SVG 1.1//EN" "http://www.w3.org/Graphics/SVG/1.1/DTD/svg11.dtd">
<svg xmlns="http://www.w3.org/2000/svg" version="1.1" viewBox="0 0 370 370">
<g stroke-width="2.00" fill="none" stroke-linecap="butt">
<path stroke="#fbcc8f" vector-effect="non-scaling-stroke" d="
  M 224.70 227.46
  Q 220.85 224.92 220.73 218.49
  A 1.49 1.39 88.6 0 0 219.30 217.03
  L 211.96 217.23
  A 0.83 0.77 86.6 0 0 211.22 218.13
  Q 211.54 221.94 212.45 225.26
  Q 213.56 229.30 216.43 231.89
  Q 218.89 234.11 223.03 235.21
  Q 229.64 236.97 236.50 235.00
  Q 244.83 232.61 247.02 225.21
  Q 248.25 221.07 247.99 216.75
  Q 247.71 211.95 244.69 208.56
  Q 241.61 205.11 236.16 203.23
  Q 231.44 201.59 231.41 201.58
  Q 227.03 199.82 225.81 198.94
  Q 219.74 194.54 222.55 187.23
  Q 223.89 183.74 226.81 183.31
  Q 237.26 181.80 237.43 192.06
  A 0.56 0.48 88.9 0 0 237.92 192.61
  L 245.75 192.56
  A 0.62 0.56 -87.7 0 0 246.30 192.00
  Q 247.06 183.83 241.66 179.50
  Q 238.21 176.73 232.62 176.22
  Q 227.47 175.75 222.75 177.25
  Q 213.48 180.19 212.46 190.25
  Q 211.37 200.98 219.26 205.92
  Q 220.92 206.96 226.99 209.00
  Q 232.15 210.74 234.69 212.31
  Q 238.13 214.45 238.47 218.50
  Q 239.15 226.67 233.18 228.45
  Q 228.37 229.88 224.70 227.46"
/>
<path stroke="#fbcc8f" vector-effect="non-scaling-stroke" d="
  M 190.51 220.25
  Q 190.29 221.63 190.00 220.26
  Q 186.54 203.72 184.08 187.02
  Q 183.88 185.70 183.14 182.56
  Q 182.59 180.28 182.45 178.03
  A 0.90 0.85 -1.0 0 0 181.58 177.23
  L 173.23 177.00
  A 0.73 0.69 5.4 0 0 172.49 177.57
  L 165.20 219.54
  Q 164.85 221.55 164.51 219.54
  L 157.57 178.32
  A 1.22 1.17 85.1 0 0 156.41 177.30
  L 148.50 177.26
  A 0.43 0.42 85.0 0 0 148.08 177.77
  L 158.97 234.19
  A 0.63 0.61 84.2 0 0 159.57 234.70
  L 169.19 234.75
  A 0.71 0.70 -84.7 0 0 169.89 234.16
  L 176.67 193.00
  Q 176.75 192.51 176.89 192.99
  Q 178.77 199.56 179.00 201.25
  Q 181.26 217.78 184.83 234.08
  A 0.68 0.61 83.0 0 0 185.44 234.61
  L 194.81 234.61
  A 0.67 0.60 -83.5 0 0 195.41 234.08
  L 206.65 178.00
  A 0.47 0.42 -83.8 0 0 206.25 177.44
  L 197.93 177.39
  A 0.63 0.55 -84.1 0 0 197.36 177.92
  L 190.51 220.25"
/>
<path stroke="#fbcc8f" vector-effect="non-scaling-stroke" d="
  M 106.84 234.73
  L 115.06 234.60
  A 0.94 0.79 -82.5 0 0 115.85 233.88
  L 118.90 221.41
  A 0.78 0.76 -83.3 0 1 119.64 220.81
  L 134.85 220.80
  A 1.53 1.41 82.0 0 1 136.24 221.94
  L 139.42 234.21
  A 0.67 0.67 -7.2 0 0 140.07 234.71
  L 148.44 234.71
  A 0.40 0.39 82.0 0 0 148.81 234.20
  L 134.08 178.07
  A 1.11 1.09 -7.1 0 0 133.01 177.25
  L 123.07 177.25
  A 1.18 1.17 7.8 0 0 121.94 178.10
  L 106.14 233.75
  A 0.77 0.73 -82.0 0 0 106.84 234.73"
/>
<path stroke="#fbcc8f" vector-effect="non-scaling-stroke" d="
  M 127.71 186.13
  Q 123.87 199.23 121.28 212.57
  A 0.44 0.43 -83.8 0 0 121.69 213.09
  L 133.37 213.22
  A 0.80 0.77 83.5 0 0 134.12 212.24
  L 128.06 186.14
  Q 127.90 185.45 127.71 186.13"
/>
</g>
<path fill="#f7981e" d="
  M 251.81 148.69
  Q 261.05 157.01 261.79 170.19
  A 0.58 0.56 -89.5 0 0 262.30 170.73
  Q 267.99 171.27 271.25 172.50
  Q 293.47 180.90 302.25 201.34
  Q 306.48 211.18 305.76 220.78
  Q 304.63 235.92 293.06 246.81
  Q 278.19 260.82 257.05 261.47
  Q 256.93 261.47 253.99 261.79
  Q 252.12 262.00 249.69 261.56
  Q 245.55 260.82 241.43 261.64
  Q 237.95 262.34 233.24 261.20
  Q 231.52 260.78 229.82 261.27
  Q 225.68 262.47 220.54 261.31
  Q 217.01 260.51 213.51 261.53
  Q 210.12 262.51 206.75 261.50
  Q 203.27 260.45 198.22 261.47
  Q 195.90 261.94 193.75 261.62
  Q 188.15 260.80 184.75 261.50
  Q 181.59 262.15 179.32 261.76
  Q 177.17 261.39 177.16 261.39
  Q 173.62 261.08 170.13 261.57
  Q 167.73 261.91 165.36 261.57
  Q 160.41 260.87 155.75 261.75
  Q 153.64 262.15 151.77 261.82
  Q 149.27 261.38 149.18 261.37
  Q 145.63 261.09 142.12 261.55
  Q 139.43 261.91 136.88 261.60
  Q 132.04 261.03 127.20 261.62
  Q 124.88 261.91 122.30 261.54
  Q 118.55 261.00 114.75 261.49
  Q 111.88 261.86 109.04 261.51
  Q 105.20 261.05 103.41 260.90
  Q 98.12 260.48 92.25 258.25
  Q 80.44 253.77 72.49 245.76
  Q 56.08 229.25 61.81 207.06
  Q 65.83 191.52 78.59 180.51
  Q 81.56 177.94 84.60 176.32
  Q 87.73 174.65 91.35 173.38
  A 1.73 1.73 -9.8 0 0 92.50 171.75
  Q 92.50 151.03 103.85 135.07
  Q 113.02 122.20 126.60 115.21
  Q 135.43 110.66 145.52 108.98
  Q 166.36 105.50 184.81 115.94
  Q 202.66 126.04 211.37 143.55
  A 1.69 1.69 -26.3 0 0 213.62 144.31
  Q 235.19 133.71 251.81 148.69
  Z
  M 224.70 227.46
  Q 220.85 224.92 220.73 218.49
  A 1.49 1.39 88.6 0 0 219.30 217.03
  L 211.96 217.23
  A 0.83 0.77 86.6 0 0 211.22 218.13
  Q 211.54 221.94 212.45 225.26
  Q 213.56 229.30 216.43 231.89
  Q 218.89 234.11 223.03 235.21
  Q 229.64 236.97 236.50 235.00
  Q 244.83 232.61 247.02 225.21
  Q 248.25 221.07 247.99 216.75
  Q 247.71 211.95 244.69 208.56
  Q 241.61 205.11 236.16 203.23
  Q 231.44 201.59 231.41 201.58
  Q 227.03 199.82 225.81 198.94
  Q 219.74 194.54 222.55 187.23
  Q 223.89 183.74 226.81 183.31
  Q 237.26 181.80 237.43 192.06
  A 0.56 0.48 88.9 0 0 237.92 192.61
  L 245.75 192.56
  A 0.62 0.56 -87.7 0 0 246.30 192.00
  Q 247.06 183.83 241.66 179.50
  Q 238.21 176.73 232.62 176.22
  Q 227.47 175.75 222.75 177.25
  Q 213.48 180.19 212.46 190.25
  Q 211.37 200.98 219.26 205.92
  Q 220.92 206.96 226.99 209.00
  Q 232.15 210.74 234.69 212.31
  Q 238.13 214.45 238.47 218.50
  Q 239.15 226.67 233.18 228.45
  Q 228.37 229.88 224.70 227.46
  Z
  M 190.51 220.25
  Q 190.29 221.63 190.00 220.26
  Q 186.54 203.72 184.08 187.02
  Q 183.88 185.70 183.14 182.56
  Q 182.59 180.28 182.45 178.03
  A 0.90 0.85 -1.0 0 0 181.58 177.23
  L 173.23 177.00
  A 0.73 0.69 5.4 0 0 172.49 177.57
  L 165.20 219.54
  Q 164.85 221.55 164.51 219.54
  L 157.57 178.32
  A 1.22 1.17 85.1 0 0 156.41 177.30
  L 148.50 177.26
  A 0.43 0.42 85.0 0 0 148.08 177.77
  L 158.97 234.19
  A 0.63 0.61 84.2 0 0 159.57 234.70
  L 169.19 234.75
  A 0.71 0.70 -84.7 0 0 169.89 234.16
  L 176.67 193.00
  Q 176.75 192.51 176.89 192.99
  Q 178.77 199.56 179.00 201.25
  Q 181.26 217.78 184.83 234.08
  A 0.68 0.61 83.0 0 0 185.44 234.61
  L 194.81 234.61
  A 0.67 0.60 -83.5 0 0 195.41 234.08
  L 206.65 178.00
  A 0.47 0.42 -83.8 0 0 206.25 177.44
  L 197.93 177.39
  A 0.63 0.55 -84.1 0 0 197.36 177.92
  L 190.51 220.25
  Z
  M 106.84 234.73
  L 115.06 234.60
  A 0.94 0.79 -82.5 0 0 115.85 233.88
  L 118.90 221.41
  A 0.78 0.76 -83.3 0 1 119.64 220.81
  L 134.85 220.80
  A 1.53 1.41 82.0 0 1 136.24 221.94
  L 139.42 234.21
  A 0.67 0.67 -7.2 0 0 140.07 234.71
  L 148.44 234.71
  A 0.40 0.39 82.0 0 0 148.81 234.20
  L 134.08 178.07
  A 1.11 1.09 -7.1 0 0 133.01 177.25
  L 123.07 177.25
  A 1.18 1.17 7.8 0 0 121.94 178.10
  L 106.14 233.75
  A 0.77 0.73 -82.0 0 0 106.84 234.73
  Z"
/>
<path fill="#ffffff" d="
  M 233.18 228.45
  Q 239.15 226.67 238.47 218.50
  Q 238.13 214.45 234.69 212.31
  Q 232.15 210.74 226.99 209.00
  Q 220.92 206.96 219.26 205.92
  Q 211.37 200.98 212.46 190.25
  Q 213.48 180.19 222.75 177.25
  Q 227.47 175.75 232.62 176.22
  Q 238.21 176.73 241.66 179.50
  Q 247.06 183.83 246.30 192.00
  A 0.62 0.56 -87.7 0 1 245.75 192.56
  L 237.92 192.61
  A 0.56 0.48 88.9 0 1 237.43 192.06
  Q 237.26 181.80 226.81 183.31
  Q 223.89 183.74 222.55 187.23
  Q 219.74 194.54 225.81 198.94
  Q 227.03 199.82 231.41 201.58
  Q 231.44 201.59 236.16 203.23
  Q 241.61 205.11 244.69 208.56
  Q 247.71 211.95 247.99 216.75
  Q 248.25 221.07 247.02 225.21
  Q 244.83 232.61 236.50 235.00
  Q 229.64 236.97 223.03 235.21
  Q 218.89 234.11 216.43 231.89
  Q 213.56 229.30 212.45 225.26
  Q 211.54 221.94 211.22 218.13
  A 0.83 0.77 86.6 0 1 211.96 217.23
  L 219.30 217.03
  A 1.49 1.39 88.6 0 1 220.73 218.49
  Q 220.85 224.92 224.70 227.46
  Q 228.37 229.88 233.18 228.45
  Z"
/>
<path fill="#ffffff" d="
  M 190.51 220.25
  L 197.36 177.92
  A 0.63 0.55 -84.1 0 1 197.93 177.39
  L 206.25 177.44
  A 0.47 0.42 -83.8 0 1 206.65 178.00
  L 195.41 234.08
  A 0.67 0.60 -83.5 0 1 194.81 234.61
  L 185.44 234.61
  A 0.68 0.61 83.0 0 1 184.83 234.08
  Q 181.26 217.78 179.00 201.25
  Q 178.77 199.56 176.89 192.99
  Q 176.75 192.51 176.67 193.00
  L 169.89 234.16
  A 0.71 0.70 -84.7 0 1 169.19 234.75
  L 159.57 234.70
  A 0.63 0.61 84.2 0 1 158.97 234.19
  L 148.08 177.77
  A 0.43 0.42 85.0 0 1 148.50 177.26
  L 156.41 177.30
  A 1.22 1.17 85.1 0 1 157.57 178.32
  L 164.51 219.54
  Q 164.85 221.55 165.20 219.54
  L 172.49 177.57
  A 0.73 0.69 5.4 0 1 173.23 177.00
  L 181.58 177.23
  A 0.90 0.85 -1.0 0 1 182.45 178.03
  Q 182.59 180.28 183.14 182.56
  Q 183.88 185.70 184.08 187.02
  Q 186.54 203.72 190.00 220.26
  Q 190.29 221.63 190.51 220.25
  Z"
/>
<path fill="#ffffff" d="
  M 106.84 234.73
  A 0.77 0.73 -82.0 0 1 106.14 233.75
  L 121.94 178.10
  A 1.18 1.17 7.8 0 1 123.07 177.25
  L 133.01 177.25
  A 1.11 1.09 -7.1 0 1 134.08 178.07
  L 148.81 234.20
  A 0.40 0.39 82.0 0 1 148.44 234.71
  L 140.07 234.71
  A 0.67 0.67 -7.2 0 1 139.42 234.21
  L 136.24 221.94
  A 1.53 1.41 82.0 0 0 134.85 220.80
  L 119.64 220.81
  A 0.78 0.76 -83.3 0 0 118.90 221.41
  L 115.85 233.88
  A 0.94 0.79 -82.5 0 1 115.06 234.60
  L 106.84 234.73
  Z
  M 127.71 186.13
  Q 123.87 199.23 121.28 212.57
  A 0.44 0.43 -83.8 0 0 121.69 213.09
  L 133.37 213.22
  A 0.80 0.77 83.5 0 0 134.12 212.24
  L 128.06 186.14
  Q 127.90 185.45 127.71 186.13
  Z"
/>
<path fill="#f7981e" d="
  M 127.71 186.13
  Q 127.90 185.45 128.06 186.14
  L 134.12 212.24
  A 0.80 0.77 83.5 0 1 133.37 213.22
  L 121.69 213.09
  A 0.44 0.43 -83.8 0 1 121.28 212.57
  Q 123.87 199.23 127.71 186.13
  Z"
/>
</svg>
