<?xml version="1.0" encoding="UTF-8" standalone="no"?>
<!DOCTYPE svg PUBLIC "-//W3C//DTD SVG 1.1//EN" "http://www.w3.org/Graphics/SVG/1.1/DTD/svg11.dtd">
<svg xmlns="http://www.w3.org/2000/svg" version="1.1" viewBox="0 0 370 370">
<g stroke-width="2.00" fill="none" stroke-linecap="butt">
<path stroke="#087679" vector-effect="non-scaling-stroke" d="
  M 201.46 185.50
  Q 192.88 204.42 185.29 223.75"
/>
<path stroke="#087679" vector-effect="non-scaling-stroke" d="
  M 169.32 185.27
  L 185.61 146.80"
/>
<path stroke="#0d1840" vector-effect="non-scaling-stroke" d="
  M 66.96 228.00
  Q 67.65 225.52 66.00 223.54"
/>
<path stroke="#4d526f" vector-effect="non-scaling-stroke" d="
  M 65.27 217.49
  Q 65.09 204.70 62.48 192.14"
/>
<path stroke="#4d526f" vector-effect="non-scaling-stroke" d="
  M 62.04 178.00
  Q 62.66 178.11 63.12 177.83
  A 1.18 0.73 84.1 0 0 63.53 176.99
  L 64.96 156.75"
/>
<path stroke="#0d1840" vector-effect="non-scaling-stroke" d="
  M 64.96 156.75
  L 67.00 141.45"
/>
<path stroke="#4d526f" vector-effect="non-scaling-stroke" d="
  M 64.96 156.75
  L 64.29 156.75"
/>
<path stroke="#076e75" vector-effect="non-scaling-stroke" d="
  M 122.86 84.31
  Q 121.48 83.46 120.89 85.34
  Q 120.06 87.97 120.28 90.65
  Q 120.46 92.89 120.78 93.83
  Q 121.59 96.20 124.58 94.83
  A 1.67 1.66 -14.3 0 0 125.55 93.20
  Q 125.16 87.58 125.24 82.55
  Q 125.25 81.66 125.05 80.97
  Q 124.20 78.03 123.94 83.74
  A 0.71 0.71 17.1 0 1 122.86 84.31"
/>
<path stroke="#076e75" vector-effect="non-scaling-stroke" d="
  M 127.25 91.54
  Q 126.52 93.72 127.50 95.00
  Q 129.14 97.14 130.82 95.05
  Q 131.53 94.17 130.41 94.26
  Q 127.59 94.47 127.71 91.50"
/>
<path stroke="#076e75" vector-effect="non-scaling-stroke" d="
  M 127.71 91.50
  Q 128.38 90.77 130.17 91.76
  A 0.92 0.91 20.1 0 0 131.52 91.14
  Q 132.09 88.18 130.44 85.56
  Q 128.74 82.88 127.56 85.81
  Q 126.44 88.61 127.25 91.54"
/>
<path stroke="#01c3a9" vector-effect="non-scaling-stroke" d="
  M 127.71 91.50
  L 127.25 91.54"
/>
<path stroke="#076e75" vector-effect="non-scaling-stroke" d="
  M 116.3497 96.7399
  A 5.68 2.70 89.6 0 0 119.0099 91.0412
  A 5.68 2.70 89.6 0 0 116.2703 85.3801
  A 5.68 2.70 89.6 0 0 113.6101 91.0788
  A 5.68 2.70 89.6 0 0 116.3497 96.7399"
/>
<path stroke="#076e75" vector-effect="non-scaling-stroke" d="
  M 110.73 97.07
  Q 108.00 93.97 110.23 90.41
  A 1.13 0.93 8.5 0 1 111.00 89.95
  Q 113.45 89.63 111.69 88.06
  Q 110.12 86.66 109.06 89.56
  Q 107.28 94.45 109.81 98.94
  Q 111.00 101.05 112.50 98.50
  Q 115.44 93.48 111.44 97.10
  A 0.51 0.48 -41.1 0 1 110.73 97.07"
/>
<path stroke="#026b5e" vector-effect="non-scaling-stroke" d="
  M 241.25 85.27
  A 0.96 0.93 -78.5 0 0 240.51 85.78
  Q 238.41 89.83 240.22 94.48
  Q 241.27 97.19 243.31 95.06
  A 3.35 1.14 -40.7 0 0 244.56 92.94
  Q 244.47 87.55 244.04 82.19
  Q 244.00 81.74 243.86 81.34
  Q 242.77 78.29 243.49 82.96
  Q 243.81 85.01 241.25 85.27"
/>
<path stroke="#026b5e" vector-effect="non-scaling-stroke" d="
  M 260.3076 82.2212
  A 0.32 0.32 0.0 0 0 260.0246 81.8680
  L 259.7861 81.8417
  A 0.32 0.32 0.0 0 0 259.4329 82.1247
  L 257.8724 96.2588
  A 0.32 0.32 0.0 0 0 258.1554 96.6120
  L 258.3939 96.6383
  A 0.32 0.32 0.0 0 0 258.7471 96.3553
  L 260.3076 82.2212"
/>
<path stroke="#026b5e" vector-effect="non-scaling-stroke" d="
  M 247.68 93.02
  Q 246.74 91.80 247.15 90.28
  A 0.84 0.57 0.3 0 1 247.82 89.83
  L 249.96 89.57
  A 0.75 0.63 -88.2 0 0 250.52 88.94
  Q 250.86 86.58 249.69 84.56
  Q 248.10 81.83 246.81 84.81
  Q 244.77 89.56 247.40 94.46
  A 0.92 0.92 -34.9 0 0 248.82 94.71
  Q 251.64 92.23 248.46 93.26
  A 0.72 0.71 61.8 0 1 247.68 93.02"
/>
<path stroke="#026b5e" vector-effect="non-scaling-stroke" d="
  M 252.79 94.81
  Q 252.90 93.58 253.71 94.52
  Q 255.00 96.00 255.68 94.93
  Q 258.82 90.05 255.96 85.24
  A 1.34 1.15 78.5 0 0 255.21 84.66
  Q 254.08 84.37 252.96 84.80
  A 0.80 0.79 -8.5 0 0 252.44 85.50
  L 251.57 97.57
  A 0.76 0.56 -75.3 0 0 251.82 98.20
  Q 252.15 98.42 252.29 97.81
  Q 252.66 96.20 252.79 94.81"
/>
<path stroke="#026b5e" vector-effect="non-scaling-stroke" d="
  M 263.3414 99.5299
  A 5.53 2.59 90.4 0 0 265.9699 94.0181
  A 5.53 2.59 90.4 0 0 263.4186 88.4701
  A 5.53 2.59 90.4 0 0 260.7901 93.9819
  A 5.53 2.59 90.4 0 0 263.3414 99.5299"
/>
<path stroke="#026b5e" vector-effect="non-scaling-stroke" d="
  M 268.55 100.09
  Q 268.42 96.85 268.28 93.26
  Q 268.19 90.97 267.58 92.74
  Q 267.50 92.99 267.50 93.27
  Q 267.52 96.90 267.50 100.53
  Q 267.50 100.63 267.59 101.96
  Q 267.75 104.27 265.56 103.92
  A 0.36 0.32 -1.1 0 0 265.15 104.30
  Q 265.56 105.98 267.11 105.30
  A 1.69 1.23 -80.6 0 0 267.80 104.62
  L 271.70 97.37
  A 1.14 0.67 -52.0 0 0 271.82 96.46
  Q 271.32 95.48 269.06 100.19
  Q 268.59 101.18 268.55 100.09"
/>
<path stroke="#076e75" vector-effect="non-scaling-stroke" d="
  M 122.6944 93.6598
  A 3.94 1.52 89.5 0 0 124.1799 89.7067
  A 3.94 1.52 89.5 0 0 122.6256 85.7802
  A 3.94 1.52 89.5 0 0 121.1401 89.7333
  A 3.94 1.52 89.5 0 0 122.6944 93.6598"
/>
<path stroke="#026b5e" vector-effect="non-scaling-stroke" d="
  M 242.1743 94.6594
  A 4.26 1.61 89.0 0 0 243.7098 90.3719
  A 4.26 1.61 89.0 0 0 242.0257 86.1406
  A 4.26 1.61 89.0 0 0 240.4902 90.4281
  A 4.26 1.61 89.0 0 0 242.1743 94.6594"
/>
<path stroke="#026b5e" vector-effect="non-scaling-stroke" d="
  M 248.00 88.63
  Q 250.13 89.13 249.48 86.71
  Q 248.58 83.40 247.06 86.72
  A 1.37 1.37 18.8 0 0 248.00 88.63"
/>
<path stroke="#026b5e" vector-effect="non-scaling-stroke" d="
  M 254.5329 94.1198
  A 4.25 1.69 90.5 0 0 256.2599 89.8847
  A 4.25 1.69 90.5 0 0 254.6071 85.6202
  A 4.25 1.69 90.5 0 0 252.8801 89.8553
  A 4.25 1.69 90.5 0 0 254.5329 94.1198"
/>
<path stroke="#076e75" vector-effect="non-scaling-stroke" d="
  M 129.5478 89.8387
  A 1.66 1.17 77.2 0 0 130.3209 87.9608
  A 1.66 1.17 77.2 0 0 128.8122 86.6013
  A 1.66 1.17 77.2 0 0 128.0391 88.4792
  A 1.66 1.17 77.2 0 0 129.5478 89.8387"
/>
<path stroke="#076e75" vector-effect="non-scaling-stroke" d="
  M 116.4349 94.8793
  A 3.90 1.53 88.9 0 0 117.8897 90.9506
  A 3.90 1.53 88.9 0 0 116.2851 87.0807
  A 3.90 1.53 88.9 0 0 114.8303 91.0094
  A 3.90 1.53 88.9 0 0 116.4349 94.8793"
/>
<path stroke="#026b5e" vector-effect="non-scaling-stroke" d="
  M 263.3088 98.1697
  A 4.19 1.70 90.7 0 0 265.0599 94.0008
  A 4.19 1.70 90.7 0 0 263.4112 89.7903
  A 4.19 1.70 90.7 0 0 261.6601 93.9592
  A 4.19 1.70 90.7 0 0 263.3088 98.1697"
/>
<path stroke="#02d3b2" vector-effect="non-scaling-stroke" d="
  M 200.25 151.21
  L 199.96 150.00"
/>
<path stroke="#026b5e" vector-effect="non-scaling-stroke" d="
  M 199.96 150.00
  Q 199.49 145.21 197.24 147.77
  Q 196.45 148.68 196.15 149.93
  Q 195.17 154.13 198.14 157.15
  A 0.64 0.63 -38.3 0 0 198.94 157.24
  Q 202.28 155.07 200.25 151.21"
/>
<path stroke="#026b5e" vector-effect="non-scaling-stroke" d="
  M 199.96 150.00
  Q 199.36 151.42 198.25 152.46"
/>
<path stroke="#026b5e" vector-effect="non-scaling-stroke" d="
  M 198.25 152.46
  Q 198.49 151.20 198.84 149.96
  Q 199.14 148.90 198.46 148.45
  A 0.65 0.58 -53.0 0 0 197.66 148.61
  Q 195.99 150.57 197.25 153.04"
/>
<path stroke="#026b5e" vector-effect="non-scaling-stroke" d="
  M 197.25 153.04
  Q 197.55 154.21 197.99 155.32
  Q 198.22 155.91 198.60 156.12
  Q 199.40 156.54 199.63 155.23
  Q 199.98 153.23 200.25 151.21"
/>
<path stroke="#02d3b2" vector-effect="non-scaling-stroke" d="
  M 198.25 152.46
  Q 197.83 152.91 197.25 153.04"
/>
<path stroke="#026b5e" vector-effect="non-scaling-stroke" d="
  M 193.24 159.78
  Q 192.68 158.19 194.41 156.18
  Q 194.92 155.58 194.49 155.36
  A 0.73 0.56 -57.9 0 0 193.70 155.65
  Q 191.60 158.67 192.88 161.76
  A 0.92 0.92 -37.0 0 0 194.45 161.98
  Q 196.48 159.46 196.75 162.25
  Q 196.88 163.63 195.31 165.20
  A 1.06 0.58 -35.4 0 0 194.96 165.91
  Q 195.00 166.28 195.37 166.26
  Q 195.65 166.24 195.91 165.95
  Q 198.04 163.49 197.26 160.20
  Q 196.70 157.84 194.75 160.07
  A 0.89 0.89 55.8 0 1 193.24 159.78"
/>
<path stroke="#026b5e" vector-effect="non-scaling-stroke" d="
  M 191.06 165.49
  Q 192.13 165.44 192.06 166.67
  Q 192.03 167.25 191.45 168.05
  Q 189.88 170.21 190.30 172.84
  Q 190.46 173.81 191.01 174.52
  Q 192.43 176.33 193.25 173.50
  Q 193.96 171.06 194.51 169.95
  A 1.10 0.81 -51.0 0 0 194.55 169.05
  L 192.00 164.34
  A 1.03 0.98 -43.0 0 0 190.27 164.32
  Q 189.35 165.71 188.81 167.98
  Q 188.77 168.16 188.61 168.49
  Q 188.39 168.94 188.71 169.10
  A 0.58 0.43 -66.8 0 0 189.36 168.72
  L 190.38 166.03
  A 0.83 0.73 -79.7 0 1 191.06 165.49"
/>
<path stroke="#02d3b2" vector-effect="non-scaling-stroke" d="
  M 189.79 178.75
  Q 189.95 177.49 188.79 177.25"
/>
<path stroke="#026b5e" vector-effect="non-scaling-stroke" d="
  M 188.79 177.25
  Q 190.29 174.41 187.93 172.77
  A 0.63 0.60 -50.4 0 0 187.14 172.86
  Q 183.77 176.38 185.96 181.05
  Q 187.97 185.35 190.16 180.94
  Q 190.51 180.21 190.47 179.40
  Q 190.34 176.79 189.79 178.75"
/>
<path stroke="#026b5e" vector-effect="non-scaling-stroke" d="
  M 188.79 177.25
  L 187.26 179.58
  A 1.21 1.20 -34.2 0 0 187.08 180.49
  Q 187.56 183.02 189.19 180.94
  Q 189.67 180.32 189.79 178.75"
/>
<path stroke="#026b5e" vector-effect="non-scaling-stroke" d="
  M 182.4376 178.3851
  A 0.49 0.49 0.0 0 0 181.7778 178.1732
  L 181.7067 178.2098
  A 0.49 0.49 0.0 0 0 181.4948 178.8696
  L 186.1024 187.8349
  A 0.49 0.49 0.0 0 0 186.7622 188.0468
  L 186.8333 188.0102
  A 0.49 0.49 0.0 0 0 187.0452 187.3504
  L 182.4376 178.3851"
/>
<path stroke="#02d3b2" vector-effect="non-scaling-stroke" d="
  M 181.04 192.00
  L 181.71 192.00"
/>
<path stroke="#026b5e" vector-effect="non-scaling-stroke" d="
  M 181.71 192.00
  Q 181.69 192.23 181.77 192.35
  A 0.30 0.21 -44.0 0 0 182.19 192.28
  Q 183.63 190.55 183.75 188.39
  Q 183.81 187.42 183.30 186.73
  Q 182.43 185.56 181.33 186.32
  Q 180.57 186.86 180.24 188.09
  Q 179.19 192.02 181.19 195.94
  A 1.36 1.36 -38.1 0 0 183.43 196.21
  Q 184.63 194.84 184.77 192.97
  Q 184.84 192.07 184.41 192.87
  Q 182.40 196.55 181.79 194.04
  Q 181.52 192.96 181.04 192.00"
/>
<path stroke="#026b5e" vector-effect="non-scaling-stroke" d="
  M 181.71 192.00
  Q 182.17 190.76 182.72 189.57
  Q 183.03 188.91 182.94 188.36
  Q 182.66 186.84 181.31 188.06
  Q 179.94 189.30 181.04 192.00"
/>
<path stroke="#026b5e" vector-effect="non-scaling-stroke" d="
  M 178.40 196.53
  Q 179.05 194.42 179.00 193.75
  Q 178.89 192.16 178.29 193.14
  A 1.69 0.95 71.9 0 0 178.11 194.04
  Q 178.19 195.65 176.99 196.54
  A 0.62 0.55 -32.2 0 0 176.78 197.26
  Q 178.32 200.27 180.09 203.15
  Q 180.20 203.33 180.35 203.41
  Q 180.92 203.70 180.56 202.87
  Q 179.39 200.20 178.41 197.46
  A 1.53 1.40 -48.1 0 1 178.40 196.53"
/>
<path stroke="#076e75" vector-effect="non-scaling-stroke" d="
  M 79.81 162.19
  Q 78.41 161.02 73.96 159.19
  A 0.48 0.44 18.7 0 0 73.32 159.47
  Q 73.01 160.70 74.78 161.37
  A 1.23 1.22 26.0 0 1 75.40 163.16
  Q 72.74 167.46 76.22 171.33
  A 1.13 1.02 65.1 0 0 77.07 171.69
  Q 79.31 171.58 79.69 168.94
  Q 80.02 166.65 79.87 165.06
  A 1.69 1.27 -38.8 0 1 80.10 164.15
  Q 80.78 162.99 79.81 162.19"
/>
<path stroke="#087679" vector-effect="non-scaling-stroke" d="
  M 79.0509 176.6477
  A 0.78 0.78 0.0 0 0 78.4910 175.6972
  L 72.7596 174.2150
  A 0.78 0.78 0.0 0 0 71.8091 174.7749
  L 71.7891 174.8523
  A 0.78 0.78 0.0 0 0 72.3490 175.8028
  L 78.0804 177.2850
  A 0.78 0.78 0.0 0 0 79.0309 176.7251
  L 79.0509 176.6477"
/>
<path stroke="#087679" vector-effect="non-scaling-stroke" d="
  M 75.24 180.61
  Q 73.47 180.49 71.74 180.88
  Q 71.22 181.00 71.71 181.19
  Q 74.71 182.38 77.95 182.43
  A 0.48 0.45 -1.6 0 0 78.44 181.94
  Q 78.32 180.53 76.88 180.57
  Q 75.38 180.62 75.24 180.61"
/>
<path stroke="#087679" vector-effect="non-scaling-stroke" d="
  M 77.24 193.42
  L 75.05 194.03
  A 1.28 0.25 -12.9 0 0 74.19 194.41
  Q 73.75 194.93 74.14 195.36
  Q 74.45 195.71 75.10 195.70
  Q 79.00 195.68 78.63 191.51
  Q 78.42 189.09 78.13 186.69
  A 0.59 0.58 86.5 0 0 77.57 186.18
  Q 75.15 186.15 74.50 186.50
  Q 72.10 187.79 76.46 188.11
  A 1.16 1.15 83.0 0 1 77.49 188.92
  Q 78.22 191.22 77.84 192.72
  A 1.01 0.80 -87.7 0 1 77.24 193.42"
/>
<path stroke="#076e75" vector-effect="non-scaling-stroke" d="
  M 75.46 199.70
  Q 73.38 203.50 75.27 207.31
  A 0.65 0.63 56.7 0 1 75.12 208.08
  Q 74.60 208.53 74.05 208.95
  Q 73.50 209.37 73.28 209.85
  Q 72.50 211.54 74.70 210.72
  Q 77.26 209.77 79.41 208.13
  A 1.15 1.11 -16.9 0 0 79.86 207.32
  Q 80.13 203.71 79.05 200.33
  Q 78.65 199.09 77.84 198.66
  Q 76.45 197.91 75.46 199.70"
/>
<path stroke="#087679" vector-effect="non-scaling-stroke" d="
  M 293.2142 166.9300
  A 7.39 3.68 90.2 0 0 296.9200 159.5528
  A 7.39 3.68 90.2 0 0 293.2658 152.1500
  A 7.39 3.68 90.2 0 0 289.5600 159.5272
  A 7.39 3.68 90.2 0 0 293.2142 166.9300"
/>
<path stroke="#026b5e" vector-effect="non-scaling-stroke" d="
  M 292.29 174.29
  Q 291.42 177.46 292.81 180.44
  Q 294.20 183.41 295.94 180.44
  Q 297.56 177.66 296.79 174.49
  Q 296.32 172.54 296.41 170.55
  A 0.40 0.39 86.0 0 0 295.95 170.14
  Q 292.79 170.67 290.16 172.46
  A 0.36 0.35 -44.8 0 0 290.15 173.05
  Q 290.95 173.59 291.94 173.75
  A 0.44 0.43 12.6 0 1 292.29 174.29"
/>
<path stroke="#026b5e" vector-effect="non-scaling-stroke" d="
  M 296.25 191.66
  Q 295.49 192.13 295.19 192.95
  A 0.58 0.50 -73.0 0 0 295.51 193.68
  Q 296.06 193.81 296.56 193.06
  Q 299.55 188.61 296.19 184.56
  Q 294.59 182.65 293.56 185.06
  Q 292.28 188.07 292.69 191.33
  Q 292.72 191.59 292.71 192.17
  Q 292.69 192.99 293.28 192.91
  A 0.51 0.42 77.2 0 0 293.60 192.28
  Q 292.93 189.99 293.63 187.23
  Q 294.29 184.63 296.34 186.36
  Q 298.25 187.99 296.90 190.99
  A 1.70 0.94 -16.9 0 1 296.25 191.66"
/>
<path stroke="#087679" vector-effect="non-scaling-stroke" d="
  M 297.12 198.22
  A 0.60 0.59 12.9 0 0 296.70 197.56
  Q 295.56 197.22 294.54 196.91
  Q 293.95 196.74 293.45 196.76
  Q 291.27 196.85 292.83 197.97
  Q 293.15 198.20 293.75 198.34
  Q 296.36 198.93 296.12 201.70
  Q 296.08 202.26 296.24 202.65
  Q 296.85 204.08 297.28 203.04
  A 1.64 0.96 59.7 0 0 297.28 202.08
  Q 296.78 200.33 297.12 198.22"
/>
<path stroke="#026b5e" vector-effect="non-scaling-stroke" d="
  M 291.79 210.25
  Q 290.63 211.78 293.56 213.63
  A 1.55 1.54 29.4 0 0 295.77 213.02
  Q 296.76 211.04 296.76 208.21
  Q 296.76 208.14 296.90 207.31
  Q 297.03 206.53 295.75 206.79"
/>
<path stroke="#02cbae" vector-effect="non-scaling-stroke" d="
  M 295.75 206.79
  L 295.29 206.75"
/>
<path stroke="#087679" vector-effect="non-scaling-stroke" d="
  M 295.29 206.75
  Q 294.64 205.70 294.14 204.56
  Q 293.87 203.94 293.54 203.69
  Q 292.77 203.11 292.31 204.06
  Q 291.29 206.20 291.79 210.25"
/>
<path stroke="#076e75" vector-effect="non-scaling-stroke" d="
  M 295.29 206.75
  Q 294.24 213.24 294.25 206.58
  Q 294.25 206.18 294.11 205.96
  Q 293.90 205.63 293.55 205.56
  A 0.80 0.60 -67.4 0 0 292.81 206.00
  Q 291.76 207.97 291.96 210.25"
/>
<path stroke="#070d25" vector-effect="non-scaling-stroke" d="
  M 291.96 210.25
  L 291.79 210.25"
/>
<path stroke="#01635a" vector-effect="non-scaling-stroke" d="
  M 295.75 206.79
  Q 296.48 209.28 295.19 211.80
  A 0.82 0.81 28.6 0 1 294.05 212.13
  Q 292.76 211.37 291.96 210.25"
/>
<path stroke="#026b5e" vector-effect="non-scaling-stroke" d="
  M 290.94 216.83
  Q 289.78 218.24 290.00 219.23
  Q 290.12 219.75 290.38 219.23
  Q 291.33 217.32 293.66 219.16
  A 2.06 1.61 -72.9 0 1 294.29 220.81
  L 294.15 222.72
  Q 294.10 223.47 294.67 222.84
  L 296.19 221.14
  A 0.76 0.76 -36.5 0 0 296.31 220.30
  Q 295.18 217.94 291.75 216.61
  A 0.73 0.72 -59.8 0 0 290.94 216.83"
/>
<path stroke="#026b5e" vector-effect="non-scaling-stroke" d="
  M 291.1854 233.2439
  A 5.10 2.56 84.2 0 0 293.2169 227.9113
  A 5.10 2.56 84.2 0 0 290.1546 223.0961
  A 5.10 2.56 84.2 0 0 288.1231 228.4287
  A 5.10 2.56 84.2 0 0 291.1854 233.2439"
/>
<path stroke="#0d1840" vector-effect="non-scaling-stroke" d="
  M 160.21 131.50
  Q 159.99 132.63 160.97 134.96"
/>
<path stroke="#076e75" vector-effect="non-scaling-stroke" d="
  M 160.97 134.96
  Q 159.32 134.04 160.25 135.50
  Q 161.81 137.96 162.94 136.44
  Q 166.96 131.04 163.06 125.90
  A 1.84 1.44 -71.6 0 1 162.74 125.00
  Q 162.66 123.88 161.89 124.50
  Q 161.60 124.73 161.34 125.21
  Q 158.03 131.30 157.69 132.94
  Q 157.25 135.05 158.69 133.69
  Q 159.07 133.33 160.21 131.50"
/>
<path stroke="#076e75" vector-effect="non-scaling-stroke" d="
  M 160.97 134.96
  Q 166.15 132.81 162.79 127.90
  A 0.57 0.55 57.2 0 0 162.05 127.73
  Q 160.08 128.90 160.21 131.50"
/>
<path stroke="#076e75" vector-effect="non-scaling-stroke" d="
  M 168.8780 131.8174
  A 0.41 0.41 0.0 0 0 168.6864 131.2702
  L 168.3980 131.1314
  A 0.41 0.41 0.0 0 0 167.8508 131.3230
  L 163.2020 140.9826
  A 0.41 0.41 0.0 0 0 163.3936 141.5298
  L 163.6820 141.6686
  A 0.41 0.41 0.0 0 0 164.2292 141.4770
  L 168.8780 131.8174"
/>
<path stroke="#0d1840" vector-effect="non-scaling-stroke" d="
  M 168.71 145.00
  Q 168.20 144.48 168.21 143.75"
/>
<path stroke="#076e75" vector-effect="non-scaling-stroke" d="
  M 168.21 143.75
  Q 168.72 141.68 166.82 141.36
  A 0.86 0.85 -67.2 0 0 166.00 141.70
  Q 163.88 144.50 165.94 147.56
  Q 167.01 149.16 167.52 150.06
  A 0.34 0.34 50.8 0 0 168.08 150.12
  Q 172.03 145.32 169.86 139.51
  Q 169.68 139.03 169.33 138.76
  Q 168.24 137.93 168.27 139.18
  Q 168.28 139.62 168.61 140.10
  Q 169.56 141.46 170.10 143.02
  A 0.82 0.79 59.4 0 1 169.90 143.87
  L 168.71 145.00"
/>
<path stroke="#076e75" vector-effect="non-scaling-stroke" d="
  M 168.21 143.75
  Q 166.99 142.80 166.12 143.68
  A 1.05 0.91 64.9 0 0 165.87 144.55
  Q 166.13 146.26 167.38 147.43
  A 0.55 0.54 45.0 0 0 168.13 147.44
  Q 169.10 146.51 168.71 145.00"
/>
<path stroke="#076e75" vector-effect="non-scaling-stroke" d="
  M 172.82 149.90
  Q 174.53 152.30 172.42 156.28
  Q 171.90 157.25 171.68 158.34
  Q 171.12 161.18 172.75 158.75
  Q 173.52 157.61 174.39 154.97
  Q 175.13 152.75 174.64 150.98
  Q 174.07 148.89 172.64 146.96
  A 0.34 0.32 40.7 0 0 172.07 146.98
  L 168.96 153.71
  A 0.50 0.45 -71.8 0 0 169.27 154.40
  Q 169.76 154.48 170.01 153.75
  Q 170.74 151.61 172.17 149.89
  A 0.41 0.41 -43.5 0 1 172.82 149.90"
/>
<path stroke="#087679" vector-effect="non-scaling-stroke" d="
  M 293.1824 165.1691
  A 5.59 2.56 91.0 0 0 295.8396 159.6247
  A 5.59 2.56 91.0 0 0 293.3776 153.9909
  A 5.59 2.56 91.0 0 0 290.7204 159.5353
  A 5.59 2.56 91.0 0 0 293.1824 165.1691"
/>
<path stroke="#076e75" vector-effect="non-scaling-stroke" d="
  M 77.3696 169.9697
  A 3.55 1.92 89.2 0 0 79.2398 166.3932
  A 3.55 1.92 89.2 0 0 77.2704 162.8703
  A 3.55 1.92 89.2 0 0 75.4002 166.4468
  A 3.55 1.92 89.2 0 0 77.3696 169.9697"
/>
<path stroke="#026b5e" vector-effect="non-scaling-stroke" d="
  M 191.6555 173.5151
  A 2.83 1.08 101.3 0 0 193.2691 170.9516
  A 2.83 1.08 101.3 0 0 192.7645 167.9649
  A 2.83 1.08 101.3 0 0 191.1509 170.5284
  A 2.83 1.08 101.3 0 0 191.6555 173.5151"
/>
<path stroke="#026b5e" vector-effect="non-scaling-stroke" d="
  M 294.3132 179.8576
  A 3.92 1.70 92.0 0 0 296.1490 175.9993
  A 3.92 1.70 92.0 0 0 294.5868 172.0224
  A 3.92 1.70 92.0 0 0 292.7510 175.8807
  A 3.92 1.70 92.0 0 0 294.3132 179.8576"
/>
<path stroke="#026b5e" vector-effect="non-scaling-stroke" d="
  M 186.3733 178.6481
  A 2.41 0.99 108.3 0 0 188.0699 176.6709
  A 2.41 0.99 108.3 0 0 187.8867 174.0719
  A 2.41 0.99 108.3 0 0 186.1901 176.0491
  A 2.41 0.99 108.3 0 0 186.3733 178.6481"
/>
<path stroke="#076e75" vector-effect="non-scaling-stroke" d="
  M 77.0406 207.5199
  A 3.70 1.77 90.3 0 0 78.8300 203.8293
  A 3.70 1.77 90.3 0 0 77.0794 200.1201
  A 3.70 1.77 90.3 0 0 75.2900 203.8107
  A 3.70 1.77 90.3 0 0 77.0406 207.5199"
/>
<path stroke="#01635a" vector-effect="non-scaling-stroke" d="
  M 291.33 226.19
  Q 291.28 225.00 290.29 224.67
  A 0.67 0.59 -64.5 0 0 289.55 224.99
  Q 287.55 228.36 290.00 231.33
  A 1.39 1.39 -50.4 0 0 292.29 231.11
  Q 293.77 228.38 291.74 226.95
  A 0.99 0.95 -74.5 0 1 291.33 226.19"
/>
<path stroke="#026b5e" vector-effect="non-scaling-stroke" d="
  M 224.31 265.62
  Q 226.14 265.94 225.75 267.75
  Q 225.01 271.21 224.40 274.69
  A 0.62 0.49 -79.6 0 0 224.77 275.39
  Q 225.39 275.50 225.57 274.51
  Q 226.20 271.15 226.64 267.77
  Q 227.03 264.80 224.50 264.53
  A 1.35 0.81 -5.7 0 1 223.65 264.13
  Q 223.27 263.63 223.23 262.99
  Q 223.19 262.35 223.02 262.06
  Q 222.47 261.15 221.52 260.65
  Q 221.15 260.45 220.84 259.99
  Q 220.49 259.45 220.05 259.97
  Q 219.83 260.23 219.76 260.73
  Q 219.33 263.71 218.39 266.57
  Q 218.24 267.05 218.18 267.45
  Q 217.82 270.08 219.04 268.10
  Q 219.24 267.78 219.30 267.34
  Q 219.66 264.78 220.82 262.51
  A 0.66 0.61 -67.6 0 1 221.56 262.17
  Q 222.72 262.52 222.75 263.75
  Q 222.83 266.62 221.45 270.44
  Q 221.30 270.86 221.27 271.22
  Q 221.14 272.94 222.02 271.81
  Q 222.24 271.53 222.34 271.13
  Q 222.96 268.57 223.68 266.04
  A 0.58 0.54 -77.0 0 1 224.31 265.62"
/>
<path stroke="#026b5e" vector-effect="non-scaling-stroke" d="
  M 230.0021 279.7895
  A 5.58 2.63 90.8 0 0 232.7097 274.2467
  A 5.58 2.63 90.8 0 0 230.1579 268.6305
  A 5.58 2.63 90.8 0 0 227.4503 274.1733
  A 5.58 2.63 90.8 0 0 230.0021 279.7895"
/>
<path stroke="#087679" vector-effect="non-scaling-stroke" d="
  M 241.6764 271.6414
  A 0.94 0.56 42.2 0 0 241.3562 270.5951
  A 0.94 0.56 42.2 0 0 240.2836 270.3786
  A 0.94 0.56 42.2 0 0 240.6038 271.4249
  A 0.94 0.56 42.2 0 0 241.6764 271.6414"
/>
<path stroke="#026b5e" vector-effect="non-scaling-stroke" d="
  M 242.77 273.42
  Q 242.50 276.27 242.65 279.14
  Q 242.66 279.26 242.63 281.86
  Q 242.61 283.63 243.34 285.23
  A 0.93 0.78 77.4 0 0 244.05 285.77
  Q 244.86 285.81 244.52 284.96
  Q 242.72 280.49 244.31 276.49
  A 2.95 2.91 -42.7 0 0 244.40 274.65
  Q 243.10 270.09 242.77 273.42"
/>
<path stroke="#026b5e" vector-effect="non-scaling-stroke" d="
  M 236.57 273.74
  Q 237.88 275.53 237.44 277.99
  Q 237.00 280.48 236.79 283.00
  A 0.88 0.71 -75.3 0 0 237.15 283.80
  Q 237.84 284.19 237.79 282.97
  Q 237.77 282.40 237.82 282.03
  Q 238.07 280.27 238.18 278.51
  Q 238.38 275.22 238.35 274.99
  Q 238.10 272.49 235.16 272.06
  A 0.52 0.49 7.1 0 0 234.57 272.49
  L 233.82 281.68
  Q 233.75 282.47 234.21 281.90
  Q 234.50 281.54 234.56 280.81
  Q 234.85 277.38 235.50 273.99
  Q 235.76 272.65 236.57 273.74"
/>
<path stroke="#026b5e" vector-effect="non-scaling-stroke" d="
  M 253.58 279.00
  Q 253.88 276.46 255.27 274.37
  Q 256.04 273.23 254.76 273.74
  Q 252.25 274.76 252.53 277.52
  Q 252.86 280.87 253.25 284.22
  Q 253.41 285.65 253.90 284.49
  Q 254.00 284.26 254.00 284.00
  Q 253.97 282.73 253.76 281.48
  Q 253.48 279.85 253.58 279.00"
/>
<path stroke="#026b5e" vector-effect="non-scaling-stroke" d="
  M 240.9033 274.7544
  A 0.38 0.38 0.0 0 0 240.5340 274.3640
  L 240.3941 274.3601
  A 0.38 0.38 0.0 0 0 240.0036 274.7293
  L 239.7367 284.2856
  A 0.38 0.38 0.0 0 0 240.1060 284.6760
  L 240.2459 284.6799
  A 0.38 0.38 0.0 0 0 240.6364 284.3107
  L 240.9033 274.7544"
/>
<path stroke="#026b5e" vector-effect="non-scaling-stroke" d="
  M 248.7789 285.6999
  A 5.51 2.65 89.7 0 0 251.4000 280.1761
  A 5.51 2.65 89.7 0 0 248.7211 274.6801
  A 5.51 2.65 89.7 0 0 246.1000 280.2039
  A 5.51 2.65 89.7 0 0 248.7789 285.6999"
/>
<path stroke="#076e75" vector-effect="non-scaling-stroke" d="
  M 116.62 269.78
  Q 115.36 276.20 116.24 282.69
  A 0.95 0.86 -83.1 0 0 116.75 283.41
  Q 118.26 284.10 117.60 282.53
  Q 115.63 277.77 118.39 273.72
  A 0.67 0.65 43.9 0 0 118.36 272.94
  Q 117.39 271.70 117.62 270.15
  Q 117.68 269.74 117.59 269.47
  Q 117.33 268.67 116.90 269.15
  Q 116.70 269.36 116.62 269.78"
/>
<path stroke="#076e75" vector-effect="non-scaling-stroke" d="
  M 130.55 272.23
  Q 129.47 278.28 131.28 283.84
  A 0.84 0.79 84.4 0 0 131.93 284.41
  Q 133.75 284.69 132.56 282.69
  Q 131.42 280.76 131.49 277.51
  Q 131.50 277.44 132.08 275.23
  Q 132.49 273.68 130.99 272.10
  Q 130.64 271.73 130.55 272.23"
/>
<path stroke="#076e75" vector-effect="non-scaling-stroke" d="
  M 121.80 284.67
  Q 123.60 285.41 123.48 283.06
  A 0.39 0.38 -10.8 0 0 122.97 282.73
  Q 120.32 283.59 120.31 280.80
  A 0.81 0.81 10.8 0 1 121.42 280.05
  Q 124.06 281.12 124.24 278.52
  Q 124.44 275.79 122.65 274.02
  A 1.50 1.50 -51.8 0 0 120.32 274.30
  Q 118.53 277.19 119.58 282.03
  Q 120.00 283.93 121.80 284.67"
/>
<path stroke="#087679" vector-effect="non-scaling-stroke" d="
  M 125.29 276.75
  Q 125.03 278.50 127.12 280.43
  A 2.72 2.70 -68.1 0 1 127.99 282.49
  Q 127.94 284.29 125.74 283.24
  Q 124.78 282.79 125.25 283.74
  Q 125.89 285.06 127.19 285.00
  A 1.34 1.12 -66.2 0 0 128.04 284.58
  Q 129.67 282.81 128.82 280.71
  Q 128.58 280.12 127.21 278.68
  Q 126.29 277.72 125.71 276.50"
/>
<path stroke="#076e75" vector-effect="non-scaling-stroke" d="
  M 125.71 276.50
  Q 126.27 275.69 127.25 275.68
  Q 129.31 275.66 128.50 274.46
  A 1.07 1.00 -14.1 0 0 127.69 274.01
  Q 125.07 273.84 125.29 276.75"
/>
<path stroke="#02cbae" vector-effect="non-scaling-stroke" d="
  M 125.71 276.50
  L 125.29 276.75"
/>
<path stroke="#026b5e" vector-effect="non-scaling-stroke" d="
  M 229.9864 278.4294
  A 4.22 1.63 91.0 0 0 231.6898 274.2384
  A 4.22 1.63 91.0 0 0 230.1336 269.9906
  A 4.22 1.63 91.0 0 0 228.4302 274.1816
  A 4.22 1.63 91.0 0 0 229.9864 278.4294"
/>
<path stroke="#076e75" vector-effect="non-scaling-stroke" d="
  M 121.8812 278.8151
  A 1.75 1.22 85.7 0 0 122.9666 276.9785
  A 1.75 1.22 85.7 0 0 121.6188 275.3249
  A 1.75 1.22 85.7 0 0 120.5334 277.1615
  A 1.75 1.22 85.7 0 0 121.8812 278.8151"
/>
<path stroke="#026b5e" vector-effect="non-scaling-stroke" d="
  M 248.7991 284.4696
  A 4.23 1.68 89.2 0 0 250.4198 280.2165
  A 4.23 1.68 89.2 0 0 248.6809 276.0104
  A 4.23 1.68 89.2 0 0 247.0602 280.2635
  A 4.23 1.68 89.2 0 0 248.7991 284.4696"
/>
</g>
<path fill="#0d1840" d="
  M 150.29 102.06
  L 148.84 135.06
  Q 148.77 136.69 148.07 135.21
  Q 143.50 125.43 135.36 118.38
  Q 130.80 114.43 125.27 113.96
  Q 120.43 113.54 115.08 116.22
  Q 108.46 119.53 103.85 125.81
  A 2.42 2.32 21.9 0 1 101.59 126.72
  L 86.24 124.50
  A 1.25 1.22 6.7 0 1 85.17 123.18
  Q 85.82 115.76 85.82 109.25
  Q 85.80 97.36 86.56 91.81
  Q 86.79 90.15 88.36 88.17
  Q 90.32 85.69 90.39 85.60
  Q 100.16 72.23 114.56 67.31
  Q 128.14 62.67 140.19 69.81
  Q 145.02 72.68 149.40 77.35
  Q 159.37 87.98 166.00 102.11
  Q 166.67 103.54 165.06 103.34
  L 150.80 101.60
  A 0.49 0.45 -84.9 0 0 150.29 102.06
  Z
  M 122.86 84.31
  Q 121.48 83.46 120.89 85.34
  Q 120.06 87.97 120.28 90.65
  Q 120.46 92.89 120.78 93.83
  Q 121.59 96.20 124.58 94.83
  A 1.67 1.66 -14.3 0 0 125.55 93.20
  Q 125.16 87.58 125.24 82.55
  Q 125.25 81.66 125.05 80.97
  Q 124.20 78.03 123.94 83.74
  A 0.71 0.71 17.1 0 1 122.86 84.31
  Z
  M 127.25 91.54
  Q 126.52 93.72 127.50 95.00
  Q 129.14 97.14 130.82 95.05
  Q 131.53 94.17 130.41 94.26
  Q 127.59 94.47 127.71 91.50
  Q 128.38 90.77 130.17 91.76
  A 0.92 0.91 20.1 0 0 131.52 91.14
  Q 132.09 88.18 130.44 85.56
  Q 128.74 82.88 127.56 85.81
  Q 126.44 88.61 127.25 91.54
  Z
  M 116.3497 96.7399
  A 5.68 2.70 89.6 0 0 119.0099 91.0412
  A 5.68 2.70 89.6 0 0 116.2703 85.3801
  A 5.68 2.70 89.6 0 0 113.6101 91.0788
  A 5.68 2.70 89.6 0 0 116.3497 96.7399
  Z
  M 110.73 97.07
  Q 108.00 93.97 110.23 90.41
  A 1.13 0.93 8.5 0 1 111.00 89.95
  Q 113.45 89.63 111.69 88.06
  Q 110.12 86.66 109.06 89.56
  Q 107.28 94.45 109.81 98.94
  Q 111.00 101.05 112.50 98.50
  Q 115.44 93.48 111.44 97.10
  A 0.51 0.48 -41.1 0 1 110.73 97.07
  Z"
/>
<path fill="#02d3b2" d="
  M 226.95 93.73
  Q 219.09 92.45 211.48 90.14
  A 0.37 0.36 24.7 0 1 211.27 89.59
  Q 218.52 78.75 229.33 72.27
  Q 238.20 66.94 247.07 66.18
  Q 257.21 65.31 266.17 70.03
  Q 272.69 73.47 278.36 80.18
  Q 283.55 86.32 286.98 93.76
  Q 288.35 96.71 288.56 99.88
  Q 288.62 100.66 288.56 106.12
  Q 288.54 108.51 288.30 110.89
  Q 287.98 113.98 287.93 115.63
  Q 287.72 123.25 287.52 130.47
  A 1.16 1.15 5.3 0 1 286.18 131.57
  Q 279.97 130.58 274.10 129.85
  Q 273.99 129.84 272.40 129.78
  Q 269.57 129.67 268.06 126.69
  Q 263.91 118.48 255.96 115.31
  Q 248.36 112.28 240.51 115.08
  Q 231.91 118.14 227.36 126.74
  Q 226.57 128.25 226.51 126.55
  Q 226.32 120.86 226.68 115.50
  Q 227.39 104.92 227.43 94.32
  A 0.59 0.57 -84.9 0 0 226.95 93.73
  Z
  M 241.25 85.27
  A 0.96 0.93 -78.5 0 0 240.51 85.78
  Q 238.41 89.83 240.22 94.48
  Q 241.27 97.19 243.31 95.06
  A 3.35 1.14 -40.7 0 0 244.56 92.94
  Q 244.47 87.55 244.04 82.19
  Q 244.00 81.74 243.86 81.34
  Q 242.77 78.29 243.49 82.96
  Q 243.81 85.01 241.25 85.27
  Z
  M 260.3076 82.2212
  A 0.32 0.32 0.0 0 0 260.0246 81.8680
  L 259.7861 81.8417
  A 0.32 0.32 0.0 0 0 259.4329 82.1247
  L 257.8724 96.2588
  A 0.32 0.32 0.0 0 0 258.1554 96.6120
  L 258.3939 96.6383
  A 0.32 0.32 0.0 0 0 258.7471 96.3553
  L 260.3076 82.2212
  Z
  M 247.68 93.02
  Q 246.74 91.80 247.15 90.28
  A 0.84 0.57 0.3 0 1 247.82 89.83
  L 249.96 89.57
  A 0.75 0.63 -88.2 0 0 250.52 88.94
  Q 250.86 86.58 249.69 84.56
  Q 248.10 81.83 246.81 84.81
  Q 244.77 89.56 247.40 94.46
  A 0.92 0.92 -34.9 0 0 248.82 94.71
  Q 251.64 92.23 248.46 93.26
  A 0.72 0.71 61.8 0 1 247.68 93.02
  Z
  M 252.79 94.81
  Q 252.90 93.58 253.71 94.52
  Q 255.00 96.00 255.68 94.93
  Q 258.82 90.05 255.96 85.24
  A 1.34 1.15 78.5 0 0 255.21 84.66
  Q 254.08 84.37 252.96 84.80
  A 0.80 0.79 -8.5 0 0 252.44 85.50
  L 251.57 97.57
  A 0.76 0.56 -75.3 0 0 251.82 98.20
  Q 252.15 98.42 252.29 97.81
  Q 252.66 96.20 252.79 94.81
  Z
  M 263.3414 99.5299
  A 5.53 2.59 90.4 0 0 265.9699 94.0181
  A 5.53 2.59 90.4 0 0 263.4186 88.4701
  A 5.53 2.59 90.4 0 0 260.7901 93.9819
  A 5.53 2.59 90.4 0 0 263.3414 99.5299
  Z
  M 268.55 100.09
  Q 268.42 96.85 268.28 93.26
  Q 268.19 90.97 267.58 92.74
  Q 267.50 92.99 267.50 93.27
  Q 267.52 96.90 267.50 100.53
  Q 267.50 100.63 267.59 101.96
  Q 267.75 104.27 265.56 103.92
  A 0.36 0.32 -1.1 0 0 265.15 104.30
  Q 265.56 105.98 267.11 105.30
  A 1.69 1.23 -80.6 0 0 267.80 104.62
  L 271.70 97.37
  A 1.14 0.67 -52.0 0 0 271.82 96.46
  Q 271.32 95.48 269.06 100.19
  Q 268.59 101.18 268.55 100.09
  Z"
/>
<path fill="#01c3a9" d="
  M 122.86 84.31
  A 0.71 0.71 17.1 0 0 123.94 83.74
  Q 124.20 78.03 125.05 80.97
  Q 125.25 81.66 125.24 82.55
  Q 125.16 87.58 125.55 93.20
  A 1.67 1.66 -14.3 0 1 124.58 94.83
  Q 121.59 96.20 120.78 93.83
  Q 120.46 92.89 120.28 90.65
  Q 120.06 87.97 120.89 85.34
  Q 121.48 83.46 122.86 84.31
  Z
  M 122.6944 93.6598
  A 3.94 1.52 89.5 0 0 124.1799 89.7067
  A 3.94 1.52 89.5 0 0 122.6256 85.7802
  A 3.94 1.52 89.5 0 0 121.1401 89.7333
  A 3.94 1.52 89.5 0 0 122.6944 93.6598
  Z"
/>
<path fill="#01020a" d="
  M 241.25 85.27
  Q 243.81 85.01 243.49 82.96
  Q 242.77 78.29 243.86 81.34
  Q 244.00 81.74 244.04 82.19
  Q 244.47 87.55 244.56 92.94
  A 3.35 1.14 -40.7 0 1 243.31 95.06
  Q 241.27 97.19 240.22 94.48
  Q 238.41 89.83 240.51 85.78
  A 0.96 0.93 -78.5 0 1 241.25 85.27
  Z
  M 242.1743 94.6594
  A 4.26 1.61 89.0 0 0 243.7098 90.3719
  A 4.26 1.61 89.0 0 0 242.0257 86.1406
  A 4.26 1.61 89.0 0 0 240.4902 90.4281
  A 4.26 1.61 89.0 0 0 242.1743 94.6594
  Z"
/>
<rect fill="#01020a" x="-0.44" y="-7.43" transform="translate(259.09,89.24) rotate(6.3)" width="0.88" height="14.86" rx="0.32"/>
<path fill="#01020a" d="
  M 247.68 93.02
  A 0.72 0.71 61.8 0 0 248.46 93.26
  Q 251.64 92.23 248.82 94.71
  A 0.92 0.92 -34.9 0 1 247.40 94.46
  Q 244.77 89.56 246.81 84.81
  Q 248.10 81.83 249.69 84.56
  Q 250.86 86.58 250.52 88.94
  A 0.75 0.63 -88.2 0 1 249.96 89.57
  L 247.82 89.83
  A 0.84 0.57 0.3 0 0 247.15 90.28
  Q 246.74 91.80 247.68 93.02
  Z
  M 248.00 88.63
  Q 250.13 89.13 249.48 86.71
  Q 248.58 83.40 247.06 86.72
  A 1.37 1.37 18.8 0 0 248.00 88.63
  Z"
/>
<path fill="#01020a" d="
  M 252.79 94.81
  Q 252.66 96.20 252.29 97.81
  Q 252.15 98.42 251.82 98.20
  A 0.76 0.56 -75.3 0 1 251.57 97.57
  L 252.44 85.50
  A 0.80 0.79 -8.5 0 1 252.96 84.80
  Q 254.08 84.37 255.21 84.66
  A 1.34 1.15 78.5 0 1 255.96 85.24
  Q 258.82 90.05 255.68 94.93
  Q 255.00 96.00 253.71 94.52
  Q 252.90 93.58 252.79 94.81
  Z
  M 254.5329 94.1198
  A 4.25 1.69 90.5 0 0 256.2599 89.8847
  A 4.25 1.69 90.5 0 0 254.6071 85.6202
  A 4.25 1.69 90.5 0 0 252.8801 89.8553
  A 4.25 1.69 90.5 0 0 254.5329 94.1198
  Z"
/>
<path fill="#01c3a9" d="
  M 127.71 91.50
  L 127.25 91.54
  Q 126.44 88.61 127.56 85.81
  Q 128.74 82.88 130.44 85.56
  Q 132.09 88.18 131.52 91.14
  A 0.92 0.91 20.1 0 1 130.17 91.76
  Q 128.38 90.77 127.71 91.50
  Z
  M 129.5478 89.8387
  A 1.66 1.17 77.2 0 0 130.3209 87.9608
  A 1.66 1.17 77.2 0 0 128.8122 86.6013
  A 1.66 1.17 77.2 0 0 128.0391 88.4792
  A 1.66 1.17 77.2 0 0 129.5478 89.8387
  Z"
/>
<path fill="#02d3b2" d="
  M 248.00 88.63
  A 1.37 1.37 18.8 0 1 247.06 86.72
  Q 248.58 83.40 249.48 86.71
  Q 250.13 89.13 248.00 88.63
  Z"
/>
<path fill="#01c3a9" d="
  M 116.3497 96.7399
  A 5.68 2.70 89.6 0 1 113.6101 91.0788
  A 5.68 2.70 89.6 0 1 116.2703 85.3801
  A 5.68 2.70 89.6 0 1 119.0099 91.0412
  A 5.68 2.70 89.6 0 1 116.3497 96.7399
  Z
  M 116.4349 94.8793
  A 3.90 1.53 88.9 0 0 117.8897 90.9506
  A 3.90 1.53 88.9 0 0 116.2851 87.0807
  A 3.90 1.53 88.9 0 0 114.8303 91.0094
  A 3.90 1.53 88.9 0 0 116.4349 94.8793
  Z"
/>
<ellipse fill="#02d3b2" cx="0.00" cy="0.00" transform="translate(254.57,89.87) rotate(90.5)" rx="4.25" ry="1.69"/>
<ellipse fill="#0d1840" cx="0.00" cy="0.00" transform="translate(122.66,89.72) rotate(89.5)" rx="3.94" ry="1.52"/>
<ellipse fill="#02d3b2" cx="0.00" cy="0.00" transform="translate(242.10,90.40) rotate(89.0)" rx="4.26" ry="1.61"/>
<ellipse fill="#0d1840" cx="0.00" cy="0.00" transform="translate(129.18,88.22) rotate(77.2)" rx="1.66" ry="1.17"/>
<ellipse fill="#0d1840" cx="0.00" cy="0.00" transform="translate(116.36,90.98) rotate(88.9)" rx="3.90" ry="1.53"/>
<path fill="#01c3a9" d="
  M 111.44 97.10
  Q 115.44 93.48 112.50 98.50
  Q 111.00 101.05 109.81 98.94
  Q 107.28 94.45 109.06 89.56
  Q 110.12 86.66 111.69 88.06
  Q 113.45 89.63 111.00 89.95
  A 1.13 0.93 8.5 0 0 110.23 90.41
  Q 108.00 93.97 110.73 97.07
  A 0.51 0.48 -41.1 0 0 111.44 97.10
  Z"
/>
<path fill="#01020a" d="
  M 263.3414 99.5299
  A 5.53 2.59 90.4 0 1 260.7901 93.9819
  A 5.53 2.59 90.4 0 1 263.4186 88.4701
  A 5.53 2.59 90.4 0 1 265.9699 94.0181
  A 5.53 2.59 90.4 0 1 263.3414 99.5299
  Z
  M 263.3088 98.1697
  A 4.19 1.70 90.7 0 0 265.0599 94.0008
  A 4.19 1.70 90.7 0 0 263.4112 89.7903
  A 4.19 1.70 90.7 0 0 261.6601 93.9592
  A 4.19 1.70 90.7 0 0 263.3088 98.1697
  Z"
/>
<ellipse fill="#02d3b2" cx="0.00" cy="0.00" transform="translate(263.36,93.98) rotate(90.7)" rx="4.19" ry="1.70"/>
<path fill="#01c3a9" d="
  M 127.25 91.54
  L 127.71 91.50
  Q 127.59 94.47 130.41 94.26
  Q 131.53 94.17 130.82 95.05
  Q 129.14 97.14 127.50 95.00
  Q 126.52 93.72 127.25 91.54
  Z"
/>
<path fill="#01020a" d="
  M 268.55 100.09
  Q 268.59 101.18 269.06 100.19
  Q 271.32 95.48 271.82 96.46
  A 1.14 0.67 -52.0 0 1 271.70 97.37
  L 267.80 104.62
  A 1.69 1.23 -80.6 0 1 267.11 105.30
  Q 265.56 105.98 265.15 104.30
  A 0.36 0.32 -1.1 0 1 265.56 103.92
  Q 267.75 104.27 267.59 101.96
  Q 267.50 100.63 267.50 100.53
  Q 267.52 96.90 267.50 93.27
  Q 267.50 92.99 267.58 92.74
  Q 268.19 90.97 268.28 93.26
  Q 268.42 96.85 268.55 100.09
  Z"
/>
<path fill="#02d3b2" d="
  M 201.46 185.50
  Q 192.88 204.42 185.29 223.75
  Q 174.46 248.47 164.15 273.42
  Q 163.97 273.85 163.71 273.87
  A 0.60 0.37 -89.5 0 1 163.33 273.25
  L 164.02 241.62
  A 1.38 1.31 -85.2 0 0 162.92 240.24
  L 147.74 237.75
  A 0.60 0.58 15.7 0 1 147.27 236.95
  L 169.32 185.27
  L 185.61 146.80
  L 207.32 95.88
  A 0.97 0.94 -72.5 0 1 208.39 95.30
  L 223.59 98.45
  A 1.39 1.37 -83.7 0 1 224.68 99.83
  Q 224.46 111.91 223.66 124.40
  Q 223.65 124.55 223.57 129.10
  Q 223.48 134.21 221.31 138.84
  Q 219.95 141.75 219.91 141.84
  Q 210.61 163.64 201.46 185.50
  Z
  M 200.25 151.21
  L 199.96 150.00
  Q 199.49 145.21 197.24 147.77
  Q 196.45 148.68 196.15 149.93
  Q 195.17 154.13 198.14 157.15
  A 0.64 0.63 -38.3 0 0 198.94 157.24
  Q 202.28 155.07 200.25 151.21
  Z
  M 193.24 159.78
  Q 192.68 158.19 194.41 156.18
  Q 194.92 155.58 194.49 155.36
  A 0.73 0.56 -57.9 0 0 193.70 155.65
  Q 191.60 158.67 192.88 161.76
  A 0.92 0.92 -37.0 0 0 194.45 161.98
  Q 196.48 159.46 196.75 162.25
  Q 196.88 163.63 195.31 165.20
  A 1.06 0.58 -35.4 0 0 194.96 165.91
  Q 195.00 166.28 195.37 166.26
  Q 195.65 166.24 195.91 165.95
  Q 198.04 163.49 197.26 160.20
  Q 196.70 157.84 194.75 160.07
  A 0.89 0.89 55.8 0 1 193.24 159.78
  Z
  M 191.06 165.49
  Q 192.13 165.44 192.06 166.67
  Q 192.03 167.25 191.45 168.05
  Q 189.88 170.21 190.30 172.84
  Q 190.46 173.81 191.01 174.52
  Q 192.43 176.33 193.25 173.50
  Q 193.96 171.06 194.51 169.95
  A 1.10 0.81 -51.0 0 0 194.55 169.05
  L 192.00 164.34
  A 1.03 0.98 -43.0 0 0 190.27 164.32
  Q 189.35 165.71 188.81 167.98
  Q 188.77 168.16 188.61 168.49
  Q 188.39 168.94 188.71 169.10
  A 0.58 0.43 -66.8 0 0 189.36 168.72
  L 190.38 166.03
  A 0.83 0.73 -79.7 0 1 191.06 165.49
  Z
  M 189.79 178.75
  Q 189.95 177.49 188.79 177.25
  Q 190.29 174.41 187.93 172.77
  A 0.63 0.60 -50.4 0 0 187.14 172.86
  Q 183.77 176.38 185.96 181.05
  Q 187.97 185.35 190.16 180.94
  Q 190.51 180.21 190.47 179.40
  Q 190.34 176.79 189.79 178.75
  Z
  M 182.4376 178.3851
  A 0.49 0.49 0.0 0 0 181.7778 178.1732
  L 181.7067 178.2098
  A 0.49 0.49 0.0 0 0 181.4948 178.8696
  L 186.1024 187.8349
  A 0.49 0.49 0.0 0 0 186.7622 188.0468
  L 186.8333 188.0102
  A 0.49 0.49 0.0 0 0 187.0452 187.3504
  L 182.4376 178.3851
  Z
  M 181.04 192.00
  L 181.71 192.00
  Q 181.69 192.23 181.77 192.35
  A 0.30 0.21 -44.0 0 0 182.19 192.28
  Q 183.63 190.55 183.75 188.39
  Q 183.81 187.42 183.30 186.73
  Q 182.43 185.56 181.33 186.32
  Q 180.57 186.86 180.24 188.09
  Q 179.19 192.02 181.19 195.94
  A 1.36 1.36 -38.1 0 0 183.43 196.21
  Q 184.63 194.84 184.77 192.97
  Q 184.84 192.07 184.41 192.87
  Q 182.40 196.55 181.79 194.04
  Q 181.52 192.96 181.04 192.00
  Z
  M 178.40 196.53
  Q 179.05 194.42 179.00 193.75
  Q 178.89 192.16 178.29 193.14
  A 1.69 0.95 71.9 0 0 178.11 194.04
  Q 178.19 195.65 176.99 196.54
  A 0.62 0.55 -32.2 0 0 176.78 197.26
  Q 178.32 200.27 180.09 203.15
  Q 180.20 203.33 180.35 203.41
  Q 180.92 203.70 180.56 202.87
  Q 179.39 200.20 178.41 197.46
  A 1.53 1.40 -48.1 0 1 178.40 196.53
  Z"
/>
<path fill="#0d1840" d="
  M 66.96 228.00
  Q 67.65 225.52 66.00 223.54
  L 65.27 217.49
  Q 65.09 204.70 62.48 192.14
  Q 61.46 185.22 62.04 178.00
  Q 62.66 178.11 63.12 177.83
  A 1.18 0.73 84.1 0 0 63.53 176.99
  L 64.96 156.75
  L 67.00 141.45
  Q 70.73 118.66 81.57 98.30
  Q 82.75 96.08 82.72 98.61
  L 82.43 129.31
  A 0.65 0.63 6.9 0 0 82.93 129.93
  Q 90.60 131.77 98.28 132.24
  A 0.69 0.69 14.4 0 1 98.86 133.22
  Q 90.54 150.52 88.49 169.56
  Q 85.61 196.38 92.61 222.32
  Q 92.68 222.60 93.70 225.04
  Q 94.28 226.43 94.23 228.00
  Q 93.76 242.76 92.91 259.18
  A 1.04 1.02 -84.2 0 1 91.74 260.16
  L 76.30 257.78
  A 0.96 0.90 81.6 0 1 75.61 257.23
  Q 69.36 243.20 66.96 228.00
  Z
  M 79.81 162.19
  Q 78.41 161.02 73.96 159.19
  A 0.48 0.44 18.7 0 0 73.32 159.47
  Q 73.01 160.70 74.78 161.37
  A 1.23 1.22 26.0 0 1 75.40 163.16
  Q 72.74 167.46 76.22 171.33
  A 1.13 1.02 65.1 0 0 77.07 171.69
  Q 79.31 171.58 79.69 168.94
  Q 80.02 166.65 79.87 165.06
  A 1.69 1.27 -38.8 0 1 80.10 164.15
  Q 80.78 162.99 79.81 162.19
  Z
  M 79.0509 176.6477
  A 0.78 0.78 0.0 0 0 78.4910 175.6972
  L 72.7596 174.2150
  A 0.78 0.78 0.0 0 0 71.8091 174.7749
  L 71.7891 174.8523
  A 0.78 0.78 0.0 0 0 72.3490 175.8028
  L 78.0804 177.2850
  A 0.78 0.78 0.0 0 0 79.0309 176.7251
  L 79.0509 176.6477
  Z
  M 75.24 180.61
  Q 73.47 180.49 71.74 180.88
  Q 71.22 181.00 71.71 181.19
  Q 74.71 182.38 77.95 182.43
  A 0.48 0.45 -1.6 0 0 78.44 181.94
  Q 78.32 180.53 76.88 180.57
  Q 75.38 180.62 75.24 180.61
  Z
  M 77.24 193.42
  L 75.05 194.03
  A 1.28 0.25 -12.9 0 0 74.19 194.41
  Q 73.75 194.93 74.14 195.36
  Q 74.45 195.71 75.10 195.70
  Q 79.00 195.68 78.63 191.51
  Q 78.42 189.09 78.13 186.69
  A 0.59 0.58 86.5 0 0 77.57 186.18
  Q 75.15 186.15 74.50 186.50
  Q 72.10 187.79 76.46 188.11
  A 1.16 1.15 83.0 0 1 77.49 188.92
  Q 78.22 191.22 77.84 192.72
  A 1.01 0.80 -87.7 0 1 77.24 193.42
  Z
  M 75.46 199.70
  Q 73.38 203.50 75.27 207.31
  A 0.65 0.63 56.7 0 1 75.12 208.08
  Q 74.60 208.53 74.05 208.95
  Q 73.50 209.37 73.28 209.85
  Q 72.50 211.54 74.70 210.72
  Q 77.26 209.77 79.41 208.13
  A 1.15 1.11 -16.9 0 0 79.86 207.32
  Q 80.13 203.71 79.05 200.33
  Q 78.65 199.09 77.84 198.66
  Q 76.45 197.91 75.46 199.70
  Z"
/>
<path fill="#02d3b2" d="
  M 271.11 272.05
  A 0.74 0.73 -83.8 0 1 270.51 271.29
  Q 271.13 255.75 271.50 240.00
  Q 271.57 237.08 273.26 233.60
  Q 281.18 217.24 281.96 199.00
  Q 282.28 191.50 282.30 183.99
  Q 282.33 175.10 281.62 169.02
  Q 279.60 151.61 272.46 135.46
  A 0.30 0.30 80.3 0 1 272.76 135.03
  L 288.30 136.61
  A 1.55 1.53 3.8 0 0 290.01 135.14
  L 290.98 104.86
  Q 291.04 102.92 291.75 104.74
  Q 302.82 133.53 305.75 164.25
  Q 308.35 191.50 305.81 216.01
  Q 302.57 247.12 288.09 274.39
  A 0.88 0.84 -70.7 0 1 287.18 274.85
  L 271.11 272.05
  Z
  M 293.2142 166.9300
  A 7.39 3.68 90.2 0 0 296.9200 159.5528
  A 7.39 3.68 90.2 0 0 293.2658 152.1500
  A 7.39 3.68 90.2 0 0 289.5600 159.5272
  A 7.39 3.68 90.2 0 0 293.2142 166.9300
  Z
  M 292.29 174.29
  Q 291.42 177.46 292.81 180.44
  Q 294.20 183.41 295.94 180.44
  Q 297.56 177.66 296.79 174.49
  Q 296.32 172.54 296.41 170.55
  A 0.40 0.39 86.0 0 0 295.95 170.14
  Q 292.79 170.67 290.16 172.46
  A 0.36 0.35 -44.8 0 0 290.15 173.05
  Q 290.95 173.59 291.94 173.75
  A 0.44 0.43 12.6 0 1 292.29 174.29
  Z
  M 296.25 191.66
  Q 295.49 192.13 295.19 192.95
  A 0.58 0.50 -73.0 0 0 295.51 193.68
  Q 296.06 193.81 296.56 193.06
  Q 299.55 188.61 296.19 184.56
  Q 294.59 182.65 293.56 185.06
  Q 292.28 188.07 292.69 191.33
  Q 292.72 191.59 292.71 192.17
  Q 292.69 192.99 293.28 192.91
  A 0.51 0.42 77.2 0 0 293.60 192.28
  Q 292.93 189.99 293.63 187.23
  Q 294.29 184.63 296.34 186.36
  Q 298.25 187.99 296.90 190.99
  A 1.70 0.94 -16.9 0 1 296.25 191.66
  Z
  M 297.12 198.22
  A 0.60 0.59 12.9 0 0 296.70 197.56
  Q 295.56 197.22 294.54 196.91
  Q 293.95 196.74 293.45 196.76
  Q 291.27 196.85 292.83 197.97
  Q 293.15 198.20 293.75 198.34
  Q 296.36 198.93 296.12 201.70
  Q 296.08 202.26 296.24 202.65
  Q 296.85 204.08 297.28 203.04
  A 1.64 0.96 59.7 0 0 297.28 202.08
  Q 296.78 200.33 297.12 198.22
  Z
  M 291.79 210.25
  Q 290.63 211.78 293.56 213.63
  A 1.55 1.54 29.4 0 0 295.77 213.02
  Q 296.76 211.04 296.76 208.21
  Q 296.76 208.14 296.90 207.31
  Q 297.03 206.53 295.75 206.79
  L 295.29 206.75
  Q 294.64 205.70 294.14 204.56
  Q 293.87 203.94 293.54 203.69
  Q 292.77 203.11 292.31 204.06
  Q 291.29 206.20 291.79 210.25
  Z
  M 290.94 216.83
  Q 289.78 218.24 290.00 219.23
  Q 290.12 219.75 290.38 219.23
  Q 291.33 217.32 293.66 219.16
  A 2.06 1.61 -72.9 0 1 294.29 220.81
  L 294.15 222.72
  Q 294.10 223.47 294.67 222.84
  L 296.19 221.14
  A 0.76 0.76 -36.5 0 0 296.31 220.30
  Q 295.18 217.94 291.75 216.61
  A 0.73 0.72 -59.8 0 0 290.94 216.83
  Z
  M 291.1854 233.2439
  A 5.10 2.56 84.2 0 0 293.2169 227.9113
  A 5.10 2.56 84.2 0 0 290.1546 223.0961
  A 5.10 2.56 84.2 0 0 288.1231 228.4287
  A 5.10 2.56 84.2 0 0 291.1854 233.2439
  Z"
/>
<path fill="#0d1840" d="
  M 185.61 146.80
  L 169.32 185.27
  Q 161.44 167.26 153.69 149.09
  Q 152.52 146.34 152.46 143.56
  Q 152.37 138.76 152.75 133.99
  Q 153.19 128.49 153.22 124.47
  Q 153.26 117.33 153.84 109.54
  A 0.71 0.67 -82.6 0 1 154.64 108.89
  L 170.08 111.81
  A 1.05 0.85 80.3 0 1 170.75 112.40
  L 185.61 146.80
  Z
  M 160.21 131.50
  Q 159.99 132.63 160.97 134.96
  Q 159.32 134.04 160.25 135.50
  Q 161.81 137.96 162.94 136.44
  Q 166.96 131.04 163.06 125.90
  A 1.84 1.44 -71.6 0 1 162.74 125.00
  Q 162.66 123.88 161.89 124.50
  Q 161.60 124.73 161.34 125.21
  Q 158.03 131.30 157.69 132.94
  Q 157.25 135.05 158.69 133.69
  Q 159.07 133.33 160.21 131.50
  Z
  M 168.8780 131.8174
  A 0.41 0.41 0.0 0 0 168.6864 131.2702
  L 168.3980 131.1314
  A 0.41 0.41 0.0 0 0 167.8508 131.3230
  L 163.2020 140.9826
  A 0.41 0.41 0.0 0 0 163.3936 141.5298
  L 163.6820 141.6686
  A 0.41 0.41 0.0 0 0 164.2292 141.4770
  L 168.8780 131.8174
  Z
  M 168.71 145.00
  Q 168.20 144.48 168.21 143.75
  Q 168.72 141.68 166.82 141.36
  A 0.86 0.85 -67.2 0 0 166.00 141.70
  Q 163.88 144.50 165.94 147.56
  Q 167.01 149.16 167.52 150.06
  A 0.34 0.34 50.8 0 0 168.08 150.12
  Q 172.03 145.32 169.86 139.51
  Q 169.68 139.03 169.33 138.76
  Q 168.24 137.93 168.27 139.18
  Q 168.28 139.62 168.61 140.10
  Q 169.56 141.46 170.10 143.02
  A 0.82 0.79 59.4 0 1 169.90 143.87
  L 168.71 145.00
  Z
  M 172.82 149.90
  Q 174.53 152.30 172.42 156.28
  Q 171.90 157.25 171.68 158.34
  Q 171.12 161.18 172.75 158.75
  Q 173.52 157.61 174.39 154.97
  Q 175.13 152.75 174.64 150.98
  Q 174.07 148.89 172.64 146.96
  A 0.34 0.32 40.7 0 0 172.07 146.98
  L 168.96 153.71
  A 0.50 0.45 -71.8 0 0 169.27 154.40
  Q 169.76 154.48 170.01 153.75
  Q 170.74 151.61 172.17 149.89
  A 0.41 0.41 -43.5 0 1 172.82 149.90
  Z"
/>
<path fill="#01c3a9" d="
  M 160.97 134.96
  Q 166.15 132.81 162.79 127.90
  A 0.57 0.55 57.2 0 0 162.05 127.73
  Q 160.08 128.90 160.21 131.50
  Q 159.07 133.33 158.69 133.69
  Q 157.25 135.05 157.69 132.94
  Q 158.03 131.30 161.34 125.21
  Q 161.60 124.73 161.89 124.50
  Q 162.66 123.88 162.74 125.00
  A 1.84 1.44 -71.6 0 0 163.06 125.90
  Q 166.96 131.04 162.94 136.44
  Q 161.81 137.96 160.25 135.50
  Q 159.32 134.04 160.97 134.96
  Z"
/>
<path fill="#0d1840" d="
  M 160.97 134.96
  Q 159.99 132.63 160.21 131.50
  Q 160.08 128.90 162.05 127.73
  A 0.57 0.55 57.2 0 1 162.79 127.90
  Q 166.15 132.81 160.97 134.96
  Z"
/>
<rect fill="#01c3a9" x="-0.57" y="-5.77" transform="translate(166.04,136.40) rotate(25.7)" width="1.14" height="11.54" rx="0.41"/>
<path fill="#01c3a9" d="
  M 168.21 143.75
  Q 166.99 142.80 166.12 143.68
  A 1.05 0.91 64.9 0 0 165.87 144.55
  Q 166.13 146.26 167.38 147.43
  A 0.55 0.54 45.0 0 0 168.13 147.44
  Q 169.10 146.51 168.71 145.00
  L 169.90 143.87
  A 0.82 0.79 59.4 0 0 170.10 143.02
  Q 169.56 141.46 168.61 140.10
  Q 168.28 139.62 168.27 139.18
  Q 168.24 137.93 169.33 138.76
  Q 169.68 139.03 169.86 139.51
  Q 172.03 145.32 168.08 150.12
  A 0.34 0.34 50.8 0 1 167.52 150.06
  Q 167.01 149.16 165.94 147.56
  Q 163.88 144.50 166.00 141.70
  A 0.86 0.85 -67.2 0 1 166.82 141.36
  Q 168.72 141.68 168.21 143.75
  Z"
/>
<path fill="#0d1840" d="
  M 67.00 141.45
  L 64.96 156.75
  L 64.29 156.75
  Q 65.02 148.98 67.00 141.45
  Z"
/>
<path fill="#0d1840" d="
  M 168.21 143.75
  Q 168.20 144.48 168.71 145.00
  Q 169.10 146.51 168.13 147.44
  A 0.55 0.54 45.0 0 1 167.38 147.43
  Q 166.13 146.26 165.87 144.55
  A 1.05 0.91 64.9 0 1 166.12 143.68
  Q 166.99 142.80 168.21 143.75
  Z"
/>
<path fill="#01c3a9" d="
  M 172.17 149.89
  Q 170.74 151.61 170.01 153.75
  Q 169.76 154.48 169.27 154.40
  A 0.50 0.45 -71.8 0 1 168.96 153.71
  L 172.07 146.98
  A 0.34 0.32 40.7 0 1 172.64 146.96
  Q 174.07 148.89 174.64 150.98
  Q 175.13 152.75 174.39 154.97
  Q 173.52 157.61 172.75 158.75
  Q 171.12 161.18 171.68 158.34
  Q 171.90 157.25 172.42 156.28
  Q 174.53 152.30 172.82 149.90
  A 0.41 0.41 -43.5 0 0 172.17 149.89
  Z"
/>
<path fill="#01020a" d="
  M 199.96 150.00
  Q 199.36 151.42 198.25 152.46
  Q 198.49 151.20 198.84 149.96
  Q 199.14 148.90 198.46 148.45
  A 0.65 0.58 -53.0 0 0 197.66 148.61
  Q 195.99 150.57 197.25 153.04
  Q 197.55 154.21 197.99 155.32
  Q 198.22 155.91 198.60 156.12
  Q 199.40 156.54 199.63 155.23
  Q 199.98 153.23 200.25 151.21
  Q 202.28 155.07 198.94 157.24
  A 0.64 0.63 -38.3 0 1 198.14 157.15
  Q 195.17 154.13 196.15 149.93
  Q 196.45 148.68 197.24 147.77
  Q 199.49 145.21 199.96 150.00
  Z"
/>
<path fill="#02d3b2" d="
  M 198.25 152.46
  Q 197.83 152.91 197.25 153.04
  Q 195.99 150.57 197.66 148.61
  A 0.65 0.58 -53.0 0 1 198.46 148.45
  Q 199.14 148.90 198.84 149.96
  Q 198.49 151.20 198.25 152.46
  Z"
/>
<path fill="#02d3b2" d="
  M 199.96 150.00
  L 200.25 151.21
  Q 199.98 153.23 199.63 155.23
  Q 199.40 156.54 198.60 156.12
  Q 198.22 155.91 197.99 155.32
  Q 197.55 154.21 197.25 153.04
  Q 197.83 152.91 198.25 152.46
  Q 199.36 151.42 199.96 150.00
  Z"
/>
<path fill="#0d1840" d="
  M 293.2142 166.9300
  A 7.39 3.68 90.2 0 1 289.5600 159.5272
  A 7.39 3.68 90.2 0 1 293.2658 152.1500
  A 7.39 3.68 90.2 0 1 296.9200 159.5528
  A 7.39 3.68 90.2 0 1 293.2142 166.9300
  Z
  M 293.1824 165.1691
  A 5.59 2.56 91.0 0 0 295.8396 159.6247
  A 5.59 2.56 91.0 0 0 293.3776 153.9909
  A 5.59 2.56 91.0 0 0 290.7204 159.5353
  A 5.59 2.56 91.0 0 0 293.1824 165.1691
  Z"
/>
<ellipse fill="#02d3b2" cx="0.00" cy="0.00" transform="translate(293.28,159.58) rotate(91.0)" rx="5.59" ry="2.56"/>
<path fill="#01020a" d="
  M 193.24 159.78
  A 0.89 0.89 55.8 0 0 194.75 160.07
  Q 196.70 157.84 197.26 160.20
  Q 198.04 163.49 195.91 165.95
  Q 195.65 166.24 195.37 166.26
  Q 195.00 166.28 194.96 165.91
  A 1.06 0.58 -35.4 0 1 195.31 165.20
  Q 196.88 163.63 196.75 162.25
  Q 196.48 159.46 194.45 161.98
  A 0.92 0.92 -37.0 0 1 192.88 161.76
  Q 191.60 158.67 193.70 155.65
  A 0.73 0.56 -57.9 0 1 194.49 155.36
  Q 194.92 155.58 194.41 156.18
  Q 192.68 158.19 193.24 159.78
  Z"
/>
<path fill="#8e8d9e" fill-opacity="0.996" d="
  M 64.29 156.75
  L 64.96 156.75
  L 63.53 176.99
  A 1.18 0.73 84.1 0 1 63.12 177.83
  Q 62.66 178.11 62.04 178.00
  Q 62.28 170.18 62.25 168.75
  Q 62.21 166.31 63.24 164.43
  Q 63.46 164.03 63.52 163.50
  L 64.29 156.75
  Z"
/>
<path fill="#01c3a9" d="
  M 79.81 162.19
  Q 80.78 162.99 80.10 164.15
  A 1.69 1.27 -38.8 0 0 79.87 165.06
  Q 80.02 166.65 79.69 168.94
  Q 79.31 171.58 77.07 171.69
  A 1.13 1.02 65.1 0 1 76.22 171.33
  Q 72.74 167.46 75.40 163.16
  A 1.23 1.22 26.0 0 0 74.78 161.37
  Q 73.01 160.70 73.32 159.47
  A 0.48 0.44 18.7 0 1 73.96 159.19
  Q 78.41 161.02 79.81 162.19
  Z
  M 77.3696 169.9697
  A 3.55 1.92 89.2 0 0 79.2398 166.3932
  A 3.55 1.92 89.2 0 0 77.2704 162.8703
  A 3.55 1.92 89.2 0 0 75.4002 166.4468
  A 3.55 1.92 89.2 0 0 77.3696 169.9697
  Z"
/>
<ellipse fill="#0d1840" cx="0.00" cy="0.00" transform="translate(77.32,166.42) rotate(89.2)" rx="3.55" ry="1.92"/>
<path fill="#01020a" d="
  M 190.38 166.03
  L 189.36 168.72
  A 0.58 0.43 -66.8 0 1 188.71 169.10
  Q 188.39 168.94 188.61 168.49
  Q 188.77 168.16 188.81 167.98
  Q 189.35 165.71 190.27 164.32
  A 1.03 0.98 -43.0 0 1 192.00 164.34
  L 194.55 169.05
  A 1.10 0.81 -51.0 0 1 194.51 169.95
  Q 193.96 171.06 193.25 173.50
  Q 192.43 176.33 191.01 174.52
  Q 190.46 173.81 190.30 172.84
  Q 189.88 170.21 191.45 168.05
  Q 192.03 167.25 192.06 166.67
  Q 192.13 165.44 191.06 165.49
  A 0.83 0.73 -79.7 0 0 190.38 166.03
  Z
  M 191.6555 173.5151
  A 2.83 1.08 101.3 0 0 193.2691 170.9516
  A 2.83 1.08 101.3 0 0 192.7645 167.9649
  A 2.83 1.08 101.3 0 0 191.1509 170.5284
  A 2.83 1.08 101.3 0 0 191.6555 173.5151
  Z"
/>
<path fill="#0d1840" d="
  M 231.5299 201.0099
  A 17.21 8.46 90.2 0 1 223.1301 183.7705
  A 17.21 8.46 90.2 0 1 231.6501 166.5901
  A 17.21 8.46 90.2 0 1 240.0499 183.8295
  A 17.21 8.46 90.2 0 1 231.5299 201.0099
  Z
  M 231.6047 192.5400
  A 8.76 4.01 90.1 0 0 235.6300 183.7870
  A 8.76 4.01 90.1 0 0 231.6353 175.0200
  A 8.76 4.01 90.1 0 0 227.6100 183.7730
  A 8.76 4.01 90.1 0 0 231.6047 192.5400
  Z"
/>
<path fill="#02d3b2" d="
  M 113.94 168.52
  Q 114.96 169.17 115.53 170.23
  Q 122.27 182.77 115.98 195.83
  Q 113.21 201.59 105.12 200.28
  A 1.58 1.54 -85.5 0 1 103.83 198.73
  L 103.99 168.12
  A 0.88 0.87 85.2 0 1 104.70 167.27
  Q 110.41 166.27 113.94 168.52
  Z
  M 110.06 175.30
  Q 107.72 174.85 107.89 177.56
  Q 107.99 179.37 107.99 179.44
  Q 107.96 185.31 108.06 191.19
  A 0.70 0.66 -82.2 0 0 108.53 191.85
  Q 110.06 192.32 111.38 191.77
  Q 112.69 191.22 113.29 189.50
  Q 114.48 186.06 114.00 181.25
  Q 113.70 178.25 112.27 176.57
  Q 111.40 175.56 110.06 175.30
  Z"
/>
<ellipse fill="#02d3b2" cx="0.00" cy="0.00" transform="translate(192.21,170.74) rotate(101.3)" rx="2.83" ry="1.08"/>
<path fill="#01020a" d="
  M 291.94 173.75
  Q 290.95 173.59 290.15 173.05
  A 0.36 0.35 -44.8 0 1 290.16 172.46
  Q 292.79 170.67 295.95 170.14
  A 0.40 0.39 86.0 0 1 296.41 170.55
  Q 296.32 172.54 296.79 174.49
  Q 297.56 177.66 295.94 180.44
  Q 294.20 183.41 292.81 180.44
  Q 291.42 177.46 292.29 174.29
  A 0.44 0.43 12.6 0 0 291.94 173.75
  Z
  M 294.3132 179.8576
  A 3.92 1.70 92.0 0 0 296.1490 175.9993
  A 3.92 1.70 92.0 0 0 294.5868 172.0224
  A 3.92 1.70 92.0 0 0 292.7510 175.8807
  A 3.92 1.70 92.0 0 0 294.3132 179.8576
  Z"
/>
<ellipse fill="#02d3b2" cx="0.00" cy="0.00" transform="translate(294.45,175.94) rotate(92.0)" rx="3.92" ry="1.70"/>
<path fill="#01020a" d="
  M 188.79 177.25
  L 187.26 179.58
  A 1.21 1.20 -34.2 0 0 187.08 180.49
  Q 187.56 183.02 189.19 180.94
  Q 189.67 180.32 189.79 178.75
  Q 190.34 176.79 190.47 179.40
  Q 190.51 180.21 190.16 180.94
  Q 187.97 185.35 185.96 181.05
  Q 183.77 176.38 187.14 172.86
  A 0.63 0.60 -50.4 0 1 187.93 172.77
  Q 190.29 174.41 188.79 177.25
  Z
  M 186.3733 178.6481
  A 2.41 0.99 108.3 0 0 188.0699 176.6709
  A 2.41 0.99 108.3 0 0 187.8867 174.0719
  A 2.41 0.99 108.3 0 0 186.1901 176.0491
  A 2.41 0.99 108.3 0 0 186.3733 178.6481
  Z"
/>
<ellipse fill="#02d3b2" cx="0.00" cy="0.00" transform="translate(187.13,176.36) rotate(108.3)" rx="2.41" ry="0.99"/>
<rect fill="#02d3b2" x="-3.74" y="-0.82" transform="translate(75.42,175.75) rotate(14.5)" width="7.48" height="1.64" rx="0.78"/>
<path fill="#02d3b2" d="
  M 128.86 192.98
  Q 129.68 191.32 131.73 194.87
  A 2.17 2.16 43.9 0 1 131.77 196.95
  Q 130.82 198.78 129.31 199.99
  Q 127.68 201.29 125.91 200.91
  Q 123.89 200.48 122.81 198.44
  Q 120.75 194.54 120.60 190.10
  Q 120.47 186.27 120.78 183.38
  Q 121.16 179.92 122.98 176.90
  Q 124.16 174.95 125.86 174.68
  Q 128.03 174.33 129.72 176.28
  Q 131.84 178.71 132.27 181.91
  Q 132.72 185.19 132.76 189.31
  A 0.93 0.93 89.7 0 1 131.83 190.25
  L 125.43 190.25
  A 0.50 0.49 -1.1 0 0 124.93 190.76
  Q 125.03 194.54 128.22 193.59
  A 1.20 0.82 -78.0 0 0 128.86 192.98
  Z
  M 125.39 182.28
  L 124.76 185.00
  A 0.55 0.45 10.0 0 0 125.25 185.57
  Q 130.64 186.21 127.43 182.05
  Q 125.91 180.09 125.39 182.28
  Z"
/>
<path fill="#02d3b2" d="
  M 139.98 188.41
  Q 140.29 188.05 140.31 187.31
  Q 140.40 183.46 141.51 178.51
  Q 141.63 177.99 141.64 176.46
  Q 141.65 174.68 143.44 174.86
  Q 143.96 174.91 144.41 174.77
  Q 146.89 173.98 146.38 176.53
  Q 144.07 188.06 141.66 199.58
  A 0.95 0.89 85.8 0 1 141.10 200.27
  Q 139.70 200.83 138.23 200.41
  A 0.84 0.81 -87.4 0 1 137.65 199.75
  L 133.32 175.97
  A 0.94 0.91 -15.3 0 1 133.93 174.94
  Q 137.32 173.73 137.81 177.03
  Q 138.64 182.61 139.49 188.19
  Q 139.59 188.86 139.98 188.41
  Z"
/>
<path fill="#0d1840" d="
  M 246.65 176.32
  Q 248.99 173.90 251.34 175.22
  Q 252.83 176.06 253.75 178.50
  Q 257.37 188.09 253.42 197.56
  Q 252.55 199.65 251.48 200.51
  Q 249.30 202.27 247.31 199.19
  Q 246.94 198.60 246.47 198.61
  A 0.62 0.43 88.8 0 0 246.05 199.25
  L 246.21 206.69
  A 1.02 0.98 -20.5 0 1 245.81 207.52
  Q 244.38 208.62 242.74 207.71
  A 0.91 0.83 -76.6 0 1 242.31 206.94
  L 242.18 175.96
  A 0.86 0.84 -14.0 0 1 242.64 175.21
  Q 245.45 173.76 246.19 176.20
  A 0.28 0.27 58.8 0 0 246.65 176.32
  Z
  M 248.7000 193.4200
  A 5.74 2.39 89.8 0 0 251.0700 187.6717
  A 5.74 2.39 89.8 0 0 248.6600 181.9400
  A 5.74 2.39 89.8 0 0 246.2900 187.6883
  A 5.74 2.39 89.8 0 0 248.7000 193.4200
  Z"
/>
<path fill="#0d1840" d="
  M 260.93 181.54
  Q 260.57 183.45 262.75 184.50
  Q 266.70 186.40 266.87 190.66
  Q 266.97 193.12 266.84 194.84
  Q 266.67 197.02 265.36 198.88
  Q 262.86 202.44 258.94 199.81
  Q 255.68 197.62 257.21 194.37
  Q 257.39 193.99 257.45 193.43
  Q 257.65 191.54 260.23 193.68
  A 3.62 3.60 64.6 0 0 262.52 194.50
  Q 263.70 194.50 263.17 192.99
  A 3.45 3.45 1.6 0 0 261.22 190.93
  Q 257.58 189.43 257.34 185.74
  Q 257.02 180.90 257.56 178.31
  Q 257.98 176.31 259.70 175.38
  Q 261.07 174.65 263.01 175.07
  Q 269.02 176.37 265.31 182.26
  A 0.77 0.77 44.7 0 1 264.01 182.26
  Q 262.97 180.60 261.54 180.91
  A 0.80 0.79 89.5 0 0 260.93 181.54
  Z"
/>
<path fill="#02d3b2" d="
  M 188.79 177.25
  Q 189.95 177.49 189.79 178.75
  Q 189.67 180.32 189.19 180.94
  Q 187.56 183.02 187.08 180.49
  A 1.21 1.20 -34.2 0 1 187.26 179.58
  L 188.79 177.25
  Z"
/>
<rect fill="#01020a" x="-0.53" y="-5.53" transform="translate(184.27,183.11) rotate(-27.2)" width="1.06" height="11.06" rx="0.49"/>
<path fill="#02d3b2" d="
  M 76.88 180.57
  Q 78.32 180.53 78.44 181.94
  A 0.48 0.45 -1.6 0 1 77.95 182.43
  Q 74.71 182.38 71.71 181.19
  Q 71.22 181.00 71.74 180.88
  Q 73.47 180.49 75.24 180.61
  Q 75.38 180.62 76.88 180.57
  Z"
/>
<path fill="#01020a" d="
  M 296.90 190.99
  Q 298.25 187.99 296.34 186.36
  Q 294.29 184.63 293.63 187.23
  Q 292.93 189.99 293.60 192.28
  A 0.51 0.42 77.2 0 1 293.28 192.91
  Q 292.69 192.99 292.71 192.17
  Q 292.72 191.59 292.69 191.33
  Q 292.28 188.07 293.56 185.06
  Q 294.59 182.65 296.19 184.56
  Q 299.55 188.61 296.56 193.06
  Q 296.06 193.81 295.51 193.68
  A 0.58 0.50 -73.0 0 1 295.19 192.95
  Q 295.49 192.13 296.25 191.66
  A 1.70 0.94 -16.9 0 0 296.90 190.99
  Z"
/>
<path fill="#0d1840" d="
  M 201.46 185.50
  L 218.33 225.44
  Q 218.80 226.56 217.59 226.36
  L 202.83 223.90
  A 1.16 1.12 -83.8 0 0 201.52 224.99
  L 199.98 256.10
  Q 199.88 257.97 199.14 256.23
  L 185.29 223.75
  Q 192.88 204.42 201.46 185.50
  Z"
/>
<path fill="#02d3b2" d="
  M 77.84 192.72
  Q 78.22 191.22 77.49 188.92
  A 1.16 1.15 83.0 0 0 76.46 188.11
  Q 72.10 187.79 74.50 186.50
  Q 75.15 186.15 77.57 186.18
  A 0.59 0.58 86.5 0 1 78.13 186.69
  Q 78.42 189.09 78.63 191.51
  Q 79.00 195.68 75.10 195.70
  Q 74.45 195.71 74.14 195.36
  Q 73.75 194.93 74.19 194.41
  A 1.28 0.25 -12.9 0 1 75.05 194.03
  L 77.24 193.42
  A 1.01 0.80 -87.7 0 0 77.84 192.72
  Z"
/>
<path fill="#01020a" d="
  M 181.71 192.00
  Q 182.17 190.76 182.72 189.57
  Q 183.03 188.91 182.94 188.36
  Q 182.66 186.84 181.31 188.06
  Q 179.94 189.30 181.04 192.00
  Q 181.52 192.96 181.79 194.04
  Q 182.40 196.55 184.41 192.87
  Q 184.84 192.07 184.77 192.97
  Q 184.63 194.84 183.43 196.21
  A 1.36 1.36 -38.1 0 1 181.19 195.94
  Q 179.19 192.02 180.24 188.09
  Q 180.57 186.86 181.33 186.32
  Q 182.43 185.56 183.30 186.73
  Q 183.81 187.42 183.75 188.39
  Q 183.63 190.55 182.19 192.28
  A 0.30 0.21 -44.0 0 1 181.77 192.35
  Q 181.69 192.23 181.71 192.00
  Z"
/>
<path fill="#02d3b2" d="
  M 181.71 192.00
  L 181.04 192.00
  Q 179.94 189.30 181.31 188.06
  Q 182.66 186.84 182.94 188.36
  Q 183.03 188.91 182.72 189.57
  Q 182.17 190.76 181.71 192.00
  Z"
/>
<path fill="#8e8d9e" fill-opacity="0.996" d="
  M 62.48 192.14
  Q 65.09 204.70 65.27 217.49
  Q 63.94 212.62 63.76 207.65
  Q 63.68 205.29 62.95 202.46
  Q 61.66 197.50 62.48 192.14
  Z"
/>
<path fill="#01020a" d="
  M 178.41 197.46
  Q 179.39 200.20 180.56 202.87
  Q 180.92 203.70 180.35 203.41
  Q 180.20 203.33 180.09 203.15
  Q 178.32 200.27 176.78 197.26
  A 0.62 0.55 -32.2 0 1 176.99 196.54
  Q 178.19 195.65 178.11 194.04
  A 1.69 0.95 71.9 0 1 178.29 193.14
  Q 178.89 192.16 179.00 193.75
  Q 179.05 194.42 178.40 196.53
  A 1.53 1.40 -48.1 0 0 178.41 197.46
  Z"
/>
<path fill="#0d1840" d="
  M 297.12 198.22
  Q 296.78 200.33 297.28 202.08
  A 1.64 0.96 59.7 0 1 297.28 203.04
  Q 296.85 204.08 296.24 202.65
  Q 296.08 202.26 296.12 201.70
  Q 296.36 198.93 293.75 198.34
  Q 293.15 198.20 292.83 197.97
  Q 291.27 196.85 293.45 196.76
  Q 293.95 196.74 294.54 196.91
  Q 295.56 197.22 296.70 197.56
  A 0.60 0.59 12.9 0 1 297.12 198.22
  Z"
/>
<path fill="#01c3a9" d="
  M 75.46 199.70
  Q 76.45 197.91 77.84 198.66
  Q 78.65 199.09 79.05 200.33
  Q 80.13 203.71 79.86 207.32
  A 1.15 1.11 -16.9 0 1 79.41 208.13
  Q 77.26 209.77 74.70 210.72
  Q 72.50 211.54 73.28 209.85
  Q 73.50 209.37 74.05 208.95
  Q 74.60 208.53 75.12 208.08
  A 0.65 0.63 56.7 0 0 75.27 207.31
  Q 73.38 203.50 75.46 199.70
  Z
  M 77.0406 207.5199
  A 3.70 1.77 90.3 0 0 78.8300 203.8293
  A 3.70 1.77 90.3 0 0 77.0794 200.1201
  A 3.70 1.77 90.3 0 0 75.2900 203.8107
  A 3.70 1.77 90.3 0 0 77.0406 207.5199
  Z"
/>
<ellipse fill="#0d1840" cx="0.00" cy="0.00" transform="translate(77.06,203.82) rotate(90.3)" rx="3.70" ry="1.77"/>
<path fill="#0d1840" d="
  M 295.29 206.75
  Q 294.24 213.24 294.25 206.58
  Q 294.25 206.18 294.11 205.96
  Q 293.90 205.63 293.55 205.56
  A 0.80 0.60 -67.4 0 0 292.81 206.00
  Q 291.76 207.97 291.96 210.25
  L 291.79 210.25
  Q 291.29 206.20 292.31 204.06
  Q 292.77 203.11 293.54 203.69
  Q 293.87 203.94 294.14 204.56
  Q 294.64 205.70 295.29 206.75
  Z"
/>
<path fill="#01c3a9" d="
  M 295.29 206.75
  L 295.75 206.79
  Q 296.48 209.28 295.19 211.80
  A 0.82 0.81 28.6 0 1 294.05 212.13
  Q 292.76 211.37 291.96 210.25
  Q 291.76 207.97 292.81 206.00
  A 0.80 0.60 -67.4 0 1 293.55 205.56
  Q 293.90 205.63 294.11 205.96
  Q 294.25 206.18 294.25 206.58
  Q 294.24 213.24 295.29 206.75
  Z"
/>
<path fill="#01020a" d="
  M 295.75 206.79
  Q 297.03 206.53 296.90 207.31
  Q 296.76 208.14 296.76 208.21
  Q 296.76 211.04 295.77 213.02
  A 1.55 1.54 29.4 0 1 293.56 213.63
  Q 290.63 211.78 291.79 210.25
  L 291.96 210.25
  Q 292.76 211.37 294.05 212.13
  A 0.82 0.81 28.6 0 0 295.19 211.80
  Q 296.48 209.28 295.75 206.79
  Z"
/>
<path fill="#01020a" d="
  M 290.94 216.83
  A 0.73 0.72 -59.8 0 1 291.75 216.61
  Q 295.18 217.94 296.31 220.30
  A 0.76 0.76 -35.0 0 1 296.19 221.14
  L 294.67 222.84
  Q 294.10 223.47 294.15 222.72
  L 294.29 220.81
  A 2.06 1.61 -72.9 0 0 293.66 219.16
  Q 291.33 217.32 290.38 219.23
  Q 290.12 219.75 290.00 219.23
  Q 289.78 218.24 290.94 216.83
  Z"
/>
<path fill="#01020a" d="
  M 291.1854 233.2439
  A 5.10 2.56 84.2 0 1 288.1231 228.4287
  A 5.10 2.56 84.2 0 1 290.1546 223.0961
  A 5.10 2.56 84.2 0 1 293.2169 227.9113
  A 5.10 2.56 84.2 0 1 291.1854 233.2439
  Z
  M 291.33 226.19
  Q 291.28 225.00 290.29 224.67
  A 0.67 0.59 -64.5 0 0 289.55 224.99
  Q 287.55 228.36 290.00 231.33
  A 1.39 1.39 -50.4 0 0 292.29 231.11
  Q 293.77 228.38 291.74 226.95
  A 0.99 0.95 -74.5 0 1 291.33 226.19
  Z"
/>
<path fill="#0d1840" d="
  M 66.00 223.54
  Q 67.65 225.52 66.96 228.00
  Q 65.57 226.03 66.00 223.54
  Z"
/>
<path fill="#01c3a9" d="
  M 291.74 226.95
  Q 293.77 228.38 292.29 231.11
  A 1.39 1.39 -50.4 0 1 290.00 231.33
  Q 287.55 228.36 289.55 224.99
  A 0.67 0.59 -64.5 0 1 290.29 224.67
  Q 291.28 225.00 291.33 226.19
  A 0.99 0.95 -74.5 0 0 291.74 226.95
  Z"
/>
<path fill="#02d3b2" d="
  M 245.06 255.44
  Q 250.67 256.55 256.57 252.99
  Q 263.36 248.89 267.25 243.14
  Q 268.61 241.14 268.50 243.53
  L 267.19 274.66
  Q 267.08 277.32 269.46 277.74
  L 282.48 280.04
  A 0.94 0.91 21.8 0 1 283.12 281.47
  Q 278.83 287.68 273.41 292.75
  Q 267.75 298.04 261.25 301.04
  Q 237.52 311.98 219.00 290.78
  Q 209.65 280.08 203.38 265.78
  Q 202.95 264.81 202.99 263.85
  L 204.33 231.70
  A 0.64 0.63 6.4 0 1 205.08 231.11
  L 220.96 233.89
  A 2.63 2.51 81.0 0 1 222.81 235.30
  Q 224.39 238.50 226.34 241.30
  Q 228.58 244.51 230.56 246.81
  Q 236.53 253.75 245.06 255.44
  Z
  M 224.31 265.62
  Q 226.14 265.94 225.75 267.75
  Q 225.01 271.21 224.40 274.69
  A 0.62 0.49 -79.6 0 0 224.77 275.39
  Q 225.39 275.50 225.57 274.51
  Q 226.20 271.15 226.64 267.77
  Q 227.03 264.80 224.50 264.53
  A 1.35 0.81 -5.7 0 1 223.65 264.13
  Q 223.27 263.63 223.23 262.99
  Q 223.19 262.35 223.02 262.06
  Q 222.47 261.15 221.52 260.65
  Q 221.15 260.45 220.84 259.99
  Q 220.49 259.45 220.05 259.97
  Q 219.83 260.23 219.76 260.73
  Q 219.33 263.71 218.39 266.57
  Q 218.24 267.05 218.18 267.45
  Q 217.82 270.08 219.04 268.10
  Q 219.24 267.78 219.30 267.34
  Q 219.66 264.78 220.82 262.51
  A 0.66 0.61 -67.6 0 1 221.56 262.17
  Q 222.72 262.52 222.75 263.75
  Q 222.83 266.62 221.45 270.44
  Q 221.30 270.86 221.27 271.22
  Q 221.14 272.94 222.02 271.81
  Q 222.24 271.53 222.34 271.13
  Q 222.96 268.57 223.68 266.04
  A 0.58 0.54 -77.0 0 1 224.31 265.62
  Z
  M 230.0021 279.7895
  A 5.58 2.63 90.8 0 0 232.7097 274.2467
  A 5.58 2.63 90.8 0 0 230.1579 268.6305
  A 5.58 2.63 90.8 0 0 227.4503 274.1733
  A 5.58 2.63 90.8 0 0 230.0021 279.7895
  Z
  M 241.6764 271.6414
  A 0.94 0.56 42.2 0 0 241.3562 270.5951
  A 0.94 0.56 42.2 0 0 240.2836 270.3786
  A 0.94 0.56 42.2 0 0 240.6038 271.4249
  A 0.94 0.56 42.2 0 0 241.6764 271.6414
  Z
  M 242.77 273.42
  Q 242.50 276.27 242.65 279.14
  Q 242.66 279.26 242.63 281.86
  Q 242.61 283.63 243.34 285.23
  A 0.93 0.78 77.4 0 0 244.05 285.77
  Q 244.86 285.81 244.52 284.96
  Q 242.72 280.49 244.31 276.49
  A 2.95 2.91 -42.7 0 0 244.40 274.65
  Q 243.10 270.09 242.77 273.42
  Z
  M 236.57 273.74
  Q 237.88 275.53 237.44 277.99
  Q 237.00 280.48 236.79 283.00
  A 0.88 0.71 -75.3 0 0 237.15 283.80
  Q 237.84 284.19 237.79 282.97
  Q 237.77 282.40 237.82 282.03
  Q 238.07 280.27 238.18 278.51
  Q 238.38 275.22 238.35 274.99
  Q 238.10 272.49 235.16 272.06
  A 0.52 0.49 7.1 0 0 234.57 272.49
  L 233.82 281.68
  Q 233.75 282.47 234.21 281.90
  Q 234.50 281.54 234.56 280.81
  Q 234.85 277.38 235.50 273.99
  Q 235.76 272.65 236.57 273.74
  Z
  M 253.58 279.00
  Q 253.88 276.46 255.27 274.37
  Q 256.04 273.23 254.76 273.74
  Q 252.25 274.76 252.53 277.52
  Q 252.86 280.87 253.25 284.22
  Q 253.41 285.65 253.90 284.49
  Q 254.00 284.26 254.00 284.00
  Q 253.97 282.73 253.76 281.48
  Q 253.48 279.85 253.58 279.00
  Z
  M 240.9033 274.7544
  A 0.38 0.38 0.0 0 0 240.5340 274.3640
  L 240.3941 274.3601
  A 0.38 0.38 0.0 0 0 240.0036 274.7293
  L 239.7367 284.2856
  A 0.38 0.38 0.0 0 0 240.1060 284.6760
  L 240.2459 284.6799
  A 0.38 0.38 0.0 0 0 240.6364 284.3107
  L 240.9033 274.7544
  Z
  M 248.7789 285.6999
  A 5.51 2.65 89.7 0 0 251.4000 280.1761
  A 5.51 2.65 89.7 0 0 248.7211 274.6801
  A 5.51 2.65 89.7 0 0 246.1000 280.2039
  A 5.51 2.65 89.7 0 0 248.7789 285.6999
  Z"
/>
<path fill="#0d1840" d="
  M 96.19 266.70
  Q 95.90 252.21 96.76 237.75
  Q 97.07 232.59 98.86 236.55
  Q 99.28 237.47 99.61 238.01
  Q 103.74 244.77 108.94 249.81
  Q 114.63 255.34 122.02 255.72
  Q 127.92 256.03 133.48 252.81
  Q 138.71 249.79 142.50 244.55
  A 2.34 2.31 -67.4 0 1 144.74 243.61
  L 159.76 246.00
  A 1.41 1.39 -84.9 0 1 160.93 247.42
  Q 160.86 250.35 160.58 253.32
  Q 160.29 256.33 160.37 259.21
  Q 160.56 265.58 160.25 276.50
  Q 160.15 280.13 158.77 282.27
  Q 156.01 286.56 152.72 290.46
  Q 146.81 297.47 138.92 301.43
  Q 131.04 305.38 122.52 304.87
  Q 109.43 304.09 99.28 294.46
  Q 86.63 282.47 79.43 266.55
  Q 78.88 265.34 80.19 265.53
  L 95.12 267.64
  A 0.94 0.93 3.4 0 0 96.19 266.70
  Z
  M 116.62 269.78
  Q 115.36 276.20 116.24 282.69
  A 0.95 0.86 -83.1 0 0 116.75 283.41
  Q 118.26 284.10 117.60 282.53
  Q 115.63 277.77 118.39 273.72
  A 0.67 0.65 43.9 0 0 118.36 272.94
  Q 117.39 271.70 117.62 270.15
  Q 117.68 269.74 117.59 269.47
  Q 117.33 268.67 116.90 269.15
  Q 116.70 269.36 116.62 269.78
  Z
  M 130.55 272.23
  Q 129.47 278.28 131.28 283.84
  A 0.84 0.79 84.4 0 0 131.93 284.41
  Q 133.75 284.69 132.56 282.69
  Q 131.42 280.76 131.49 277.51
  Q 131.50 277.44 132.08 275.23
  Q 132.49 273.68 130.99 272.10
  Q 130.64 271.73 130.55 272.23
  Z
  M 121.80 284.67
  Q 123.60 285.41 123.48 283.06
  A 0.39 0.38 -10.8 0 0 122.97 282.73
  Q 120.32 283.59 120.31 280.80
  A 0.81 0.81 10.8 0 1 121.42 280.05
  Q 124.06 281.12 124.24 278.52
  Q 124.44 275.79 122.65 274.02
  A 1.50 1.50 -51.8 0 0 120.32 274.30
  Q 118.53 277.19 119.58 282.03
  Q 120.00 283.93 121.80 284.67
  Z
  M 125.29 276.75
  Q 125.03 278.50 127.12 280.43
  A 2.72 2.70 -68.1 0 1 127.99 282.49
  Q 127.94 284.29 125.74 283.24
  Q 124.78 282.79 125.25 283.74
  Q 125.89 285.06 127.19 285.00
  A 1.34 1.12 -66.2 0 0 128.04 284.58
  Q 129.67 282.81 128.82 280.71
  Q 128.58 280.12 127.21 278.68
  Q 126.29 277.72 125.71 276.50
  Q 126.27 275.69 127.25 275.68
  Q 129.31 275.66 128.50 274.46
  A 1.07 1.00 -14.1 0 0 127.69 274.01
  Q 125.07 273.84 125.29 276.75
  Z"
/>
<path fill="#01020a" d="
  M 223.68 266.04
  Q 222.96 268.57 222.34 271.13
  Q 222.24 271.53 222.02 271.81
  Q 221.14 272.94 221.27 271.22
  Q 221.30 270.86 221.45 270.44
  Q 222.83 266.62 222.75 263.75
  Q 222.72 262.52 221.56 262.17
  A 0.66 0.61 -67.6 0 0 220.82 262.51
  Q 219.66 264.78 219.30 267.34
  Q 219.24 267.78 219.04 268.10
  Q 217.82 270.08 218.18 267.45
  Q 218.24 267.05 218.39 266.57
  Q 219.33 263.71 219.76 260.73
  Q 219.83 260.23 220.05 259.97
  Q 220.49 259.45 220.84 259.99
  Q 221.15 260.45 221.52 260.65
  Q 222.47 261.15 223.02 262.06
  Q 223.19 262.35 223.23 262.99
  Q 223.27 263.63 223.65 264.13
  A 1.35 0.81 -5.7 0 0 224.50 264.53
  Q 227.03 264.80 226.64 267.77
  Q 226.20 271.15 225.57 274.51
  Q 225.39 275.50 224.77 275.39
  A 0.62 0.49 -79.6 0 1 224.40 274.69
  Q 225.01 271.21 225.75 267.75
  Q 226.14 265.94 224.31 265.62
  A 0.58 0.54 -77.0 0 0 223.68 266.04
  Z"
/>
<path fill="#01020a" d="
  M 230.0021 279.7895
  A 5.58 2.63 90.8 0 1 227.4503 274.1733
  A 5.58 2.63 90.8 0 1 230.1579 268.6305
  A 5.58 2.63 90.8 0 1 232.7097 274.2467
  A 5.58 2.63 90.8 0 1 230.0021 279.7895
  Z
  M 229.9864 278.4294
  A 4.22 1.63 91.0 0 0 231.6898 274.2384
  A 4.22 1.63 91.0 0 0 230.1336 269.9906
  A 4.22 1.63 91.0 0 0 228.4302 274.1816
  A 4.22 1.63 91.0 0 0 229.9864 278.4294
  Z"
/>
<path fill="#01c3a9" d="
  M 116.90 269.15
  Q 117.33 268.67 117.59 269.47
  Q 117.68 269.74 117.62 270.15
  Q 117.39 271.70 118.36 272.94
  A 0.67 0.65 43.9 0 1 118.39 273.72
  Q 115.63 277.77 117.60 282.53
  Q 118.26 284.10 116.75 283.41
  A 0.95 0.86 -83.1 0 1 116.24 282.69
  Q 115.36 276.20 116.62 269.78
  Q 116.70 269.36 116.90 269.15
  Z"
/>
<ellipse fill="#02d3b2" cx="0.00" cy="0.00" transform="translate(230.06,274.21) rotate(91.0)" rx="4.22" ry="1.63"/>
<ellipse fill="#0d1840" cx="0.00" cy="0.00" transform="translate(240.98,271.01) rotate(42.2)" rx="0.94" ry="0.56"/>
<path fill="#01c3a9" d="
  M 130.55 272.23
  Q 130.64 271.73 130.99 272.10
  Q 132.49 273.68 132.08 275.23
  Q 131.50 277.44 131.49 277.51
  Q 131.42 280.76 132.56 282.69
  Q 133.75 284.69 131.93 284.41
  A 0.84 0.79 84.4 0 1 131.28 283.84
  Q 129.47 278.28 130.55 272.23
  Z"
/>
<path fill="#01020a" d="
  M 242.77 273.42
  Q 243.10 270.09 244.40 274.65
  A 2.95 2.91 -42.7 0 1 244.31 276.49
  Q 242.72 280.49 244.52 284.96
  Q 244.86 285.81 244.05 285.77
  A 0.93 0.78 77.4 0 1 243.34 285.23
  Q 242.61 283.63 242.63 281.86
  Q 242.66 279.26 242.65 279.14
  Q 242.50 276.27 242.77 273.42
  Z"
/>
<path fill="#01020a" d="
  M 236.57 273.74
  Q 235.76 272.65 235.50 273.99
  Q 234.85 277.38 234.56 280.81
  Q 234.50 281.54 234.21 281.90
  Q 233.75 282.47 233.82 281.68
  L 234.57 272.49
  A 0.52 0.49 7.1 0 1 235.16 272.06
  Q 238.10 272.49 238.35 274.99
  Q 238.38 275.22 238.18 278.51
  Q 238.07 280.27 237.82 282.03
  Q 237.77 282.40 237.79 282.97
  Q 237.84 284.19 237.15 283.80
  A 0.88 0.71 -75.3 0 1 236.79 283.00
  Q 237.00 280.48 237.44 277.99
  Q 237.88 275.53 236.57 273.74
  Z"
/>
<path fill="#01c3a9" d="
  M 121.80 284.67
  Q 120.00 283.93 119.58 282.03
  Q 118.53 277.19 120.32 274.30
  A 1.50 1.50 -51.8 0 1 122.65 274.02
  Q 124.44 275.79 124.24 278.52
  Q 124.06 281.12 121.42 280.05
  A 0.81 0.81 10.8 0 0 120.31 280.80
  Q 120.32 283.59 122.97 282.73
  A 0.39 0.38 -10.8 0 1 123.48 283.06
  Q 123.60 285.41 121.80 284.67
  Z
  M 121.8812 278.8151
  A 1.75 1.22 85.7 0 0 122.9666 276.9785
  A 1.75 1.22 85.7 0 0 121.6188 275.3249
  A 1.75 1.22 85.7 0 0 120.5334 277.1615
  A 1.75 1.22 85.7 0 0 121.8812 278.8151
  Z"
/>
<path fill="#01020a" d="
  M 253.76 281.48
  Q 253.97 282.73 254.00 284.00
  Q 254.00 284.26 253.90 284.49
  Q 253.41 285.65 253.25 284.22
  Q 252.86 280.87 252.53 277.52
  Q 252.25 274.76 254.76 273.74
  Q 256.04 273.23 255.27 274.37
  Q 253.88 276.46 253.58 279.00
  Q 253.48 279.85 253.76 281.48
  Z"
/>
<path fill="#01c3a9" d="
  M 125.71 276.50
  L 125.29 276.75
  Q 125.07 273.84 127.69 274.01
  A 1.07 1.00 -14.1 0 1 128.50 274.46
  Q 129.31 275.66 127.25 275.68
  Q 126.27 275.69 125.71 276.50
  Z"
/>
<rect fill="#01020a" x="-0.45" y="-5.16" transform="translate(240.32,279.52) rotate(1.6)" width="0.90" height="10.32" rx="0.38"/>
<path fill="#01020a" d="
  M 248.7789 285.6999
  A 5.51 2.65 89.7 0 1 246.1000 280.2039
  A 5.51 2.65 89.7 0 1 248.7211 274.6801
  A 5.51 2.65 89.7 0 1 251.4000 280.1761
  A 5.51 2.65 89.7 0 1 248.7789 285.6999
  Z
  M 248.7991 284.4696
  A 4.23 1.68 89.2 0 0 250.4198 280.2165
  A 4.23 1.68 89.2 0 0 248.6809 276.0104
  A 4.23 1.68 89.2 0 0 247.0602 280.2635
  A 4.23 1.68 89.2 0 0 248.7991 284.4696
  Z"
/>
<ellipse fill="#0d1840" cx="0.00" cy="0.00" transform="translate(121.75,277.07) rotate(85.7)" rx="1.75" ry="1.22"/>
<ellipse fill="#02d3b2" cx="0.00" cy="0.00" transform="translate(248.74,280.24) rotate(89.2)" rx="4.23" ry="1.68"/>
<path fill="#02d3b2" d="
  M 125.71 276.50
  Q 126.29 277.72 127.21 278.68
  Q 128.58 280.12 128.82 280.71
  Q 129.67 282.81 128.04 284.58
  A 1.34 1.12 -66.2 0 1 127.19 285.00
  Q 125.89 285.06 125.25 283.74
  Q 124.78 282.79 125.74 283.24
  Q 127.94 284.29 127.99 282.49
  A 2.72 2.70 -68.1 0 0 127.12 280.43
  Q 125.03 278.50 125.29 276.75
  L 125.71 276.50
  Z"
/>
</svg>
