<?xml version="1.0" encoding="UTF-8" standalone="no"?>
<!DOCTYPE svg PUBLIC "-//W3C//DTD SVG 1.1//EN" "http://www.w3.org/Graphics/SVG/1.1/DTD/svg11.dtd">
<svg xmlns="http://www.w3.org/2000/svg" version="1.1" viewBox="0 0 370 370">
<g stroke-width="2.00" fill="none" stroke-linecap="butt">
<path stroke="#23a2d3" vector-effect="non-scaling-stroke" d="
  M 303.21 198.75
  L 278.22 173.24"
/>
<path stroke="#9adbf5" vector-effect="non-scaling-stroke" d="
  M 278.22 173.24
  L 281.45 168.42
  Q 282.72 166.53 280.62 165.39
  Q 271.30 160.33 260.56 162.82
  A 0.53 0.53 -14.4 0 1 259.93 162.45
  Q 256.87 151.33 248.10 144.83
  Q 246.34 143.53 245.17 145.39
  Q 236.67 158.97 243.95 173.08
  A 0.92 0.92 62.7 0 1 243.56 174.31
  Q 236.53 178.06 228.65 178.26
  Q 226.15 178.32 224.36 178.45
  Q 222.08 178.61 220.06 178.52
  A 1.88 1.88 1.1 0 1 218.25 176.64
  L 218.25 162.78
  Q 218.25 160.76 216.21 160.75
  L 201.82 160.69
  A 1.08 1.07 90.0 0 1 200.75 159.61
  L 200.75 127.49
  A 0.99 0.99 0.5 0 0 199.76 126.50
  L 181.17 126.50
  A 1.42 1.42 89.4 0 0 179.75 127.92
  L 179.75 142.57
  A 1.22 1.20 0.2 0 1 178.52 143.77
  L 146.49 143.50
  A 0.99 0.97 0.6 0 0 145.49 144.46
  L 145.25 160.04
  A 0.72 0.69 -89.6 0 1 144.56 160.75
  L 129.36 160.75
  A 1.18 1.14 -89.7 0 0 128.22 161.92
  L 128.04 177.59
  A 1.12 1.05 0.5 0 1 126.91 178.63
  L 114.44 178.50
  A 1.19 1.15 0.7 0 0 113.24 179.63
  L 113.01 191.23
  A 0.78 0.75 -86.0 0 1 112.17 191.99
  Q 106.33 191.28 101.75 187.46"
/>
<path stroke="#50c2ee" vector-effect="non-scaling-stroke" d="
  M 101.75 187.46
  Q 101.62 186.47 102.27 185.95
  Q 102.76 185.55 102.89 185.23
  Q 103.32 184.25 103.64 183.23
  Q 103.98 182.14 104.62 181.36
  Q 108.11 177.08 111.14 172.49
  Q 115.14 166.42 116.48 164.53
  Q 120.18 159.28 121.81 156.56
  Q 129.46 143.81 138.37 131.88
  Q 149.72 116.69 153.94 110.19
  Q 154.96 108.62 155.77 107.97
  A 1.83 1.11 -21.9 0 0 156.33 107.22
  Q 157.42 103.94 160.06 101.06
  Q 163.14 97.72 166.25 92.50
  Q 169.26 87.45 177.94 76.44
  Q 178.54 75.67 178.15 74.23
  A 0.67 0.64 -7.8 0 0 177.50 73.76
  Q 166.18 73.97 155.21 76.75"
/>
<path stroke="#65c9f0" vector-effect="non-scaling-stroke" d="
  M 155.21 76.75
  Q 141.35 78.86 129.00 85.46"
/>
<path stroke="#78cff2" vector-effect="non-scaling-stroke" d="
  M 129.00 85.46
  Q 87.33 107.09 73.21 152.00"
/>
<path stroke="#65c9f0" vector-effect="non-scaling-stroke" d="
  M 73.21 152.00
  Q 72.54 151.90 72.00 151.46"
/>
<path stroke="#88c5dd" vector-effect="non-scaling-stroke" d="
  M 278.22 173.24
  Q 271.38 180.49 261.27 180.97
  Q 261.23 180.97 258.74 180.82
  Q 256.21 180.68 255.31 182.56
  Q 253.37 186.64 251.45 190.85
  A 0.97 0.97 12.9 0 0 252.31 192.22
  Q 261.89 192.50 269.27 187.46
  A 0.52 0.52 -21.6 0 1 270.08 187.81
  Q 270.46 190.05 272.50 191.20
  Q 275.79 193.05 279.51 193.67
  Q 280.35 193.81 280.20 194.27
  A 0.84 0.54 5.5 0 1 279.43 194.67
  L 250.18 194.52
  A 1.91 1.86 -73.5 0 0 248.59 195.41
  Q 233.01 220.31 204.75 230.00
  Q 184.34 237.00 162.74 235.59
  Q 149.95 234.75 139.81 229.69
  Q 118.38 218.98 113.17 194.93
  A 0.64 0.60 -5.0 0 0 112.56 194.45
  L 93.51 194.27"
/>
<path stroke="#b5e5f8" vector-effect="non-scaling-stroke" d="
  M 101.75 187.46
  Q 98.54 191.84 93.51 194.27"
/>
<path stroke="#3eabd6" vector-effect="non-scaling-stroke" d="
  M 93.51 194.27
  Q 91.52 194.96 92.92 196.65"
/>
<path stroke="#50c2ee" vector-effect="non-scaling-stroke" d="
  M 92.92 196.65
  Q 87.00 206.18 81.16 215.60
  Q 79.61 218.10 76.33 219.23
  A 0.60 0.59 68.8 0 1 75.59 218.90
  Q 74.53 216.48 73.65 214.25
  Q 73.62 214.18 72.58 212.40
  Q 71.97 211.34 72.16 209.98
  Q 72.23 209.46 72.09 209.03
  Q 70.09 203.06 70.29 196.75"
/>
<path stroke="#80d3f3" vector-effect="non-scaling-stroke" d="
  M 70.29 196.75
  Q 72.81 197.18 74.75 194.75
  Q 78.17 190.46 79.60 187.51
  A 1.90 1.25 -13.0 0 1 80.25 186.83
  Q 81.11 186.28 81.27 185.31
  Q 81.37 184.73 81.60 184.40
  Q 102.13 154.49 122.83 124.70
  Q 122.96 124.52 123.36 123.59
  Q 123.63 122.98 124.23 122.64
  A 1.62 1.06 -12.1 0 0 124.88 121.98
  Q 126.04 119.25 127.83 116.93
  Q 131.26 112.50 131.37 112.34
  Q 142.20 96.26 153.81 80.73
  Q 153.92 80.59 153.97 80.78
  Q 154.05 81.09 154.29 80.80
  Q 155.82 78.99 155.21 76.75"
/>
<path stroke="#65c9f0" vector-effect="non-scaling-stroke" d="
  M 70.29 196.75
  L 68.96 177.56
  A 0.57 0.49 1.0 0 0 68.44 177.10
  Q 67.86 177.06 67.71 176.50"
/>
<path stroke="#a8e0f7" vector-effect="non-scaling-stroke" d="
  M 73.21 152.00
  Q 70.07 159.92 70.75 167.00
  Q 70.94 169.02 70.88 169.95
  A 0.39 0.36 86.2 0 0 71.31 170.36
  Q 72.85 170.05 74.25 168.75
  Q 77.17 166.03 79.14 163.01
  Q 82.16 158.39 82.25 158.27
  Q 86.16 152.85 89.53 147.08
  Q 90.07 146.15 91.01 144.91
  Q 91.80 143.86 92.47 142.73
  Q 94.51 139.34 96.94 136.22
  Q 101.07 130.90 101.72 129.98
  Q 109.67 118.79 117.55 107.55
  Q 120.52 103.31 123.13 98.85
  Q 124.21 97.00 126.73 93.39
  Q 128.61 90.69 130.03 87.71
  A 1.47 1.02 -48.1 0 0 130.15 86.76
  Q 129.88 85.91 129.00 85.46"
/>
<path stroke="#88c5dd" vector-effect="non-scaling-stroke" d="
  M 297.61 222.91
  Q 290.89 232.70 278.50 237.50
  Q 266.21 242.26 252.98 242.50
  A 0.68 0.66 86.8 0 0 252.33 243.24
  Q 253.38 253.61 251.29 264.01
  Q 247.74 281.61 233.71 292.67"
/>
<path stroke="#23a2d3" vector-effect="non-scaling-stroke" d="
  M 203.32 301.89
  Q 200.40 297.83 193.50 291.50
  Q 176.71 276.09 103.56 207.44
  Q 95.63 199.99 92.92 196.65"
/>
<path stroke="#caecfa" vector-effect="non-scaling-stroke" d="
  M 182.53 132.18
  L 182.44 143.08
  A 1.43 1.40 0.2 0 0 183.88 144.50
  L 194.83 144.44"
/>
<path stroke="#b5e5f8" vector-effect="non-scaling-stroke" d="
  M 194.83 144.44
  Q 198.18 145.06 197.95 142.25
  Q 197.54 137.17 197.88 130.78
  A 1.66 1.65 2.9 0 0 196.30 129.04
  Q 190.33 128.76 185.01 128.80
  Q 183.44 128.81 182.90 129.58
  Q 182.25 130.52 182.53 132.18"
/>
<path stroke="#80d3f3" vector-effect="non-scaling-stroke" d="
  M 194.83 144.44
  L 194.94 132.81
  A 0.59 0.59 4.6 0 0 194.44 132.23
  Q 188.55 131.31 182.53 132.18"
/>
<path stroke="#d5f0fb" vector-effect="non-scaling-stroke" d="
  M 147.79 148.75
  Q 146.96 154.56 147.98 161.04"
/>
<path stroke="#bde8f9" vector-effect="non-scaling-stroke" d="
  M 147.98 161.04
  L 162.19 161.44
  A 0.51 0.51 0.6 0 0 162.71 160.93
  L 162.80 146.50
  A 0.71 0.69 0.4 0 0 162.10 145.81
  Q 157.21 145.71 152.03 145.74
  Q 151.98 145.74 150.47 145.65
  Q 147.55 145.47 147.79 148.75"
/>
<path stroke="#94d9f5" vector-effect="non-scaling-stroke" d="
  M 147.98 161.04
  Q 154.24 159.40 160.43 159.89
  A 0.84 0.74 16.0 0 0 161.21 159.52
  Q 162.23 157.74 160.46 156.93
  A 0.89 0.84 10.1 0 1 159.95 156.24
  Q 159.67 153.25 159.30 150.27
  Q 159.15 149.09 158.62 149.41
  A 1.14 0.69 84.1 0 0 158.22 150.25
  Q 157.97 153.75 157.52 157.22
  Q 157.22 159.55 156.45 158.16
  Q 156.26 157.82 156.16 157.30
  Q 155.50 154.02 155.21 150.29
  Q 155.07 148.38 152.74 148.50
  L 147.79 148.75"
/>
<path stroke="#a1e0f7" vector-effect="non-scaling-stroke" d="
  M 165.54 155.25
  L 165.71 160.97
  A 0.95 0.87 -6.2 0 0 166.82 161.78
  Q 172.75 160.76 178.50 161.75
  Q 180.68 162.13 180.29 159.67"
/>
<path stroke="#caecfa" vector-effect="non-scaling-stroke" d="
  M 180.29 159.67
  Q 181.71 153.88 180.98 147.58
  Q 180.77 145.74 178.82 145.78
  L 167.21 145.99
  A 1.75 1.66 -0.9 0 0 165.50 147.66
  L 165.54 155.25"
/>
<path stroke="#6ccef2" vector-effect="non-scaling-stroke" d="
  M 180.29 159.67
  Q 174.30 159.99 168.31 159.98
  Q 166.79 159.98 167.20 158.21
  A 0.50 0.49 -56.9 0 0 167.12 157.81
  L 167.00 157.62
  A 1.15 0.88 -61.1 0 1 166.88 156.82
  Q 167.18 155.39 165.54 155.25"
/>
<path stroke="#9adbf5" vector-effect="non-scaling-stroke" d="
  M 182.56 160.82
  Q 189.65 161.82 196.69 161.23
  A 1.12 0.83 7.8 0 0 197.50 160.79
  Q 197.70 160.46 197.70 160.08"
/>
<path stroke="#caecfa" vector-effect="non-scaling-stroke" d="
  M 197.70 160.08
  L 198.19 148.05
  A 1.68 1.61 -88.1 0 0 196.62 146.30
  L 185.16 146.02
  Q 182.55 145.95 182.55 148.45
  L 182.56 160.82"
/>
<path stroke="#65c9f0" vector-effect="non-scaling-stroke" d="
  M 197.70 160.08
  Q 196.48 157.18 196.27 154.00
  Q 196.12 151.67 195.78 153.84
  Q 195.75 154.00 195.77 154.17
  Q 196.11 156.77 196.17 158.71
  A 1.49 1.46 89.4 0 1 194.70 160.24
  L 184.06 160.20
  A 0.60 0.56 85.2 0 1 183.50 159.69
  Q 183.24 158.09 182.56 160.82"
/>
<path stroke="#9adbf5" vector-effect="non-scaling-stroke" d="
  M 253.21 179.61
  Q 254.02 177.86 255.77 177.91
  Q 270.89 178.39 277.62 168.54
  A 1.00 0.99 -61.1 0 0 277.20 167.07
  Q 267.54 162.78 258.02 167.15
  A 0.61 0.61 -15.3 0 1 257.16 166.66
  Q 255.93 155.64 247.88 148.87
  A 0.98 0.98 -55.9 0 0 246.38 149.16
  Q 239.94 161.26 248.18 173.89
  A 1.03 1.03 -32.9 0 1 247.87 175.32
  Q 242.49 178.74 236.54 180.24
  Q 232.56 181.24 224.38 181.29
  Q 170.60 181.66 116.81 181.56
  A 0.62 0.61 5.7 0 0 116.20 182.05
  Q 115.22 186.40 116.15 191.60
  A 0.85 0.84 -5.9 0 0 117.01 192.29
  Q 125.06 192.02 130.95 188.68
  A 1.05 1.04 -34.6 0 1 132.28 188.92
  Q 133.91 190.89 136.55 191.49
  Q 148.67 194.23 160.77 191.34
  Q 165.03 190.32 168.59 187.80
  A 0.82 0.77 -47.5 0 1 169.44 187.74
  Q 170.91 188.55 172.28 189.52
  Q 174.14 190.84 175.64 191.30
  Q 182.33 193.31 189.75 192.50
  Q 196.23 191.79 200.88 187.83
  A 0.70 0.68 -49.8 0 1 201.68 187.75
  Q 206.31 190.42 207.31 190.69
  Q 217.98 193.58 228.98 192.35
  Q 233.89 191.81 239.24 188.86
  A 1.27 1.26 -43.6 0 1 240.52 188.89
  Q 243.75 190.92 245.88 191.16
  Q 247.78 191.36 248.54 189.73
  L 253.21 179.61"
/>
<path stroke="#bde8f9" vector-effect="non-scaling-stroke" d="
  M 145.9843 164.6669
  A 1.54 1.54 0.0 0 0 144.4660 163.1056
  L 132.3272 162.9361
  A 1.54 1.54 0.0 0 0 130.7658 164.4544
  L 130.5757 178.0731
  A 1.54 1.54 0.0 0 0 132.0940 179.6344
  L 144.2328 179.8039
  A 1.54 1.54 0.0 0 0 145.7942 178.2856
  L 145.9843 164.6669"
/>
<path stroke="#bde8f9" vector-effect="non-scaling-stroke" d="
  M 162.8564 164.8631
  A 1.31 1.31 0.0 0 0 161.5418 163.5577
  L 148.7419 163.6024
  A 1.31 1.31 0.0 0 0 147.4365 164.9170
  L 147.4836 178.4369
  A 1.31 1.31 0.0 0 0 148.7982 179.7423
  L 161.5981 179.6976
  A 1.31 1.31 0.0 0 0 162.9035 178.3830
  L 162.8564 164.8631"
/>
<path stroke="#caecfa" vector-effect="non-scaling-stroke" d="
  M 165.46 171.75
  Q 164.72 175.37 165.78 178.83
  A 0.75 0.67 81.0 0 0 166.43 179.36
  L 179.14 179.69
  A 1.97 1.86 -85.7 0 0 181.05 177.95
  Q 181.59 173.42 180.79 168.00"
/>
<path stroke="#a1e0f7" vector-effect="non-scaling-stroke" d="
  M 180.79 168.00
  Q 181.81 163.01 177.84 163.43
  Q 174.74 163.75 174.62 163.75
  Q 170.72 163.75 166.41 163.75
  A 0.65 0.64 0.9 0 0 165.76 164.37
  L 165.46 171.75"
/>
<path stroke="#6ccef2" vector-effect="non-scaling-stroke" d="
  M 180.79 168.00
  Q 179.51 167.87 179.66 166.49
  A 0.58 0.52 -80.1 0 0 179.27 165.87
  Q 175.07 164.80 168.72 165.89
  Q 166.96 166.19 166.92 168.28
  L 166.85 171.81
  A 1.00 0.96 74.6 0 1 166.41 172.62
  Q 165.42 173.26 165.46 171.75"
/>
<path stroke="#caecfa" vector-effect="non-scaling-stroke" d="
  M 183.29 166.50
  Q 182.30 172.59 182.50 178.71
  A 0.56 0.56 3.7 0 0 182.98 179.25
  Q 189.73 180.25 196.62 179.49
  A 1.48 1.43 -4.9 0 0 197.93 177.99
  L 197.46 167.75"
/>
<path stroke="#a1e0f7" vector-effect="non-scaling-stroke" d="
  M 197.46 167.75
  Q 198.53 165.26 196.84 163.85
  A 1.29 1.03 -24.8 0 0 195.94 163.63
  Q 191.40 164.18 185.44 163.56
  Q 181.98 163.20 183.29 166.50"
/>
<path stroke="#6ccef2" vector-effect="non-scaling-stroke" d="
  M 197.46 167.75
  Q 196.23 169.27 196.04 167.55
  Q 195.79 165.30 193.85 165.29
  Q 191.44 165.29 191.16 165.25
  Q 187.05 164.66 183.29 166.50"
/>
<path stroke="#d5f0fb" vector-effect="non-scaling-stroke" d="
  M 200.50 165.46
  L 200.29 175.25"
/>
<path stroke="#bde8f9" vector-effect="non-scaling-stroke" d="
  M 200.29 175.25
  L 199.98 178.45
  A 1.07 0.96 2.4 0 0 201.06 179.50
  L 213.31 179.44
  Q 215.87 179.43 215.79 176.77
  L 215.44 165.02
  A 1.37 1.33 -89.6 0 0 214.17 163.70
  Q 207.90 163.44 201.95 163.49
  Q 201.07 163.50 200.72 163.94
  Q 200.25 164.53 200.50 165.46"
/>
<path stroke="#94d9f5" vector-effect="non-scaling-stroke" d="
  M 200.29 175.25
  Q 201.98 175.08 203.34 175.96
  A 1.75 1.02 47.8 0 0 204.25 176.25
  L 212.09 175.97
  A 1.18 1.14 -0.0 0 0 213.22 174.87
  L 213.57 166.19
  A 0.51 0.49 2.2 0 0 213.07 165.67
  L 200.50 165.46"
/>
<path stroke="#9adbf5" vector-effect="non-scaling-stroke" d="
  M 156.73 211.87
  A 1.30 1.30 71.3 0 1 155.85 213.65
  Q 143.71 216.64 131.36 216.51
  Q 130.98 216.51 129.64 216.41
  Q 126.18 216.14 128.94 218.56
  Q 141.45 229.54 157.28 231.88
  Q 165.65 233.12 177.24 232.35
  Q 191.66 231.40 205.94 226.19
  Q 219.10 221.38 229.24 212.96
  Q 234.35 208.71 237.74 205.04
  Q 241.59 200.88 244.70 195.66
  Q 245.39 194.50 244.04 194.50
  L 116.99 194.50
  A 0.45 0.45 -4.3 0 0 116.54 195.02
  Q 117.90 203.60 122.86 210.85
  Q 123.93 212.42 125.23 212.98
  Q 126.78 213.66 128.52 213.62
  Q 130.94 213.56 130.98 213.56
  Q 142.08 214.02 152.93 211.68
  Q 153.01 211.66 154.54 211.19
  Q 156.21 210.67 156.73 211.87"
/>
<path stroke="#9cdcf6" vector-effect="non-scaling-stroke" d="
  M 134.9267 166.3765
  A 0.30 0.30 0.0 0 0 134.6144 166.0893
  L 134.3946 166.0985
  A 0.30 0.30 0.0 0 0 134.1074 166.4108
  L 134.4533 174.6635
  A 0.30 0.30 0.0 0 0 134.7656 174.9507
  L 134.9854 174.9415
  A 0.30 0.30 0.0 0 0 135.2726 174.6292
  L 134.9267 166.3765"
/>
<path stroke="#94d9f5" vector-effect="non-scaling-stroke" d="
  M 158.61 165.80
  A 0.67 0.67 -83.9 0 0 157.81 166.45
  Q 157.74 169.68 158.49 172.94
  Q 159.28 176.40 159.61 172.70
  Q 159.89 169.64 159.93 166.56
  A 0.60 0.60 6.7 0 0 159.45 165.96
  L 158.61 165.80"
/>
<path stroke="#9adbf5" vector-effect="non-scaling-stroke" d="
  M 166.54 207.20
  A 4.22 4.22 0.0 0 0 162.32 202.98
  A 4.22 4.22 0.0 0 0 158.10 207.20
  A 4.22 4.22 0.0 0 0 162.32 211.42
  A 4.22 4.22 0.0 0 0 166.54 207.20"
/>
<path stroke="#9adbf5" vector-effect="non-scaling-stroke" d="
  M 164.5392 209.1801
  A 2.02 2.02 0.0 0 0 164.2158 206.3417
  L 162.8384 205.2461
  A 2.02 2.02 0.0 0 0 160.0000 205.5695
  L 159.8008 205.8199
  A 2.02 2.02 0.0 0 0 160.1242 208.6583
  L 161.5016 209.7539
  A 2.02 2.02 0.0 0 0 164.3400 209.4305
  L 164.5392 209.1801"
/>
</g>
<path fill="#35b8eb" d="
  M 303.21 198.75
  L 278.22 173.24
  L 281.45 168.42
  Q 282.72 166.53 280.62 165.39
  Q 271.30 160.33 260.56 162.82
  A 0.53 0.53 -14.4 0 1 259.93 162.45
  Q 256.87 151.33 248.10 144.83
  Q 246.34 143.53 245.17 145.39
  Q 236.67 158.97 243.95 173.08
  A 0.92 0.92 62.7 0 1 243.56 174.31
  Q 236.53 178.06 228.65 178.26
  Q 226.15 178.32 224.36 178.45
  Q 222.08 178.61 220.06 178.52
  A 1.88 1.88 1.1 0 1 218.25 176.64
  L 218.25 162.78
  Q 218.25 160.76 216.21 160.75
  L 201.82 160.69
  A 1.08 1.07 90.0 0 1 200.75 159.61
  L 200.75 127.49
  A 0.99 0.99 0.5 0 0 199.76 126.50
  L 181.17 126.50
  A 1.42 1.42 89.4 0 0 179.75 127.92
  L 179.75 142.57
  A 1.22 1.20 0.2 0 1 178.52 143.77
  L 146.49 143.50
  A 0.99 0.97 0.6 0 0 145.49 144.46
  L 145.25 160.04
  A 0.72 0.69 -89.6 0 1 144.56 160.75
  L 129.36 160.75
  A 1.18 1.14 -89.7 0 0 128.22 161.92
  L 128.04 177.59
  A 1.12 1.05 0.5 0 1 126.91 178.63
  L 114.44 178.50
  A 1.19 1.15 0.7 0 0 113.24 179.63
  L 113.01 191.23
  A 0.78 0.75 -86.0 0 1 112.17 191.99
  Q 106.33 191.28 101.75 187.46
  Q 101.62 186.47 102.27 185.95
  Q 102.76 185.55 102.89 185.23
  Q 103.32 184.25 103.64 183.23
  Q 103.98 182.14 104.62 181.36
  Q 108.11 177.08 111.14 172.49
  Q 115.14 166.42 116.48 164.53
  Q 120.18 159.28 121.81 156.56
  Q 129.46 143.81 138.37 131.88
  Q 149.72 116.69 153.94 110.19
  Q 154.96 108.62 155.77 107.97
  A 1.83 1.11 -21.9 0 0 156.33 107.22
  Q 157.42 103.94 160.06 101.06
  Q 163.14 97.72 166.25 92.50
  Q 169.26 87.45 177.94 76.44
  Q 178.54 75.67 178.15 74.23
  A 0.67 0.64 -7.8 0 0 177.50 73.76
  Q 166.18 73.97 155.21 76.75
  Q 141.35 78.86 129.00 85.46
  Q 87.33 107.09 73.21 152.00
  Q 72.54 151.90 72.00 151.46
  Q 78.70 128.44 94.25 110.24
  Q 96.36 107.76 98.40 105.24
  Q 100.75 102.33 102.79 100.43
  Q 118.25 85.93 138.31 77.06
  Q 156.95 68.83 176.60 67.41
  Q 176.74 67.40 181.88 66.90
  Q 185.70 66.53 189.53 66.94
  Q 193.83 67.41 193.99 67.42
  Q 232.64 70.71 261.80 94.84
  Q 269.46 101.18 275.96 108.93
  Q 307.90 147.01 303.21 198.75
  Z"
/>
<path fill="#6bcbf1" d="
  M 101.75 187.46
  Q 98.54 191.84 93.51 194.27
  Q 91.52 194.96 92.92 196.65
  Q 87.00 206.18 81.16 215.60
  Q 79.61 218.10 76.33 219.23
  A 0.60 0.59 68.8 0 1 75.59 218.90
  Q 74.53 216.48 73.65 214.25
  Q 73.62 214.18 72.58 212.40
  Q 71.97 211.34 72.16 209.98
  Q 72.23 209.46 72.09 209.03
  Q 70.09 203.06 70.29 196.75
  Q 72.81 197.18 74.75 194.75
  Q 78.17 190.46 79.60 187.51
  A 1.90 1.25 -13.0 0 1 80.25 186.83
  Q 81.11 186.28 81.27 185.31
  Q 81.37 184.73 81.60 184.40
  Q 102.13 154.49 122.83 124.70
  Q 122.96 124.52 123.36 123.59
  Q 123.63 122.98 124.23 122.64
  A 1.62 1.06 -12.1 0 0 124.88 121.98
  Q 126.04 119.25 127.83 116.93
  Q 131.26 112.50 131.37 112.34
  Q 142.20 96.26 153.81 80.73
  Q 153.92 80.59 153.97 80.78
  Q 154.05 81.09 154.29 80.80
  Q 155.82 78.99 155.21 76.75
  Q 166.18 73.97 177.50 73.76
  A 0.67 0.64 -7.8 0 1 178.15 74.23
  Q 178.54 75.67 177.94 76.44
  Q 169.26 87.45 166.25 92.50
  Q 163.14 97.72 160.06 101.06
  Q 157.42 103.94 156.33 107.22
  A 1.83 1.11 -21.9 0 1 155.77 107.97
  Q 154.96 108.62 153.94 110.19
  Q 149.72 116.69 138.37 131.88
  Q 129.46 143.81 121.81 156.56
  Q 120.18 159.28 116.48 164.53
  Q 115.14 166.42 111.14 172.49
  Q 108.11 177.08 104.62 181.36
  Q 103.98 182.14 103.64 183.23
  Q 103.32 184.25 102.89 185.23
  Q 102.76 185.55 102.27 185.95
  Q 101.62 186.47 101.75 187.46
  Z"
/>
<path fill="#95daf5" d="
  M 155.21 76.75
  Q 155.82 78.99 154.29 80.80
  Q 154.05 81.09 153.97 80.78
  Q 153.92 80.59 153.81 80.73
  Q 142.20 96.26 131.37 112.34
  Q 131.26 112.50 127.83 116.93
  Q 126.04 119.25 124.88 121.98
  A 1.62 1.06 -12.1 0 1 124.23 122.64
  Q 123.63 122.98 123.36 123.59
  Q 122.96 124.52 122.83 124.70
  Q 102.13 154.49 81.60 184.40
  Q 81.37 184.73 81.27 185.31
  Q 81.11 186.28 80.25 186.83
  A 1.90 1.25 -13.0 0 0 79.60 187.51
  Q 78.17 190.46 74.75 194.75
  Q 72.81 197.18 70.29 196.75
  L 68.96 177.56
  A 0.57 0.49 1.0 0 0 68.44 177.10
  Q 67.86 177.06 67.71 176.50
  Q 68.32 163.71 72.00 151.46
  Q 72.54 151.90 73.21 152.00
  Q 70.07 159.92 70.75 167.00
  Q 70.94 169.02 70.88 169.95
  A 0.39 0.36 86.2 0 0 71.31 170.36
  Q 72.85 170.05 74.25 168.75
  Q 77.17 166.03 79.14 163.01
  Q 82.16 158.39 82.25 158.27
  Q 86.16 152.85 89.53 147.08
  Q 90.07 146.15 91.01 144.91
  Q 91.80 143.86 92.47 142.73
  Q 94.51 139.34 96.94 136.22
  Q 101.07 130.90 101.72 129.98
  Q 109.67 118.79 117.55 107.55
  Q 120.52 103.31 123.13 98.85
  Q 124.21 97.00 126.73 93.39
  Q 128.61 90.69 130.03 87.71
  A 1.47 1.02 -48.1 0 0 130.15 86.76
  Q 129.88 85.91 129.00 85.46
  Q 141.35 78.86 155.21 76.75
  Z"
/>
<path fill="#bbe6f8" d="
  M 129.00 85.46
  Q 129.88 85.91 130.15 86.76
  A 1.47 1.02 -48.1 0 1 130.03 87.71
  Q 128.61 90.69 126.73 93.39
  Q 124.21 97.00 123.13 98.85
  Q 120.52 103.31 117.55 107.55
  Q 109.67 118.79 101.72 129.98
  Q 101.07 130.90 96.94 136.22
  Q 94.51 139.34 92.47 142.73
  Q 91.80 143.86 91.01 144.91
  Q 90.07 146.15 89.53 147.08
  Q 86.16 152.85 82.25 158.27
  Q 82.16 158.39 79.14 163.01
  Q 77.17 166.03 74.25 168.75
  Q 72.85 170.05 71.31 170.36
  A 0.39 0.36 86.2 0 1 70.88 169.95
  Q 70.94 169.02 70.75 167.00
  Q 70.07 159.92 73.21 152.00
  Q 87.33 107.09 129.00 85.46
  Z"
/>
<path fill="#fefeff" d="
  M 278.22 173.24
  Q 271.38 180.49 261.27 180.97
  Q 261.23 180.97 258.74 180.82
  Q 256.21 180.68 255.31 182.56
  Q 253.37 186.64 251.45 190.85
  A 0.97 0.97 12.9 0 0 252.31 192.22
  Q 261.89 192.50 269.27 187.46
  A 0.52 0.52 -21.6 0 1 270.08 187.81
  Q 270.46 190.05 272.50 191.20
  Q 275.79 193.05 279.51 193.67
  Q 280.35 193.81 280.20 194.27
  A 0.84 0.54 5.5 0 1 279.43 194.67
  L 250.18 194.52
  A 1.91 1.86 -73.5 0 0 248.59 195.41
  Q 233.01 220.31 204.75 230.00
  Q 184.34 237.00 162.74 235.59
  Q 149.95 234.75 139.81 229.69
  Q 118.38 218.98 113.17 194.93
  A 0.64 0.60 -5.0 0 0 112.56 194.45
  L 93.51 194.27
  Q 98.54 191.84 101.75 187.46
  Q 106.33 191.28 112.17 191.99
  A 0.78 0.75 -86.0 0 0 113.01 191.23
  L 113.24 179.63
  A 1.19 1.15 0.7 0 1 114.44 178.50
  L 126.91 178.63
  A 1.12 1.05 0.5 0 0 128.04 177.59
  L 128.22 161.92
  A 1.18 1.14 -89.7 0 1 129.36 160.75
  L 144.56 160.75
  A 0.72 0.69 -89.6 0 0 145.25 160.04
  L 145.49 144.46
  A 0.99 0.97 0.6 0 1 146.49 143.50
  L 178.52 143.77
  A 1.22 1.20 0.2 0 0 179.75 142.57
  L 179.75 127.92
  A 1.42 1.42 -89.4 0 1 181.17 126.50
  L 199.76 126.50
  A 0.99 0.99 0.5 0 1 200.75 127.49
  L 200.75 159.61
  A 1.08 1.07 90.0 0 0 201.82 160.69
  L 216.21 160.75
  Q 218.25 160.76 218.25 162.78
  L 218.25 176.64
  A 1.88 1.88 1.1 0 0 220.06 178.52
  Q 222.08 178.61 224.36 178.45
  Q 226.15 178.32 228.65 178.26
  Q 236.53 178.06 243.56 174.31
  A 0.92 0.92 62.7 0 0 243.95 173.08
  Q 236.67 158.97 245.17 145.39
  Q 246.34 143.53 248.10 144.83
  Q 256.87 151.33 259.93 162.45
  A 0.53 0.53 -14.4 0 0 260.56 162.82
  Q 271.30 160.33 280.62 165.39
  Q 282.72 166.53 281.45 168.42
  L 278.22 173.24
  Z
  M 182.53 132.18
  L 182.44 143.08
  A 1.43 1.40 0.2 0 0 183.88 144.50
  L 194.83 144.44
  Q 198.18 145.06 197.95 142.25
  Q 197.54 137.17 197.88 130.78
  A 1.66 1.65 2.9 0 0 196.30 129.04
  Q 190.33 128.76 185.01 128.80
  Q 183.44 128.81 182.90 129.58
  Q 182.25 130.52 182.53 132.18
  Z
  M 147.79 148.75
  Q 146.96 154.56 147.98 161.04
  L 162.19 161.44
  A 0.51 0.51 0.6 0 0 162.71 160.93
  L 162.80 146.50
  A 0.71 0.69 0.4 0 0 162.10 145.81
  Q 157.21 145.71 152.03 145.74
  Q 151.98 145.74 150.47 145.65
  Q 147.55 145.47 147.79 148.75
  Z
  M 165.54 155.25
  L 165.71 160.97
  A 0.95 0.87 -6.2 0 0 166.82 161.78
  Q 172.75 160.76 178.50 161.75
  Q 180.68 162.13 180.29 159.67
  Q 181.71 153.88 180.98 147.58
  Q 180.77 145.74 178.82 145.78
  L 167.21 145.99
  A 1.75 1.66 -0.9 0 0 165.50 147.66
  L 165.54 155.25
  Z
  M 182.56 160.82
  Q 189.65 161.82 196.69 161.23
  A 1.12 0.83 7.8 0 0 197.50 160.79
  Q 197.70 160.46 197.70 160.08
  L 198.19 148.05
  A 1.68 1.61 -88.1 0 0 196.62 146.30
  L 185.16 146.02
  Q 182.55 145.95 182.55 148.45
  L 182.56 160.82
  Z
  M 253.21 179.61
  Q 254.02 177.86 255.77 177.91
  Q 270.89 178.39 277.62 168.54
  A 1.00 0.99 -61.1 0 0 277.20 167.07
  Q 267.54 162.78 258.02 167.15
  A 0.61 0.61 -15.3 0 1 257.16 166.66
  Q 255.93 155.64 247.88 148.87
  A 0.98 0.98 -55.9 0 0 246.38 149.16
  Q 239.94 161.26 248.18 173.89
  A 1.03 1.03 -32.9 0 1 247.87 175.32
  Q 242.49 178.74 236.54 180.24
  Q 232.56 181.24 224.38 181.29
  Q 170.60 181.66 116.81 181.56
  A 0.62 0.61 5.7 0 0 116.20 182.05
  Q 115.22 186.40 116.15 191.60
  A 0.85 0.84 -5.9 0 0 117.01 192.29
  Q 125.06 192.02 130.95 188.68
  A 1.05 1.04 -34.6 0 1 132.28 188.92
  Q 133.91 190.89 136.55 191.49
  Q 148.67 194.23 160.77 191.34
  Q 165.03 190.32 168.59 187.80
  A 0.82 0.77 -47.5 0 1 169.44 187.74
  Q 170.91 188.55 172.28 189.52
  Q 174.14 190.84 175.64 191.30
  Q 182.33 193.31 189.75 192.50
  Q 196.23 191.79 200.88 187.83
  A 0.70 0.68 -49.8 0 1 201.68 187.75
  Q 206.31 190.42 207.31 190.69
  Q 217.98 193.58 228.98 192.35
  Q 233.89 191.81 239.24 188.86
  A 1.27 1.26 -43.6 0 1 240.52 188.89
  Q 243.75 190.92 245.88 191.16
  Q 247.78 191.36 248.54 189.73
  L 253.21 179.61
  Z
  M 145.9843 164.6669
  A 1.54 1.54 0.0 0 0 144.4660 163.1056
  L 132.3272 162.9361
  A 1.54 1.54 0.0 0 0 130.7658 164.4544
  L 130.5757 178.0731
  A 1.54 1.54 0.0 0 0 132.0940 179.6344
  L 144.2328 179.8039
  A 1.54 1.54 0.0 0 0 145.7942 178.2856
  L 145.9843 164.6669
  Z
  M 162.8564 164.8631
  A 1.31 1.31 0.0 0 0 161.5418 163.5577
  L 148.7419 163.6024
  A 1.31 1.31 0.0 0 0 147.4365 164.9170
  L 147.4836 178.4369
  A 1.31 1.31 0.0 0 0 148.7982 179.7423
  L 161.5981 179.6976
  A 1.31 1.31 0.0 0 0 162.9035 178.3830
  L 162.8564 164.8631
  Z
  M 165.46 171.75
  Q 164.72 175.37 165.78 178.83
  A 0.75 0.67 81.0 0 0 166.43 179.36
  L 179.14 179.69
  A 1.97 1.86 -85.7 0 0 181.05 177.95
  Q 181.59 173.42 180.79 168.00
  Q 181.81 163.01 177.84 163.43
  Q 174.74 163.75 174.62 163.75
  Q 170.72 163.75 166.41 163.75
  A 0.65 0.64 0.9 0 0 165.76 164.37
  L 165.46 171.75
  Z
  M 183.29 166.50
  Q 182.30 172.59 182.50 178.71
  A 0.56 0.56 3.7 0 0 182.98 179.25
  Q 189.73 180.25 196.62 179.49
  A 1.48 1.43 -4.9 0 0 197.93 177.99
  L 197.46 167.75
  Q 198.53 165.26 196.84 163.85
  A 1.29 1.03 -24.8 0 0 195.94 163.63
  Q 191.40 164.18 185.44 163.56
  Q 181.98 163.20 183.29 166.50
  Z
  M 200.50 165.46
  L 200.29 175.25
  L 199.98 178.45
  A 1.07 0.96 2.4 0 0 201.06 179.50
  L 213.31 179.44
  Q 215.87 179.43 215.79 176.77
  L 215.44 165.02
  A 1.37 1.33 -89.6 0 0 214.17 163.70
  Q 207.90 163.44 201.95 163.49
  Q 201.07 163.50 200.72 163.94
  Q 200.25 164.53 200.50 165.46
  Z
  M 156.73 211.87
  A 1.30 1.30 71.3 0 1 155.85 213.65
  Q 143.71 216.64 131.36 216.51
  Q 130.98 216.51 129.64 216.41
  Q 126.18 216.14 128.94 218.56
  Q 141.45 229.54 157.28 231.88
  Q 165.65 233.12 177.24 232.35
  Q 191.66 231.40 205.94 226.19
  Q 219.10 221.38 229.24 212.96
  Q 234.35 208.71 237.74 205.04
  Q 241.59 200.88 244.70 195.66
  Q 245.39 194.50 244.04 194.50
  L 116.99 194.50
  A 0.45 0.45 -4.3 0 0 116.54 195.02
  Q 117.90 203.60 122.86 210.85
  Q 123.93 212.42 125.23 212.98
  Q 126.78 213.66 128.52 213.62
  Q 130.94 213.56 130.98 213.56
  Q 142.08 214.02 152.93 211.68
  Q 153.01 211.66 154.54 211.19
  Q 156.21 210.67 156.73 211.87
  Z"
/>
<path fill="#6bcbf1" d="
  M 194.83 144.44
  L 194.94 132.81
  A 0.59 0.59 4.6 0 0 194.44 132.23
  Q 188.55 131.31 182.53 132.18
  Q 182.25 130.52 182.90 129.58
  Q 183.44 128.81 185.01 128.80
  Q 190.33 128.76 196.30 129.04
  A 1.66 1.65 2.9 0 1 197.88 130.78
  Q 197.54 137.17 197.95 142.25
  Q 198.18 145.06 194.83 144.44
  Z"
/>
<path fill="#95daf5" d="
  M 194.83 144.44
  L 183.88 144.50
  A 1.43 1.40 0.2 0 1 182.44 143.08
  L 182.53 132.18
  Q 188.55 131.31 194.44 132.23
  A 0.59 0.59 4.6 0 1 194.94 132.81
  L 194.83 144.44
  Z"
/>
<path fill="#7cd1f3" d="
  M 147.98 161.04
  Q 154.24 159.40 160.43 159.89
  A 0.84 0.74 16.0 0 0 161.21 159.52
  Q 162.23 157.74 160.46 156.93
  A 0.89 0.84 10.1 0 1 159.95 156.24
  Q 159.67 153.25 159.30 150.27
  Q 159.15 149.09 158.62 149.41
  A 1.14 0.69 84.1 0 0 158.22 150.25
  Q 157.97 153.75 157.52 157.22
  Q 157.22 159.55 156.45 158.16
  Q 156.26 157.82 156.16 157.30
  Q 155.50 154.02 155.21 150.29
  Q 155.07 148.38 152.74 148.50
  L 147.79 148.75
  Q 147.55 145.47 150.47 145.65
  Q 151.98 145.74 152.03 145.74
  Q 157.21 145.71 162.10 145.81
  A 0.71 0.69 0.4 0 1 162.80 146.50
  L 162.71 160.93
  A 0.51 0.51 0.6 0 1 162.19 161.44
  L 147.98 161.04
  Z"
/>
<path fill="#95daf5" d="
  M 180.29 159.67
  Q 174.30 159.99 168.31 159.98
  Q 166.79 159.98 167.20 158.21
  A 0.50 0.49 -56.9 0 0 167.12 157.81
  L 167.00 157.62
  A 1.15 0.88 -61.1 0 1 166.88 156.82
  Q 167.18 155.39 165.54 155.25
  L 165.50 147.66
  A 1.75 1.66 -0.9 0 1 167.21 145.99
  L 178.82 145.78
  Q 180.77 145.74 180.98 147.58
  Q 181.71 153.88 180.29 159.67
  Z"
/>
<path fill="#95daf5" d="
  M 197.70 160.08
  Q 196.48 157.18 196.27 154.00
  Q 196.12 151.67 195.78 153.84
  Q 195.75 154.00 195.77 154.17
  Q 196.11 156.77 196.17 158.71
  A 1.49 1.46 89.4 0 1 194.70 160.24
  L 184.06 160.20
  A 0.60 0.56 85.2 0 1 183.50 159.69
  Q 183.24 158.09 182.56 160.82
  L 182.55 148.45
  Q 182.55 145.95 185.16 146.02
  L 196.62 146.30
  A 1.68 1.61 -88.1 0 1 198.19 148.05
  L 197.70 160.08
  Z"
/>
<path fill="#ace1f6" d="
  M 147.98 161.04
  Q 146.96 154.56 147.79 148.75
  L 152.74 148.50
  Q 155.07 148.38 155.21 150.29
  Q 155.50 154.02 156.16 157.30
  Q 156.26 157.82 156.45 158.16
  Q 157.22 159.55 157.52 157.22
  Q 157.97 153.75 158.22 150.25
  A 1.14 0.69 84.1 0 1 158.62 149.41
  Q 159.15 149.09 159.30 150.27
  Q 159.67 153.25 159.95 156.24
  A 0.89 0.84 10.1 0 0 160.46 156.93
  Q 162.23 157.74 161.21 159.52
  A 0.84 0.74 16.0 0 1 160.43 159.89
  Q 154.24 159.40 147.98 161.04
  Z"
/>
<path fill="#35b8eb" d="
  M 253.21 179.61
  L 248.54 189.73
  Q 247.78 191.36 245.88 191.16
  Q 243.75 190.92 240.52 188.89
  A 1.27 1.26 -43.6 0 0 239.24 188.86
  Q 233.89 191.81 228.98 192.35
  Q 217.98 193.58 207.31 190.69
  Q 206.31 190.42 201.68 187.75
  A 0.70 0.68 -49.8 0 0 200.88 187.83
  Q 196.23 191.79 189.75 192.50
  Q 182.33 193.31 175.64 191.30
  Q 174.14 190.84 172.28 189.52
  Q 170.91 188.55 169.44 187.74
  A 0.82 0.77 -47.5 0 0 168.59 187.80
  Q 165.03 190.32 160.77 191.34
  Q 148.67 194.23 136.55 191.49
  Q 133.91 190.89 132.28 188.92
  A 1.05 1.04 -34.6 0 0 130.95 188.68
  Q 125.06 192.02 117.01 192.29
  A 0.85 0.84 -5.9 0 1 116.15 191.60
  Q 115.22 186.40 116.20 182.05
  A 0.62 0.61 5.7 0 1 116.81 181.56
  Q 170.60 181.66 224.38 181.29
  Q 232.56 181.24 236.54 180.24
  Q 242.49 178.74 247.87 175.32
  A 1.03 1.03 -32.9 0 0 248.18 173.89
  Q 239.94 161.26 246.38 149.16
  A 0.98 0.98 -55.9 0 1 247.88 148.87
  Q 255.93 155.64 257.16 166.66
  A 0.61 0.61 -15.3 0 0 258.02 167.15
  Q 267.54 162.78 277.20 167.07
  A 1.00 0.99 -61.1 0 1 277.62 168.54
  Q 270.89 178.39 255.77 177.91
  Q 254.02 177.86 253.21 179.61
  Z"
/>
<path fill="#35b8eb" d="
  M 197.70 160.08
  Q 197.70 160.46 197.50 160.79
  A 1.12 0.83 7.8 0 1 196.69 161.23
  Q 189.65 161.82 182.56 160.82
  Q 183.24 158.09 183.50 159.69
  A 0.60 0.56 85.2 0 0 184.06 160.20
  L 194.70 160.24
  A 1.49 1.46 89.4 0 0 196.17 158.71
  Q 196.11 156.77 195.77 154.17
  Q 195.75 154.00 195.78 153.84
  Q 196.12 151.67 196.27 154.00
  Q 196.48 157.18 197.70 160.08
  Z"
/>
<path fill="#43c1ef" d="
  M 165.54 155.25
  Q 167.18 155.39 166.88 156.82
  A 1.15 0.88 -61.1 0 0 167.00 157.62
  L 167.12 157.81
  A 0.50 0.49 -56.9 0 1 167.20 158.21
  Q 166.79 159.98 168.31 159.98
  Q 174.30 159.99 180.29 159.67
  Q 180.68 162.13 178.50 161.75
  Q 172.75 160.76 166.82 161.78
  A 0.95 0.87 -6.2 0 1 165.71 160.97
  L 165.54 155.25
  Z"
/>
<path fill="#7cd1f3" d="
  M 145.7942 178.2856
  A 1.54 1.54 0.0 0 1 144.2328 179.8039
  L 132.0940 179.6344
  A 1.54 1.54 0.0 0 1 130.5757 178.0731
  L 130.7658 164.4544
  A 1.54 1.54 0.0 0 1 132.3272 162.9361
  L 144.4660 163.1056
  A 1.54 1.54 0.0 0 1 145.9843 164.6669
  L 145.7942 178.2856
  Z
  M 134.9267 166.3765
  A 0.30 0.30 0.0 0 0 134.6144 166.0893
  L 134.3946 166.0985
  A 0.30 0.30 0.0 0 0 134.1074 166.4108
  L 134.4533 174.6635
  A 0.30 0.30 0.0 0 0 134.7656 174.9507
  L 134.9854 174.9415
  A 0.30 0.30 0.0 0 0 135.2726 174.6292
  L 134.9267 166.3765
  Z"
/>
<path fill="#7cd1f3" d="
  M 162.9035 178.3830
  A 1.31 1.31 0.0 0 1 161.5981 179.6976
  L 148.7982 179.7423
  A 1.31 1.31 0.0 0 1 147.4836 178.4369
  L 147.4365 164.9170
  A 1.31 1.31 0.0 0 1 148.7419 163.6024
  L 161.5418 163.5577
  A 1.31 1.31 0.0 0 1 162.8564 164.8631
  L 162.9035 178.3830
  Z
  M 158.61 165.80
  A 0.67 0.67 -83.9 0 0 157.81 166.45
  Q 157.74 169.68 158.49 172.94
  Q 159.28 176.40 159.61 172.70
  Q 159.89 169.64 159.93 166.56
  A 0.60 0.60 6.7 0 0 159.45 165.96
  L 158.61 165.80
  Z"
/>
<path fill="#43c1ef" d="
  M 180.79 168.00
  Q 179.51 167.87 179.66 166.49
  A 0.58 0.52 -80.1 0 0 179.27 165.87
  Q 175.07 164.80 168.72 165.89
  Q 166.96 166.19 166.92 168.28
  L 166.85 171.81
  A 1.00 0.96 74.6 0 1 166.41 172.62
  Q 165.42 173.26 165.46 171.75
  L 165.76 164.37
  A 0.65 0.64 0.9 0 1 166.41 163.75
  Q 170.72 163.75 174.62 163.75
  Q 174.74 163.75 177.84 163.43
  Q 181.81 163.01 180.79 168.00
  Z"
/>
<path fill="#43c1ef" d="
  M 197.46 167.75
  Q 196.23 169.27 196.04 167.55
  Q 195.79 165.30 193.85 165.29
  Q 191.44 165.29 191.16 165.25
  Q 187.05 164.66 183.29 166.50
  Q 181.98 163.20 185.44 163.56
  Q 191.40 164.18 195.94 163.63
  A 1.29 1.03 -24.8 0 1 196.84 163.85
  Q 198.53 165.26 197.46 167.75
  Z"
/>
<path fill="#7cd1f3" d="
  M 200.29 175.25
  Q 201.98 175.08 203.34 175.96
  A 1.75 1.02 47.8 0 0 204.25 176.25
  L 212.09 175.97
  A 1.18 1.14 -0.0 0 0 213.22 174.87
  L 213.57 166.19
  A 0.51 0.49 2.2 0 0 213.07 165.67
  L 200.50 165.46
  Q 200.25 164.53 200.72 163.94
  Q 201.07 163.50 201.95 163.49
  Q 207.90 163.44 214.17 163.70
  A 1.37 1.33 -89.6 0 1 215.44 165.02
  L 215.79 176.77
  Q 215.87 179.43 213.31 179.44
  L 201.06 179.50
  A 1.07 0.96 2.4 0 1 199.98 178.45
  L 200.29 175.25
  Z"
/>
<path fill="#95daf5" d="
  M 180.79 168.00
  Q 181.59 173.42 181.05 177.95
  A 1.97 1.86 -85.7 0 1 179.14 179.69
  L 166.43 179.36
  A 0.75 0.67 81.0 0 1 165.78 178.83
  Q 164.72 175.37 165.46 171.75
  Q 165.42 173.26 166.41 172.62
  A 1.00 0.96 74.6 0 0 166.85 171.81
  L 166.92 168.28
  Q 166.96 166.19 168.72 165.89
  Q 175.07 164.80 179.27 165.87
  A 0.58 0.52 -80.1 0 1 179.66 166.49
  Q 179.51 167.87 180.79 168.00
  Z"
/>
<path fill="#95daf5" d="
  M 197.46 167.75
  L 197.93 177.99
  A 1.48 1.43 -4.9 0 1 196.62 179.49
  Q 189.73 180.25 182.98 179.25
  A 0.56 0.56 3.7 0 1 182.50 178.71
  Q 182.30 172.59 183.29 166.50
  Q 187.05 164.66 191.16 165.25
  Q 191.44 165.29 193.85 165.29
  Q 195.79 165.30 196.04 167.55
  Q 196.23 169.27 197.46 167.75
  Z"
/>
<path fill="#ace1f6" d="
  M 200.50 165.46
  L 213.07 165.67
  A 0.51 0.49 2.2 0 1 213.57 166.19
  L 213.22 174.87
  A 1.18 1.14 -0.0 0 1 212.09 175.97
  L 204.25 176.25
  A 1.75 1.02 47.8 0 1 203.34 175.96
  Q 201.98 175.08 200.29 175.25
  L 200.50 165.46
  Z"
/>
<path fill="#ace1f6" d="
  M 158.61 165.80
  L 159.45 165.96
  A 0.60 0.60 7.4 0 1 159.93 166.56
  Q 159.89 169.64 159.61 172.70
  Q 159.28 176.40 158.49 172.94
  Q 157.74 169.68 157.81 166.45
  A 0.67 0.67 -83.9 0 1 158.61 165.80
  Z"
/>
<rect fill="#bbe6f8" x="-0.41" y="-4.43" transform="translate(134.69,170.52) rotate(-2.4)" width="0.82" height="8.86" rx="0.30"/>
<path fill="#118bba" d="
  M 278.22 173.24
  L 303.21 198.75
  Q 302.26 211.39 297.61 222.91
  Q 290.89 232.70 278.50 237.50
  Q 266.21 242.26 252.98 242.50
  A 0.68 0.66 86.8 0 0 252.33 243.24
  Q 253.38 253.61 251.29 264.01
  Q 247.74 281.61 233.71 292.67
  Q 219.41 300.16 203.32 301.89
  Q 200.40 297.83 193.50 291.50
  Q 176.71 276.09 103.56 207.44
  Q 95.63 199.99 92.92 196.65
  Q 91.52 194.96 93.51 194.27
  L 112.56 194.45
  A 0.64 0.60 -5.0 0 1 113.17 194.93
  Q 118.38 218.98 139.81 229.69
  Q 149.95 234.75 162.74 235.59
  Q 184.34 237.00 204.75 230.00
  Q 233.01 220.31 248.59 195.41
  A 1.91 1.86 -73.5 0 1 250.18 194.52
  L 279.43 194.67
  A 0.84 0.54 5.5 0 0 280.20 194.27
  Q 280.35 193.81 279.51 193.67
  Q 275.79 193.05 272.50 191.20
  Q 270.46 190.05 270.08 187.81
  A 0.52 0.52 -21.6 0 0 269.27 187.46
  Q 261.89 192.50 252.31 192.22
  A 0.97 0.97 12.9 0 1 251.45 190.85
  Q 253.37 186.64 255.31 182.56
  Q 256.21 180.68 258.74 180.82
  Q 261.23 180.97 261.27 180.97
  Q 271.38 180.49 278.22 173.24
  Z"
/>
<path fill="#35b8eb" d="
  M 67.71 176.50
  Q 67.86 177.06 68.44 177.10
  A 0.57 0.49 1.0 0 1 68.96 177.56
  L 70.29 196.75
  Q 70.09 203.06 72.09 209.03
  Q 72.23 209.46 72.16 209.98
  Q 71.97 211.34 72.58 212.40
  Q 73.62 214.18 73.65 214.25
  Q 74.53 216.48 75.59 218.90
  A 0.60 0.59 68.8 0 0 76.33 219.23
  Q 79.61 218.10 81.16 215.60
  Q 87.00 206.18 92.92 196.65
  Q 95.63 199.99 103.56 207.44
  Q 176.71 276.09 193.50 291.50
  Q 200.40 297.83 203.32 301.89
  Q 196.86 303.04 191.75 303.25
  Q 159.12 304.56 130.79 290.08
  Q 121.86 285.52 113.89 279.43
  Q 87.72 259.40 75.17 228.14
  Q 69.05 212.90 67.59 194.53
  Q 67.51 193.43 67.31 192.34
  Q 65.85 184.19 67.71 176.50
  Z"
/>
<path fill="#35b8eb" d="
  M 156.73 211.87
  Q 156.21 210.67 154.54 211.19
  Q 153.01 211.66 152.93 211.68
  Q 142.08 214.02 130.98 213.56
  Q 130.94 213.56 128.52 213.62
  Q 126.78 213.66 125.23 212.98
  Q 123.93 212.42 122.86 210.85
  Q 117.90 203.60 116.54 195.02
  A 0.45 0.45 -4.3 0 1 116.99 194.50
  L 244.04 194.50
  Q 245.39 194.50 244.70 195.66
  Q 241.59 200.88 237.74 205.04
  Q 234.35 208.71 229.24 212.96
  Q 219.10 221.38 205.94 226.19
  Q 191.66 231.40 177.24 232.35
  Q 165.65 233.12 157.28 231.88
  Q 141.45 229.54 128.94 218.56
  Q 126.18 216.14 129.64 216.41
  Q 130.98 216.51 131.36 216.51
  Q 143.71 216.64 155.85 213.65
  A 1.30 1.30 71.3 0 0 156.73 211.87
  Z
  M 166.54 207.20
  A 4.22 4.22 0.0 0 0 162.32 202.98
  A 4.22 4.22 0.0 0 0 158.10 207.20
  A 4.22 4.22 0.0 0 0 162.32 211.42
  A 4.22 4.22 0.0 0 0 166.54 207.20
  Z"
/>
<path fill="#fefeff" d="
  M 166.54 207.20
  A 4.22 4.22 0.0 0 1 162.32 211.42
  A 4.22 4.22 0.0 0 1 158.10 207.20
  A 4.22 4.22 0.0 0 1 162.32 202.98
  A 4.22 4.22 0.0 0 1 166.54 207.20
  Z
  M 164.5392 209.1801
  A 2.02 2.02 0.0 0 0 164.2158 206.3417
  L 162.8384 205.2461
  A 2.02 2.02 0.0 0 0 160.0000 205.5695
  L 159.8008 205.8199
  A 2.02 2.02 0.0 0 0 160.1242 208.6583
  L 161.5016 209.7539
  A 2.02 2.02 0.0 0 0 164.3400 209.4305
  L 164.5392 209.1801
  Z"
/>
<rect fill="#35b8eb" x="-2.90" y="-2.18" transform="translate(162.17,207.50) rotate(38.5)" width="5.80" height="4.36" rx="2.02"/>
<path fill="#fefeff" d="
  M 297.61 222.91
  Q 295.51 231.96 289.19 242.94
  Q 281.12 256.95 272.56 265.56
  Q 270.92 267.22 268.97 270.20
  Q 267.22 272.90 265.25 274.63
  Q 256.93 281.95 253.94 283.44
  Q 249.43 285.68 245.37 288.62
  Q 243.72 289.81 242.37 290.53
  Q 240.78 291.37 239.18 292.18
  Q 236.65 293.46 233.71 292.67
  Q 247.74 281.61 251.29 264.01
  Q 253.38 253.61 252.33 243.24
  A 0.68 0.66 86.8 0 1 252.98 242.50
  Q 266.21 242.26 278.50 237.50
  Q 290.89 232.70 297.61 222.91
  Z"
/>
</svg>
