<?xml version="1.0" encoding="UTF-8" standalone="no"?>
<!DOCTYPE svg PUBLIC "-//W3C//DTD SVG 1.1//EN" "http://www.w3.org/Graphics/SVG/1.1/DTD/svg11.dtd">
<svg xmlns="http://www.w3.org/2000/svg" version="1.1" viewBox="0 0 370 370">
<g stroke-width="2.00" fill="none" stroke-linecap="butt">
<path stroke="#1e1e1e" vector-effect="non-scaling-stroke" d="
  M 159.25 201.21
  Q 158.47 201.84 158.02 202.72
  A 0.70 0.67 35.6 0 0 158.17 203.53
  Q 166.23 211.32 168.06 213.44
  Q 169.66 215.28 171.20 215.71
  A 0.93 0.91 87.9 0 1 171.81 216.29
  Q 172.27 217.56 173.71 217.50"
/>
<path stroke="#949494" vector-effect="non-scaling-stroke" d="
  M 173.71 217.50
  L 172.99 220.60
  A 0.97 0.76 -4.0 0 1 172.33 221.20
  Q 154.95 226.10 145.31 211.70
  Q 145.29 211.67 144.35 210.16
  Q 138.83 201.28 128.00 202.25
  Q 125.72 202.45 127.31 203.69
  Q 134.78 209.47 139.13 217.77
  Q 141.63 222.53 141.64 222.55
  Q 151.58 238.82 172.34 234.89
  A 0.98 0.97 -5.4 0 1 173.50 235.84
  L 173.43 252.99
  A 0.51 0.51 0.0 0 0 173.94 253.50
  L 210.06 253.50
  A 0.93 0.93 -89.7 0 0 210.99 252.58
  Q 211.16 237.03 210.84 222.14
  Q 210.74 217.30 209.90 214.45
  Q 208.85 210.87 206.84 207.25
  A 0.37 0.37 -20.4 0 1 207.09 206.71
  Q 214.56 205.33 220.56 203.05
  Q 234.37 197.80 240.17 185.55
  Q 243.45 178.61 243.71 168.49
  Q 243.93 159.63 242.15 150.89
  Q 241.19 146.22 239.68 143.34
  Q 237.83 139.80 234.87 136.87
  A 0.98 0.98 32.0 0 1 234.63 135.84
  Q 238.68 124.48 234.31 113.42
  A 0.70 0.69 70.5 0 0 233.47 113.01
  Q 222.51 116.21 216.17 126.37
  A 0.57 0.57 -60.0 0 1 215.43 126.57
  Q 211.09 124.30 206.61 123.36
  Q 203.54 122.72 197.36 122.34
  Q 186.98 121.70 176.74 123.61
  Q 174.51 124.02 172.85 124.68
  Q 170.96 125.43 169.19 126.44
  A 1.17 1.16 59.5 0 1 167.62 126.03
  Q 161.72 116.34 151.03 113.01
  A 0.83 0.83 -70.9 0 0 150.01 113.51
  Q 145.72 124.69 149.72 135.66
  A 1.22 1.21 -32.1 0 1 149.42 136.95
  Q 146.55 139.77 144.76 143.20
  Q 143.34 145.92 142.35 150.50
  Q 139.76 162.51 141.00 174.00
  Q 142.96 192.23 159.25 201.21"
/>
<path stroke="#8a8a8a" vector-effect="non-scaling-stroke" d="
  M 173.71 217.50
  Q 174.38 212.09 177.27 207.30
  A 0.51 0.50 -71.0 0 0 176.90 206.53
  Q 167.75 205.44 159.25 201.21"
/>
</g>
<path fill="#282828" d="
  M 298.22 183.24
  A 112.84 112.84 0.0 0 1 185.38 296.08
  A 112.84 112.84 0.0 0 1 72.54 183.24
  A 112.84 112.84 0.0 0 1 185.38 70.40
  A 112.84 112.84 0.0 0 1 298.22 183.24
  Z
  M 159.25 201.21
  Q 158.47 201.84 158.02 202.72
  A 0.70 0.67 35.6 0 0 158.17 203.53
  Q 166.23 211.32 168.06 213.44
  Q 169.66 215.28 171.20 215.71
  A 0.93 0.91 87.9 0 1 171.81 216.29
  Q 172.27 217.56 173.71 217.50
  L 172.99 220.60
  A 0.97 0.76 -4.0 0 1 172.33 221.20
  Q 154.95 226.10 145.31 211.70
  Q 145.29 211.67 144.35 210.16
  Q 138.83 201.28 128.00 202.25
  Q 125.72 202.45 127.31 203.69
  Q 134.78 209.47 139.13 217.77
  Q 141.63 222.53 141.64 222.55
  Q 151.58 238.82 172.34 234.89
  A 0.98 0.97 -5.4 0 1 173.50 235.84
  L 173.43 252.99
  A 0.51 0.51 0.0 0 0 173.94 253.50
  L 210.06 253.50
  A 0.93 0.93 -89.7 0 0 210.99 252.58
  Q 211.16 237.03 210.84 222.14
  Q 210.74 217.30 209.90 214.45
  Q 208.85 210.87 206.84 207.25
  A 0.37 0.37 -20.4 0 1 207.09 206.71
  Q 214.56 205.33 220.56 203.05
  Q 234.37 197.80 240.17 185.55
  Q 243.45 178.61 243.71 168.49
  Q 243.93 159.63 242.15 150.89
  Q 241.19 146.22 239.68 143.34
  Q 237.83 139.80 234.87 136.87
  A 0.98 0.98 32.0 0 1 234.63 135.84
  Q 238.68 124.48 234.31 113.42
  A 0.70 0.69 70.5 0 0 233.47 113.01
  Q 222.51 116.21 216.17 126.37
  A 0.57 0.57 -60.0 0 1 215.43 126.57
  Q 211.09 124.30 206.61 123.36
  Q 203.54 122.72 197.36 122.34
  Q 186.98 121.70 176.74 123.61
  Q 174.51 124.02 172.85 124.68
  Q 170.96 125.43 169.19 126.44
  A 1.17 1.16 59.5 0 1 167.62 126.03
  Q 161.72 116.34 151.03 113.01
  A 0.83 0.83 -70.9 0 0 150.01 113.51
  Q 145.72 124.69 149.72 135.66
  A 1.22 1.21 -32.1 0 1 149.42 136.95
  Q 146.55 139.77 144.76 143.20
  Q 143.34 145.92 142.35 150.50
  Q 139.76 162.51 141.00 174.00
  Q 142.96 192.23 159.25 201.21
  Z"
/>
<path fill="#ffffff" d="
  M 173.71 217.50
  Q 174.38 212.09 177.27 207.30
  A 0.51 0.50 -71.0 0 0 176.90 206.53
  Q 167.75 205.44 159.25 201.21
  Q 142.96 192.23 141.00 174.00
  Q 139.76 162.51 142.35 150.50
  Q 143.34 145.92 144.76 143.20
  Q 146.55 139.77 149.42 136.95
  A 1.22 1.21 -32.1 0 0 149.72 135.66
  Q 145.72 124.69 150.01 113.51
  A 0.83 0.83 -70.9 0 1 151.03 113.01
  Q 161.72 116.34 167.62 126.03
  A 1.17 1.16 59.5 0 0 169.19 126.44
  Q 170.96 125.43 172.85 124.68
  Q 174.51 124.02 176.74 123.61
  Q 186.98 121.70 197.36 122.34
  Q 203.54 122.72 206.61 123.36
  Q 211.09 124.30 215.43 126.57
  A 0.57 0.57 -60.0 0 0 216.17 126.37
  Q 222.51 116.21 233.47 113.01
  A 0.70 0.69 70.5 0 1 234.31 113.42
  Q 238.68 124.48 234.63 135.84
  A 0.98 0.98 32.0 0 0 234.87 136.87
  Q 237.83 139.80 239.68 143.34
  Q 241.19 146.22 242.15 150.89
  Q 243.93 159.63 243.71 168.49
  Q 243.45 178.61 240.17 185.55
  Q 234.37 197.80 220.56 203.05
  Q 214.56 205.33 207.09 206.71
  A 0.37 0.37 -20.4 0 0 206.84 207.25
  Q 208.85 210.87 209.90 214.45
  Q 210.74 217.30 210.84 222.14
  Q 211.16 237.03 210.99 252.58
  A 0.93 0.93 -89.7 0 1 210.06 253.50
  L 173.94 253.50
  A 0.51 0.51 0.0 0 1 173.43 252.99
  L 173.50 235.84
  A 0.98 0.97 -5.4 0 0 172.34 234.89
  Q 151.58 238.82 141.64 222.55
  Q 141.63 222.53 139.13 217.77
  Q 134.78 209.47 127.31 203.69
  Q 125.72 202.45 128.00 202.25
  Q 138.83 201.28 144.35 210.16
  Q 145.29 211.67 145.31 211.70
  Q 154.95 226.10 172.33 221.20
  A 0.97 0.76 -4.0 0 0 172.99 220.60
  L 173.71 217.50
  Z"
/>
<path fill="#141414" d="
  M 159.25 201.21
  Q 167.75 205.44 176.90 206.53
  A 0.51 0.50 -71.0 0 1 177.27 207.30
  Q 174.38 212.09 173.71 217.50
  Q 172.27 217.56 171.81 216.29
  A 0.93 0.91 87.9 0 0 171.20 215.71
  Q 169.66 215.28 168.06 213.44
  Q 166.23 211.32 158.17 203.53
  A 0.70 0.67 35.6 0 1 158.02 202.72
  Q 158.47 201.84 159.25 201.21
  Z"
/>
</svg>
