<?xml version="1.0" encoding="UTF-8" standalone="no"?>
<!DOCTYPE svg PUBLIC "-//W3C//DTD SVG 1.1//EN" "http://www.w3.org/Graphics/SVG/1.1/DTD/svg11.dtd">
<svg xmlns="http://www.w3.org/2000/svg" version="1.1" viewBox="0 0 370 370">
<g stroke-width="2.00" fill="none" stroke-linecap="butt">
<path stroke="#fbc1a2" stroke-opacity="0.996" vector-effect="non-scaling-stroke" d="
  M 113.04 78.75
  Q 112.75 79.07 112.71 79.50"
/>
<path stroke="#ef8265" vector-effect="non-scaling-stroke" d="
  M 112.71 79.50
  Q 111.23 74.54 109.69 73.06
  Q 106.97 70.45 104.25 73.04"
/>
<path stroke="#fbc1a2" stroke-opacity="0.996" vector-effect="non-scaling-stroke" d="
  M 104.25 73.04
  Q 104.02 72.98 103.96 72.75"
/>
<path stroke="#f7c2ad" stroke-opacity="0.996" vector-effect="non-scaling-stroke" d="
  M 127.32 122.17
  Q 126.66 122.81 126.71 123.25"
/>
<path stroke="#fbc1a2" stroke-opacity="0.996" vector-effect="non-scaling-stroke" d="
  M 90.21 113.75
  Q 90.07 113.80 89.52 113.62"
/>
<path stroke="#ef8265" vector-effect="non-scaling-stroke" d="
  M 112.71 79.50
  L 126.71 123.25"
/>
<path stroke="#ea8370" vector-effect="non-scaling-stroke" d="
  M 126.71 123.25
  L 137.29 156.25"
/>
<path stroke="#f05928" vector-effect="non-scaling-stroke" d="
  M 137.29 156.25
  Q 135.74 156.97 134.00 156.97
  Q 105.38 157.03 76.39 156.95"
/>
<path stroke="#ef8265" vector-effect="non-scaling-stroke" d="
  M 76.39 156.95
  L 90.21 113.75"
/>
<path stroke="#ef8265" vector-effect="non-scaling-stroke" d="
  M 90.21 113.75
  Q 96.34 95.00 102.50 76.25
  Q 103.23 74.04 104.25 73.04"
/>
<path stroke="#f7986e" vector-effect="non-scaling-stroke" d="
  M 227.50 156.46
  Q 226.59 157.11 225.50 157.29"
/>
<path stroke="#ea8370" vector-effect="non-scaling-stroke" d="
  M 225.50 157.29
  L 138.35 157.32"
/>
<path stroke="#f7986e" vector-effect="non-scaling-stroke" d="
  M 138.35 157.32
  Q 138.22 156.50 137.29 156.25"
/>
<path stroke="#fc9764" vector-effect="non-scaling-stroke" d="
  M 76.39 156.95
  L 75.54 159.25"
/>
<path stroke="#fcb263" vector-effect="non-scaling-stroke" d="
  M 75.54 159.25
  Q 69.46 179.12 62.14 198.58"
/>
<path stroke="#f05928" vector-effect="non-scaling-stroke" d="
  M 138.35 157.32
  L 181.35 289.78
  A 1.23 1.01 55.1 0 1 181.28 290.69
  L 180.96 291.25"
/>
<path stroke="#fb994f" vector-effect="non-scaling-stroke" d="
  M 180.96 291.25
  Q 179.04 290.85 178.21 289.06"
/>
<path stroke="#fc8926" vector-effect="non-scaling-stroke" d="
  M 178.21 289.06
  Q 175.92 284.36 172.52 280.35
  Q 168.10 275.14 168.07 275.10
  Q 123.95 218.64 79.81 162.19
  Q 78.36 160.33 75.54 159.25"
/>
<path stroke="#ee8451" vector-effect="non-scaling-stroke" d="
  M 261.50 73.54
  Q 262.81 76.22 263.73 79.05
  Q 276.28 117.78 288.71 156.46"
/>
<path stroke="#f05928" vector-effect="non-scaling-stroke" d="
  M 288.71 156.46
  Q 283.89 156.50 279.07 156.72
  Q 273.23 157.00 269.43 157.00
  Q 254.22 157.00 239.00 157.00
  Q 231.76 157.00 227.50 156.46"
/>
<path stroke="#ea8370" vector-effect="non-scaling-stroke" d="
  M 227.50 156.46
  L 251.25 83.79"
/>
<path stroke="#fac38e" stroke-opacity="0.996" vector-effect="non-scaling-stroke" d="
  M 262.21 73.75
  L 261.50 73.54"
/>
<path stroke="#ef8265" vector-effect="non-scaling-stroke" d="
  M 261.50 73.54
  Q 257.11 69.46 254.19 74.69
  Q 253.30 76.26 251.25 83.79"
/>
<path stroke="#f7c2ad" stroke-opacity="0.996" vector-effect="non-scaling-stroke" d="
  M 251.25 83.79
  L 250.50 83.62"
/>
<path stroke="#ee8451" vector-effect="non-scaling-stroke" d="
  M 184.25 291.21
  Q 182.48 294.02 180.96 291.25"
/>
<path stroke="#fc8926" vector-effect="non-scaling-stroke" d="
  M 289.13 158.13
  Q 286.09 161.17 280.31 168.56
  Q 238.32 222.32 196.31 276.06
  Q 190.56 283.42 187.58 286.64
  A 1.77 1.08 81.5 0 0 187.22 287.50
  L 186.91 289.69"
/>
<path stroke="#fb994f" vector-effect="non-scaling-stroke" d="
  M 186.91 289.69
  L 184.25 291.21"
/>
<path stroke="#f05928" vector-effect="non-scaling-stroke" d="
  M 184.25 291.21
  Q 183.70 289.36 184.69 286.44
  Q 199.22 243.57 225.85 159.72
  A 1.35 0.99 47.3 0 0 225.75 158.83
  Q 225.41 158.12 225.50 157.29"
/>
<path stroke="#fbb44f" vector-effect="non-scaling-stroke" d="
  M 178.21 289.06
  Q 172.55 285.97 167.45 282.24
  Q 157.92 275.28 157.16 274.76
  Q 150.09 269.92 143.23 264.77
  Q 131.84 256.23 129.49 254.53
  Q 96.78 230.82 63.98 207.22"
/>
<path stroke="#fbb44f" vector-effect="non-scaling-stroke" d="
  M 264.59 234.53
  Q 275.78 224.66 288.35 216.62
  Q 291.95 214.31 295.26 211.61
  Q 295.34 211.55 298.50 209.21
  Q 304.78 204.56 302.00 197.00
  Q 300.71 193.52 300.69 193.44
  Q 295.23 175.85 289.13 158.13"
/>
<path stroke="#fb994f" vector-effect="non-scaling-stroke" d="
  M 289.13 158.13
  L 288.71 156.46"
/>
<path stroke="#fbb44f" vector-effect="non-scaling-stroke" d="
  M 258.31 239.27
  Q 255.91 240.47 250.44 244.19
  Q 242.51 249.58 233.29 256.45
  Q 232.15 257.29 230.99 258.11
  Q 225.81 261.73 220.58 265.76
  Q 215.13 269.95 210.10 273.31
  Q 198.29 281.18 186.91 289.69"
/>
</g>
<path fill="#fbc1a2" fill-opacity="0.996" d="
  M 113.04 78.75
  Q 112.75 79.07 112.71 79.50
  Q 111.23 74.54 109.69 73.06
  Q 106.97 70.45 104.25 73.04
  Q 104.02 72.98 103.96 72.75
  Q 106.68 69.26 110.00 72.50
  Q 112.77 75.20 113.04 78.75
  Z"
/>
<path fill="#fbc1a2" fill-opacity="0.996" d="
  M 262.21 73.75
  L 261.50 73.54
  Q 257.11 69.46 254.19 74.69
  Q 253.30 76.26 251.25 83.79
  L 250.50 83.62
  Q 251.29 79.69 252.85 75.99
  Q 254.18 72.84 256.01 71.66
  Q 259.31 69.54 262.21 73.75
  Z"
/>
<path fill="#e34329" d="
  M 112.71 79.50
  L 126.71 123.25
  L 137.29 156.25
  Q 135.74 156.97 134.00 156.97
  Q 105.38 157.03 76.39 156.95
  L 90.21 113.75
  Q 96.34 95.00 102.50 76.25
  Q 103.23 74.04 104.25 73.04
  Q 106.97 70.45 109.69 73.06
  Q 111.23 74.54 112.71 79.50
  Z"
/>
<path fill="#e34329" d="
  M 261.50 73.54
  Q 262.81 76.22 263.73 79.05
  Q 276.28 117.78 288.71 156.46
  Q 283.89 156.50 279.07 156.72
  Q 273.23 157.00 269.43 157.00
  Q 254.22 157.00 239.00 157.00
  Q 231.76 157.00 227.50 156.46
  L 251.25 83.79
  Q 253.30 76.26 254.19 74.69
  Q 257.11 69.46 261.50 73.54
  Z"
/>
<path fill="#fbc1a2" fill-opacity="0.996" d="
  M 103.96 72.75
  Q 104.02 72.98 104.25 73.04
  Q 103.23 74.04 102.50 76.25
  Q 96.34 95.00 90.21 113.75
  Q 90.07 113.80 89.52 113.62
  Q 89.74 112.39 91.06 108.31
  Q 99.77 81.50 102.19 74.44
  Q 102.56 73.35 103.96 72.75
  Z"
/>
<path fill="#f9c579" fill-opacity="0.996" d="
  M 261.50 73.54
  L 262.21 73.75
  Q 263.12 74.79 264.25 78.25
  Q 283.79 138.01 303.19 197.81
  Q 304.56 202.03 303.07 205.38
  Q 302.12 207.53 298.21 210.46
  Q 281.69 222.86 264.59 234.53
  Q 275.78 224.66 288.35 216.62
  Q 291.95 214.31 295.26 211.61
  Q 295.34 211.55 298.50 209.21
  Q 304.78 204.56 302.00 197.00
  Q 300.71 193.52 300.69 193.44
  Q 295.23 175.85 289.13 158.13
  L 288.71 156.46
  Q 276.28 117.78 263.73 79.05
  Q 262.81 76.22 261.50 73.54
  Z"
/>
<path fill="#fbc1a2" fill-opacity="0.996" d="
  M 113.04 78.75
  Q 117.02 89.52 120.17 100.56
  Q 120.34 101.13 121.33 103.15
  Q 121.77 104.04 121.92 105.03
  Q 122.13 106.38 122.31 106.93
  Q 124.86 114.53 127.32 122.17
  Q 126.66 122.81 126.71 123.25
  L 112.71 79.50
  Q 112.75 79.07 113.04 78.75
  Z"
/>
<path fill="#f2c3b7" fill-opacity="0.996" d="
  M 250.50 83.62
  L 251.25 83.79
  L 227.50 156.46
  Q 226.59 157.11 225.50 157.29
  L 138.35 157.32
  Q 138.22 156.50 137.29 156.25
  L 126.71 123.25
  Q 126.66 122.81 127.32 122.17
  L 138.16 155.21
  A 0.89 0.84 86.0 0 0 138.80 155.80
  Q 141.14 156.27 145.50 156.25
  Q 184.87 156.08 225.90 156.26
  A 1.20 1.20 -81.0 0 0 227.04 155.43
  L 250.50 83.62
  Z"
/>
<path fill="#fbc1a2" fill-opacity="0.996" d="
  M 89.52 113.62
  Q 90.07 113.80 90.21 113.75
  L 76.39 156.95
  L 75.54 159.25
  Q 69.46 179.12 62.14 198.58
  Q 69.44 173.82 77.70 149.41
  Q 80.01 142.58 83.53 131.50
  Q 86.38 122.52 89.52 113.62
  Z"
/>
<path fill="#fc6e26" d="
  M 288.71 156.46
  L 289.13 158.13
  Q 286.09 161.17 280.31 168.56
  Q 238.32 222.32 196.31 276.06
  Q 190.56 283.42 187.58 286.64
  A 1.77 1.08 81.5 0 0 187.22 287.50
  L 186.91 289.69
  L 184.25 291.21
  Q 183.70 289.36 184.69 286.44
  Q 199.22 243.57 225.85 159.72
  A 1.35 0.99 47.3 0 0 225.75 158.83
  Q 225.41 158.12 225.50 157.29
  Q 226.59 157.11 227.50 156.46
  Q 231.76 157.00 239.00 157.00
  Q 254.22 157.00 269.43 157.00
  Q 273.23 157.00 279.07 156.72
  Q 283.89 156.50 288.71 156.46
  Z"
/>
<path fill="#fc6e26" d="
  M 137.29 156.25
  Q 138.22 156.50 138.35 157.32
  L 181.35 289.78
  A 1.23 1.01 55.1 0 1 181.28 290.69
  L 180.96 291.25
  Q 179.04 290.85 178.21 289.06
  Q 175.92 284.36 172.52 280.35
  Q 168.10 275.14 168.07 275.10
  Q 123.95 218.64 79.81 162.19
  Q 78.36 160.33 75.54 159.25
  L 76.39 156.95
  Q 105.38 157.03 134.00 156.97
  Q 135.74 156.97 137.29 156.25
  Z"
/>
<path fill="#e34329" d="
  M 138.35 157.32
  L 225.50 157.29
  Q 225.41 158.12 225.75 158.83
  A 1.35 0.99 47.3 0 1 225.85 159.72
  Q 199.22 243.57 184.69 286.44
  Q 183.70 289.36 184.25 291.21
  Q 182.48 294.02 180.96 291.25
  L 181.28 290.69
  A 1.23 1.01 55.1 0 0 181.35 289.78
  L 138.35 157.32
  Z"
/>
<path fill="#fca325" d="
  M 289.13 158.13
  Q 295.23 175.85 300.69 193.44
  Q 300.71 193.52 302.00 197.00
  Q 304.78 204.56 298.50 209.21
  Q 295.34 211.55 295.26 211.61
  Q 291.95 214.31 288.35 216.62
  Q 275.78 224.66 264.59 234.53
  L 258.31 239.27
  Q 255.91 240.47 250.44 244.19
  Q 242.51 249.58 233.29 256.45
  Q 232.15 257.29 230.99 258.11
  Q 225.81 261.73 220.58 265.76
  Q 215.13 269.95 210.10 273.31
  Q 198.29 281.18 186.91 289.69
  L 187.22 287.50
  A 1.77 1.08 81.5 0 1 187.58 286.64
  Q 190.56 283.42 196.31 276.06
  Q 238.32 222.32 280.31 168.56
  Q 286.09 161.17 289.13 158.13
  Z"
/>
<path fill="#fca325" d="
  M 75.54 159.25
  Q 78.36 160.33 79.81 162.19
  Q 123.95 218.64 168.07 275.10
  Q 168.10 275.14 172.52 280.35
  Q 175.92 284.36 178.21 289.06
  Q 172.55 285.97 167.45 282.24
  Q 157.92 275.28 157.16 274.76
  Q 150.09 269.92 143.23 264.77
  Q 131.84 256.23 129.49 254.53
  Q 96.78 230.82 63.98 207.22
  Q 61.80 206.53 61.89 204.31
  Q 61.91 203.79 61.75 203.35
  Q 60.88 200.89 62.14 198.58
  Q 69.46 179.12 75.54 159.25
  Z"
/>
<path fill="#f9c579" fill-opacity="0.996" d="
  M 63.98 207.22
  Q 96.78 230.82 129.49 254.53
  Q 131.84 256.23 143.23 264.77
  Q 150.09 269.92 157.16 274.76
  Q 157.92 275.28 167.45 282.24
  Q 172.55 285.97 178.21 289.06
  Q 179.04 290.85 180.96 291.25
  Q 182.48 294.02 184.25 291.21
  L 186.91 289.69
  Q 198.29 281.18 210.10 273.31
  Q 215.13 269.95 220.58 265.76
  Q 225.81 261.73 230.99 258.11
  Q 232.15 257.29 233.29 256.45
  Q 242.51 249.58 250.44 244.19
  Q 255.91 240.47 258.31 239.27
  L 184.41 293.12
  Q 182.60 294.44 180.78 293.12
  Q 126.47 253.74 71.45 213.73
  Q 71.38 213.68 68.85 212.01
  Q 66.01 210.14 63.98 207.22
  Z"
/>
</svg>
