<?xml version="1.0" encoding="UTF-8" standalone="no"?>
<!DOCTYPE svg PUBLIC "-//W3C//DTD SVG 1.1//EN" "http://www.w3.org/Graphics/SVG/1.1/DTD/svg11.dtd">
<svg xmlns="http://www.w3.org/2000/svg" version="1.1" viewBox="0 0 370 370">
<g stroke-width="2.00" fill="none" stroke-linecap="butt">
<path stroke="#966494" vector-effect="non-scaling-stroke" d="
  M 249.75 104.96
  L 218.37 136.66"
/>
<path stroke="#f37f1c" vector-effect="non-scaling-stroke" d="
  M 144.51 142.13
  Q 117.11 136.92 93.05 150.15
  Q 93.00 150.18 91.67 151.14
  Q 90.44 152.02 88.56 151.94"
/>
<path stroke="#98b22c" vector-effect="non-scaling-stroke" d="
  M 117.70 237.07
  L 85.85 269.64"
/>
<path stroke="#3b97a4" vector-effect="non-scaling-stroke" d="
  M 184.25 284.21
  L 184.00 240.04"
/>
</g>
<path fill="#ea4234" d="
  M 249.75 104.96
  L 218.37 136.66
  Q 189.34 114.95 156.56 131.81
  Q 150.09 135.14 144.51 142.13
  Q 117.11 136.92 93.05 150.15
  Q 93.00 150.18 91.67 151.14
  Q 90.44 152.02 88.56 151.94
  Q 96.91 123.23 119.25 104.00
  Q 137.82 88.01 162.11 82.54
  Q 195.71 74.98 226.94 89.81
  Q 239.85 95.95 249.75 104.96
  Z"
/>
<path fill="#4185f4" d="
  M 249.75 104.96
  Q 271.60 124.29 279.02 150.54
  Q 279.74 153.07 281.81 154.72
  Q 302.72 171.34 308.70 195.17
  Q 311.06 204.55 310.64 214.99
  Q 309.25 250.00 280.44 270.94
  Q 268.55 279.58 253.64 282.62
  Q 246.97 283.98 233.76 284.13
  Q 209.00 284.40 184.25 284.21
  L 184.00 240.04
  Q 207.41 239.84 230.82 239.96
  Q 240.54 240.01 244.60 239.05
  Q 251.91 237.33 257.19 232.69
  Q 264.41 226.34 265.97 217.09
  Q 267.41 208.52 263.44 200.39
  Q 256.71 186.62 239.44 184.86
  A 0.60 0.59 1.2 0 1 238.90 184.31
  Q 238.67 180.67 238.72 177.03
  Q 238.73 175.68 238.33 174.03
  Q 237.96 172.55 237.82 171.03
  Q 237.52 167.69 237.23 166.53
  Q 232.73 148.75 218.37 136.66
  L 249.75 104.96
  Z"
/>
<path fill="#fcbc04" d="
  M 144.51 142.13
  Q 169.56 147.57 185.36 167.72
  Q 186.48 169.14 185.22 170.40
  L 155.16 200.46
  A 1.25 1.23 52.8 0 1 153.20 200.18
  Q 145.32 186.16 130.69 185.27
  Q 123.63 184.84 117.65 187.60
  Q 111.36 190.52 107.06 196.31
  Q 102.81 202.04 101.89 208.88
  Q 101.00 215.47 103.58 221.87
  Q 107.54 231.63 117.70 237.07
  L 85.85 269.64
  Q 82.19 267.37 78.19 263.31
  Q 57.28 242.09 57.31 212.00
  Q 57.33 184.72 75.31 164.56
  Q 78.82 160.63 88.56 151.94
  Q 90.44 152.02 91.67 151.14
  Q 93.00 150.18 93.05 150.15
  Q 117.11 136.92 144.51 142.13
  Z"
/>
<path fill="#34a853" d="
  M 117.70 237.07
  Q 125.42 240.10 135.25 240.00
  Q 143.26 239.92 184.00 240.04
  L 184.25 284.21
  Q 157.88 284.28 131.50 284.25
  Q 105.57 284.22 85.85 269.64
  L 117.70 237.07
  Z"
/>
</svg>
