<?xml version="1.0" encoding="UTF-8" standalone="no"?>
<!DOCTYPE svg PUBLIC "-//W3C//DTD SVG 1.1//EN" "http://www.w3.org/Graphics/SVG/1.1/DTD/svg11.dtd">
<svg xmlns="http://www.w3.org/2000/svg" version="1.1" viewBox="0 0 370 370">
<g stroke-width="2.00" fill="none" stroke-linecap="butt">
<path stroke="#5f83a7" vector-effect="non-scaling-stroke" d="
  M 212.25 78.54
  Q 209.76 77.90 210.25 81.25
  Q 210.85 85.41 210.71 90.85
  Q 210.49 99.08 210.49 99.14
  Q 210.43 108.92 210.15 118.72"
/>
<path stroke="#345f88" vector-effect="non-scaling-stroke" d="
  M 210.15 118.72
  L 186.82 118.95
  A 1.78 1.01 48.4 0 1 185.91 118.64
  Q 184.77 117.90 183.67 118.48
  Q 183.14 118.76 182.75 118.78
  Q 173.86 119.22 164.97 118.92
  Q 161.20 118.79 154.91 119.00
  Q 149.86 119.16 144.81 118.75
  Q 140.63 118.41 136.55 118.70
  Q 130.20 119.16 123.84 118.77
  Q 123.71 118.77 121.33 118.37
  Q 118.22 117.86 117.85 121.17
  A 0.72 0.46 -89.3 0 1 117.46 121.76
  Q 117.27 121.80 117.04 121.75"
/>
<path stroke="#255179" vector-effect="non-scaling-stroke" d="
  M 252.79 190.75
  Q 251.06 189.42 251.25 191.75
  Q 251.52 194.96 251.44 196.26
  Q 250.96 204.54 251.33 212.82
  Q 251.33 212.92 251.26 217.05
  Q 251.21 219.98 252.25 222.79"
/>
<path stroke="#2d5f89" vector-effect="non-scaling-stroke" d="
  M 252.25 222.79
  L 251.69 225.70
  Q 251.61 226.09 252.01 225.95
  Q 252.53 225.76 253.00 226.04"
/>
<path stroke="#2e5b84" vector-effect="non-scaling-stroke" d="
  M 252.70 248.23
  Q 252.11 250.58 251.92 252.99
  Q 251.85 253.97 252.75 254.04"
/>
<path stroke="#325b7f" vector-effect="non-scaling-stroke" d="
  M 239.04 257.75
  Q 236.87 256.32 234.74 257.84"
/>
<path stroke="#255179" vector-effect="non-scaling-stroke" d="
  M 212.25 257.79
  Q 211.77 257.30 210.47 257.55"
/>
<path stroke="#426b90" vector-effect="non-scaling-stroke" d="
  M 210.47 257.55
  Q 209.34 256.48 208.21 257.75"
/>
<path stroke="#345f88" vector-effect="non-scaling-stroke" d="
  M 186.93 257.63
  Q 184.47 256.78 182.18 257.87"
/>
<path stroke="#255179" vector-effect="non-scaling-stroke" d="
  M 163.04 257.50
  Q 160.34 256.66 158.11 257.70"
/>
<path stroke="#325c86" vector-effect="non-scaling-stroke" d="
  M 142.54 257.75
  Q 140.55 256.67 138.50 257.79"
/>
<path stroke="#255179" vector-effect="non-scaling-stroke" d="
  M 123.29 258.00
  Q 122.59 257.27 121.71 257.54
  Q 121.17 257.71 120.76 257.67
  L 116.79 257.25"
/>
<path stroke="#2e5b84" vector-effect="non-scaling-stroke" d="
  M 116.81 222.21
  Q 118.10 220.45 116.96 218.25"
/>
<path stroke="#325c86" vector-effect="non-scaling-stroke" d="
  M 116.75 196.29
  Q 117.71 195.51 117.60 194.32
  Q 117.54 193.58 117.55 193.16
  Q 117.60 191.79 116.62 192.21"
/>
<path stroke="#2d5f89" vector-effect="non-scaling-stroke" d="
  M 116.79 163.50
  Q 118.38 161.47 117.00 159.21"
/>
<path stroke="#265684" vector-effect="non-scaling-stroke" d="
  M 116.65 127.94
  Q 117.36 127.08 117.28 125.59
  Q 117.26 125.30 117.35 124.93
  Q 117.54 124.07 116.55 124.53"
/>
<path stroke="#345f88" vector-effect="non-scaling-stroke" d="
  M 252.68 117.99
  Q 252.21 120.32 251.07 119.13
  A 1.36 0.94 61.2 0 0 250.25 118.72
  L 238.56 118.67
  A 1.60 1.47 61.5 0 1 237.69 118.37
  Q 236.85 117.75 236.18 118.22
  A 1.82 0.66 -43.4 0 1 235.30 118.60
  Q 222.54 119.39 210.15 118.72"
/>
<path stroke="#497599" vector-effect="non-scaling-stroke" d="
  M 252.75 222.21
  L 252.25 222.79"
/>
<path stroke="#5d81a0" vector-effect="non-scaling-stroke" d="
  M 86.28 268.52
  Q 85.54 266.23 85.96 264.71"
/>
<path stroke="#2e5b84" vector-effect="non-scaling-stroke" d="
  M 253.04 190.50
  Q 251.15 185.82 251.00 179.75
  Q 250.75 169.90 251.07 163.49
  Q 251.47 155.59 251.25 152.25
  Q 251.02 148.75 251.25 136.25
  Q 251.35 131.12 253.04 128.00"
/>
<path stroke="#5d81a0" vector-effect="non-scaling-stroke" d="
  M 210.47 257.55
  L 210.08 292.68
  A 0.69 0.59 -84.2 0 0 210.53 293.33
  Q 211.75 293.64 212.45 292.95"
/>
<path stroke="#95bed3" vector-effect="non-scaling-stroke" d="
  M 214.55 72.46
  A 3.80 3.80 0.0 0 0 210.75 68.66
  A 3.80 3.80 0.0 0 0 206.95 72.46
  A 3.80 3.80 0.0 0 0 210.75 76.26
  A 3.80 3.80 0.0 0 0 214.55 72.46"
/>
<path stroke="#95bed3" vector-effect="non-scaling-stroke" d="
  M 131.16 76.72
  A 4.01 4.01 0.0 0 0 127.15 72.71
  A 4.01 4.01 0.0 0 0 123.14 76.72
  A 4.01 4.01 0.0 0 0 127.15 80.73
  A 4.01 4.01 0.0 0 0 131.16 76.72"
/>
<path stroke="#95bed3" vector-effect="non-scaling-stroke" d="
  M 163.78 79.39
  A 3.59 3.59 0.0 0 0 160.19 75.80
  A 3.59 3.59 0.0 0 0 156.60 79.39
  A 3.59 3.59 0.0 0 0 160.19 82.98
  A 3.59 3.59 0.0 0 0 163.78 79.39"
/>
<path stroke="#95bed3" vector-effect="non-scaling-stroke" d="
  M 186.8086 92.7322
  A 3.70 3.45 54.5 0 0 187.4687 87.7166
  A 3.70 3.45 54.5 0 0 182.5114 86.7078
  A 3.70 3.45 54.5 0 0 181.8513 91.7234
  A 3.70 3.45 54.5 0 0 186.8086 92.7322"
/>
<path stroke="#95bed3" vector-effect="non-scaling-stroke" d="
  M 250.0824 89.0487
  A 3.85 3.32 81.6 0 0 252.8044 84.7550
  A 3.85 3.32 81.6 0 0 248.9576 81.4313
  A 3.85 3.32 81.6 0 0 246.2356 85.7250
  A 3.85 3.32 81.6 0 0 250.0824 89.0487"
/>
<path stroke="#8fbace" vector-effect="non-scaling-stroke" d="
  M 290.75 116.32
  A 3.84 3.84 0.0 0 0 286.91 112.48
  A 3.84 3.84 0.0 0 0 283.07 116.32
  A 3.84 3.84 0.0 0 0 286.91 120.16
  A 3.84 3.84 0.0 0 0 290.75 116.32"
/>
<path stroke="#8fbace" vector-effect="non-scaling-stroke" d="
  M 302.99 156.50
  A 3.86 3.86 0.0 0 0 299.13 152.64
  A 3.86 3.86 0.0 0 0 295.27 156.50
  A 3.86 3.86 0.0 0 0 299.13 160.36
  A 3.86 3.86 0.0 0 0 302.99 156.50"
/>
<path stroke="#8fbace" vector-effect="non-scaling-stroke" d="
  M 276.4287 192.0902
  A 3.81 3.39 54.2 0 0 276.9495 187.0170
  A 3.81 3.39 54.2 0 0 271.9713 185.9098
  A 3.81 3.39 54.2 0 0 271.4505 190.9830
  A 3.81 3.39 54.2 0 0 276.4287 192.0902"
/>
<path stroke="#4391b1" vector-effect="non-scaling-stroke" d="
  M 140.86 134.53
  Q 139.04 135.93 137.07 135.12
  A 0.95 0.90 10.3 0 0 135.75 135.98
  L 135.96 139.49
  A 1.21 1.10 84.5 0 1 135.02 140.75
  Q 132.51 141.09 130.01 140.92
  Q 125.95 140.65 127.61 146.24
  A 1.67 1.67 75.7 0 0 129.56 147.40
  Q 132.56 146.75 134.95 147.21
  A 0.75 0.73 89.3 0 1 135.54 147.80
  Q 136.16 151.08 135.43 154.32
  A 0.70 0.61 -83.0 0 1 134.82 154.87
  L 128.31 154.87
  A 0.76 0.59 7.3 0 0 127.63 155.27
  Q 126.95 157.29 127.44 160.49
  A 1.00 0.99 -9.6 0 0 128.62 161.32
  Q 132.04 160.67 135.08 161.32
  A 0.71 0.60 8.1 0 1 135.63 161.94
  L 135.52 168.45
  A 0.62 0.53 -1.2 0 1 134.93 168.97
  L 127.82 169.30
  A 0.61 0.49 -1.6 0 0 127.23 169.80
  L 127.39 174.86
  A 0.59 0.50 -1.0 0 0 127.99 175.35
  L 135.10 175.25
  A 0.67 0.64 89.6 0 1 135.75 175.92
  L 135.75 182.96"
/>
<path stroke="#4d92b3" vector-effect="non-scaling-stroke" d="
  M 135.75 182.96
  Q 131.19 183.71 129.50 183.25
  Q 126.97 182.56 127.17 184.71
  Q 127.29 185.99 127.00 187.24
  Q 126.34 190.16 129.25 189.50
  Q 131.17 189.07 135.75 189.79"
/>
<path stroke="#4391b1" vector-effect="non-scaling-stroke" d="
  M 135.75 189.79
  L 135.50 196.96"
/>
<path stroke="#4e98b3" vector-effect="non-scaling-stroke" d="
  M 135.50 196.96
  L 127.88 197.21
  A 0.65 0.59 -1.0 0 0 127.25 197.80
  L 127.25 202.88
  A 0.76 0.69 1.3 0 0 127.98 203.57
  L 135.75 203.79"
/>
<path stroke="#4391b1" vector-effect="non-scaling-stroke" d="
  M 135.75 203.79
  L 135.79 210.57
  A 0.55 0.50 88.4 0 1 135.32 211.12
  L 127.93 211.67
  A 0.62 0.54 -0.3 0 0 127.36 212.17
  L 127.00 216.43
  A 1.43 1.25 2.7 0 0 128.41 217.79
  L 135.07 217.89
  A 0.59 0.55 0.0 0 1 135.65 218.43
  L 135.76 224.69
  A 0.61 0.55 -3.3 0 1 135.20 225.25
  L 128.50 225.74
  A 1.44 1.35 1.1 0 0 127.19 226.92
  Q 126.92 228.99 127.77 230.81
  A 1.00 0.85 77.7 0 0 128.49 231.36
  L 134.28 232.00
  A 1.74 1.56 9.5 0 1 135.82 233.93
  Q 135.10 237.06 137.75 236.51
  Q 141.46 235.74 140.75 239.50
  Q 140.27 242.03 141.17 245.20
  A 0.86 0.80 87.2 0 0 141.79 245.80
  Q 143.92 246.25 146.02 245.65
  A 0.71 0.71 83.6 0 0 146.53 245.01
  L 147.03 237.31
  A 0.65 0.52 -88.1 0 1 147.55 236.71
  L 153.47 236.64
  A 1.32 1.07 88.5 0 1 154.57 237.92
  L 154.74 245.19
  A 0.57 0.53 -0.5 0 0 155.31 245.71
  L 159.87 245.74
  A 0.70 0.63 -89.1 0 0 160.50 245.06
  L 160.77 237.09
  A 0.65 0.61 0.9 0 1 161.42 236.50
  L 166.96 236.50
  A 0.91 0.85 -1.3 0 1 167.87 237.31
  L 168.24 245.45
  A 0.56 0.50 88.2 0 0 168.74 245.98
  L 172.89 245.95
  A 1.63 1.37 -88.5 0 0 174.27 244.39
  L 174.60 237.17
  A 0.58 0.54 2.6 0 1 175.20 236.66
  L 181.05 236.87
  A 0.78 0.73 -89.2 0 1 181.76 237.65
  L 181.80 245.18
  A 0.57 0.53 -89.0 0 0 182.31 245.75
  L 187.07 245.85
  A 0.57 0.56 -87.9 0 0 187.64 245.31
  L 187.97 237.58
  A 1.13 1.03 -88.5 0 1 189.00 236.50
  L 194.92 236.50
  A 0.64 0.59 89.0 0 1 195.51 237.12
  L 195.77 245.47
  A 0.55 0.53 87.0 0 0 196.34 246.00
  L 201.07 245.65
  A 0.59 0.57 87.9 0 0 201.60 245.06
  L 201.73 237.66
  A 1.30 1.21 0.2 0 1 203.02 236.47
  L 208.44 236.45
  A 0.80 0.74 -1.1 0 1 209.25 237.17
  L 209.52 245.44
  A 0.53 0.49 -2.2 0 0 210.07 245.91
  L 214.52 245.72
  A 0.83 0.78 -89.5 0 0 215.27 244.94
  L 215.67 237.25
  A 0.69 0.64 -4.2 0 1 216.23 236.65
  Q 219.64 236.01 222.96 237.00"
/>
<path stroke="#4f8db4" vector-effect="non-scaling-stroke" d="
  M 222.96 237.00
  L 223.27 245.20
  A 0.68 0.64 6.4 0 0 223.79 245.82
  Q 225.72 246.26 228.30 245.52
  A 0.94 0.87 84.2 0 0 228.94 244.67
  L 229.21 237.25"
/>
<path stroke="#4391b1" vector-effect="non-scaling-stroke" d="
  M 229.21 237.25
  Q 230.33 235.92 232.00 236.50
  Q 233.55 237.04 234.08 235.98
  Q 234.17 235.81 234.13 235.02
  L 234.00 232.54"
/>
<path stroke="#4e98b3" vector-effect="non-scaling-stroke" d="
  M 234.00 232.54
  Q 237.76 231.46 241.70 231.66
  A 0.78 0.73 13.3 0 0 242.42 231.25
  Q 243.63 228.80 242.69 226.22
  A 0.80 0.72 79.2 0 0 242.01 225.70
  L 234.47 225.52"
/>
<path stroke="#4391b1" vector-effect="non-scaling-stroke" d="
  M 234.47 225.52
  Q 233.87 223.88 233.90 222.19
  Q 233.91 221.86 233.85 219.83
  Q 233.78 217.46 236.21 217.64
  Q 237.73 217.75 237.80 217.75
  Q 239.79 217.75 241.86 217.75
  A 0.72 0.72 7.2 0 0 242.56 217.21
  Q 243.38 214.27 242.73 212.16
  A 0.74 0.71 81.4 0 0 242.06 211.64
  L 235.41 211.51
  A 1.27 1.16 -4.1 0 1 234.20 210.55
  Q 233.40 206.27 234.86 203.46"
/>
<path stroke="#4e98b3" vector-effect="non-scaling-stroke" d="
  M 234.86 203.46
  L 241.94 203.45
  A 0.71 0.64 6.9 0 0 242.61 202.98
  Q 242.86 202.07 243.00 200.00
  Q 243.22 196.66 240.25 197.25
  Q 239.02 197.49 234.20 197.12"
/>
<path stroke="#4d92b3" vector-effect="non-scaling-stroke" d="
  M 234.20 197.12
  Q 231.44 190.03 237.76 189.68
  Q 239.85 189.56 241.94 189.46
  A 0.80 0.71 6.9 0 0 242.63 188.98
  Q 243.27 187.20 242.80 184.23
  A 1.17 1.16 85.3 0 0 241.65 183.25
  L 234.32 183.25"
/>
<path stroke="#3879ad" vector-effect="non-scaling-stroke" d="
  M 234.32 183.25
  Q 233.64 179.79 233.99 176.36
  A 0.94 0.93 1.7 0 1 234.89 175.52
  L 241.75 175.27
  A 0.83 0.80 11.3 0 0 242.48 174.80
  Q 243.67 172.24 242.53 169.64
  A 0.87 0.73 75.9 0 0 241.82 169.13
  L 235.20 169.17
  A 1.01 0.87 -3.9 0 1 234.21 168.43
  Q 233.59 164.23 234.25 161.54"
/>
<path stroke="#4f8db4" vector-effect="non-scaling-stroke" d="
  M 234.25 161.54
  L 241.94 160.95
  A 0.83 0.71 6.1 0 0 242.63 160.48
  Q 243.41 158.35 242.62 155.49
  A 0.68 0.68 -8.0 0 0 241.97 155.00
  Q 238.25 155.00 235.25 155.00
  Q 234.25 155.00 234.00 154.46"
/>
<path stroke="#3879ad" vector-effect="non-scaling-stroke" d="
  M 234.00 154.46
  L 234.25 147.29"
/>
<path stroke="#4f8db4" vector-effect="non-scaling-stroke" d="
  M 234.25 147.29
  L 241.94 146.95
  A 0.80 0.74 7.7 0 0 242.63 146.47
  Q 243.55 143.98 242.68 141.47
  A 0.69 0.65 -10.7 0 0 242.00 141.03
  Q 237.96 141.25 234.00 140.46"
/>
<path stroke="#3879ad" vector-effect="non-scaling-stroke" d="
  M 234.00 140.46
  Q 233.54 139.06 234.19 137.69
  Q 235.90 134.04 231.94 135.44
  Q 229.88 136.16 228.50 134.27"
/>
<path stroke="#4f8db4" vector-effect="non-scaling-stroke" d="
  M 228.50 134.27
  Q 229.36 130.90 229.00 127.56
  A 0.84 0.77 -84.7 0 0 228.48 126.88
  Q 226.24 126.11 223.49 126.90
  A 0.69 0.68 82.2 0 0 223.00 127.56
  L 222.96 134.75"
/>
<path stroke="#3879ad" vector-effect="non-scaling-stroke" d="
  M 222.96 134.75
  Q 219.35 135.94 215.54 135.50"
/>
<path stroke="#4f8db4" vector-effect="non-scaling-stroke" d="
  M 215.54 135.50
  L 215.24 127.14
  A 0.58 0.51 87.8 0 0 214.72 126.59
  L 210.06 126.71
  A 0.64 0.51 -88.7 0 0 209.55 127.32
  L 209.21 135.50"
/>
<path stroke="#3879ad" vector-effect="non-scaling-stroke" d="
  M 209.21 135.50
  L 202.04 135.75"
/>
<path stroke="#4f8db4" vector-effect="non-scaling-stroke" d="
  M 202.04 135.75
  L 201.46 127.30
  A 0.67 0.49 87.0 0 0 200.96 126.68
  L 196.20 126.74
  A 0.93 0.77 -89.6 0 0 195.44 127.65
  L 195.25 135.71"
/>
<path stroke="#3879ad" vector-effect="non-scaling-stroke" d="
  M 195.25 135.71
  Q 191.78 135.07 188.29 135.75"
/>
<path stroke="#4d92b3" vector-effect="non-scaling-stroke" d="
  M 188.29 135.75
  L 188.07 128.11
  A 1.64 1.29 88.0 0 0 186.70 126.49
  L 182.31 126.73
  A 0.62 0.50 -89.1 0 0 181.83 127.31
  L 181.46 135.50"
/>
<path stroke="#3879ad" vector-effect="non-scaling-stroke" d="
  M 181.46 135.50
  L 174.54 135.50"
/>
<path stroke="#4e98b3" vector-effect="non-scaling-stroke" d="
  M 174.54 135.50
  L 174.26 127.54
  A 1.07 0.95 87.3 0 0 173.25 126.50
  L 168.81 126.76
  A 0.59 0.53 -89.8 0 0 168.31 127.31
  L 167.96 135.00"
/>
<path stroke="#4391b1" vector-effect="non-scaling-stroke" d="
  M 167.96 135.00
  Q 164.57 135.88 161.04 135.50"
/>
<path stroke="#4e98b3" vector-effect="non-scaling-stroke" d="
  M 161.04 135.50
  L 160.41 127.31
  A 0.71 0.59 -87.2 0 0 159.95 126.69
  Q 157.50 126.15 155.04 126.70
  A 0.64 0.64 -5.8 0 0 154.54 127.31
  L 154.54 134.87"
/>
<path stroke="#4391b1" vector-effect="non-scaling-stroke" d="
  M 154.54 134.87
  Q 152.55 135.56 150.49 135.32
  Q 150.03 135.27 149.52 135.42
  Q 147.08 136.17 146.79 133.50"
/>
<path stroke="#4e98b3" vector-effect="non-scaling-stroke" d="
  M 146.79 133.50
  L 146.75 127.17
  A 0.67 0.66 90.0 0 0 146.09 126.50
  L 141.65 126.50
  A 0.90 0.87 -0.3 0 0 140.75 127.38
  L 140.86 134.53"
/>
<path stroke="#88eefb" vector-effect="non-scaling-stroke" d="
  M 146.79 133.50
  Q 146.72 135.50 146.81 137.50
  Q 146.93 140.23 144.80 140.54
  Q 143.24 140.77 142.13 139.43
  Q 140.51 137.47 140.86 134.53"
/>
<path stroke="#72cff5" vector-effect="non-scaling-stroke" d="
  M 174.21 140.00
  L 174.50 142.21"
/>
<path stroke="#50b4e2" vector-effect="non-scaling-stroke" d="
  M 174.50 142.21
  Q 164.12 141.81 153.74 142.28
  Q 148.63 142.51 143.50 142.50
  A 0.49 0.49 89.4 0 0 143.01 143.00
  L 143.29 173.75"
/>
<path stroke="#51c9e0" vector-effect="non-scaling-stroke" d="
  M 143.29 173.75
  L 143.06 229.20
  A 0.53 0.52 1.8 0 0 143.56 229.72
  Q 146.73 229.90 157.06 229.69
  Q 168.43 229.46 214.19 229.61
  Q 220.47 229.63 225.98 229.30
  A 1.45 1.41 -0.7 0 0 227.34 227.95
  L 228.46 201.50"
/>
<path stroke="#88eefb" vector-effect="non-scaling-stroke" d="
  M 228.46 201.50
  Q 228.34 203.54 230.25 203.75
  Q 232.35 203.98 234.86 203.46"
/>
<path stroke="#88eefb" vector-effect="non-scaling-stroke" d="
  M 234.47 225.52
  Q 226.87 224.78 230.54 232.01
  A 0.85 0.84 60.5 0 0 231.74 232.35
  Q 232.72 231.73 234.00 232.54"
/>
<path stroke="#89e3fc" vector-effect="non-scaling-stroke" d="
  M 229.21 237.25
  Q 229.58 234.32 228.44 232.81
  Q 227.14 231.11 225.31 231.83
  Q 223.99 232.35 223.43 233.88
  Q 222.89 235.35 222.96 237.00"
/>
<path stroke="#88eefb" vector-effect="non-scaling-stroke" d="
  M 135.75 203.79
  Q 137.63 203.03 139.68 203.14
  A 0.67 0.64 10.1 0 0 140.35 202.70
  Q 142.21 196.89 135.50 196.96"
/>
<path stroke="#87e8fb" vector-effect="non-scaling-stroke" d="
  M 135.75 189.79
  Q 141.52 189.44 139.84 184.03
  A 0.90 0.74 83.1 0 0 139.20 183.42
  L 135.75 182.96"
/>
<path stroke="#5acae2" vector-effect="non-scaling-stroke" d="
  M 228.29 185.25
  L 228.54 198.50"
/>
<path stroke="#5cd0e1" vector-effect="non-scaling-stroke" d="
  M 228.54 198.50
  L 228.46 201.50"
/>
<path stroke="#2496c8" vector-effect="non-scaling-stroke" d="
  M 228.04 183.25
  Q 228.08 184.73 227.48 186.05
  A 0.55 0.51 22.6 0 1 226.80 186.30
  Q 225.33 185.75 223.81 186.31
  Q 222.30 186.87 220.94 186.24
  A 1.31 0.90 -34.5 0 0 220.07 186.24
  Q 219.28 186.53 219.29 185.00"
/>
<path stroke="#14629a" vector-effect="non-scaling-stroke" d="
  M 219.29 185.00
  L 219.18 151.81
  A 0.50 0.50 0.0 0 0 218.68 151.31
  Q 191.94 151.21 165.20 151.25
  Q 165.13 151.25 158.82 151.48
  Q 155.53 151.60 152.23 151.25
  A 0.66 0.66 -86.9 0 0 151.50 151.91
  L 151.46 181.00"
/>
<path stroke="#2496c8" vector-effect="non-scaling-stroke" d="
  M 151.46 181.00
  Q 151.09 181.96 151.29 183.24
  Q 151.37 183.77 150.93 183.45
  Q 148.17 181.42 144.80 180.56
  A 0.79 0.64 -89.4 0 1 144.31 179.94
  L 143.29 173.75"
/>
<path stroke="#7dcaf8" vector-effect="non-scaling-stroke" d="
  M 234.00 140.46
  Q 229.72 140.05 229.30 143.40
  Q 229.05 145.39 230.54 146.48
  Q 232.05 147.59 234.25 147.29"
/>
<path stroke="#7dcaf8" vector-effect="non-scaling-stroke" d="
  M 234.00 154.46
  Q 233.77 154.44 233.56 154.49
  Q 233.02 154.65 232.77 154.60
  Q 228.46 153.80 229.06 157.80
  Q 229.16 158.47 229.10 159.71
  Q 229.04 161.30 230.50 161.38
  Q 231.84 161.46 232.35 161.54
  Q 233.29 161.70 234.25 161.54"
/>
<path stroke="#7bcff7" vector-effect="non-scaling-stroke" d="
  M 234.32 183.25
  Q 232.88 183.53 231.21 182.93
  A 0.90 0.64 27.9 0 0 230.34 183.04
  L 228.29 185.25"
/>
<path stroke="#45b1dc" vector-effect="non-scaling-stroke" d="
  M 228.29 185.25
  Q 228.38 184.20 228.04 183.25"
/>
<path stroke="#459bde" vector-effect="non-scaling-stroke" d="
  M 228.04 183.25
  L 227.51 143.48
  A 1.27 1.25 0.0 0 0 226.26 142.25
  Q 217.00 142.11 207.75 142.50
  Q 195.95 142.99 174.50 142.21"
/>
<path stroke="#88eefb" vector-effect="non-scaling-stroke" d="
  M 161.04 135.50
  Q 160.16 136.72 160.68 138.27
  Q 161.14 139.67 160.39 140.44
  A 0.96 0.72 25.9 0 1 159.53 140.61
  Q 157.38 140.03 155.24 140.61
  A 0.45 0.40 -8.6 0 1 154.68 140.25
  L 154.54 134.87"
/>
<path stroke="#7dd6f7" vector-effect="non-scaling-stroke" d="
  M 174.54 135.50
  L 174.21 140.00"
/>
<path stroke="#88eefb" vector-effect="non-scaling-stroke" d="
  M 174.21 140.00
  Q 173.29 140.86 172.09 140.85
  Q 170.67 140.84 170.41 140.86
  Q 167.58 141.01 168.25 137.75
  Q 168.46 136.72 167.96 135.00"
/>
<path stroke="#157798" vector-effect="non-scaling-stroke" d="
  M 219.29 185.00
  L 219.25 219.80
  A 0.84 0.83 82.3 0 1 218.64 220.61
  Q 216.94 221.09 215.00 221.09
  Q 183.65 221.05 152.31 220.94
  A 0.52 0.51 89.4 0 1 151.80 220.43
  L 151.46 181.00"
/>
<path stroke="#92effd" vector-effect="non-scaling-stroke" d="
  M 234.20 197.12
  Q 230.31 195.81 228.54 198.50"
/>
<path stroke="#7dcaf8" vector-effect="non-scaling-stroke" d="
  M 228.50 134.27
  Q 229.93 140.95 224.05 140.49
  A 0.60 0.58 89.3 0 1 223.52 139.95
  L 222.96 134.75"
/>
<path stroke="#7dcaf8" vector-effect="non-scaling-stroke" d="
  M 215.54 135.50
  L 215.33 140.00
  A 0.59 0.57 1.0 0 1 214.75 140.54
  L 210.18 140.59
  A 0.60 0.51 86.3 0 1 209.66 140.06
  L 209.21 135.50"
/>
<path stroke="#7dcaf8" vector-effect="non-scaling-stroke" d="
  M 202.04 135.75
  L 201.75 139.51
  A 1.26 1.13 -78.7 0 1 200.23 140.65
  Q 199.00 140.22 197.35 140.80
  A 1.40 1.39 78.5 0 1 195.50 139.57
  L 195.25 135.71"
/>
<path stroke="#7bcff7" vector-effect="non-scaling-stroke" d="
  M 188.29 135.75
  L 188.25 139.59
  A 1.33 1.16 -1.9 0 1 187.01 140.75
  L 182.04 141.08
  A 0.45 0.40 -2.6 0 1 181.56 140.69
  L 181.46 135.50"
/>
<path stroke="#87b5cf" vector-effect="non-scaling-stroke" d="
  M 78.6205 144.2492
  A 4.14 3.86 91.1 0 0 82.5593 140.1841
  A 4.14 3.86 91.1 0 0 78.7795 135.9708
  A 4.14 3.86 91.1 0 0 74.8407 140.0359
  A 4.14 3.86 91.1 0 0 78.6205 144.2492"
/>
<path stroke="#2b6389" vector-effect="non-scaling-stroke" d="
  M 209.69 169.41
  A 6.32 6.32 0.0 0 0 203.37 163.09
  A 6.32 6.32 0.0 0 0 197.05 169.41
  A 6.32 6.32 0.0 0 0 203.37 175.73
  A 6.32 6.32 0.0 0 0 209.69 169.41"
/>
<path stroke="#56a0b3" vector-effect="non-scaling-stroke" d="
  M 186.1020 168.7378
  A 3.09 3.09 0.0 0 0 182.9798 165.6803
  L 163.9008 165.8801
  A 3.09 3.09 0.0 0 0 160.8434 169.0023
  L 160.8580 170.4022
  A 3.09 3.09 0.0 0 0 163.9802 173.4597
  L 183.0592 173.2599
  A 3.09 3.09 0.0 0 0 186.1166 170.1377
  L 186.1020 168.7378"
/>
<path stroke="#56a0b3" vector-effect="non-scaling-stroke" d="
  M 166.32 188.69
  L 165.76 179.42
  A 2.06 1.83 3.1 0 0 164.01 177.69
  Q 158.52 176.87 158.35 180.99
  Q 157.87 193.35 158.60 206.41
  Q 158.72 208.49 160.72 209.06
  Q 163.33 209.81 165.33 208.03
  A 1.28 1.27 71.4 0 0 165.75 207.18
  L 166.54 197.82
  A 0.54 0.54 -88.2 0 1 167.07 197.32
  L 179.48 197.07
  A 0.78 0.76 0.3 0 1 180.28 197.86
  Q 180.06 202.80 180.97 206.88
  Q 181.38 208.71 183.24 208.96
  Q 186.08 209.36 187.28 207.71
  Q 187.98 206.77 188.08 204.14
  Q 188.55 192.97 187.94 180.71
  Q 187.83 178.62 185.95 177.70
  Q 183.54 176.54 181.83 178.25
  Q 180.78 179.31 180.64 181.61
  Q 180.43 185.15 180.22 188.68
  A 0.55 0.53 -88.3 0 1 179.69 189.20
  L 166.81 189.20
  A 0.54 0.49 88.1 0 1 166.32 188.69"
/>
<path stroke="#56a0b3" vector-effect="non-scaling-stroke" d="
  M 207.4806 181.4671
  A 3.91 3.91 0.0 0 0 203.5774 177.5503
  L 203.2974 177.5498
  A 3.91 3.91 0.0 0 0 199.3806 181.4529
  L 199.3394 205.0729
  A 3.91 3.91 0.0 0 0 203.2426 208.9897
  L 203.5226 208.9902
  A 3.91 3.91 0.0 0 0 207.4394 205.0871
  L 207.4806 181.4671"
/>
<path stroke="#8ebed3" vector-effect="non-scaling-stroke" d="
  M 100.67 161.48
  A 3.81 3.81 0.0 0 0 96.86 157.67
  A 3.81 3.81 0.0 0 0 93.05 161.48
  A 3.81 3.81 0.0 0 0 96.86 165.29
  A 3.81 3.81 0.0 0 0 100.67 161.48"
/>
<path stroke="#8ebed3" vector-effect="non-scaling-stroke" d="
  M 206.68 169.63
  A 3.08 3.08 0.0 0 0 203.60 166.55
  A 3.08 3.08 0.0 0 0 200.52 169.63
  A 3.08 3.08 0.0 0 0 203.60 172.71
  A 3.08 3.08 0.0 0 0 206.68 169.63"
/>
<path stroke="#93bbd0" vector-effect="non-scaling-stroke" d="
  M 75.82 193.89
  A 3.82 3.82 0.0 0 0 72.00 190.07
  A 3.82 3.82 0.0 0 0 68.18 193.89
  A 3.82 3.82 0.0 0 0 72.00 197.71
  A 3.82 3.82 0.0 0 0 75.82 193.89"
/>
<path stroke="#8ebed3" vector-effect="non-scaling-stroke" d="
  M 290.9619 214.2032
  A 4.12 3.75 109.1 0 0 295.8536 211.5371
  A 4.12 3.75 109.1 0 0 293.6581 206.4168
  A 4.12 3.75 109.1 0 0 288.7664 209.0829
  A 4.12 3.75 109.1 0 0 290.9619 214.2032"
/>
<path stroke="#8fbace" vector-effect="non-scaling-stroke" d="
  M 88.06 233.87
  A 3.87 3.87 0.0 0 0 84.19 230.00
  A 3.87 3.87 0.0 0 0 80.32 233.87
  A 3.87 3.87 0.0 0 0 84.19 237.74
  A 3.87 3.87 0.0 0 0 88.06 233.87"
/>
<path stroke="#8fbace" vector-effect="non-scaling-stroke" d="
  M 279.77 268.58
  A 3.58 3.58 0.0 0 0 276.19 265.00
  A 3.58 3.58 0.0 0 0 272.61 268.58
  A 3.58 3.58 0.0 0 0 276.19 272.16
  A 3.58 3.58 0.0 0 0 279.77 268.58"
/>
<path stroke="#86b0c4" vector-effect="non-scaling-stroke" d="
  M 162.3033 295.1664
  A 4.13 3.71 58.9 0 0 163.3468 289.7137
  A 4.13 3.71 58.9 0 0 158.0367 288.0936
  A 4.13 3.71 58.9 0 0 156.9932 293.5463
  A 4.13 3.71 58.9 0 0 162.3033 295.1664"
/>
<path stroke="#a3cada" vector-effect="non-scaling-stroke" d="
  M 214.09 298.62
  A 3.44 3.44 0.0 0 0 210.65 295.18
  A 3.44 3.44 0.0 0 0 207.21 298.62
  A 3.44 3.44 0.0 0 0 210.65 302.06
  A 3.44 3.44 0.0 0 0 214.09 298.62"
/>
<path stroke="#93bac9" vector-effect="non-scaling-stroke" d="
  M 250.4592 289.8244
  A 3.88 3.10 76.6 0 0 252.5756 285.3316
  A 3.88 3.10 76.6 0 0 248.6608 282.2756
  A 3.88 3.10 76.6 0 0 246.5444 286.7684
  A 3.88 3.10 76.6 0 0 250.4592 289.8244"
/>
<path stroke="#93bbd0" vector-effect="non-scaling-stroke" d="
  M 124.3120 297.2944
  A 3.87 3.58 134.2 0 0 129.5765 297.0159
  A 3.87 3.58 134.2 0 0 129.7080 291.7456
  A 3.87 3.58 134.2 0 0 124.4435 292.0241
  A 3.87 3.58 134.2 0 0 124.3120 297.2944"
/>
<path stroke="#95bed3" vector-effect="non-scaling-stroke" d="
  M 188.23 281.43
  A 3.71 3.71 0.0 0 0 184.52 277.72
  A 3.71 3.71 0.0 0 0 180.81 281.43
  A 3.71 3.71 0.0 0 0 184.52 285.14
  A 3.71 3.71 0.0 0 0 188.23 281.43"
/>
<path stroke="#a3cada" vector-effect="non-scaling-stroke" d="
  M 81.2013 270.2731
  A 3.70 3.34 81.9 0 0 83.9867 266.1394
  A 3.70 3.34 81.9 0 0 80.1587 262.9469
  A 3.70 3.34 81.9 0 0 77.3733 267.0806
  A 3.70 3.34 81.9 0 0 81.2013 270.2731"
/>
</g>
<path fill="#5f83a7" d="
  M 212.25 78.54
  Q 209.76 77.90 210.25 81.25
  Q 210.85 85.41 210.71 90.85
  Q 210.49 99.08 210.49 99.14
  Q 210.43 108.92 210.15 118.72
  L 186.82 118.95
  A 1.78 1.01 48.4 0 1 185.91 118.64
  Q 184.77 117.90 183.67 118.48
  Q 183.14 118.76 182.75 118.78
  Q 173.86 119.22 164.97 118.92
  Q 161.20 118.79 154.91 119.00
  Q 149.86 119.16 144.81 118.75
  Q 140.63 118.41 136.55 118.70
  Q 130.20 119.16 123.84 118.77
  Q 123.71 118.77 121.33 118.37
  Q 118.22 117.86 117.85 121.17
  A 0.72 0.46 -89.3 0 1 117.46 121.76
  Q 117.27 121.80 117.04 121.75
  L 117.05 118.18
  A 0.76 0.69 0.0 0 1 117.81 117.49
  L 138.06 117.33
  A 0.52 0.50 90.0 0 0 138.56 116.81
  L 138.44 91.30
  A 1.30 1.14 -69.8 0 0 138.11 90.44
  L 131.06 82.94
  Q 129.87 81.67 128.10 82.20
  Q 126.81 82.59 125.45 82.05
  Q 124.34 81.60 123.43 80.51
  Q 120.58 77.09 122.93 72.87
  A 1.35 1.28 -83.7 0 1 123.65 72.26
  Q 126.74 71.17 130.67 72.47
  A 1.94 1.94 9.8 0 1 132.00 74.35
  Q 131.98 75.77 132.09 77.13
  Q 132.21 78.53 133.04 79.64
  Q 134.55 81.67 136.54 83.22
  Q 137.74 84.15 138.99 85.73
  Q 139.98 86.99 141.53 88.28
  A 2.04 2.03 20.2 0 1 142.25 89.83
  L 142.25 116.24
  A 1.24 1.21 89.8 0 0 143.47 117.48
  L 158.07 117.34
  A 0.55 0.52 -89.4 0 0 158.58 116.81
  Q 159.04 101.52 158.27 86.24
  A 1.17 1.06 20.5 0 0 157.85 85.43
  Q 153.93 82.18 155.06 77.56
  Q 155.70 74.94 158.25 74.52
  Q 160.17 74.21 162.26 74.59
  Q 165.07 75.09 165.33 77.96
  Q 165.55 80.26 165.14 82.03
  Q 164.69 83.96 162.87 85.17
  A 1.12 0.99 -16.2 0 0 162.39 85.93
  Q 160.86 101.40 161.54 116.94
  A 0.52 0.52 88.9 0 0 162.06 117.44
  L 182.27 117.56
  A 0.72 0.72 0.4 0 0 183.00 116.84
  L 182.94 97.07
  A 1.77 1.72 29.6 0 0 182.67 96.14
  Q 181.72 94.64 180.77 93.16
  Q 179.55 91.27 179.43 89.98
  Q 179.24 87.77 180.76 86.18
  Q 182.00 84.87 184.11 84.63
  Q 188.67 84.10 189.71 88.21
  Q 190.24 90.29 189.39 92.20
  Q 188.62 93.92 187.14 95.18
  A 1.15 1.01 -22.9 0 0 186.75 95.99
  L 186.75 116.62
  A 0.88 0.87 -90.0 0 0 187.62 117.50
  L 207.95 117.44
  A 0.51 0.50 89.4 0 0 208.44 116.93
  L 208.25 78.49
  A 1.23 1.16 22.8 0 0 207.88 77.66
  Q 204.82 74.70 205.50 70.75
  Q 205.87 68.63 207.74 67.59
  Q 209.24 66.75 211.27 67.06
  Q 216.09 67.81 216.07 72.92
  Q 216.06 74.79 214.94 76.16
  Q 213.87 77.47 212.25 78.54
  Z
  M 214.55 72.46
  A 3.80 3.80 0.0 0 0 210.75 68.66
  A 3.80 3.80 0.0 0 0 206.95 72.46
  A 3.80 3.80 0.0 0 0 210.75 76.26
  A 3.80 3.80 0.0 0 0 214.55 72.46
  Z
  M 131.16 76.72
  A 4.01 4.01 0.0 0 0 127.15 72.71
  A 4.01 4.01 0.0 0 0 123.14 76.72
  A 4.01 4.01 0.0 0 0 127.15 80.73
  A 4.01 4.01 0.0 0 0 131.16 76.72
  Z
  M 163.78 79.39
  A 3.59 3.59 0.0 0 0 160.19 75.80
  A 3.59 3.59 0.0 0 0 156.60 79.39
  A 3.59 3.59 0.0 0 0 160.19 82.98
  A 3.59 3.59 0.0 0 0 163.78 79.39
  Z
  M 186.8086 92.7322
  A 3.70 3.45 54.5 0 0 187.4687 87.7166
  A 3.70 3.45 54.5 0 0 182.5114 86.7078
  A 3.70 3.45 54.5 0 0 181.8513 91.7234
  A 3.70 3.45 54.5 0 0 186.8086 92.7322
  Z"
/>
<circle fill="#cbf8fe" cx="210.75" cy="72.46" r="3.80"/>
<circle fill="#cbf8fe" cx="127.15" cy="76.72" r="4.01"/>
<circle fill="#cbf8fe" cx="160.19" cy="79.39" r="3.59"/>
<path fill="#5f83a7" d="
  M 212.25 78.54
  L 212.01 115.98
  A 1.58 1.53 0.6 0 0 213.57 117.52
  L 234.06 117.67
  A 0.93 0.91 0.3 0 0 235.00 116.76
  Q 235.00 109.62 235.00 102.48
  Q 235.00 102.39 234.90 100.52
  Q 234.69 96.70 237.60 94.10
  Q 240.63 91.38 242.64 89.27
  Q 243.79 88.07 243.92 86.42
  Q 244.26 82.30 246.75 80.49
  Q 248.68 79.08 250.98 79.73
  Q 252.64 80.21 253.70 81.62
  Q 254.64 82.86 254.78 84.58
  Q 255.21 89.90 247.76 90.65
  A 4.63 3.77 -65.2 0 0 245.26 91.87
  L 239.13 97.67
  A 1.23 1.03 -25.2 0 0 238.75 98.49
  L 238.75 115.98
  A 1.57 1.56 -1.7 0 0 240.41 117.54
  Q 246.75 117.13 252.68 117.99
  Q 252.21 120.32 251.07 119.13
  A 1.36 0.94 61.2 0 0 250.25 118.72
  L 238.56 118.67
  A 1.60 1.47 61.5 0 1 237.69 118.37
  Q 236.85 117.75 236.18 118.22
  A 1.82 0.66 -43.4 0 1 235.30 118.60
  Q 222.54 119.39 210.15 118.72
  Q 210.43 108.92 210.49 99.14
  Q 210.49 99.08 210.71 90.85
  Q 210.85 85.41 210.25 81.25
  Q 209.76 77.90 212.25 78.54
  Z
  M 250.0824 89.0487
  A 3.85 3.32 81.6 0 0 252.8044 84.7550
  A 3.85 3.32 81.6 0 0 248.9576 81.4313
  A 3.85 3.32 81.6 0 0 246.2356 85.7250
  A 3.85 3.32 81.6 0 0 250.0824 89.0487
  Z"
/>
<ellipse fill="#cbf8fe" cx="0.00" cy="0.00" transform="translate(249.52,85.24) rotate(81.6)" rx="3.85" ry="3.32"/>
<ellipse fill="#cbf8fe" cx="0.00" cy="0.00" transform="translate(184.66,89.72) rotate(54.5)" rx="3.70" ry="3.45"/>
<path fill="#527b9e" d="
  M 253.04 190.50
  Q 251.15 185.82 251.00 179.75
  Q 250.75 169.90 251.07 163.49
  Q 251.47 155.59 251.25 152.25
  Q 251.02 148.75 251.25 136.25
  Q 251.35 131.12 253.04 128.00
  L 272.76 128.00
  A 2.13 2.06 21.3 0 0 274.27 127.37
  L 280.60 120.83
  Q 281.93 119.46 281.85 117.50
  Q 281.60 111.62 285.89 110.99
  Q 288.39 110.63 290.22 112.30
  Q 292.18 114.09 292.13 116.96
  Q 292.10 118.85 290.88 120.08
  Q 289.46 121.51 287.50 121.50
  Q 284.66 121.49 283.28 123.20
  Q 282.60 124.05 282.53 124.12
  Q 276.81 130.16 275.44 131.19
  Q 274.04 132.24 271.28 132.11
  Q 268.83 132.00 268.72 132.00
  Q 261.32 132.00 253.49 132.00
  A 0.54 0.54 -88.3 0 0 252.95 132.51
  Q 252.34 143.50 252.90 153.62
  A 1.19 1.18 88.2 0 0 254.09 154.75
  L 292.39 154.21
  Q 294.01 154.19 294.94 152.81
  Q 295.85 151.49 297.52 151.00
  Q 298.90 150.60 300.48 151.10
  Q 304.21 152.27 304.45 155.88
  Q 304.64 158.83 302.32 160.80
  Q 298.56 163.99 294.28 159.29
  A 3.17 3.02 68.3 0 0 292.01 158.25
  L 254.39 158.07
  A 1.47 1.43 -87.7 0 0 252.95 159.43
  Q 252.15 171.37 252.81 185.29
  A 1.75 1.72 88.6 0 0 254.53 186.96
  L 266.44 186.97
  Q 268.21 186.98 269.52 185.63
  Q 272.43 182.64 274.98 183.21
  Q 276.79 183.62 278.03 184.90
  Q 279.25 186.15 279.25 188.50
  Q 279.26 192.49 276.51 194.01
  Q 274.64 195.05 272.75 194.50
  Q 270.81 193.94 269.56 191.84
  A 2.77 2.75 -15.3 0 0 267.19 190.50
  L 253.04 190.50
  Z
  M 290.75 116.32
  A 3.84 3.84 0.0 0 0 286.91 112.48
  A 3.84 3.84 0.0 0 0 283.07 116.32
  A 3.84 3.84 0.0 0 0 286.91 120.16
  A 3.84 3.84 0.0 0 0 290.75 116.32
  Z
  M 302.99 156.50
  A 3.86 3.86 0.0 0 0 299.13 152.64
  A 3.86 3.86 0.0 0 0 295.27 156.50
  A 3.86 3.86 0.0 0 0 299.13 160.36
  A 3.86 3.86 0.0 0 0 302.99 156.50
  Z
  M 276.4287 192.0902
  A 3.81 3.39 54.2 0 0 276.9495 187.0170
  A 3.81 3.39 54.2 0 0 271.9713 185.9098
  A 3.81 3.39 54.2 0 0 271.4505 190.9830
  A 3.81 3.39 54.2 0 0 276.4287 192.0902
  Z"
/>
<circle fill="#cbf8fe" cx="286.91" cy="116.32" r="3.84"/>
<path fill="#093b69" d="
  M 252.68 117.99
  L 253.04 128.00
  Q 251.35 131.12 251.25 136.25
  Q 251.02 148.75 251.25 152.25
  Q 251.47 155.59 251.07 163.49
  Q 250.75 169.90 251.00 179.75
  Q 251.15 185.82 253.04 190.50
  Q 253.00 190.71 252.79 190.75
  Q 251.06 189.42 251.25 191.75
  Q 251.52 194.96 251.44 196.26
  Q 250.96 204.54 251.33 212.82
  Q 251.33 212.92 251.26 217.05
  Q 251.21 219.98 252.25 222.79
  L 251.69 225.70
  Q 251.61 226.09 252.01 225.95
  Q 252.53 225.76 253.00 226.04
  Q 252.31 237.14 252.70 248.23
  Q 252.11 250.58 251.92 252.99
  Q 251.85 253.97 252.75 254.04
  Q 253.19 257.30 250.19 257.06
  Q 246.49 256.77 239.04 257.75
  Q 236.87 256.32 234.74 257.84
  Q 223.47 256.43 212.25 257.79
  Q 211.77 257.30 210.47 257.55
  Q 209.34 256.48 208.21 257.75
  Q 197.72 256.69 186.93 257.63
  Q 184.47 256.78 182.18 257.87
  Q 177.99 257.28 174.75 257.25
  Q 171.73 257.23 163.04 257.50
  Q 160.34 256.66 158.11 257.70
  Q 150.13 256.61 142.54 257.75
  Q 140.55 256.67 138.50 257.79
  Q 135.89 256.81 133.18 256.96
  Q 129.06 257.18 128.80 257.18
  Q 126.00 257.23 123.29 258.00
  Q 122.59 257.27 121.71 257.54
  Q 121.17 257.71 120.76 257.67
  L 116.79 257.25
  L 116.81 222.21
  Q 118.10 220.45 116.96 218.25
  L 116.75 196.29
  Q 117.71 195.51 117.60 194.32
  Q 117.54 193.58 117.55 193.16
  Q 117.60 191.79 116.62 192.21
  Q 117.43 177.82 116.79 163.50
  Q 118.38 161.47 117.00 159.21
  L 116.65 127.94
  Q 117.36 127.08 117.28 125.59
  Q 117.26 125.30 117.35 124.93
  Q 117.54 124.07 116.55 124.53
  L 117.04 121.75
  Q 117.27 121.80 117.46 121.76
  A 0.72 0.46 -89.3 0 0 117.85 121.17
  Q 118.22 117.86 121.33 118.37
  Q 123.71 118.77 123.84 118.77
  Q 130.20 119.16 136.55 118.70
  Q 140.63 118.41 144.81 118.75
  Q 149.86 119.16 154.91 119.00
  Q 161.20 118.79 164.97 118.92
  Q 173.86 119.22 182.75 118.78
  Q 183.14 118.76 183.67 118.48
  Q 184.77 117.90 185.91 118.64
  A 1.78 1.01 48.4 0 0 186.82 118.95
  L 210.15 118.72
  Q 222.54 119.39 235.30 118.60
  A 1.82 0.66 -43.4 0 0 236.18 118.22
  Q 236.85 117.75 237.69 118.37
  A 1.60 1.47 61.5 0 0 238.56 118.67
  L 250.25 118.72
  A 1.36 0.94 61.2 0 1 251.07 119.13
  Q 252.21 120.32 252.68 117.99
  Z
  M 140.86 134.53
  Q 139.04 135.93 137.07 135.12
  A 0.95 0.90 10.3 0 0 135.75 135.98
  L 135.96 139.49
  A 1.21 1.10 84.5 0 1 135.02 140.75
  Q 132.51 141.09 130.01 140.92
  Q 125.95 140.65 127.61 146.24
  A 1.67 1.67 75.7 0 0 129.56 147.40
  Q 132.56 146.75 134.95 147.21
  A 0.75 0.73 89.3 0 1 135.54 147.80
  Q 136.16 151.08 135.43 154.32
  A 0.70 0.61 -83.0 0 1 134.82 154.87
  L 128.31 154.87
  A 0.76 0.59 7.3 0 0 127.63 155.27
  Q 126.95 157.29 127.44 160.49
  A 1.00 0.99 -9.6 0 0 128.62 161.32
  Q 132.04 160.67 135.08 161.32
  A 0.71 0.60 8.1 0 1 135.63 161.94
  L 135.52 168.45
  A 0.62 0.53 -1.2 0 1 134.93 168.97
  L 127.82 169.30
  A 0.61 0.49 -1.6 0 0 127.23 169.80
  L 127.39 174.86
  A 0.59 0.50 -1.0 0 0 127.99 175.35
  L 135.10 175.25
  A 0.67 0.64 89.6 0 1 135.75 175.92
  L 135.75 182.96
  Q 131.19 183.71 129.50 183.25
  Q 126.97 182.56 127.17 184.71
  Q 127.29 185.99 127.00 187.24
  Q 126.34 190.16 129.25 189.50
  Q 131.17 189.07 135.75 189.79
  L 135.50 196.96
  L 127.88 197.21
  A 0.65 0.59 -1.0 0 0 127.25 197.80
  L 127.25 202.88
  A 0.76 0.69 1.3 0 0 127.98 203.57
  L 135.75 203.79
  L 135.79 210.57
  A 0.55 0.50 88.4 0 1 135.32 211.12
  L 127.93 211.67
  A 0.62 0.54 -0.3 0 0 127.36 212.17
  L 127.00 216.43
  A 1.43 1.25 2.7 0 0 128.41 217.79
  L 135.07 217.89
  A 0.59 0.55 0.0 0 1 135.65 218.43
  L 135.76 224.69
  A 0.61 0.55 -3.3 0 1 135.20 225.25
  L 128.50 225.74
  A 1.44 1.35 1.1 0 0 127.19 226.92
  Q 126.92 228.99 127.77 230.81
  A 1.00 0.85 77.7 0 0 128.49 231.36
  L 134.28 232.00
  A 1.74 1.56 9.5 0 1 135.82 233.93
  Q 135.10 237.06 137.75 236.51
  Q 141.46 235.74 140.75 239.50
  Q 140.27 242.03 141.17 245.20
  A 0.86 0.80 87.2 0 0 141.79 245.80
  Q 143.92 246.25 146.02 245.65
  A 0.71 0.71 83.6 0 0 146.53 245.01
  L 147.03 237.31
  A 0.65 0.52 -88.1 0 1 147.55 236.71
  L 153.47 236.64
  A 1.32 1.07 88.5 0 1 154.57 237.92
  L 154.74 245.19
  A 0.57 0.53 -0.5 0 0 155.31 245.71
  L 159.87 245.74
  A 0.70 0.63 -89.1 0 0 160.50 245.06
  L 160.77 237.09
  A 0.65 0.61 0.9 0 1 161.42 236.50
  L 166.96 236.50
  A 0.91 0.85 -1.3 0 1 167.87 237.31
  L 168.24 245.45
  A 0.56 0.50 88.2 0 0 168.74 245.98
  L 172.89 245.95
  A 1.63 1.37 -88.5 0 0 174.27 244.39
  L 174.60 237.17
  A 0.58 0.54 2.6 0 1 175.20 236.66
  L 181.05 236.87
  A 0.78 0.73 -89.2 0 1 181.76 237.65
  L 181.80 245.18
  A 0.57 0.53 -89.0 0 0 182.31 245.75
  L 187.07 245.85
  A 0.57 0.56 -87.9 0 0 187.64 245.31
  L 187.97 237.58
  A 1.13 1.03 -88.5 0 1 189.00 236.50
  L 194.92 236.50
  A 0.64 0.59 89.0 0 1 195.51 237.12
  L 195.77 245.47
  A 0.55 0.53 87.0 0 0 196.34 246.00
  L 201.07 245.65
  A 0.59 0.57 87.9 0 0 201.60 245.06
  L 201.73 237.66
  A 1.30 1.21 0.2 0 1 203.02 236.47
  L 208.44 236.45
  A 0.80 0.74 -1.1 0 1 209.25 237.17
  L 209.52 245.44
  A 0.53 0.49 -2.2 0 0 210.07 245.91
  L 214.52 245.72
  A 0.83 0.78 -89.5 0 0 215.27 244.94
  L 215.67 237.25
  A 0.69 0.64 -4.2 0 1 216.23 236.65
  Q 219.64 236.01 222.96 237.00
  L 223.27 245.20
  A 0.68 0.64 6.4 0 0 223.79 245.82
  Q 225.72 246.26 228.30 245.52
  A 0.94 0.87 84.2 0 0 228.94 244.67
  L 229.21 237.25
  Q 230.33 235.92 232.00 236.50
  Q 233.55 237.04 234.08 235.98
  Q 234.17 235.81 234.13 235.02
  L 234.00 232.54
  Q 237.76 231.46 241.70 231.66
  A 0.78 0.73 13.3 0 0 242.42 231.25
  Q 243.63 228.80 242.69 226.22
  A 0.80 0.72 79.2 0 0 242.01 225.70
  L 234.47 225.52
  Q 233.87 223.88 233.90 222.19
  Q 233.91 221.86 233.85 219.83
  Q 233.78 217.46 236.21 217.64
  Q 237.73 217.75 237.80 217.75
  Q 239.79 217.75 241.86 217.75
  A 0.72 0.72 7.2 0 0 242.56 217.21
  Q 243.38 214.27 242.73 212.16
  A 0.74 0.71 81.4 0 0 242.06 211.64
  L 235.41 211.51
  A 1.27 1.16 -4.1 0 1 234.20 210.55
  Q 233.40 206.27 234.86 203.46
  L 241.94 203.45
  A 0.71 0.64 6.9 0 0 242.61 202.98
  Q 242.86 202.07 243.00 200.00
  Q 243.22 196.66 240.25 197.25
  Q 239.02 197.49 234.20 197.12
  Q 231.44 190.03 237.76 189.68
  Q 239.85 189.56 241.94 189.46
  A 0.80 0.71 6.9 0 0 242.63 188.98
  Q 243.27 187.20 242.80 184.23
  A 1.17 1.16 85.3 0 0 241.65 183.25
  L 234.32 183.25
  Q 233.64 179.79 233.99 176.36
  A 0.94 0.93 1.7 0 1 234.89 175.52
  L 241.75 175.27
  A 0.83 0.80 11.3 0 0 242.48 174.80
  Q 243.67 172.24 242.53 169.64
  A 0.87 0.73 75.9 0 0 241.82 169.13
  L 235.20 169.17
  A 1.01 0.87 -3.9 0 1 234.21 168.43
  Q 233.59 164.23 234.25 161.54
  L 241.94 160.95
  A 0.83 0.71 6.1 0 0 242.63 160.48
  Q 243.41 158.35 242.62 155.49
  A 0.68 0.68 -8.0 0 0 241.97 155.00
  Q 238.25 155.00 235.25 155.00
  Q 234.25 155.00 234.00 154.46
  L 234.25 147.29
  L 241.94 146.95
  A 0.80 0.74 7.7 0 0 242.63 146.47
  Q 243.55 143.98 242.68 141.47
  A 0.69 0.65 -10.7 0 0 242.00 141.03
  Q 237.96 141.25 234.00 140.46
  Q 233.54 139.06 234.19 137.69
  Q 235.90 134.04 231.94 135.44
  Q 229.88 136.16 228.50 134.27
  Q 229.36 130.90 229.00 127.56
  A 0.84 0.77 -84.7 0 0 228.48 126.88
  Q 226.24 126.11 223.49 126.90
  A 0.69 0.68 82.2 0 0 223.00 127.56
  L 222.96 134.75
  Q 219.35 135.94 215.54 135.50
  L 215.24 127.14
  A 0.58 0.51 87.8 0 0 214.72 126.59
  L 210.06 126.71
  A 0.64 0.51 -88.7 0 0 209.55 127.32
  L 209.21 135.50
  L 202.04 135.75
  L 201.46 127.30
  A 0.67 0.49 87.0 0 0 200.96 126.68
  L 196.20 126.74
  A 0.93 0.77 -89.6 0 0 195.44 127.65
  L 195.25 135.71
  Q 191.78 135.07 188.29 135.75
  L 188.07 128.11
  A 1.64 1.29 88.0 0 0 186.70 126.49
  L 182.31 126.73
  A 0.62 0.50 -89.1 0 0 181.83 127.31
  L 181.46 135.50
  L 174.54 135.50
  L 174.26 127.54
  A 1.07 0.95 87.3 0 0 173.25 126.50
  L 168.81 126.76
  A 0.59 0.53 -89.8 0 0 168.31 127.31
  L 167.96 135.00
  Q 164.57 135.88 161.04 135.50
  L 160.41 127.31
  A 0.71 0.59 -87.2 0 0 159.95 126.69
  Q 157.50 126.15 155.04 126.70
  A 0.64 0.64 -5.8 0 0 154.54 127.31
  L 154.54 134.87
  Q 152.55 135.56 150.49 135.32
  Q 150.03 135.27 149.52 135.42
  Q 147.08 136.17 146.79 133.50
  L 146.75 127.17
  A 0.67 0.66 90.0 0 0 146.09 126.50
  L 141.65 126.50
  A 0.90 0.87 -0.3 0 0 140.75 127.38
  L 140.86 134.53
  Z"
/>
<path fill="#42719f" d="
  M 116.55 124.53
  Q 117.54 124.07 117.35 124.93
  Q 117.26 125.30 117.28 125.59
  Q 117.36 127.08 116.65 127.94
  L 93.27 128.00
  A 2.18 2.15 22.2 0 0 91.74 128.63
  Q 88.31 132.06 85.31 135.06
  Q 83.42 136.96 83.98 140.25
  Q 84.63 144.04 81.03 144.92
  Q 72.94 146.92 73.92 138.52
  Q 74.40 134.41 78.75 134.25
  Q 81.41 134.15 83.17 132.11
  Q 84.22 130.90 84.29 130.82
  Q 86.78 128.28 89.38 125.85
  A 1.41 1.19 -63.8 0 1 90.25 125.47
  L 116.55 124.53
  Z
  M 78.6205 144.2492
  A 4.14 3.86 91.1 0 0 82.5593 140.1841
  A 4.14 3.86 91.1 0 0 78.7795 135.9708
  A 4.14 3.86 91.1 0 0 74.8407 140.0359
  A 4.14 3.86 91.1 0 0 78.6205 144.2492
  Z"
/>
<path fill="#93f5fc" d="
  M 146.79 133.50
  Q 146.72 135.50 146.81 137.50
  Q 146.93 140.23 144.80 140.54
  Q 143.24 140.77 142.13 139.43
  Q 140.51 137.47 140.86 134.53
  L 140.75 127.38
  A 0.90 0.87 -0.3 0 1 141.65 126.50
  L 146.09 126.50
  A 0.67 0.66 90.0 0 1 146.75 127.17
  L 146.79 133.50
  Z"
/>
<path fill="#93f5fc" d="
  M 161.04 135.50
  Q 160.16 136.72 160.68 138.27
  Q 161.14 139.67 160.39 140.44
  A 0.96 0.72 25.9 0 1 159.53 140.61
  Q 157.38 140.03 155.24 140.61
  A 0.45 0.40 -8.6 0 1 154.68 140.25
  L 154.54 134.87
  L 154.54 127.31
  A 0.64 0.64 -5.8 0 1 155.04 126.70
  Q 157.50 126.15 159.95 126.69
  A 0.71 0.59 -87.2 0 1 160.41 127.31
  L 161.04 135.50
  Z"
/>
<path fill="#93f5fc" d="
  M 174.54 135.50
  L 174.21 140.00
  Q 173.29 140.86 172.09 140.85
  Q 170.67 140.84 170.41 140.86
  Q 167.58 141.01 168.25 137.75
  Q 168.46 136.72 167.96 135.00
  L 168.31 127.31
  A 0.59 0.53 -89.8 0 1 168.81 126.76
  L 173.25 126.50
  A 1.07 0.95 87.3 0 1 174.26 127.54
  L 174.54 135.50
  Z"
/>
<path fill="#90e8fd" d="
  M 188.29 135.75
  L 188.25 139.59
  A 1.33 1.16 -1.9 0 1 187.01 140.75
  L 182.04 141.08
  A 0.45 0.40 -2.6 0 1 181.56 140.69
  L 181.46 135.50
  L 181.83 127.31
  A 0.62 0.50 -89.1 0 1 182.31 126.73
  L 186.70 126.49
  A 1.64 1.29 88.0 0 1 188.07 128.11
  L 188.29 135.75
  Z"
/>
<path fill="#94defe" d="
  M 202.04 135.75
  L 201.75 139.51
  A 1.26 1.13 -78.7 0 1 200.23 140.65
  Q 199.00 140.22 197.35 140.80
  A 1.40 1.39 78.5 0 1 195.50 139.57
  L 195.25 135.71
  L 195.44 127.65
  A 0.93 0.77 -89.6 0 1 196.20 126.74
  L 200.96 126.68
  A 0.67 0.49 87.0 0 1 201.46 127.30
  L 202.04 135.75
  Z"
/>
<path fill="#94defe" d="
  M 215.54 135.50
  L 215.33 140.00
  A 0.59 0.57 1.0 0 1 214.75 140.54
  L 210.18 140.59
  A 0.60 0.51 86.3 0 1 209.66 140.06
  L 209.21 135.50
  L 209.55 127.32
  A 0.64 0.51 -88.7 0 1 210.06 126.71
  L 214.72 126.59
  A 0.58 0.51 87.8 0 1 215.24 127.14
  L 215.54 135.50
  Z"
/>
<path fill="#94defe" d="
  M 228.50 134.27
  Q 229.93 140.95 224.05 140.49
  A 0.60 0.58 89.3 0 1 223.52 139.95
  L 222.96 134.75
  L 223.00 127.56
  A 0.69 0.68 82.2 0 1 223.49 126.90
  Q 226.24 126.11 228.48 126.88
  A 0.84 0.77 -84.7 0 1 229.00 127.56
  Q 229.36 130.90 228.50 134.27
  Z"
/>
<path fill="#7de7f9" d="
  M 146.79 133.50
  Q 147.08 136.17 149.52 135.42
  Q 150.03 135.27 150.49 135.32
  Q 152.55 135.56 154.54 134.87
  L 154.68 140.25
  A 0.45 0.40 -8.6 0 0 155.24 140.61
  Q 157.38 140.03 159.53 140.61
  A 0.96 0.72 25.9 0 0 160.39 140.44
  Q 161.14 139.67 160.68 138.27
  Q 160.16 136.72 161.04 135.50
  Q 164.57 135.88 167.96 135.00
  Q 168.46 136.72 168.25 137.75
  Q 167.58 141.01 170.41 140.86
  Q 170.67 140.84 172.09 140.85
  Q 173.29 140.86 174.21 140.00
  L 174.50 142.21
  Q 164.12 141.81 153.74 142.28
  Q 148.63 142.51 143.50 142.50
  A 0.49 0.49 89.4 0 0 143.01 143.00
  L 143.29 173.75
  L 143.06 229.20
  A 0.53 0.52 1.8 0 0 143.56 229.72
  Q 146.73 229.90 157.06 229.69
  Q 168.43 229.46 214.19 229.61
  Q 220.47 229.63 225.98 229.30
  A 1.45 1.41 -0.7 0 0 227.34 227.95
  L 228.46 201.50
  Q 228.34 203.54 230.25 203.75
  Q 232.35 203.98 234.86 203.46
  Q 233.40 206.27 234.20 210.55
  A 1.27 1.16 -4.1 0 0 235.41 211.51
  L 242.06 211.64
  A 0.74 0.71 81.4 0 1 242.73 212.16
  Q 243.38 214.27 242.56 217.21
  A 0.72 0.72 7.2 0 1 241.86 217.75
  Q 239.79 217.75 237.80 217.75
  Q 237.73 217.75 236.21 217.64
  Q 233.78 217.46 233.85 219.83
  Q 233.91 221.86 233.90 222.19
  Q 233.87 223.88 234.47 225.52
  Q 226.87 224.78 230.54 232.01
  A 0.85 0.84 60.5 0 0 231.74 232.35
  Q 232.72 231.73 234.00 232.54
  L 234.13 235.02
  Q 234.17 235.81 234.08 235.98
  Q 233.55 237.04 232.00 236.50
  Q 230.33 235.92 229.21 237.25
  Q 229.58 234.32 228.44 232.81
  Q 227.14 231.11 225.31 231.83
  Q 223.99 232.35 223.43 233.88
  Q 222.89 235.35 222.96 237.00
  Q 219.64 236.01 216.23 236.65
  A 0.69 0.64 -4.2 0 0 215.67 237.25
  L 215.27 244.94
  A 0.83 0.78 -89.5 0 1 214.52 245.72
  L 210.07 245.91
  A 0.53 0.49 -2.2 0 1 209.52 245.44
  L 209.25 237.17
  A 0.80 0.74 -1.1 0 0 208.44 236.45
  L 203.02 236.47
  A 1.30 1.21 0.2 0 0 201.73 237.66
  L 201.60 245.06
  A 0.59 0.57 87.9 0 1 201.07 245.65
  L 196.34 246.00
  A 0.55 0.53 87.0 0 1 195.77 245.47
  L 195.51 237.12
  A 0.64 0.59 89.0 0 0 194.92 236.50
  L 189.00 236.50
  A 1.13 1.03 -88.5 0 0 187.97 237.58
  L 187.64 245.31
  A 0.57 0.56 -87.9 0 1 187.07 245.85
  L 182.31 245.75
  A 0.57 0.53 -89.0 0 1 181.80 245.18
  L 181.76 237.65
  A 0.78 0.73 -89.2 0 0 181.05 236.87
  L 175.20 236.66
  A 0.58 0.54 2.6 0 0 174.60 237.17
  L 174.27 244.39
  A 1.63 1.37 -88.5 0 1 172.89 245.95
  L 168.74 245.98
  A 0.56 0.50 88.2 0 1 168.24 245.45
  L 167.87 237.31
  A 0.91 0.85 -1.3 0 0 166.96 236.50
  L 161.42 236.50
  A 0.65 0.61 0.9 0 0 160.77 237.09
  L 160.50 245.06
  A 0.70 0.63 -89.1 0 1 159.87 245.74
  L 155.31 245.71
  A 0.57 0.53 -0.5 0 1 154.74 245.19
  L 154.57 237.92
  A 1.32 1.07 88.5 0 0 153.47 236.64
  L 147.55 236.71
  A 0.65 0.52 -88.1 0 0 147.03 237.31
  L 146.53 245.01
  A 0.71 0.71 83.6 0 1 146.02 245.65
  Q 143.92 246.25 141.79 245.80
  A 0.86 0.80 87.2 0 1 141.17 245.20
  Q 140.27 242.03 140.75 239.50
  Q 141.46 235.74 137.75 236.51
  Q 135.10 237.06 135.82 233.93
  A 1.74 1.56 9.5 0 0 134.28 232.00
  L 128.49 231.36
  A 1.00 0.85 77.7 0 1 127.77 230.81
  Q 126.92 228.99 127.19 226.92
  A 1.44 1.35 1.1 0 1 128.50 225.74
  L 135.20 225.25
  A 0.61 0.55 -3.3 0 0 135.76 224.69
  L 135.65 218.43
  A 0.59 0.55 0.0 0 0 135.07 217.89
  L 128.41 217.79
  A 1.43 1.25 2.7 0 1 127.00 216.43
  L 127.36 212.17
  A 0.62 0.54 -0.3 0 1 127.93 211.67
  L 135.32 211.12
  A 0.55 0.50 88.4 0 0 135.79 210.57
  L 135.75 203.79
  Q 137.63 203.03 139.68 203.14
  A 0.67 0.64 10.1 0 0 140.35 202.70
  Q 142.21 196.89 135.50 196.96
  L 135.75 189.79
  Q 141.52 189.44 139.84 184.03
  A 0.90 0.74 83.1 0 0 139.20 183.42
  L 135.75 182.96
  L 135.75 175.92
  A 0.67 0.64 89.6 0 0 135.10 175.25
  L 127.99 175.35
  A 0.59 0.50 -1.0 0 1 127.39 174.86
  L 127.23 169.80
  A 0.61 0.49 -1.6 0 1 127.82 169.30
  L 134.93 168.97
  A 0.62 0.53 -1.2 0 0 135.52 168.45
  L 135.63 161.94
  A 0.71 0.60 8.1 0 0 135.08 161.32
  Q 132.04 160.67 128.62 161.32
  A 1.00 0.99 -9.6 0 1 127.44 160.49
  Q 126.95 157.29 127.63 155.27
  A 0.76 0.59 7.3 0 1 128.31 154.87
  L 134.82 154.87
  A 0.70 0.61 -83.0 0 0 135.43 154.32
  Q 136.16 151.08 135.54 147.80
  A 0.75 0.73 89.3 0 0 134.95 147.21
  Q 132.56 146.75 129.56 147.40
  A 1.67 1.67 75.7 0 1 127.61 146.24
  Q 125.95 140.65 130.01 140.92
  Q 132.51 141.09 135.02 140.75
  A 1.21 1.10 84.5 0 0 135.96 139.49
  L 135.75 135.98
  A 0.95 0.90 10.3 0 1 137.07 135.12
  Q 139.04 135.93 140.86 134.53
  Q 140.51 137.47 142.13 139.43
  Q 143.24 140.77 144.80 140.54
  Q 146.93 140.23 146.81 137.50
  Q 146.72 135.50 146.79 133.50
  Z"
/>
<path fill="#66b6f1" d="
  M 228.50 134.27
  Q 229.88 136.16 231.94 135.44
  Q 235.90 134.04 234.19 137.69
  Q 233.54 139.06 234.00 140.46
  Q 229.72 140.05 229.30 143.40
  Q 229.05 145.39 230.54 146.48
  Q 232.05 147.59 234.25 147.29
  L 234.00 154.46
  Q 233.77 154.44 233.56 154.49
  Q 233.02 154.65 232.77 154.60
  Q 228.46 153.80 229.06 157.80
  Q 229.16 158.47 229.10 159.71
  Q 229.04 161.30 230.50 161.38
  Q 231.84 161.46 232.35 161.54
  Q 233.29 161.70 234.25 161.54
  Q 233.59 164.23 234.21 168.43
  A 1.01 0.87 -3.9 0 0 235.20 169.17
  L 241.82 169.13
  A 0.87 0.73 75.9 0 1 242.53 169.64
  Q 243.67 172.24 242.48 174.80
  A 0.83 0.80 11.3 0 1 241.75 175.27
  L 234.89 175.52
  A 0.94 0.93 1.7 0 0 233.99 176.36
  Q 233.64 179.79 234.32 183.25
  Q 232.88 183.53 231.21 182.93
  A 0.90 0.64 27.9 0 0 230.34 183.04
  L 228.29 185.25
  Q 228.38 184.20 228.04 183.25
  L 227.51 143.48
  A 1.27 1.25 0.0 0 0 226.26 142.25
  Q 217.00 142.11 207.75 142.50
  Q 195.95 142.99 174.50 142.21
  L 174.21 140.00
  L 174.54 135.50
  L 181.46 135.50
  L 181.56 140.69
  A 0.45 0.40 -2.6 0 0 182.04 141.08
  L 187.01 140.75
  A 1.33 1.16 -1.9 0 0 188.25 139.59
  L 188.29 135.75
  Q 191.78 135.07 195.25 135.71
  L 195.50 139.57
  A 1.40 1.39 78.5 0 0 197.35 140.80
  Q 199.00 140.22 200.23 140.65
  A 1.26 1.13 -78.7 0 0 201.75 139.51
  L 202.04 135.75
  L 209.21 135.50
  L 209.66 140.06
  A 0.60 0.51 86.3 0 0 210.18 140.59
  L 214.75 140.54
  A 0.59 0.57 1.0 0 0 215.33 140.00
  L 215.54 135.50
  Q 219.35 135.94 222.96 134.75
  L 223.52 139.95
  A 0.60 0.58 89.3 0 0 224.05 140.49
  Q 229.93 140.95 228.50 134.27
  Z"
/>
<ellipse fill="#cbf8fe" cx="0.00" cy="0.00" transform="translate(78.70,140.11) rotate(91.1)" rx="4.14" ry="3.86"/>
<path fill="#94defe" d="
  M 234.00 140.46
  Q 237.96 141.25 242.00 141.03
  A 0.69 0.65 -10.7 0 1 242.68 141.47
  Q 243.55 143.98 242.63 146.47
  A 0.80 0.74 7.7 0 1 241.94 146.95
  L 234.25 147.29
  Q 232.05 147.59 230.54 146.48
  Q 229.05 145.39 229.30 143.40
  Q 229.72 140.05 234.00 140.46
  Z"
/>
<path fill="#2380ca" d="
  M 174.50 142.21
  Q 195.95 142.99 207.75 142.50
  Q 217.00 142.11 226.26 142.25
  A 1.27 1.25 0.0 0 1 227.51 143.48
  L 228.04 183.25
  Q 228.08 184.73 227.48 186.05
  A 0.55 0.51 22.6 0 1 226.80 186.30
  Q 225.33 185.75 223.81 186.31
  Q 222.30 186.87 220.94 186.24
  A 1.31 0.90 -34.5 0 0 220.07 186.24
  Q 219.28 186.53 219.29 185.00
  L 219.18 151.81
  A 0.50 0.50 0.0 0 0 218.68 151.31
  Q 191.94 151.21 165.20 151.25
  Q 165.13 151.25 158.82 151.48
  Q 155.53 151.60 152.23 151.25
  A 0.66 0.66 -86.9 0 0 151.50 151.91
  L 151.46 181.00
  Q 151.09 181.96 151.29 183.24
  Q 151.37 183.77 150.93 183.45
  Q 148.17 181.42 144.80 180.56
  A 0.79 0.64 -89.4 0 1 144.31 179.94
  L 143.29 173.75
  L 143.01 143.00
  A 0.49 0.49 89.4 0 1 143.50 142.50
  Q 148.63 142.51 153.74 142.28
  Q 164.12 141.81 174.50 142.21
  Z"
/>
<path fill="#054369" d="
  M 219.29 185.00
  L 219.25 219.80
  A 0.84 0.83 82.3 0 1 218.64 220.61
  Q 216.94 221.09 215.00 221.09
  Q 183.65 221.05 152.31 220.94
  A 0.52 0.51 89.4 0 1 151.80 220.43
  L 151.46 181.00
  L 151.50 151.91
  A 0.66 0.66 -86.9 0 1 152.23 151.25
  Q 155.53 151.60 158.82 151.48
  Q 165.13 151.25 165.20 151.25
  Q 191.94 151.21 218.68 151.31
  A 0.50 0.50 0.0 0 1 219.18 151.81
  L 219.29 185.00
  Z
  M 209.69 169.41
  A 6.32 6.32 0.0 0 0 203.37 163.09
  A 6.32 6.32 0.0 0 0 197.05 169.41
  A 6.32 6.32 0.0 0 0 203.37 175.73
  A 6.32 6.32 0.0 0 0 209.69 169.41
  Z
  M 186.1020 168.7378
  A 3.09 3.09 0.0 0 0 182.9798 165.6803
  L 163.9008 165.8801
  A 3.09 3.09 0.0 0 0 160.8434 169.0023
  L 160.8580 170.4022
  A 3.09 3.09 0.0 0 0 163.9802 173.4597
  L 183.0592 173.2599
  A 3.09 3.09 0.0 0 0 186.1166 170.1377
  L 186.1020 168.7378
  Z
  M 166.32 188.69
  L 165.76 179.42
  A 2.06 1.83 3.1 0 0 164.01 177.69
  Q 158.52 176.87 158.35 180.99
  Q 157.87 193.35 158.60 206.41
  Q 158.72 208.49 160.72 209.06
  Q 163.33 209.81 165.33 208.03
  A 1.28 1.27 71.4 0 0 165.75 207.18
  L 166.54 197.82
  A 0.54 0.54 -88.2 0 1 167.07 197.32
  L 179.48 197.07
  A 0.78 0.76 0.3 0 1 180.28 197.86
  Q 180.06 202.80 180.97 206.88
  Q 181.38 208.71 183.24 208.96
  Q 186.08 209.36 187.28 207.71
  Q 187.98 206.77 188.08 204.14
  Q 188.55 192.97 187.94 180.71
  Q 187.83 178.62 185.95 177.70
  Q 183.54 176.54 181.83 178.25
  Q 180.78 179.31 180.64 181.61
  Q 180.43 185.15 180.22 188.68
  A 0.55 0.53 -88.3 0 1 179.69 189.20
  L 166.81 189.20
  A 0.54 0.49 88.1 0 1 166.32 188.69
  Z
  M 207.4806 181.4671
  A 3.91 3.91 0.0 0 0 203.5774 177.5503
  L 203.2974 177.5498
  A 3.91 3.91 0.0 0 0 199.3806 181.4529
  L 199.3394 205.0729
  A 3.91 3.91 0.0 0 0 203.2426 208.9897
  L 203.5226 208.9902
  A 3.91 3.91 0.0 0 0 207.4394 205.0871
  L 207.4806 181.4671
  Z"
/>
<circle fill="#cbf8fe" cx="299.13" cy="156.50" r="3.86"/>
<path fill="#94defe" d="
  M 234.00 154.46
  Q 234.25 155.00 235.25 155.00
  Q 238.25 155.00 241.97 155.00
  A 0.68 0.68 -8.0 0 1 242.62 155.49
  Q 243.41 158.35 242.63 160.48
  A 0.83 0.71 6.1 0 1 241.94 160.95
  L 234.25 161.54
  Q 233.29 161.70 232.35 161.54
  Q 231.84 161.46 230.50 161.38
  Q 229.04 161.30 229.10 159.71
  Q 229.16 158.47 229.06 157.80
  Q 228.46 153.80 232.77 154.60
  Q 233.02 154.65 233.56 154.49
  Q 233.77 154.44 234.00 154.46
  Z"
/>
<path fill="#5183a8" d="
  M 117.00 159.21
  Q 118.38 161.47 116.79 163.50
  Q 109.90 162.90 103.00 163.46
  A 1.19 1.13 -71.9 0 0 102.19 163.90
  Q 100.36 166.18 98.44 166.94
  Q 95.86 167.96 93.94 166.46
  Q 92.46 165.30 91.86 163.00
  Q 90.51 157.82 96.26 155.75
  Q 98.71 154.86 99.93 157.16
  Q 101.16 159.48 103.72 159.41
  Q 106.15 159.35 106.29 159.36
  Q 111.65 159.78 117.00 159.21
  Z
  M 100.67 161.48
  A 3.81 3.81 0.0 0 0 96.86 157.67
  A 3.81 3.81 0.0 0 0 93.05 161.48
  A 3.81 3.81 0.0 0 0 96.86 165.29
  A 3.81 3.81 0.0 0 0 100.67 161.48
  Z"
/>
<circle fill="#cbf8fe" cx="96.86" cy="161.48" r="3.81"/>
<path fill="#5183a8" d="
  M 209.69 169.41
  A 6.32 6.32 0.0 0 1 203.37 175.73
  A 6.32 6.32 0.0 0 1 197.05 169.41
  A 6.32 6.32 0.0 0 1 203.37 163.09
  A 6.32 6.32 0.0 0 1 209.69 169.41
  Z
  M 206.68 169.63
  A 3.08 3.08 0.0 0 0 203.60 166.55
  A 3.08 3.08 0.0 0 0 200.52 169.63
  A 3.08 3.08 0.0 0 0 203.60 172.71
  A 3.08 3.08 0.0 0 0 206.68 169.63
  Z"
/>
<rect fill="#a7fcfd" x="-12.63" y="-3.79" transform="translate(173.48,169.57) rotate(-0.6)" width="25.26" height="7.58" rx="3.09"/>
<circle fill="#cbf8fe" cx="203.60" cy="169.63" r="3.08"/>
<path fill="#24abc6" d="
  M 143.29 173.75
  L 144.31 179.94
  A 0.79 0.64 -89.4 0 0 144.80 180.56
  Q 148.17 181.42 150.93 183.45
  Q 151.37 183.77 151.29 183.24
  Q 151.09 181.96 151.46 181.00
  L 151.80 220.43
  A 0.52 0.51 89.4 0 0 152.31 220.94
  Q 183.65 221.05 215.00 221.09
  Q 216.94 221.09 218.64 220.61
  A 0.84 0.83 82.3 0 0 219.25 219.80
  L 219.29 185.00
  Q 219.28 186.53 220.07 186.24
  A 1.31 0.90 -34.5 0 1 220.94 186.24
  Q 222.30 186.87 223.81 186.31
  Q 225.33 185.75 226.80 186.30
  A 0.55 0.51 22.6 0 0 227.48 186.05
  Q 228.08 184.73 228.04 183.25
  Q 228.38 184.20 228.29 185.25
  L 228.54 198.50
  L 228.46 201.50
  L 227.34 227.95
  A 1.45 1.41 -0.7 0 1 225.98 229.30
  Q 220.47 229.63 214.19 229.61
  Q 168.43 229.46 157.06 229.69
  Q 146.73 229.90 143.56 229.72
  A 0.53 0.52 1.8 0 1 143.06 229.20
  L 143.29 173.75
  Z"
/>
<path fill="#a7fcfd" d="
  M 166.81 189.20
  L 179.69 189.20
  A 0.55 0.53 -88.3 0 0 180.22 188.68
  Q 180.43 185.15 180.64 181.61
  Q 180.78 179.31 181.83 178.25
  Q 183.54 176.54 185.95 177.70
  Q 187.83 178.62 187.94 180.71
  Q 188.55 192.97 188.08 204.14
  Q 187.98 206.77 187.28 207.71
  Q 186.08 209.36 183.24 208.96
  Q 181.38 208.71 180.97 206.88
  Q 180.06 202.80 180.28 197.86
  A 0.78 0.76 0.3 0 0 179.48 197.07
  L 167.07 197.32
  A 0.54 0.54 -88.2 0 0 166.54 197.82
  L 165.75 207.18
  A 1.28 1.27 71.4 0 1 165.33 208.03
  Q 163.33 209.81 160.72 209.06
  Q 158.72 208.49 158.60 206.41
  Q 157.87 193.35 158.35 180.99
  Q 158.52 176.87 164.01 177.69
  A 2.06 1.83 3.1 0 1 165.76 179.42
  L 166.32 188.69
  A 0.54 0.49 88.1 0 0 166.81 189.20
  Z"
/>
<rect fill="#a7fcfd" x="-4.05" y="-15.72" transform="translate(203.41,193.27) rotate(0.1)" width="8.10" height="31.44" rx="3.91"/>
<path fill="#90e8fd" d="
  M 234.32 183.25
  L 241.65 183.25
  A 1.17 1.16 85.3 0 1 242.80 184.23
  Q 243.27 187.20 242.63 188.98
  A 0.80 0.71 6.9 0 1 241.94 189.46
  Q 239.85 189.56 237.76 189.68
  Q 231.44 190.03 234.20 197.12
  Q 230.31 195.81 228.54 198.50
  L 228.29 185.25
  L 230.34 183.04
  A 0.90 0.64 27.9 0 1 231.21 182.93
  Q 232.88 183.53 234.32 183.25
  Z"
/>
<path fill="#90e8fd" d="
  M 135.75 182.96
  L 139.20 183.42
  A 0.90 0.74 83.1 0 1 139.84 184.03
  Q 141.52 189.44 135.75 189.79
  Q 131.17 189.07 129.25 189.50
  Q 126.34 190.16 127.00 187.24
  Q 127.29 185.99 127.17 184.71
  Q 126.97 182.56 129.50 183.25
  Q 131.19 183.71 135.75 182.96
  Z"
/>
<ellipse fill="#cbf8fe" cx="0.00" cy="0.00" transform="translate(274.20,189.00) rotate(54.2)" rx="3.81" ry="3.39"/>
<path fill="#5a7da2" d="
  M 116.62 192.21
  Q 117.60 191.79 117.55 193.16
  Q 117.54 193.58 117.60 194.32
  Q 117.71 195.51 116.75 196.29
  Q 98.16 195.79 79.57 195.99
  Q 79.49 195.99 77.95 195.80
  Q 76.45 195.62 76.08 197.25
  A 1.54 1.06 85.2 0 1 75.61 198.07
  Q 71.53 201.35 68.34 197.74
  Q 68.32 197.71 67.38 196.13
  Q 66.77 195.11 65.56 194.79
  A 1.33 0.82 2.0 0 1 64.79 194.28
  Q 64.07 193.00 65.76 192.79
  A 1.52 1.33 15.1 0 0 66.60 192.38
  L 70.11 188.76
  A 2.16 2.16 -57.4 0 1 72.42 188.25
  Q 75.58 189.46 76.51 191.01
  A 2.62 2.54 -14.9 0 0 78.74 192.26
  L 116.62 192.21
  Z
  M 75.82 193.89
  A 3.82 3.82 0.0 0 0 72.00 190.07
  A 3.82 3.82 0.0 0 0 68.18 193.89
  A 3.82 3.82 0.0 0 0 72.00 197.71
  A 3.82 3.82 0.0 0 0 75.82 193.89
  Z"
/>
<circle fill="#cbf8fe" cx="72.00" cy="193.89" r="3.82"/>
<path fill="#406789" d="
  M 252.79 190.75
  Q 252.15 206.48 252.75 222.21
  L 252.25 222.79
  Q 251.21 219.98 251.26 217.05
  Q 251.33 212.92 251.33 212.82
  Q 250.96 204.54 251.44 196.26
  Q 251.52 194.96 251.25 191.75
  Q 251.06 189.42 252.79 190.75
  Z"
/>
<path fill="#93f5fc" d="
  M 234.20 197.12
  Q 239.02 197.49 240.25 197.25
  Q 243.22 196.66 243.00 200.00
  Q 242.86 202.07 242.61 202.98
  A 0.71 0.64 6.9 0 1 241.94 203.45
  L 234.86 203.46
  Q 232.35 203.98 230.25 203.75
  Q 228.34 203.54 228.46 201.50
  L 228.54 198.50
  Q 230.31 195.81 234.20 197.12
  Z"
/>
<path fill="#93f5fc" d="
  M 135.50 196.96
  Q 142.21 196.89 140.35 202.70
  A 0.67 0.64 10.1 0 1 139.68 203.14
  Q 137.63 203.03 135.75 203.79
  L 127.98 203.57
  A 0.76 0.69 1.3 0 1 127.25 202.88
  L 127.25 197.80
  A 0.65 0.59 -1.0 0 1 127.88 197.21
  L 135.50 196.96
  Z"
/>
<path fill="#5183a8" d="
  M 253.00 226.04
  Q 252.53 225.76 252.01 225.95
  Q 251.61 226.09 251.69 225.70
  L 252.25 222.79
  L 252.75 222.21
  L 278.18 222.19
  A 1.33 1.33 24.1 0 0 279.07 221.85
  Q 281.58 219.60 283.76 217.04
  Q 283.84 216.93 285.56 215.31
  Q 287.50 213.47 286.95 210.21
  Q 286.63 208.29 287.97 206.89
  Q 291.58 203.14 295.31 205.58
  Q 296.66 206.46 297.00 208.03
  Q 298.26 213.76 294.83 215.47
  Q 294.79 215.49 291.58 216.06
  Q 288.83 216.55 286.49 219.65
  Q 285.57 220.87 284.23 221.59
  Q 283.35 222.06 282.00 224.02
  Q 280.36 226.37 277.51 226.11
  Q 276.07 225.98 275.98 225.98
  Q 264.49 225.66 253.00 226.04
  Z
  M 290.9619 214.2032
  A 4.12 3.75 109.1 0 0 295.8536 211.5371
  A 4.12 3.75 109.1 0 0 293.6581 206.4168
  A 4.12 3.75 109.1 0 0 288.7664 209.0829
  A 4.12 3.75 109.1 0 0 290.9619 214.2032
  Z"
/>
<ellipse fill="#cbf8fe" cx="0.00" cy="0.00" transform="translate(292.31,210.31) rotate(109.1)" rx="4.12" ry="3.75"/>
<path fill="#527b9e" d="
  M 116.96 218.25
  Q 118.10 220.45 116.81 222.21
  L 97.75 222.02
  A 0.86 0.84 15.6 0 0 97.00 222.43
  Q 94.36 226.77 89.75 230.23
  A 1.11 1.10 65.1 0 0 89.34 231.36
  Q 89.74 233.06 89.64 234.19
  Q 89.54 235.30 88.95 236.84
  Q 88.05 239.15 84.75 239.25
  Q 79.39 239.41 78.82 234.57
  Q 78.18 229.08 85.06 228.36
  A 4.55 3.33 -63.7 0 0 87.54 227.07
  L 94.68 219.90
  A 1.77 1.23 8.9 0 1 95.56 219.47
  Q 102.33 218.22 106.75 218.50
  Q 113.13 218.91 116.96 218.25
  Z
  M 88.06 233.87
  A 3.87 3.87 0.0 0 0 84.19 230.00
  A 3.87 3.87 0.0 0 0 80.32 233.87
  A 3.87 3.87 0.0 0 0 84.19 237.74
  A 3.87 3.87 0.0 0 0 88.06 233.87
  Z"
/>
<path fill="#93f5fc" d="
  M 234.47 225.52
  L 242.01 225.70
  A 0.80 0.72 79.2 0 1 242.69 226.22
  Q 243.63 228.80 242.42 231.25
  A 0.78 0.73 13.3 0 1 241.70 231.66
  Q 237.76 231.46 234.00 232.54
  Q 232.72 231.73 231.74 232.35
  A 0.85 0.84 60.5 0 1 230.54 232.01
  Q 226.87 224.78 234.47 225.52
  Z"
/>
<circle fill="#cbf8fe" cx="84.19" cy="233.87" r="3.87"/>
<path fill="#94defe" d="
  M 229.21 237.25
  L 228.94 244.67
  A 0.94 0.87 84.2 0 1 228.30 245.52
  Q 225.72 246.26 223.79 245.82
  A 0.68 0.64 6.4 0 1 223.27 245.20
  L 222.96 237.00
  Q 222.89 235.35 223.43 233.88
  Q 223.99 232.35 225.31 231.83
  Q 227.14 231.11 228.44 232.81
  Q 229.58 234.32 229.21 237.25
  Z"
/>
<path fill="#527b9e" d="
  M 252.70 248.23
  Q 253.74 250.51 256.31 249.56
  Q 259.66 248.33 261.25 250.00
  L 272.72 262.07
  A 1.30 1.26 68.9 0 0 273.56 262.46
  Q 275.75 262.60 277.76 263.39
  Q 279.94 264.24 280.86 266.09
  Q 283.11 270.59 277.13 273.95
  A 2.79 2.77 42.5 0 1 274.61 274.05
  Q 269.66 271.79 270.65 266.48
  A 1.21 1.12 -59.3 0 0 270.46 265.59
  Q 268.11 262.30 265.44 260.06
  Q 262.22 257.37 260.20 254.23
  A 1.34 1.20 78.4 0 0 259.46 253.68
  Q 256.08 252.84 252.75 254.04
  Q 251.85 253.97 251.92 252.99
  Q 252.11 250.58 252.70 248.23
  Z
  M 279.77 268.58
  A 3.58 3.58 0.0 0 0 276.19 265.00
  A 3.58 3.58 0.0 0 0 272.61 268.58
  A 3.58 3.58 0.0 0 0 276.19 272.16
  A 3.58 3.58 0.0 0 0 279.77 268.58
  Z"
/>
<path fill="#406789" d="
  M 163.04 257.50
  Q 161.54 258.69 161.50 260.00
  Q 161.26 267.64 161.67 285.06
  A 0.84 0.80 12.5 0 0 162.14 285.76
  Q 164.73 287.03 165.25 290.50
  Q 166.29 297.42 159.31 296.94
  Q 156.83 296.77 155.72 295.18
  Q 154.82 293.90 154.99 291.66
  Q 155.25 288.05 157.94 285.41
  A 1.39 1.29 -21.4 0 0 158.35 284.56
  Q 159.38 271.16 158.11 257.70
  Q 160.34 256.66 163.04 257.50
  Z
  M 162.3033 295.1664
  A 4.13 3.71 58.9 0 0 163.3468 289.7137
  A 4.13 3.71 58.9 0 0 158.0367 288.0936
  A 4.13 3.71 58.9 0 0 156.9932 293.5463
  A 4.13 3.71 58.9 0 0 162.3033 295.1664
  Z"
/>
<path fill="#7a9bb6" d="
  M 210.47 257.55
  L 210.08 292.68
  A 0.69 0.59 -84.2 0 0 210.53 293.33
  Q 211.75 293.64 212.45 292.95
  Q 219.21 298.18 214.20 302.82
  Q 212.38 304.50 210.24 304.51
  Q 207.30 304.52 206.21 301.77
  Q 205.47 299.87 205.33 298.22
  Q 205.16 296.12 206.75 294.61
  Q 208.25 293.19 208.25 291.15
  L 208.21 257.75
  Q 209.34 256.48 210.47 257.55
  Z
  M 214.09 298.62
  A 3.44 3.44 0.0 0 0 210.65 295.18
  A 3.44 3.44 0.0 0 0 207.21 298.62
  A 3.44 3.44 0.0 0 0 210.65 302.06
  A 3.44 3.44 0.0 0 0 214.09 298.62
  Z"
/>
<path fill="#5b7b94" d="
  M 239.04 257.75
  Q 238.00 265.24 238.94 272.75
  A 1.43 1.39 19.2 0 0 239.36 273.59
  L 246.70 280.59
  A 0.96 0.95 -28.9 0 0 247.55 280.83
  Q 251.66 279.98 253.88 282.78
  Q 255.20 284.46 254.93 286.62
  Q 254.62 289.04 252.80 290.39
  Q 250.66 291.97 247.94 291.42
  Q 244.75 290.76 244.19 287.06
  Q 243.45 282.29 240.85 279.91
  Q 237.88 277.21 235.37 274.08
  A 1.58 1.34 -68.4 0 1 235.07 273.19
  L 234.74 257.84
  Q 236.87 256.32 239.04 257.75
  Z
  M 250.4592 289.8244
  A 3.88 3.10 76.6 0 0 252.5756 285.3316
  A 3.88 3.10 76.6 0 0 248.6608 282.2756
  A 3.88 3.10 76.6 0 0 246.5444 286.7684
  A 3.88 3.10 76.6 0 0 250.4592 289.8244
  Z"
/>
<path fill="#406789" d="
  M 116.79 257.25
  L 120.76 257.67
  Q 121.17 257.71 121.71 257.54
  Q 122.59 257.27 123.29 258.00
  Q 119.46 261.30 116.15 265.15
  Q 113.21 268.57 108.69 268.46
  Q 97.48 268.17 86.28 268.52
  Q 85.54 266.23 85.96 264.71
  Q 96.39 265.56 106.77 264.97
  Q 110.74 264.74 112.82 263.18
  Q 115.68 261.02 116.79 257.25
  Z"
/>
<path fill="#5a7da2" d="
  M 142.54 257.75
  Q 141.75 274.13 142.25 278.75
  Q 142.60 281.99 140.81 283.81
  Q 136.90 287.78 133.65 290.79
  Q 132.26 292.08 132.25 293.98
  Q 132.24 297.33 130.37 298.80
  Q 128.70 300.11 125.92 299.70
  Q 122.55 299.20 121.99 296.02
  Q 121.41 292.72 123.59 290.46
  Q 125.72 288.26 129.51 288.68
  A 1.40 1.27 29.3 0 0 130.42 288.47
  Q 134.87 285.47 137.45 281.66
  Q 138.44 280.20 138.44 278.59
  L 138.50 257.79
  Q 140.55 256.67 142.54 257.75
  Z
  M 124.3120 297.2944
  A 3.87 3.58 134.2 0 0 129.5765 297.0159
  A 3.87 3.58 134.2 0 0 129.7080 291.7456
  A 3.87 3.58 134.2 0 0 124.4435 292.0241
  A 3.87 3.58 134.2 0 0 124.3120 297.2944
  Z"
/>
<path fill="#5f83a7" d="
  M 186.93 257.63
  L 186.75 274.23
  Q 186.75 274.30 186.79 274.37
  Q 188.79 277.94 189.52 280.40
  Q 190.25 282.85 188.77 284.70
  Q 186.99 286.93 184.11 286.58
  Q 181.07 286.22 179.76 283.61
  Q 178.23 280.57 180.96 277.45
  Q 181.08 277.32 182.03 276.53
  Q 182.40 276.23 182.68 275.84
  Q 182.94 275.49 182.95 274.96
  Q 183.05 268.23 183.02 261.50
  Q 183.01 259.74 182.18 257.87
  Q 184.47 256.78 186.93 257.63
  Z
  M 188.23 281.43
  A 3.71 3.71 0.0 0 0 184.52 277.72
  A 3.71 3.71 0.0 0 0 180.81 281.43
  A 3.71 3.71 0.0 0 0 184.52 285.14
  A 3.71 3.71 0.0 0 0 188.23 281.43
  Z"
/>
<path fill="#406789" d="
  M 210.47 257.55
  Q 211.77 257.30 212.25 257.79
  Q 211.48 275.41 212.45 292.95
  Q 211.75 293.64 210.53 293.33
  A 0.69 0.59 -84.2 0 1 210.08 292.68
  L 210.47 257.55
  Z"
/>
<path fill="#7a9bb6" d="
  M 85.96 264.71
  Q 85.54 266.23 86.28 268.52
  Q 84.12 272.49 80.25 272.00
  Q 76.33 271.50 75.48 268.17
  Q 74.82 265.59 76.32 263.56
  Q 77.88 261.44 80.99 261.18
  Q 84.49 260.89 85.96 264.71
  Z
  M 81.2013 270.2731
  A 3.70 3.34 81.9 0 0 83.9867 266.1394
  A 3.70 3.34 81.9 0 0 80.1587 262.9469
  A 3.70 3.34 81.9 0 0 77.3733 267.0806
  A 3.70 3.34 81.9 0 0 81.2013 270.2731
  Z"
/>
<ellipse fill="#cbf8fe" cx="0.00" cy="0.00" transform="translate(80.68,266.61) rotate(81.9)" rx="3.70" ry="3.34"/>
<circle fill="#cbf8fe" cx="276.19" cy="268.58" r="3.58"/>
<circle fill="#cbf8fe" cx="184.52" cy="281.43" r="3.71"/>
<ellipse fill="#cbf8fe" cx="0.00" cy="0.00" transform="translate(249.56,286.05) rotate(76.6)" rx="3.88" ry="3.10"/>
<ellipse fill="#cbf8fe" cx="0.00" cy="0.00" transform="translate(160.17,291.63) rotate(58.9)" rx="4.13" ry="3.71"/>
<ellipse fill="#cbf8fe" cx="0.00" cy="0.00" transform="translate(127.01,294.52) rotate(134.2)" rx="3.87" ry="3.58"/>
<circle fill="#cbf8fe" cx="210.65" cy="298.62" r="3.44"/>
</svg>
