<?xml version="1.0" encoding="UTF-8" standalone="no"?>
<!DOCTYPE svg PUBLIC "-//W3C//DTD SVG 1.1//EN" "http://www.w3.org/Graphics/SVG/1.1/DTD/svg11.dtd">
<svg xmlns="http://www.w3.org/2000/svg" version="1.1" viewBox="0 0 370 370" width="370" height="370">
<g stroke-width="2.00" fill="none" stroke-linecap="butt">
<path stroke="#727139" vector-effect="non-scaling-stroke" d="
  M 242.54 128.25
  Q 241.92 137.88 242.25 144.00
  Q 243.42 165.54 227.54 177.41
  Q 222.88 180.88 217.76 182.31
  Q 212.58 183.75 206.75 183.75
  Q 183.43 183.75 160.10 183.75
  Q 154.68 183.75 151.06 184.95
  Q 139.52 188.80 132.35 199.13
  Q 126.95 206.90 127.50 217.75
  Q 127.72 222.15 127.38 239.40"
/>
<path stroke="#547a9b" vector-effect="non-scaling-stroke" d="
  M 128.29 101.50
  L 128.18 118.36
  A 0.64 0.64 89.8 0 0 128.82 119.00
  L 185.93 119.31
  A 0.51 0.50 0.0 0 1 186.44 119.81
  L 186.56 127.57
  A 0.58 0.57 -4.0 0 1 186.06 128.14
  Q 182.58 128.62 179.09 128.48
  Q 173.50 128.24 173.41 128.24
  Q 136.83 128.09 100.26 128.45
  Q 94.09 128.51 90.97 129.92
  Q 85.12 132.57 81.69 138.94
  Q 71.34 158.14 70.93 179.03"
/>
<path stroke="#3f6b92" vector-effect="non-scaling-stroke" d="
  M 70.93 179.03
  Q 71.64 196.34 77.27 212.74
  Q 79.39 218.93 82.81 222.94
  Q 88.83 229.97 98.75 229.99
  Q 107.38 230.00 117.25 230.00
  A 0.77 0.76 -90.0 0 0 118.01 229.23
  Q 117.95 222.86 118.07 216.92
  Q 118.23 209.36 119.58 204.74
  Q 122.48 194.78 129.69 187.56
  Q 135.86 181.38 143.44 177.90
  Q 151.23 174.33 160.25 174.31
  Q 184.25 174.25 208.25 174.44
  Q 213.48 174.48 216.94 172.94
  Q 227.04 168.43 230.89 158.44
  Q 232.50 154.28 232.68 146.84
  Q 233.03 132.04 232.46 117.25"
/>
<path stroke="#477094" vector-effect="non-scaling-stroke" d="
  M 232.46 117.25
  Q 232.69 113.39 232.75 100.25
  Q 232.78 93.05 229.17 87.90
  Q 226.87 84.62 221.96 81.54
  Q 217.66 78.84 213.19 77.31
  Q 179.25 65.74 145.62 79.01
  Q 136.39 82.65 131.31 89.06
  Q 127.41 93.99 128.29 101.50"
/>
<path stroke="#5f8eb5" vector-effect="non-scaling-stroke" d="
  M 232.46 117.25
  L 223.50 124.04"
/>
<path stroke="#5e8cb2" vector-effect="non-scaling-stroke" d="
  M 223.50 124.04
  Q 223.00 123.55 223.00 122.00
  Q 223.01 113.19 223.00 104.38
  Q 223.00 97.49 222.81 96.63
  Q 221.93 92.50 217.94 89.99
  Q 213.49 87.20 207.06 85.19
  Q 181.10 77.07 155.93 85.37"
/>
<path stroke="#b3c9db" vector-effect="non-scaling-stroke" d="
  M 155.93 85.37
  Q 146.39 81.66 141.50 90.25
  Q 139.73 93.37 140.96 97.00"
/>
<path stroke="#5e8cb2" vector-effect="non-scaling-stroke" d="
  M 140.96 97.00
  L 138.55 96.17
  A 0.52 0.48 -72.7 0 0 137.92 96.54
  Q 137.11 99.39 137.48 102.62"
/>
<path stroke="#749cbe" vector-effect="non-scaling-stroke" d="
  M 137.48 102.62
  L 130.49 102.45
  A 1.42 1.19 -20.3 0 1 129.65 102.15
  Q 129.07 101.65 128.29 101.50"
/>
<path stroke="#5687b0" vector-effect="non-scaling-stroke" d="
  M 223.50 124.04
  L 222.96 125.25"
/>
<path stroke="#467ca9" vector-effect="non-scaling-stroke" d="
  M 222.96 125.25
  Q 210.85 133.05 196.63 137.18"
/>
<path stroke="#6b96b9" vector-effect="non-scaling-stroke" d="
  M 196.63 137.18
  L 196.00 110.95
  A 1.23 1.20 89.3 0 0 194.80 109.75
  L 138.85 110.02
  A 1.06 1.03 -1.4 0 1 137.79 109.04
  L 137.48 102.62"
/>
<path stroke="#aac2d6" vector-effect="non-scaling-stroke" d="
  M 140.96 97.00
  Q 143.69 104.28 150.37 104.47
  Q 154.90 104.60 158.06 101.88
  Q 161.61 98.82 161.25 93.50
  Q 160.91 88.55 155.93 85.37"
/>
<path stroke="#5b8cb5" vector-effect="non-scaling-stroke" d="
  M 196.63 137.18
  Q 175.61 140.19 154.25 140.29"
/>
<path stroke="#79a2c4" vector-effect="non-scaling-stroke" d="
  M 154.25 140.29
  Q 153.62 139.89 152.70 138.29
  A 0.78 0.77 -17.6 0 0 151.93 137.90
  Q 147.88 138.34 144.75 138.29
  Q 122.38 137.95 100.00 137.55
  Q 92.71 137.43 89.56 143.31
  Q 83.16 155.29 81.18 169.93"
/>
<path stroke="#5b8cb5" vector-effect="non-scaling-stroke" d="
  M 81.18 169.93
  Q 81.04 170.49 80.46 170.75"
/>
<path stroke="#6c98bc" vector-effect="non-scaling-stroke" d="
  M 80.46 170.75
  L 70.93 179.03"
/>
<path stroke="#477eac" vector-effect="non-scaling-stroke" d="
  M 80.46 170.75
  Q 79.84 184.66 82.96 198.15
  Q 84.27 203.81 85.06 206.35
  Q 86.31 210.40 88.34 214.18
  Q 91.86 220.74 99.50 220.74
  Q 103.86 220.74 108.19 220.24
  A 0.52 0.52 -4.6 0 0 108.66 219.69
  Q 107.38 190.72 130.06 174.56
  Q 144.25 164.46 162.34 164.97
  Q 171.06 165.22 171.17 165.22
  Q 188.21 165.11 205.25 165.00
  Q 208.79 164.98 211.27 164.61
  Q 214.23 164.17 216.63 162.21
  Q 221.55 158.19 222.71 152.12
  Q 223.00 150.60 223.11 140.85
  Q 223.20 133.05 222.96 125.25"
/>
<path stroke="#5488b4" vector-effect="non-scaling-stroke" d="
  M 81.18 169.93
  Q 112.77 143.19 154.25 140.29"
/>
<path stroke="#debb3e" vector-effect="non-scaling-stroke" d="
  M 137.35 241.83
  Q 137.06 254.54 137.36 267.38
  Q 137.51 273.60 139.03 276.87
  Q 141.57 282.35 147.11 285.68
  Q 152.57 288.96 157.81 290.69
  Q 193.63 302.50 227.92 286.64
  Q 235.77 283.00 239.19 277.69
  Q 241.75 273.70 241.75 268.25
  Q 241.75 258.75 241.75 249.49
  A 0.99 0.99 0.0 0 0 240.76 248.50
  L 183.94 248.50
  A 0.69 0.69 0.0 0 1 183.25 247.81
  L 183.25 239.68
  A 0.68 0.68 0.0 0 1 183.93 239.00
  Q 224.44 238.94 265.13 239.24
  Q 265.17 239.24 268.87 239.38
  Q 283.21 239.93 289.56 226.31
  Q 297.18 209.98 298.82 194.51
  Q 299.44 188.60 298.46 182.75"
/>
<path stroke="#dec35e" vector-effect="non-scaling-stroke" d="
  M 298.46 182.75
  Q 297.39 165.79 291.00 150.75
  Q 287.63 142.83 280.30 139.56
  Q 276.82 138.00 270.44 137.85
  Q 262.12 137.64 253.15 137.76
  A 1.49 1.49 -3.4 0 0 251.69 139.40
  Q 252.46 147.13 251.47 154.43
  Q 250.43 162.05 246.93 168.56
  Q 238.92 183.44 222.54 190.27
  Q 216.81 192.66 209.25 192.75
  Q 187.14 193.02 165.03 193.20
  Q 155.38 193.27 151.16 194.78
  Q 142.04 198.02 138.77 207.10
  Q 137.24 211.36 137.23 220.60
  Q 137.22 231.16 137.35 241.83"
/>
<path stroke="#ffea9c" vector-effect="non-scaling-stroke" d="
  M 298.46 182.75
  L 296.80 182.42
  A 0.93 0.92 28.1 0 0 295.96 182.67
  Q 293.20 185.45 289.37 187.34"
/>
<path stroke="#ffeea6" vector-effect="non-scaling-stroke" d="
  M 289.37 187.34
  Q 288.55 171.10 282.69 155.56
  Q 281.28 151.84 278.47 149.61
  Q 276.01 147.66 271.97 147.09
  Q 267.34 146.43 261.92 147.19
  A 0.82 0.81 -5.0 0 0 261.21 148.03
  Q 261.62 157.63 258.55 165.63
  Q 251.82 183.18 236.17 193.48
  A 0.69 0.63 -26.4 0 0 235.88 194.23
  Q 236.70 196.78 239.75 196.77
  Q 251.13 196.75 262.50 196.75
  Q 262.59 196.75 264.50 196.65
  Q 268.28 196.44 267.64 199.78"
/>
<path stroke="#ffe276" vector-effect="non-scaling-stroke" d="
  M 267.64 199.78
  Q 259.73 202.52 249.75 203.75
  Q 236.56 205.37 226.25 205.33
  Q 180.58 205.16 146.27 234.52"
/>
<path stroke="#ffea9c" vector-effect="non-scaling-stroke" d="
  M 146.27 234.52
  L 137.35 241.83"
/>
<path stroke="#ffe998" vector-effect="non-scaling-stroke" d="
  M 229.97 272.35
  Q 229.30 267.62 226.26 265.01
  Q 223.46 262.62 219.08 262.61
  Q 212.72 262.59 210.04 268.21
  Q 208.23 271.98 209.47 275.54
  Q 210.73 279.16 214.41 281.79"
/>
<path stroke="#ffda56" vector-effect="non-scaling-stroke" d="
  M 146.27 234.52
  Q 147.10 251.78 146.85 268.50
  Q 146.77 273.69 150.31 276.19
  Q 157.45 281.23 166.40 283.62
  Q 174.21 285.70 183.69 286.33
  Q 199.34 287.37 214.41 281.79"
/>
<path stroke="#fff1be" vector-effect="non-scaling-stroke" d="
  M 214.41 281.79
  Q 227.50 285.32 229.97 272.35"
/>
<path stroke="#ffda56" vector-effect="non-scaling-stroke" d="
  M 229.97 272.35
  Q 232.16 272.56 232.44 269.94
  Q 232.67 267.77 232.33 258.43
  A 0.52 0.51 88.8 0 0 231.82 257.93
  L 174.55 257.76
  A 0.81 0.81 0.4 0 1 173.75 256.95
  L 173.68 230.80
  A 0.80 0.79 -90.0 0 1 174.47 230.00
  Q 218.88 230.00 263.25 230.24
  Q 265.14 230.25 270.75 230.00
  Q 277.39 229.71 280.07 224.38
  Q 285.79 212.97 288.50 200.50
  Q 289.37 196.49 289.43 189.51
  A 1.05 0.76 -76.0 0 0 289.12 188.73
  L 288.75 188.46"
/>
<path stroke="#ffe686" vector-effect="non-scaling-stroke" d="
  M 289.37 187.34
  L 288.75 188.46"
/>
<path stroke="#ffde60" vector-effect="non-scaling-stroke" d="
  M 288.75 188.46
  Q 279.16 196.11 267.64 199.78"
/>
</g>
<path fill="#274d71" d="
  M 242.54 128.25
  Q 241.92 137.88 242.25 144.00
  Q 243.42 165.54 227.54 177.41
  Q 222.88 180.88 217.76 182.31
  Q 212.58 183.75 206.75 183.75
  Q 183.43 183.75 160.10 183.75
  Q 154.68 183.75 151.06 184.95
  Q 139.52 188.80 132.35 199.13
  Q 126.95 206.90 127.50 217.75
  Q 127.72 222.15 127.38 239.40
  Q 111.87 238.71 107.50 239.00
  Q 101.17 239.42 94.88 238.88
  Q 88.90 238.37 84.52 236.11
  Q 74.01 230.66 69.50 219.50
  Q 63.42 204.46 61.74 186.66
  Q 61.73 186.51 60.74 180.93
  Q 60.24 178.13 60.75 175.30
  Q 61.47 171.29 61.49 171.14
  Q 63.82 152.29 72.25 136.00
  Q 74.70 131.27 79.06 126.56
  Q 83.20 122.10 89.42 120.18
  Q 93.30 118.99 101.21 118.89
  Q 109.49 118.78 117.57 118.93
  A 0.92 0.91 -89.4 0 0 118.50 118.01
  Q 118.50 109.86 118.50 101.84
  Q 118.50 94.17 119.89 90.35
  Q 122.18 84.08 127.56 79.31
  Q 132.42 75.01 137.32 72.59
  Q 145.17 68.71 153.56 66.51
  Q 161.83 64.35 170.45 63.00
  Q 181.58 61.27 191.75 62.75
  Q 202.80 64.36 213.49 67.52
  Q 223.74 70.55 232.04 77.22
  Q 238.50 82.42 240.97 89.88
  Q 242.24 93.71 242.19 101.78
  Q 242.13 115.02 242.54 128.25
  Z
  M 128.29 101.50
  L 128.18 118.36
  A 0.64 0.64 89.8 0 0 128.82 119.00
  L 185.93 119.31
  A 0.51 0.50 0.0 0 1 186.44 119.81
  L 186.56 127.57
  A 0.58 0.57 -4.0 0 1 186.06 128.14
  Q 182.58 128.62 179.09 128.48
  Q 173.50 128.24 173.41 128.24
  Q 136.83 128.09 100.26 128.45
  Q 94.09 128.51 90.97 129.92
  Q 85.12 132.57 81.69 138.94
  Q 71.34 158.14 70.93 179.03
  Q 71.64 196.34 77.27 212.74
  Q 79.39 218.93 82.81 222.94
  Q 88.83 229.97 98.75 229.99
  Q 107.38 230.00 117.25 230.00
  A 0.77 0.76 -90.0 0 0 118.01 229.23
  Q 117.95 222.86 118.07 216.92
  Q 118.23 209.36 119.58 204.74
  Q 122.48 194.78 129.69 187.56
  Q 135.86 181.38 143.44 177.90
  Q 151.23 174.33 160.25 174.31
  Q 184.25 174.25 208.25 174.44
  Q 213.48 174.48 216.94 172.94
  Q 227.04 168.43 230.89 158.44
  Q 232.50 154.28 232.68 146.84
  Q 233.03 132.04 232.46 117.25
  Q 232.69 113.39 232.75 100.25
  Q 232.78 93.05 229.17 87.90
  Q 226.87 84.62 221.96 81.54
  Q 217.66 78.84 213.19 77.31
  Q 179.25 65.74 145.62 79.01
  Q 136.39 82.65 131.31 89.06
  Q 127.41 93.99 128.29 101.50
  Z"
/>
<path fill="#6792b6" d="
  M 232.46 117.25
  L 223.50 124.04
  Q 223.00 123.55 223.00 122.00
  Q 223.01 113.19 223.00 104.38
  Q 223.00 97.49 222.81 96.63
  Q 221.93 92.50 217.94 89.99
  Q 213.49 87.20 207.06 85.19
  Q 181.10 77.07 155.93 85.37
  Q 146.39 81.66 141.50 90.25
  Q 139.73 93.37 140.96 97.00
  L 138.55 96.17
  A 0.52 0.48 -72.7 0 0 137.92 96.54
  Q 137.11 99.39 137.48 102.62
  L 130.49 102.45
  A 1.42 1.19 -20.3 0 1 129.65 102.15
  Q 129.07 101.65 128.29 101.50
  Q 127.41 93.99 131.31 89.06
  Q 136.39 82.65 145.62 79.01
  Q 179.25 65.74 213.19 77.31
  Q 217.66 78.84 221.96 81.54
  Q 226.87 84.62 229.17 87.90
  Q 232.78 93.05 232.75 100.25
  Q 232.69 113.39 232.46 117.25
  Z"
/>
<path fill="#5585ad" d="
  M 223.50 124.04
  L 222.96 125.25
  Q 210.85 133.05 196.63 137.18
  L 196.00 110.95
  A 1.23 1.20 89.3 0 0 194.80 109.75
  L 138.85 110.02
  A 1.06 1.03 -1.4 0 1 137.79 109.04
  L 137.48 102.62
  Q 137.11 99.39 137.92 96.54
  A 0.52 0.48 -72.7 0 1 138.55 96.17
  L 140.96 97.00
  Q 143.69 104.28 150.37 104.47
  Q 154.90 104.60 158.06 101.88
  Q 161.61 98.82 161.25 93.50
  Q 160.91 88.55 155.93 85.37
  Q 181.10 77.07 207.06 85.19
  Q 213.49 87.20 217.94 89.99
  Q 221.93 92.50 222.81 96.63
  Q 223.00 97.49 223.00 104.38
  Q 223.01 113.19 223.00 122.00
  Q 223.00 123.55 223.50 124.04
  Z"
/>
<path fill="#ffffff" d="
  M 155.93 85.37
  Q 160.91 88.55 161.25 93.50
  Q 161.61 98.82 158.06 101.88
  Q 154.90 104.60 150.37 104.47
  Q 143.69 104.28 140.96 97.00
  Q 139.73 93.37 141.50 90.25
  Q 146.39 81.66 155.93 85.37
  Z"
/>
<path fill="#80a6c5" d="
  M 128.29 101.50
  Q 129.07 101.65 129.65 102.15
  A 1.42 1.19 -20.3 0 0 130.49 102.45
  L 137.48 102.62
  L 137.79 109.04
  A 1.06 1.03 -1.4 0 0 138.85 110.02
  L 194.80 109.75
  A 1.23 1.20 89.3 0 1 196.00 110.95
  L 196.63 137.18
  Q 175.61 140.19 154.25 140.29
  Q 153.62 139.89 152.70 138.29
  A 0.78 0.77 -17.6 0 0 151.93 137.90
  Q 147.88 138.34 144.75 138.29
  Q 122.38 137.95 100.00 137.55
  Q 92.71 137.43 89.56 143.31
  Q 83.16 155.29 81.18 169.93
  Q 81.04 170.49 80.46 170.75
  L 70.93 179.03
  Q 71.34 158.14 81.69 138.94
  Q 85.12 132.57 90.97 129.92
  Q 94.09 128.51 100.26 128.45
  Q 136.83 128.09 173.41 128.24
  Q 173.50 128.24 179.09 128.48
  Q 182.58 128.62 186.06 128.14
  A 0.58 0.57 -4.0 0 0 186.56 127.57
  L 186.44 119.81
  A 0.51 0.50 0.0 0 0 185.93 119.31
  L 128.82 119.00
  A 0.64 0.64 -89.8 0 1 128.18 118.36
  L 128.29 101.50
  Z"
/>
<path fill="#5789b3" d="
  M 232.46 117.25
  Q 233.03 132.04 232.68 146.84
  Q 232.50 154.28 230.89 158.44
  Q 227.04 168.43 216.94 172.94
  Q 213.48 174.48 208.25 174.44
  Q 184.25 174.25 160.25 174.31
  Q 151.23 174.33 143.44 177.90
  Q 135.86 181.38 129.69 187.56
  Q 122.48 194.78 119.58 204.74
  Q 118.23 209.36 118.07 216.92
  Q 117.95 222.86 118.01 229.23
  A 0.77 0.76 -90.0 0 1 117.25 230.00
  Q 107.38 230.00 98.75 229.99
  Q 88.83 229.97 82.81 222.94
  Q 79.39 218.93 77.27 212.74
  Q 71.64 196.34 70.93 179.03
  L 80.46 170.75
  Q 79.84 184.66 82.96 198.15
  Q 84.27 203.81 85.06 206.35
  Q 86.31 210.40 88.34 214.18
  Q 91.86 220.74 99.50 220.74
  Q 103.86 220.74 108.19 220.24
  A 0.52 0.52 -4.6 0 0 108.66 219.69
  Q 107.38 190.72 130.06 174.56
  Q 144.25 164.46 162.34 164.97
  Q 171.06 165.22 171.17 165.22
  Q 188.21 165.11 205.25 165.00
  Q 208.79 164.98 211.27 164.61
  Q 214.23 164.17 216.63 162.21
  Q 221.55 158.19 222.71 152.12
  Q 223.00 150.60 223.11 140.85
  Q 223.20 133.05 222.96 125.25
  L 223.50 124.04
  L 232.46 117.25
  Z"
/>
<path fill="#3672a5" d="
  M 222.96 125.25
  Q 223.20 133.05 223.11 140.85
  Q 223.00 150.60 222.71 152.12
  Q 221.55 158.19 216.63 162.21
  Q 214.23 164.17 211.27 164.61
  Q 208.79 164.98 205.25 165.00
  Q 188.21 165.11 171.17 165.22
  Q 171.06 165.22 162.34 164.97
  Q 144.25 164.46 130.06 174.56
  Q 107.38 190.72 108.66 219.69
  A 0.52 0.52 -4.6 0 1 108.19 220.24
  Q 103.86 220.74 99.50 220.74
  Q 91.86 220.74 88.34 214.18
  Q 86.31 210.40 85.06 206.35
  Q 84.27 203.81 82.96 198.15
  Q 79.84 184.66 80.46 170.75
  Q 81.04 170.49 81.18 169.93
  Q 112.77 143.19 154.25 140.29
  Q 175.61 140.19 196.63 137.18
  Q 210.85 133.05 222.96 125.25
  Z"
/>
<path fill="#bc9400" d="
  M 242.54 128.25
  Q 255.35 128.25 268.16 128.25
  Q 276.83 128.25 281.18 129.65
  Q 292.11 133.16 298.13 143.85
  Q 301.08 149.09 302.80 154.85
  Q 305.83 165.03 307.66 175.48
  Q 307.66 175.51 308.04 179.56
  Q 308.26 181.97 309.25 185.50
  Q 310.09 188.49 309.33 192.50
  Q 308.19 198.54 308.16 198.71
  Q 306.41 210.81 301.31 223.56
  Q 299.02 229.31 296.32 233.91
  Q 293.07 239.47 289.09 242.67
  Q 281.21 249.02 270.25 248.87
  Q 261.12 248.75 252.00 248.75
  A 0.50 0.50 0.0 0 0 251.50 249.25
  Q 251.50 258.87 251.50 268.50
  Q 251.50 270.96 250.38 275.18
  Q 249.45 278.71 247.80 281.39
  Q 241.92 290.99 230.81 295.81
  Q 197.43 310.30 161.50 301.50
  Q 150.46 298.79 141.56 293.19
  Q 132.07 287.21 128.80 277.12
  Q 127.51 273.15 127.52 265.72
  Q 127.55 252.64 127.38 239.40
  Q 127.72 222.15 127.50 217.75
  Q 126.95 206.90 132.35 199.13
  Q 139.52 188.80 151.06 184.95
  Q 154.68 183.75 160.10 183.75
  Q 183.43 183.75 206.75 183.75
  Q 212.58 183.75 217.76 182.31
  Q 222.88 180.88 227.54 177.41
  Q 243.42 165.54 242.25 144.00
  Q 241.92 137.88 242.54 128.25
  Z
  M 137.35 241.83
  Q 137.06 254.54 137.36 267.38
  Q 137.51 273.60 139.03 276.87
  Q 141.57 282.35 147.11 285.68
  Q 152.57 288.96 157.81 290.69
  Q 193.63 302.50 227.92 286.64
  Q 235.77 283.00 239.19 277.69
  Q 241.75 273.70 241.75 268.25
  Q 241.75 258.75 241.75 249.49
  A 0.99 0.99 0.0 0 0 240.76 248.50
  L 183.94 248.50
  A 0.69 0.69 0.0 0 1 183.25 247.81
  L 183.25 239.68
  A 0.68 0.68 0.0 0 1 183.93 239.00
  Q 224.44 238.94 265.13 239.24
  Q 265.17 239.24 268.87 239.38
  Q 283.21 239.93 289.56 226.31
  Q 297.18 209.98 298.82 194.51
  Q 299.44 188.60 298.46 182.75
  Q 297.39 165.79 291.00 150.75
  Q 287.63 142.83 280.30 139.56
  Q 276.82 138.00 270.44 137.85
  Q 262.12 137.64 253.15 137.76
  A 1.49 1.49 -3.4 0 0 251.69 139.40
  Q 252.46 147.13 251.47 154.43
  Q 250.43 162.05 246.93 168.56
  Q 238.92 183.44 222.54 190.27
  Q 216.81 192.66 209.25 192.75
  Q 187.14 193.02 165.03 193.20
  Q 155.38 193.27 151.16 194.78
  Q 142.04 198.02 138.77 207.10
  Q 137.24 211.36 137.23 220.60
  Q 137.22 231.16 137.35 241.83
  Z"
/>
<path fill="#719ec2" d="
  M 154.25 140.29
  Q 112.77 143.19 81.18 169.93
  Q 83.16 155.29 89.56 143.31
  Q 92.71 137.43 100.00 137.55
  Q 122.38 137.95 144.75 138.29
  Q 147.88 138.34 151.93 137.90
  A 0.78 0.77 -17.6 0 1 152.70 138.29
  Q 153.62 139.89 154.25 140.29
  Z"
/>
<path fill="#fff2bc" d="
  M 298.46 182.75
  L 296.80 182.42
  A 0.93 0.92 28.1 0 0 295.96 182.67
  Q 293.20 185.45 289.37 187.34
  Q 288.55 171.10 282.69 155.56
  Q 281.28 151.84 278.47 149.61
  Q 276.01 147.66 271.97 147.09
  Q 267.34 146.43 261.92 147.19
  A 0.82 0.81 -5.0 0 0 261.21 148.03
  Q 261.62 157.63 258.55 165.63
  Q 251.82 183.18 236.17 193.48
  A 0.69 0.63 -26.4 0 0 235.88 194.23
  Q 236.70 196.78 239.75 196.77
  Q 251.13 196.75 262.50 196.75
  Q 262.59 196.75 264.50 196.65
  Q 268.28 196.44 267.64 199.78
  Q 259.73 202.52 249.75 203.75
  Q 236.56 205.37 226.25 205.33
  Q 180.58 205.16 146.27 234.52
  L 137.35 241.83
  Q 137.22 231.16 137.23 220.60
  Q 137.24 211.36 138.77 207.10
  Q 142.04 198.02 151.16 194.78
  Q 155.38 193.27 165.03 193.20
  Q 187.14 193.02 209.25 192.75
  Q 216.81 192.66 222.54 190.27
  Q 238.92 183.44 246.93 168.56
  Q 250.43 162.05 251.47 154.43
  Q 252.46 147.13 251.69 139.40
  A 1.49 1.49 -3.4 0 1 253.15 137.76
  Q 262.12 137.64 270.44 137.85
  Q 276.82 138.00 280.30 139.56
  Q 287.63 142.83 291.00 150.75
  Q 297.39 165.79 298.46 182.75
  Z"
/>
<path fill="#ffea90" d="
  M 289.37 187.34
  L 288.75 188.46
  Q 279.16 196.11 267.64 199.78
  Q 268.28 196.44 264.50 196.65
  Q 262.59 196.75 262.50 196.75
  Q 251.13 196.75 239.75 196.77
  Q 236.70 196.78 235.88 194.23
  A 0.69 0.63 -26.4 0 1 236.17 193.48
  Q 251.82 183.18 258.55 165.63
  Q 261.62 157.63 261.21 148.03
  A 0.82 0.81 -5.0 0 1 261.92 147.19
  Q 267.34 146.43 271.97 147.09
  Q 276.01 147.66 278.47 149.61
  Q 281.28 151.84 282.69 155.56
  Q 288.55 171.10 289.37 187.34
  Z"
/>
<path fill="#ffe27c" d="
  M 298.46 182.75
  Q 299.44 188.60 298.82 194.51
  Q 297.18 209.98 289.56 226.31
  Q 283.21 239.93 268.87 239.38
  Q 265.17 239.24 265.13 239.24
  Q 224.44 238.94 183.93 239.00
  A 0.68 0.68 0.0 0 0 183.25 239.68
  L 183.25 247.81
  A 0.69 0.69 0.0 0 0 183.94 248.50
  L 240.76 248.50
  A 0.99 0.99 0.0 0 1 241.75 249.49
  Q 241.75 258.75 241.75 268.25
  Q 241.75 273.70 239.19 277.69
  Q 235.77 283.00 227.92 286.64
  Q 193.63 302.50 157.81 290.69
  Q 152.57 288.96 147.11 285.68
  Q 141.57 282.35 139.03 276.87
  Q 137.51 273.60 137.36 267.38
  Q 137.06 254.54 137.35 241.83
  L 146.27 234.52
  Q 147.10 251.78 146.85 268.50
  Q 146.77 273.69 150.31 276.19
  Q 157.45 281.23 166.40 283.62
  Q 174.21 285.70 183.69 286.33
  Q 199.34 287.37 214.41 281.79
  Q 227.50 285.32 229.97 272.35
  Q 232.16 272.56 232.44 269.94
  Q 232.67 267.77 232.33 258.43
  A 0.52 0.51 88.8 0 0 231.82 257.93
  L 174.55 257.76
  A 0.81 0.81 0.4 0 1 173.75 256.95
  L 173.68 230.80
  A 0.80 0.79 -90.0 0 1 174.47 230.00
  Q 218.88 230.00 263.25 230.24
  Q 265.14 230.25 270.75 230.00
  Q 277.39 229.71 280.07 224.38
  Q 285.79 212.97 288.50 200.50
  Q 289.37 196.49 289.43 189.51
  A 1.05 0.76 -76.0 0 0 289.12 188.73
  L 288.75 188.46
  L 289.37 187.34
  Q 293.20 185.45 295.96 182.67
  A 0.93 0.92 28.1 0 1 296.80 182.42
  L 298.46 182.75
  Z"
/>
<path fill="#ffd230" d="
  M 288.75 188.46
  L 289.12 188.73
  A 1.05 0.76 -76.0 0 1 289.43 189.51
  Q 289.37 196.49 288.50 200.50
  Q 285.79 212.97 280.07 224.38
  Q 277.39 229.71 270.75 230.00
  Q 265.14 230.25 263.25 230.24
  Q 218.88 230.00 174.47 230.00
  A 0.80 0.79 90.0 0 0 173.68 230.80
  L 173.75 256.95
  A 0.81 0.81 0.4 0 0 174.55 257.76
  L 231.82 257.93
  A 0.52 0.51 88.8 0 1 232.33 258.43
  Q 232.67 267.77 232.44 269.94
  Q 232.16 272.56 229.97 272.35
  Q 229.30 267.62 226.26 265.01
  Q 223.46 262.62 219.08 262.61
  Q 212.72 262.59 210.04 268.21
  Q 208.23 271.98 209.47 275.54
  Q 210.73 279.16 214.41 281.79
  Q 199.34 287.37 183.69 286.33
  Q 174.21 285.70 166.40 283.62
  Q 157.45 281.23 150.31 276.19
  Q 146.77 273.69 146.85 268.50
  Q 147.10 251.78 146.27 234.52
  Q 180.58 205.16 226.25 205.33
  Q 236.56 205.37 249.75 203.75
  Q 259.73 202.52 267.64 199.78
  Q 279.16 196.11 288.75 188.46
  Z"
/>
<path fill="#ffffff" d="
  M 229.97 272.35
  Q 227.50 285.32 214.41 281.79
  Q 210.73 279.16 209.47 275.54
  Q 208.23 271.98 210.04 268.21
  Q 212.72 262.59 219.08 262.61
  Q 223.46 262.62 226.26 265.01
  Q 229.30 267.62 229.97 272.35
  Z"
/>
</svg>
